<svg width="390" height="390" viewBox="0 0 390 390" fill="none" xmlns="http://www.w3.org/2000/svg">
<path d="M293.492 200.752C291.228 198.487 288.54 196.69 285.582 195.465C282.624 194.239 279.453 193.608 276.251 193.608C273.048 193.608 269.877 194.239 266.919 195.465C263.961 196.69 261.273 198.487 259.009 200.752L219.376 240.386V97.4999C219.376 91.0352 216.808 84.8353 212.236 80.2641C207.665 75.6929 201.465 73.1249 195.001 73.1249C188.536 73.1249 182.336 75.6929 177.765 80.2641C173.194 84.8353 170.626 91.0352 170.626 97.4999V240.386L130.992 200.752C126.421 196.18 120.222 193.61 113.756 193.608C107.291 193.607 101.09 196.174 96.5175 200.744C91.9448 205.315 89.3751 211.515 89.3735 217.98C89.372 224.445 91.9388 230.646 96.5093 235.219L154.782 293.491C160.063 298.773 166.333 302.963 173.234 305.822C180.135 308.68 187.531 310.152 195.001 310.152C202.47 310.152 209.866 308.68 216.767 305.822C223.668 302.963 229.938 298.773 235.219 293.491L293.492 235.219C298.061 230.648 300.629 224.449 300.629 217.986C300.629 211.522 298.061 205.323 293.492 200.752V200.752Z" fill="#FBDE66"/>
</svg>
