<svg width="765" height="581" viewBox="0 0 765 581" fill="none" xmlns="http://www.w3.org/2000/svg">
<path d="M0 513H641.5" stroke="#9F9F9F" stroke-width="7"/>
<rect x="62" y="389" width="20" height="124" fill="#576238"/>
<rect x="260" y="307" width="20" height="206" fill="#576238"/>
<rect x="458" y="187" width="20" height="326" fill="#576238"/>
<rect x="163" y="347" width="20" height="166" fill="#576238"/>
<rect x="361" y="237" width="20" height="276" fill="#576238"/>
<rect x="559" y="107" width="20" height="406" fill="#576238"/>
<path d="M39.2051 551V549.164L44.2051 544.34C45.6309 542.914 46.373 542.074 46.373 540.883C46.373 539.574 45.3379 538.734 43.9512 538.734C42.4863 538.734 41.5488 539.652 41.5684 541.078H39.1465C39.127 538.402 41.1387 536.664 43.9707 536.664C46.8613 536.664 48.8145 538.383 48.8145 540.766C48.8145 542.367 48.0332 543.656 45.2598 546.273L42.7402 548.773V548.871H49.0293V551H39.2051ZM56.4707 551.195C53.0723 551.195 51.041 548.559 51.041 543.93C51.041 539.32 53.0723 536.664 56.4707 536.664C59.8496 536.664 61.9004 539.32 61.9004 543.93C61.9004 548.559 59.8691 551.195 56.4707 551.195ZM56.4707 549.066C58.248 549.066 59.3418 547.328 59.3418 543.93C59.3418 540.551 58.2285 538.773 56.4707 538.773C54.7129 538.773 53.5996 540.551 53.5996 543.93C53.5996 547.328 54.6934 549.066 56.4707 549.066ZM64.0293 551V549.164L69.0293 544.34C70.4551 542.914 71.1973 542.074 71.1973 540.883C71.1973 539.574 70.1621 538.734 68.7754 538.734C67.3105 538.734 66.373 539.652 66.3926 541.078H63.9707C63.9512 538.402 65.9629 536.664 68.7949 536.664C71.6855 536.664 73.6387 538.383 73.6387 540.766C73.6387 542.367 72.8574 543.656 70.084 546.273L67.5645 548.773V548.871H73.8535V551H64.0293ZM81.2949 551.195C77.8965 551.195 75.8652 548.559 75.8652 543.93C75.8652 539.32 77.8965 536.664 81.2949 536.664C84.6738 536.664 86.7246 539.32 86.7246 543.93C86.7246 548.559 84.6934 551.195 81.2949 551.195ZM81.2949 549.066C83.0723 549.066 84.166 547.328 84.166 543.93C84.166 540.551 83.0527 538.773 81.2949 538.773C79.5371 538.773 78.4238 540.551 78.4238 543.93C78.4238 547.328 79.5176 549.066 81.2949 549.066ZM103.053 535.102V548.109H100.885V542.23H96.2754V540.512H100.885V538.91H96.2754V537.191H100.885V535.102H103.053ZM103.502 550.629V552.387H91.4512V546.957H93.6387V550.629H103.502ZM91.4316 536.273V543.91C93.6777 543.881 95.7969 543.744 98.1699 543.324L98.3848 545.082C95.6699 545.59 93.2871 545.688 90.6699 545.707H89.2832V536.273H91.4316Z" fill="black"/>
<path d="M140.42 551V549.164L145.42 544.34C146.846 542.914 147.588 542.074 147.588 540.883C147.588 539.574 146.553 538.734 145.166 538.734C143.701 538.734 142.764 539.652 142.783 541.078H140.361C140.342 538.402 142.354 536.664 145.186 536.664C148.076 536.664 150.029 538.383 150.029 540.766C150.029 542.367 149.248 543.656 146.475 546.273L143.955 548.773V548.871H150.244V551H140.42ZM157.686 551.195C154.287 551.195 152.256 548.559 152.256 543.93C152.256 539.32 154.287 536.664 157.686 536.664C161.064 536.664 163.115 539.32 163.115 543.93C163.115 548.559 161.084 551.195 157.686 551.195ZM157.686 549.066C159.463 549.066 160.557 547.328 160.557 543.93C160.557 540.551 159.443 538.773 157.686 538.773C155.928 538.773 154.814 540.551 154.814 543.93C154.814 547.328 155.908 549.066 157.686 549.066ZM165.244 551V549.164L170.244 544.34C171.67 542.914 172.412 542.074 172.412 540.883C172.412 539.574 171.377 538.734 169.99 538.734C168.525 538.734 167.588 539.652 167.607 541.078H165.186C165.166 538.402 167.178 536.664 170.01 536.664C172.9 536.664 174.854 538.383 174.854 540.766C174.854 542.367 174.072 543.656 171.299 546.273L168.779 548.773V548.871H175.068V551H165.244ZM182.314 551.195C179.482 551.195 177.412 549.516 177.334 547.172H179.814C179.893 548.324 180.967 549.145 182.314 549.145C183.896 549.145 185.029 547.992 185.029 546.43C185.029 544.809 183.857 543.656 182.236 543.656C181.143 543.637 180.342 544.027 179.893 544.867H177.529L178.389 536.859H186.748V538.988H180.479L180.049 542.738H180.186C180.732 542.113 181.768 541.664 182.92 541.664C185.557 541.664 187.49 543.637 187.49 546.352C187.49 549.184 185.361 551.195 182.314 551.195ZM203.838 535.102V548.109H201.67V542.23H197.061V540.512H201.67V538.91H197.061V537.191H201.67V535.102H203.838ZM204.287 550.629V552.387H192.236V546.957H194.424V550.629H204.287ZM192.217 536.273V543.91C194.463 543.881 196.582 543.744 198.955 543.324L199.17 545.082C196.455 545.59 194.072 545.688 191.455 545.707H190.068V536.273H192.217Z" fill="black"/>
<path d="M236.412 551V549.164L241.412 544.34C242.838 542.914 243.58 542.074 243.58 540.883C243.58 539.574 242.545 538.734 241.158 538.734C239.693 538.734 238.756 539.652 238.775 541.078H236.354C236.334 538.402 238.346 536.664 241.178 536.664C244.068 536.664 246.021 538.383 246.021 540.766C246.021 542.367 245.24 543.656 242.467 546.273L239.947 548.773V548.871H246.236V551H236.412ZM253.678 551.195C250.279 551.195 248.248 548.559 248.248 543.93C248.248 539.32 250.279 536.664 253.678 536.664C257.057 536.664 259.107 539.32 259.107 543.93C259.107 548.559 257.076 551.195 253.678 551.195ZM253.678 549.066C255.455 549.066 256.549 547.328 256.549 543.93C256.549 540.551 255.436 538.773 253.678 538.773C251.92 538.773 250.807 540.551 250.807 543.93C250.807 547.328 251.9 549.066 253.678 549.066ZM266.373 551.195C263.346 551.195 261.197 549.555 261.139 547.172H263.697C263.775 548.305 264.908 549.047 266.373 549.047C267.936 549.047 269.049 548.188 269.049 546.938C269.049 545.668 267.955 544.75 266.119 544.75H264.85V542.797H266.119C267.623 542.797 268.678 541.957 268.658 540.727C268.678 539.535 267.779 538.734 266.393 538.734C265.064 538.734 263.912 539.477 263.873 540.668H261.432C261.49 538.285 263.639 536.664 266.412 536.664C269.283 536.664 271.139 538.422 271.119 540.59C271.139 542.172 270.084 543.324 268.541 543.637V543.754C270.533 544.027 271.666 545.297 271.646 547.074C271.666 549.457 269.439 551.195 266.373 551.195ZM279.088 551.195C275.689 551.195 273.658 548.559 273.658 543.93C273.658 539.32 275.689 536.664 279.088 536.664C282.467 536.664 284.518 539.32 284.518 543.93C284.518 548.559 282.486 551.195 279.088 551.195ZM279.088 549.066C280.865 549.066 281.959 547.328 281.959 543.93C281.959 540.551 280.846 538.773 279.088 538.773C277.33 538.773 276.217 540.551 276.217 543.93C276.217 547.328 277.311 549.066 279.088 549.066ZM300.846 535.102V548.109H298.678V542.23H294.068V540.512H298.678V538.91H294.068V537.191H298.678V535.102H300.846ZM301.295 550.629V552.387H289.244V546.957H291.432V550.629H301.295ZM289.225 536.273V543.91C291.471 543.881 293.59 543.744 295.963 543.324L296.178 545.082C293.463 545.59 291.08 545.688 288.463 545.707H287.076V536.273H289.225Z" fill="black"/>
<path d="M338.275 551V549.164L343.275 544.34C344.701 542.914 345.443 542.074 345.443 540.883C345.443 539.574 344.408 538.734 343.021 538.734C341.557 538.734 340.619 539.652 340.639 541.078H338.217C338.197 538.402 340.209 536.664 343.041 536.664C345.932 536.664 347.885 538.383 347.885 540.766C347.885 542.367 347.104 543.656 344.33 546.273L341.811 548.773V548.871H348.1V551H338.275ZM355.541 551.195C352.143 551.195 350.111 548.559 350.111 543.93C350.111 539.32 352.143 536.664 355.541 536.664C358.92 536.664 360.971 539.32 360.971 543.93C360.971 548.559 358.939 551.195 355.541 551.195ZM355.541 549.066C357.318 549.066 358.412 547.328 358.412 543.93C358.412 540.551 357.299 538.773 355.541 538.773C353.783 538.773 352.67 540.551 352.67 543.93C352.67 547.328 353.764 549.066 355.541 549.066ZM362.846 548.363V546.332L368.959 536.859H372.123V546.273H373.979V548.363H372.123V551H369.701V548.363H362.846ZM365.443 546.273H369.74V539.75H369.584L365.443 546.176V546.273ZM381.225 551.195C377.826 551.195 375.795 548.559 375.795 543.93C375.795 539.32 377.826 536.664 381.225 536.664C384.604 536.664 386.654 539.32 386.654 543.93C386.654 548.559 384.623 551.195 381.225 551.195ZM381.225 549.066C383.002 549.066 384.096 547.328 384.096 543.93C384.096 540.551 382.982 538.773 381.225 538.773C379.467 538.773 378.354 540.551 378.354 543.93C378.354 547.328 379.447 549.066 381.225 549.066ZM402.982 535.102V548.109H400.814V542.23H396.205V540.512H400.814V538.91H396.205V537.191H400.814V535.102H402.982ZM403.432 550.629V552.387H391.381V546.957H393.568V550.629H403.432ZM391.361 536.273V543.91C393.607 543.881 395.727 543.744 398.1 543.324L398.314 545.082C395.6 545.59 393.217 545.688 390.6 545.707H389.213V536.273H391.361Z" fill="black"/>
<path d="M435.559 551V549.164L440.559 544.34C441.984 542.914 442.727 542.074 442.727 540.883C442.727 539.574 441.691 538.734 440.305 538.734C438.84 538.734 437.902 539.652 437.922 541.078H435.5C435.48 538.402 437.492 536.664 440.324 536.664C443.215 536.664 445.168 538.383 445.168 540.766C445.168 542.367 444.387 543.656 441.613 546.273L439.094 548.773V548.871H445.383V551H435.559ZM452.824 551.195C449.426 551.195 447.395 548.559 447.395 543.93C447.395 539.32 449.426 536.664 452.824 536.664C456.203 536.664 458.254 539.32 458.254 543.93C458.254 548.559 456.223 551.195 452.824 551.195ZM452.824 549.066C454.602 549.066 455.695 547.328 455.695 543.93C455.695 540.551 454.582 538.773 452.824 538.773C451.066 538.773 449.953 540.551 449.953 543.93C449.953 547.328 451.047 549.066 452.824 549.066ZM465.402 551.195C462.57 551.195 460.5 549.516 460.422 547.172H462.902C462.98 548.324 464.055 549.145 465.402 549.145C466.984 549.145 468.117 547.992 468.117 546.43C468.117 544.809 466.945 543.656 465.324 543.656C464.23 543.637 463.43 544.027 462.98 544.867H460.617L461.477 536.859H469.836V538.988H463.566L463.137 542.738H463.273C463.82 542.113 464.855 541.664 466.008 541.664C468.645 541.664 470.578 543.637 470.578 546.352C470.578 549.184 468.449 551.195 465.402 551.195ZM477.941 551.195C474.543 551.195 472.512 548.559 472.512 543.93C472.512 539.32 474.543 536.664 477.941 536.664C481.32 536.664 483.371 539.32 483.371 543.93C483.371 548.559 481.34 551.195 477.941 551.195ZM477.941 549.066C479.719 549.066 480.812 547.328 480.812 543.93C480.812 540.551 479.699 538.773 477.941 538.773C476.184 538.773 475.07 540.551 475.07 543.93C475.07 547.328 476.164 549.066 477.941 549.066ZM499.699 535.102V548.109H497.531V542.23H492.922V540.512H497.531V538.91H492.922V537.191H497.531V535.102H499.699ZM500.148 550.629V552.387H488.098V546.957H490.285V550.629H500.148ZM488.078 536.273V543.91C490.324 543.881 492.443 543.744 494.816 543.324L495.031 545.082C492.316 545.59 489.934 545.688 487.316 545.707H485.93V536.273H488.078Z" fill="black"/>
<path d="M536.402 551V549.164L541.402 544.34C542.828 542.914 543.57 542.074 543.57 540.883C543.57 539.574 542.535 538.734 541.148 538.734C539.684 538.734 538.746 539.652 538.766 541.078H536.344C536.324 538.402 538.336 536.664 541.168 536.664C544.059 536.664 546.012 538.383 546.012 540.766C546.012 542.367 545.23 543.656 542.457 546.273L539.938 548.773V548.871H546.227V551H536.402ZM553.668 551.195C550.27 551.195 548.238 548.559 548.238 543.93C548.238 539.32 550.27 536.664 553.668 536.664C557.047 536.664 559.098 539.32 559.098 543.93C559.098 548.559 557.066 551.195 553.668 551.195ZM553.668 549.066C555.445 549.066 556.539 547.328 556.539 543.93C556.539 540.551 555.426 538.773 553.668 538.773C551.91 538.773 550.797 540.551 550.797 543.93C550.797 547.328 551.891 549.066 553.668 549.066ZM566.52 551.195C563.766 551.176 560.992 549.535 561.012 544.32C561.012 539.477 563.219 536.664 566.676 536.664C569.41 536.664 571.285 538.383 571.598 540.668H569.078C568.824 539.594 567.965 538.871 566.676 538.871C564.625 538.871 563.473 540.688 563.473 543.656H563.609C564.332 542.445 565.699 541.723 567.242 541.723C569.781 541.723 571.734 543.637 571.734 546.312C571.734 549.125 569.645 551.215 566.52 551.195ZM566.52 549.145C568.102 549.145 569.273 547.914 569.273 546.371C569.273 544.867 568.121 543.656 566.559 543.656C564.977 543.656 563.766 544.906 563.746 546.391C563.766 547.875 564.918 549.145 566.52 549.145ZM579.098 551.195C575.699 551.195 573.668 548.559 573.668 543.93C573.668 539.32 575.699 536.664 579.098 536.664C582.477 536.664 584.527 539.32 584.527 543.93C584.527 548.559 582.496 551.195 579.098 551.195ZM579.098 549.066C580.875 549.066 581.969 547.328 581.969 543.93C581.969 540.551 580.855 538.773 579.098 538.773C577.34 538.773 576.227 540.551 576.227 543.93C576.227 547.328 577.32 549.066 579.098 549.066ZM600.855 535.102V548.109H598.688V542.23H594.078V540.512H598.688V538.91H594.078V537.191H598.688V535.102H600.855ZM601.305 550.629V552.387H589.254V546.957H591.441V550.629H601.305ZM589.234 536.273V543.91C591.48 543.881 593.6 543.744 595.973 543.324L596.188 545.082C593.473 545.59 591.09 545.688 588.473 545.707H587.086V536.273H589.234Z" fill="black"/>
<path d="M17.1523 73.3477V75.5938H10.5117V76.375H15.2578V81.1016H5.62891V81.5898H15.6875V83.8555H2.5625V79.0312H12.1719V78.582H2.58203V76.375H7.40625V75.5938H0.785156V73.3477H17.1523ZM10.4922 65.9258V67.1953H15.668V69.4609H11.0781C11.6934 70.1055 13.2363 70.7012 16.625 70.8086L15.7266 73.0938C12.2598 72.957 10.0723 72.1855 8.92969 71.0234C7.79688 72.1855 5.61914 72.957 2.11328 73.0938L1.27344 70.8086C4.61328 70.7012 6.13672 70.1055 6.78125 69.4609H2.23047V67.1953H7.36719V65.9258H10.4922ZM33.4609 65.8672V83.9922H30.2969V75.1055H27.5039V72.625H30.2969V65.8672H33.4609ZM25.1016 71.4141C25.1016 73.7578 26.1562 76.668 29.2812 78.0156L27.6406 80.3789C25.6484 79.5879 24.3398 78.0547 23.5586 76.2188C22.7969 78.1816 21.4883 79.832 19.457 80.6523L17.8359 78.2695C20.9219 76.9219 21.957 73.8555 21.9766 71.4141V71.1797H18.5V68.6992H21.9961V66.3359H25.1211V68.6992H28.5195V71.1797H25.1016V71.4141ZM42.3672 80.2422C41.5273 80.2422 40.8438 79.5586 40.8438 78.7188C40.8438 77.8984 41.5273 77.2148 42.3672 77.2148C43.168 77.2148 43.8711 77.8984 43.8711 78.7188C43.8711 79.5586 43.168 80.2422 42.3672 80.2422ZM42.3672 72.6641C41.5273 72.6641 40.8438 71.9805 40.8438 71.1406C40.8438 70.3203 41.5273 69.6367 42.3672 69.6367C43.168 69.6367 43.8711 70.3203 43.8711 71.1406C43.8711 71.9805 43.168 72.6641 42.3672 72.6641ZM66.5078 75.2617V76.9805H50.375V75.2617H57.3477V73.9531H52.4453V66.5508H64.5742V68.2305H54.6133V69.4414H64.1445V71.043H54.6133V72.293H64.7109V73.9531H59.5156V75.2617H66.5078ZM58.4414 77.957C62.3281 77.957 64.5352 78.9922 64.5547 80.8281C64.5352 82.7227 62.3281 83.7188 58.4414 83.7188C54.4961 83.7188 52.2891 82.7227 52.2891 80.8281C52.2891 78.9922 54.4961 77.957 58.4414 77.957ZM58.4414 79.5781C55.7852 79.5781 54.457 79.9883 54.457 80.8281C54.457 81.6875 55.7852 82.0977 58.4414 82.0977C61.0586 82.0977 62.3672 81.6875 62.3867 80.8281C62.3672 79.9883 61.0586 79.5781 58.4414 79.5781ZM82.9336 66.082V83.7383H80.8633V66.082H82.9336ZM79.2812 66.5117V82.8984H77.2109V77H74.457V75.2227H77.2109V72.6055H74.7695C73.9395 75.5352 72.0938 78.0547 68.793 80.0078L67.5234 78.4648C71.1855 76.3066 72.8652 73.543 73.1875 69.9883H68.4609V68.2305H75.3359C75.3359 69.1191 75.2773 69.9883 75.1602 70.8281H77.2109V66.5117H79.2812ZM91.332 69.8516C91.332 71.7852 92.8359 73.6992 95.6094 74.4414L94.5938 76.1211C92.5527 75.5645 91.0879 74.373 90.2773 72.8398C89.5156 74.5781 88.041 75.9453 85.9414 76.5703L84.9258 74.8906C87.6797 74.0508 89.1641 71.9805 89.1641 69.8516V69.7539H85.4727V68.0352H89.1641V66.0039H91.3516V68.0352H95.0234V69.7539H91.332V69.8516ZM99.7695 66.082V76.7656H97.6016V72.6836H94.4961V70.9258H97.6016V66.082H99.7695ZM93.793 77.1172C97.5234 77.1172 99.8281 78.3086 99.8281 80.3984C99.8281 82.5078 97.5234 83.7188 93.793 83.7188C90.082 83.7188 87.7773 82.5078 87.7969 80.3984C87.7773 78.3086 90.082 77.1172 93.793 77.1172ZM93.793 78.7773C91.332 78.7969 89.9453 79.3438 89.9453 80.3984C89.9453 81.4531 91.332 82.0391 93.793 82.0391C96.293 82.0391 97.6602 81.4531 97.6602 80.3984C97.6602 79.3438 96.293 78.7969 93.793 78.7773Z" fill="black"/>
<path d="M1.89062 49V44.7188L10.2969 37.6562C12.0156 36.1875 13.0781 35.125 13.0781 33.5C13.0781 31.75 11.8281 30.6562 10.0781 30.6562C8.32812 30.6562 7.14062 31.75 7.14062 33.6875H1.48438C1.48438 28.9688 4.89062 26.0625 10.0781 26.0625C15.4219 26.0625 18.8594 28.8125 18.8594 33C18.8594 35.625 17.5469 37.8438 12.4531 42.125L10.1719 44.0938V44.2188H19.1094V49H1.89062ZM31.6406 49.3125C25.5469 49.3125 21.7656 45.0938 21.7656 37.6875C21.7656 30.25 25.5469 26.0625 31.6406 26.0625C37.7344 26.0625 41.5156 30.2812 41.5156 37.6875C41.5156 45.125 37.7344 49.3125 31.6406 49.3125ZM31.6406 44.5312C33.8281 44.5 35.3594 42.5 35.3594 37.6875C35.3594 33 33.8281 30.8438 31.6406 30.8438C29.4531 30.8438 27.9531 33 27.9219 37.6875C27.9219 42.5 29.4531 44.5 31.6406 44.5312ZM44.4219 49V44.7188L52.8281 37.6562C54.5469 36.1875 55.6094 35.125 55.6094 33.5C55.6094 31.75 54.3594 30.6562 52.6094 30.6562C50.8594 30.6562 49.6719 31.75 49.6719 33.6875H44.0156C44.0156 28.9688 47.4219 26.0625 52.6094 26.0625C57.9531 26.0625 61.3906 28.8125 61.3906 33C61.3906 35.625 60.0781 37.8438 54.9844 42.125L52.7031 44.0938V44.2188H61.6406V49H44.4219ZM74.1719 49.3125C68.0781 49.3125 64.2969 45.0938 64.2969 37.6875C64.2969 30.25 68.0781 26.0625 74.1719 26.0625C80.2656 26.0625 84.0469 30.2812 84.0469 37.6875C84.0469 45.125 80.2656 49.3125 74.1719 49.3125ZM74.1719 44.5312C76.3594 44.5 77.8906 42.5 77.8906 37.6875C77.8906 33 76.3594 30.8438 74.1719 30.8438C71.9844 30.8438 70.4844 33 70.4531 37.6875C70.4531 42.5 71.9844 44.5 74.1719 44.5312ZM117.266 25.4375V28.0938C117.266 31.75 117.266 35.875 116.047 42.2188L110.984 41.75C112.062 36.5781 112.188 32.6406 112.203 29.375H95.7031V25.4375H117.266ZM119.422 44.875V48.9062H93.0469V44.875H101.922V35.2188H106.891V44.875H119.422ZM134.672 24.625V34.1562H126.703V36.0625C130.328 36.0312 132.703 35.875 135.328 35.4688L135.766 39.4375C132.516 40.0312 129.422 40.125 124.016 40.125H121.766V30.4688H129.703V28.625H121.734V24.625H134.672ZM145.297 23.25V40.625H140.266V36.6562H136.172V32.6562H140.266V30.6562H136.172V26.625H140.266V23.25H145.297ZM135.328 41.0312C141.609 41.0312 145.453 43.125 145.453 46.625C145.453 50.1562 141.609 52.1562 135.328 52.1562C129.016 52.1562 125.172 50.1562 125.172 46.625C125.172 43.125 129.016 41.0312 135.328 41.0312ZM135.328 44.8125C131.797 44.8125 130.234 45.3125 130.234 46.625C130.234 47.9062 131.797 48.375 135.328 48.4062C138.797 48.375 140.453 47.9062 140.453 46.625C140.453 45.3125 138.797 44.8125 135.328 44.8125ZM159.609 30.4375C159.578 34.7188 161.266 39.7812 166.391 42.0938L163.641 46C160.5 44.625 158.406 42.0156 157.172 38.875C155.906 42.375 153.75 45.2656 150.453 46.75L147.578 42.8125C152.797 40.4062 154.516 35.125 154.516 30.4375V29.9375H148.797V25.875H164.984V29.9375H159.609V30.4375ZM171.422 23.1875V33.8125H175.328V37.9688H171.422V52.0938H166.391V23.1875H171.422ZM209.359 37.8125V41.6875H182.922V37.8125H193.578V36.75H186.078V23.8438H206.391V27.625H191.078V28.5312H205.797V32.0938H191.078V32.9688H206.703V36.75H198.641V37.8125H209.359ZM196.109 42.4688C202.484 42.4688 206.203 44.2188 206.234 47.2812C206.203 50.4688 202.484 52.1562 196.109 52.1562C189.609 52.1562 185.891 50.4688 185.891 47.2812C185.891 44.2188 189.609 42.4688 196.109 42.4688ZM196.109 46.125C192.359 46.125 190.891 46.4062 190.891 47.2812C190.891 48.1875 192.359 48.5 196.109 48.5C199.734 48.5 201.203 48.1875 201.203 47.2812C201.203 46.4062 199.734 46.125 196.109 46.125ZM235.859 23.1875V52.0938H231.172V23.1875H235.859ZM229.703 23.7812V50.9375H225.016V41.75H221.734V37.7188H225.016V34.5938H222.328C221 39.2656 218.188 43.0938 212.828 46.25L209.953 42.75C215.5 39.4688 217.781 35.8438 218.328 30.4688H211.859V26.5H223.266C223.266 27.9062 223.203 29.2656 223.078 30.5625H225.016V23.7812H229.703Z" fill="black"/>
<line x1="0.0210278" y1="381.5" x2="642.021" y2="384.5" stroke="#FF8E25" stroke-width="9" stroke-dasharray="10 10"/>
<path d="M675.359 390.445V392.578H656V390.445H664.367V386.062H666.945V390.445H675.359ZM673.625 376.969V379.078H667.016C667.191 381.715 669.945 384.141 674.516 384.75L673.555 386.789C669.887 386.273 667.062 384.645 665.656 382.312C664.25 384.645 661.449 386.273 657.781 386.789L656.797 384.75C661.391 384.141 664.133 381.715 664.344 379.078H657.711V376.969H664.367V374.227H666.945V376.969H673.625ZM694.039 375.844V377.883C694.016 380.508 694.016 383.461 693.195 387.891L690.57 387.609C691.391 383.484 691.391 380.473 691.414 377.93H678.758V375.844H694.039ZM696.055 390.211V392.344H676.742V390.211H683.867V382.852H686.445V390.211H696.055ZM707.609 375.047V381.398H700.93V383.906C704.328 383.895 706.285 383.801 708.523 383.391L708.781 385.5C706.25 385.945 704.047 386.016 699.898 386.016H698.352V379.406H705.008V377.156H698.305V375.047H707.609ZM715.227 373.922V386.859H712.625V383.367H708.922V381.258H712.625V379.031H708.922V376.922H712.625V373.922H715.227ZM708.102 387.211C712.578 387.211 715.32 388.688 715.32 391.195C715.32 393.727 712.578 395.156 708.102 395.156C703.578 395.156 700.836 393.727 700.859 391.195C700.836 388.688 703.578 387.211 708.102 387.211ZM708.102 389.227C705.102 389.227 703.484 389.906 703.484 391.195C703.484 392.484 705.102 393.164 708.102 393.164C711.055 393.164 712.742 392.484 712.742 391.195C712.742 389.906 711.055 389.227 708.102 389.227ZM731.492 378.984C731.469 382.758 733.367 386.602 736.648 388.172L735.055 390.258C732.758 389.098 731.105 386.859 730.203 384.164C729.277 387.047 727.543 389.438 725.117 390.656L723.523 388.57C726.922 386.953 728.867 382.898 728.891 378.984V375.609H731.492V378.984ZM740.516 373.898V382.195H743.773V384.422H740.516V395.086H737.914V373.898H740.516ZM762.312 373.898V395.086H759.711V373.898H762.312ZM744.758 389.203C746.445 389.191 748.355 389.191 750.359 389.133V387.188C747.969 386.812 746.422 385.348 746.422 383.344C746.422 380.953 748.531 379.359 751.625 379.359C754.742 379.359 756.898 380.953 756.898 383.344C756.898 385.336 755.34 386.789 752.961 387.164V389.039C754.824 388.957 756.699 388.805 758.469 388.57L758.656 390.516C753.992 391.312 748.953 391.359 745.133 391.359L744.758 389.203ZM758.094 376.336V378.398H745.203V376.336H750.359V373.969H752.961V376.336H758.094ZM751.625 381.352C750.031 381.375 748.883 382.102 748.906 383.344C748.883 384.562 750.031 385.289 751.625 385.266C753.289 385.289 754.391 384.562 754.391 383.344C754.391 382.102 753.289 381.375 751.625 381.352Z" fill="#FF8E25"/>
<path d="M49.8027 348.859V363H46.0723V352.297H45.9941L42.8691 354.172V350.988L46.3652 348.859H49.8027ZM58.3379 363.195C55.1152 363.195 52.8105 361.34 52.791 358.742H56.4043C56.4434 359.738 57.3027 360.363 58.3379 360.363C59.5488 360.363 60.4082 359.523 60.3887 358.273C60.4082 356.984 59.5488 356.164 58.3379 356.164C57.3613 356.145 56.7559 356.574 56.4043 357.277H53.1035L53.709 348.859H63.1035V351.828H56.7754L56.4824 355.012H56.5605C57.0098 354.172 58.1621 353.566 59.5684 353.566C62.1074 353.566 63.9824 355.461 63.9824 358.156C63.9824 361.105 61.7559 363.195 58.3379 363.195ZM67.3418 363.215C66.2871 363.215 65.4277 362.375 65.4473 361.32C65.4277 360.285 66.2871 359.445 67.3418 359.445C68.3379 359.445 69.2363 360.285 69.2363 361.32C69.2363 362.375 68.3379 363.215 67.3418 363.215ZM71.248 363L76.8535 351.926V351.828H70.291V348.859H80.7207V351.848L75.0762 363H71.248ZM86.6387 356.262C84.3535 356.262 83.123 354.602 83.123 352.238C83.123 349.855 84.4121 348.195 86.6387 348.195C88.9629 348.195 90.1934 349.855 90.2129 352.238C90.1934 354.641 88.9434 356.262 86.6387 356.262ZM86.6387 354.172C87.4395 354.172 87.8301 353.41 87.8301 352.238C87.8301 351.086 87.459 350.285 86.6387 350.285C85.8965 350.285 85.5059 351.125 85.5059 352.238C85.5059 353.41 85.9355 354.172 86.6387 354.172ZM96.8145 363.645C94.5293 363.645 93.2988 361.984 93.2988 359.621C93.2988 357.238 94.5879 355.578 96.8145 355.578C99.1387 355.578 100.369 357.238 100.369 359.621C100.369 362.023 99.0996 363.645 96.8145 363.645ZM96.8145 361.555C97.5957 361.555 97.9863 360.793 98.0059 359.621C97.9863 358.469 97.6348 357.668 96.8145 357.688C96.0723 357.668 95.6621 358.508 95.6621 359.621C95.6621 360.793 96.0918 361.555 96.8145 361.555ZM85.5645 363L95.291 348.859H97.8887L88.1621 363H85.5645Z" fill="#576238"/>
<path d="M141.379 320V317.324L146.633 312.91C147.707 311.992 148.371 311.328 148.371 310.312C148.371 309.219 147.59 308.535 146.496 308.535C145.402 308.535 144.66 309.219 144.66 310.43H141.125C141.125 307.48 143.254 305.664 146.496 305.664C149.836 305.664 151.984 307.383 151.984 310C151.984 311.641 151.164 313.027 147.98 315.703L146.555 316.934V317.012H152.141V320H141.379ZM159.973 320.195C156.164 320.195 153.801 317.559 153.801 312.93C153.801 308.281 156.164 305.664 159.973 305.664C163.781 305.664 166.145 308.301 166.145 312.93C166.145 317.578 163.781 320.195 159.973 320.195ZM159.973 317.207C161.34 317.188 162.297 315.938 162.297 312.93C162.297 310 161.34 308.652 159.973 308.652C158.605 308.652 157.668 310 157.648 312.93C157.648 315.938 158.605 317.188 159.973 317.207ZM169.387 320.215C168.332 320.215 167.473 319.375 167.492 318.32C167.473 317.285 168.332 316.445 169.387 316.445C170.383 316.445 171.281 317.285 171.281 318.32C171.281 319.375 170.383 320.215 169.387 320.215ZM178.449 320.195C175.129 320.195 172.766 318.34 172.746 315.742H176.496C176.516 316.582 177.336 317.188 178.469 317.188C179.582 317.188 180.363 316.543 180.363 315.645C180.363 314.746 179.484 314.102 178.176 314.102H176.75V311.523H178.176C179.367 311.523 180.188 310.898 180.168 310C180.188 309.141 179.484 308.535 178.488 308.535C177.395 308.535 176.613 309.16 176.594 310.039H173.039C173.059 307.48 175.324 305.664 178.488 305.664C181.594 305.664 183.762 307.402 183.762 309.766C183.762 311.348 182.551 312.441 180.891 312.617V312.734C183.137 312.988 184.289 314.219 184.289 315.957C184.289 318.438 181.887 320.195 178.449 320.195ZM190.227 313.262C187.941 313.262 186.711 311.602 186.711 309.238C186.711 306.855 188 305.195 190.227 305.195C192.551 305.195 193.781 306.855 193.801 309.238C193.781 311.641 192.531 313.262 190.227 313.262ZM190.227 311.172C191.027 311.172 191.418 310.41 191.418 309.238C191.418 308.086 191.047 307.285 190.227 307.285C189.484 307.285 189.094 308.125 189.094 309.238C189.094 310.41 189.523 311.172 190.227 311.172ZM200.402 320.645C198.117 320.645 196.887 318.984 196.887 316.621C196.887 314.238 198.176 312.578 200.402 312.578C202.727 312.578 203.957 314.238 203.957 316.621C203.957 319.023 202.688 320.645 200.402 320.645ZM200.402 318.555C201.184 318.555 201.574 317.793 201.594 316.621C201.574 315.469 201.223 314.668 200.402 314.688C199.66 314.668 199.25 315.508 199.25 316.621C199.25 317.793 199.68 318.555 200.402 318.555ZM189.152 320L198.879 305.859H201.477L191.75 320H189.152Z" fill="#576238"/>
<path d="M238.447 280V277.324L243.701 272.91C244.775 271.992 245.439 271.328 245.439 270.312C245.439 269.219 244.658 268.535 243.564 268.535C242.471 268.535 241.729 269.219 241.729 270.43H238.193C238.193 267.48 240.322 265.664 243.564 265.664C246.904 265.664 249.053 267.383 249.053 270C249.053 271.641 248.232 273.027 245.049 275.703L243.623 276.934V277.012H249.209V280H238.447ZM256.572 280.195C253.35 280.195 251.045 278.34 251.025 275.742H254.639C254.678 276.738 255.537 277.363 256.572 277.363C257.783 277.363 258.643 276.523 258.623 275.273C258.643 273.984 257.783 273.164 256.572 273.164C255.596 273.145 254.99 273.574 254.639 274.277H251.338L251.943 265.859H261.338V268.828H255.01L254.717 272.012H254.795C255.244 271.172 256.396 270.566 257.803 270.566C260.342 270.566 262.217 272.461 262.217 275.156C262.217 278.105 259.99 280.195 256.572 280.195ZM265.576 280.215C264.521 280.215 263.662 279.375 263.682 278.32C263.662 277.285 264.521 276.445 265.576 276.445C266.572 276.445 267.471 277.285 267.471 278.32C267.471 279.375 266.572 280.215 265.576 280.215ZM274.99 280.195C271.182 280.195 268.818 277.559 268.818 272.93C268.818 268.281 271.182 265.664 274.99 265.664C278.799 265.664 281.162 268.301 281.162 272.93C281.162 277.578 278.799 280.195 274.99 280.195ZM274.99 277.207C276.357 277.188 277.314 275.938 277.314 272.93C277.314 270 276.357 268.652 274.99 268.652C273.623 268.652 272.686 270 272.666 272.93C272.666 275.938 273.623 277.188 274.99 277.207ZM287.158 273.262C284.873 273.262 283.643 271.602 283.643 269.238C283.643 266.855 284.932 265.195 287.158 265.195C289.482 265.195 290.713 266.855 290.732 269.238C290.713 271.641 289.463 273.262 287.158 273.262ZM287.158 271.172C287.959 271.172 288.35 270.41 288.35 269.238C288.35 268.086 287.979 267.285 287.158 267.285C286.416 267.285 286.025 268.125 286.025 269.238C286.025 270.41 286.455 271.172 287.158 271.172ZM297.334 280.645C295.049 280.645 293.818 278.984 293.818 276.621C293.818 274.238 295.107 272.578 297.334 272.578C299.658 272.578 300.889 274.238 300.889 276.621C300.889 279.023 299.619 280.645 297.334 280.645ZM297.334 278.555C298.115 278.555 298.506 277.793 298.525 276.621C298.506 275.469 298.154 274.668 297.334 274.688C296.592 274.668 296.182 275.508 296.182 276.621C296.182 277.793 296.611 278.555 297.334 278.555ZM286.084 280L295.811 265.859H298.408L288.682 280H286.084Z" fill="#576238"/>
<path d="M344.838 205.195C341.518 205.195 339.154 203.34 339.135 200.742H342.885C342.904 201.582 343.725 202.188 344.857 202.188C345.971 202.188 346.752 201.543 346.752 200.645C346.752 199.746 345.873 199.102 344.564 199.102H343.139V196.523H344.564C345.756 196.523 346.576 195.898 346.557 195C346.576 194.141 345.873 193.535 344.877 193.535C343.783 193.535 343.002 194.16 342.982 195.039H339.428C339.447 192.48 341.713 190.664 344.877 190.664C347.982 190.664 350.15 192.402 350.15 194.766C350.15 196.348 348.939 197.441 347.279 197.617V197.734C349.525 197.988 350.678 199.219 350.678 200.957C350.678 203.438 348.275 205.195 344.838 205.195ZM357.924 205.195C354.604 205.195 352.24 203.34 352.221 200.742H355.971C355.99 201.582 356.811 202.188 357.943 202.188C359.057 202.188 359.838 201.543 359.838 200.645C359.838 199.746 358.959 199.102 357.65 199.102H356.225V196.523H357.65C358.842 196.523 359.662 195.898 359.643 195C359.662 194.141 358.959 193.535 357.963 193.535C356.869 193.535 356.088 194.16 356.068 195.039H352.514C352.533 192.48 354.799 190.664 357.963 190.664C361.068 190.664 363.236 192.402 363.236 194.766C363.236 196.348 362.025 197.441 360.365 197.617V197.734C362.611 197.988 363.764 199.219 363.764 200.957C363.764 203.438 361.361 205.195 357.924 205.195ZM367.182 205.215C366.127 205.215 365.268 204.375 365.287 203.32C365.268 202.285 366.127 201.445 367.182 201.445C368.178 201.445 369.076 202.285 369.076 203.32C369.076 204.375 368.178 205.215 367.182 205.215ZM376.303 190.664C379.545 190.664 382.357 192.598 382.377 197.695C382.377 202.344 379.955 205.195 376.264 205.195C373.158 205.195 371.088 203.223 370.834 200.762H374.506C374.701 201.641 375.404 202.031 376.264 202.031C377.904 202.031 378.666 200.488 378.686 198.066H378.588C378.041 199.375 376.596 200.137 374.975 200.137C372.416 200.137 370.697 198.262 370.678 195.684C370.658 192.676 372.963 190.664 376.303 190.664ZM376.322 193.496C375.131 193.496 374.271 194.375 374.291 195.547C374.311 196.719 375.131 197.598 376.322 197.598C377.475 197.598 378.373 196.699 378.354 195.547C378.334 194.375 377.475 193.496 376.322 193.496ZM388.256 198.262C385.971 198.262 384.74 196.602 384.74 194.238C384.74 191.855 386.029 190.195 388.256 190.195C390.58 190.195 391.811 191.855 391.83 194.238C391.811 196.641 390.561 198.262 388.256 198.262ZM388.256 196.172C389.057 196.172 389.447 195.41 389.447 194.238C389.447 193.086 389.076 192.285 388.256 192.285C387.514 192.285 387.123 193.125 387.123 194.238C387.123 195.41 387.553 196.172 388.256 196.172ZM398.432 205.645C396.146 205.645 394.916 203.984 394.916 201.621C394.916 199.238 396.205 197.578 398.432 197.578C400.756 197.578 401.986 199.238 401.986 201.621C401.986 204.023 400.717 205.645 398.432 205.645ZM398.432 203.555C399.213 203.555 399.604 202.793 399.623 201.621C399.604 200.469 399.252 199.668 398.432 199.688C397.689 199.668 397.279 200.508 397.279 201.621C397.279 202.793 397.709 203.555 398.432 203.555ZM387.182 205L396.908 190.859H399.506L389.779 205H387.182Z" fill="#576238"/>
<path d="M442.475 157.195C439.154 157.195 436.791 155.34 436.771 152.742H440.521C440.541 153.582 441.361 154.188 442.494 154.188C443.607 154.188 444.389 153.543 444.389 152.645C444.389 151.746 443.51 151.102 442.201 151.102H440.775V148.523H442.201C443.393 148.523 444.213 147.898 444.193 147C444.213 146.141 443.51 145.535 442.514 145.535C441.42 145.535 440.639 146.16 440.619 147.039H437.064C437.084 144.48 439.35 142.664 442.514 142.664C445.619 142.664 447.787 144.402 447.787 146.766C447.787 148.348 446.576 149.441 444.916 149.617V149.734C447.162 149.988 448.314 151.219 448.314 152.957C448.314 155.438 445.912 157.195 442.475 157.195ZM455.561 142.664C458.803 142.664 461.615 144.598 461.635 149.695C461.635 154.344 459.213 157.195 455.521 157.195C452.416 157.195 450.346 155.223 450.092 152.762H453.764C453.959 153.641 454.662 154.031 455.521 154.031C457.162 154.031 457.924 152.488 457.943 150.066H457.846C457.299 151.375 455.854 152.137 454.232 152.137C451.674 152.137 449.955 150.262 449.936 147.684C449.916 144.676 452.221 142.664 455.561 142.664ZM455.58 145.496C454.389 145.496 453.529 146.375 453.549 147.547C453.568 148.719 454.389 149.598 455.58 149.598C456.732 149.598 457.631 148.699 457.611 147.547C457.592 146.375 456.732 145.496 455.58 145.496ZM464.76 157.215C463.705 157.215 462.846 156.375 462.865 155.32C462.846 154.285 463.705 153.445 464.76 153.445C465.756 153.445 466.654 154.285 466.654 155.32C466.654 156.375 465.756 157.215 464.76 157.215ZM473.803 157.195C470.404 157.195 467.904 155.457 467.904 153.172C467.904 151.414 469.35 150.008 471.166 149.734V149.617C469.584 149.344 468.432 148.074 468.432 146.492C468.432 144.285 470.717 142.664 473.803 142.664C476.889 142.664 479.154 144.285 479.154 146.492C479.154 148.074 477.982 149.344 476.42 149.617V149.734C478.217 150.008 479.682 151.414 479.682 153.172C479.682 155.457 477.201 157.195 473.803 157.195ZM473.803 154.5C474.936 154.5 475.756 153.758 475.756 152.742C475.756 151.727 474.936 151.004 473.803 151.004C472.67 151.004 471.85 151.727 471.85 152.742C471.85 153.758 472.67 154.5 473.803 154.5ZM473.803 148.523C474.799 148.523 475.521 147.84 475.521 146.922C475.521 146.023 474.799 145.359 473.803 145.359C472.807 145.359 472.084 146.004 472.084 146.922C472.084 147.84 472.807 148.523 473.803 148.523ZM485.619 150.262C483.334 150.262 482.104 148.602 482.104 146.238C482.104 143.855 483.393 142.195 485.619 142.195C487.943 142.195 489.174 143.855 489.193 146.238C489.174 148.641 487.924 150.262 485.619 150.262ZM485.619 148.172C486.42 148.172 486.811 147.41 486.811 146.238C486.811 145.086 486.439 144.285 485.619 144.285C484.877 144.285 484.486 145.125 484.486 146.238C484.486 147.41 484.916 148.172 485.619 148.172ZM495.795 157.645C493.51 157.645 492.279 155.984 492.279 153.621C492.279 151.238 493.568 149.578 495.795 149.578C498.119 149.578 499.35 151.238 499.35 153.621C499.35 156.023 498.08 157.645 495.795 157.645ZM495.795 155.555C496.576 155.555 496.967 154.793 496.986 153.621C496.967 152.469 496.615 151.668 495.795 151.688C495.053 151.668 494.643 152.508 494.643 153.621C494.643 154.793 495.072 155.555 495.795 155.555ZM484.545 157L494.271 142.859H496.869L487.143 157H484.545Z" fill="#576238"/>
<path d="M536.969 79.7539V76.8633L542.691 67.8594H547.398V76.8438H549.039V79.7539H547.398V82H543.844V79.7539H536.969ZM540.641 76.8438H543.922V71.7266H543.805L540.641 76.7461V76.8438ZM556.168 82.1953C552.848 82.1953 550.484 80.3398 550.465 77.7422H554.215C554.234 78.582 555.055 79.1875 556.188 79.1875C557.301 79.1875 558.082 78.543 558.082 77.6445C558.082 76.7461 557.203 76.1016 555.895 76.1016H554.469V73.5234H555.895C557.086 73.5234 557.906 72.8984 557.887 72C557.906 71.1406 557.203 70.5352 556.207 70.5352C555.113 70.5352 554.332 71.1602 554.312 72.0391H550.758C550.777 69.4805 553.043 67.6641 556.207 67.6641C559.312 67.6641 561.48 69.4023 561.48 71.7656C561.48 73.3477 560.27 74.4414 558.609 74.6172V74.7344C560.855 74.9883 562.008 76.2188 562.008 77.957C562.008 80.4375 559.605 82.1953 556.168 82.1953ZM565.426 82.2148C564.371 82.2148 563.512 81.375 563.531 80.3203C563.512 79.2852 564.371 78.4453 565.426 78.4453C566.422 78.4453 567.32 79.2852 567.32 80.3203C567.32 81.375 566.422 82.2148 565.426 82.2148ZM574.547 67.6641C577.789 67.6641 580.602 69.5977 580.621 74.6953C580.621 79.3438 578.199 82.1953 574.508 82.1953C571.402 82.1953 569.332 80.2227 569.078 77.7617H572.75C572.945 78.6406 573.648 79.0312 574.508 79.0312C576.148 79.0312 576.91 77.4883 576.93 75.0664H576.832C576.285 76.375 574.84 77.1367 573.219 77.1367C570.66 77.1367 568.941 75.2617 568.922 72.6836C568.902 69.6758 571.207 67.6641 574.547 67.6641ZM574.566 70.4961C573.375 70.4961 572.516 71.375 572.535 72.5469C572.555 73.7188 573.375 74.5977 574.566 74.5977C575.719 74.5977 576.617 73.6992 576.598 72.5469C576.578 71.375 575.719 70.4961 574.566 70.4961ZM586.5 75.2617C584.215 75.2617 582.984 73.6016 582.984 71.2383C582.984 68.8555 584.273 67.1953 586.5 67.1953C588.824 67.1953 590.055 68.8555 590.074 71.2383C590.055 73.6406 588.805 75.2617 586.5 75.2617ZM586.5 73.1719C587.301 73.1719 587.691 72.4102 587.691 71.2383C587.691 70.0859 587.32 69.2852 586.5 69.2852C585.758 69.2852 585.367 70.125 585.367 71.2383C585.367 72.4102 585.797 73.1719 586.5 73.1719ZM596.676 82.6445C594.391 82.6445 593.16 80.9844 593.16 78.6211C593.16 76.2383 594.449 74.5781 596.676 74.5781C599 74.5781 600.23 76.2383 600.23 78.6211C600.23 81.0234 598.961 82.6445 596.676 82.6445ZM596.676 80.5547C597.457 80.5547 597.848 79.793 597.867 78.6211C597.848 77.4688 597.496 76.668 596.676 76.6875C595.934 76.668 595.523 77.5078 595.523 78.6211C595.523 79.793 595.953 80.5547 596.676 80.5547ZM585.426 82L595.152 67.8594H597.75L588.023 82H585.426Z" fill="#576238"/>
</svg>
