<svg width="1755" height="398" viewBox="0 0 1755 398" fill="none" xmlns="http://www.w3.org/2000/svg">
<circle cx="199" cy="199" r="199" fill="#F9F9F9"/>
<path d="M134.8 229L136.45 218.9H126.95L125.3 229H122.4L124.05 218.9H118.5L118.9 216H124.55L126.05 206.6H120.5L121 203.8H126.55L128.2 193.6H131.1L129.45 203.8H138.95L140.6 193.6H143.5L141.85 203.8H147.4L146.9 206.6H141.35L139.85 216H145.4L144.9 218.9H139.35L137.7 229H134.8ZM127.45 216H136.95L138.45 206.6H128.95L127.45 216ZM183.383 189.7V199.5H189.983V202.1H183.383V211.8H180.283V189.7H183.383ZM150.283 207.8C155.483 204.5 158.883 200.9 159.483 194.8H151.083V192.2H162.483C162.483 200.45 158.733 205.45 152.383 209.8L150.283 207.8ZM156.083 216.4V214H183.383V224H159.283V229.6H185.083V232.2H156.283V221.6H180.383V216.4H156.083ZM162.583 210.1C168.483 206.05 171.233 201.3 171.683 194.8H164.283V192.2H174.683C174.683 200.5 171.883 206.85 164.883 212L162.583 210.1ZM232.396 207.5V210.1H192.996V207.5H205.746C207.196 201.55 207.496 197.15 207.546 194.4H196.696V191.7H210.596V192.6C210.546 194.8 210.546 200.1 208.846 207.5H222.796C224.146 201.45 224.296 197.1 224.396 194.4H213.696V191.7H227.396V193.2C227.346 195.7 227.346 200.55 225.846 207.5H232.396ZM197.896 232.1V216.8H227.396V232.1H197.896ZM200.996 229.5H224.396V219.3H200.996V229.5ZM269.709 189.8V204.3H276.409V206.9H269.709V222.1H266.709V189.8H269.709ZM236.309 197.9V195.3H247.709V189.8H250.709V195.3H262.009V197.9H236.309ZM238.909 208.5C238.859 203.6 243.009 200.5 249.209 200.5C255.309 200.5 259.459 203.6 259.509 208.5C259.459 213.25 255.309 216.35 249.209 216.3C243.009 216.35 238.859 213.25 238.909 208.5ZM241.809 208.5C241.809 211.7 244.759 213.85 249.209 213.8C253.559 213.85 256.509 211.7 256.509 208.5C256.509 205.15 253.559 202.95 249.209 203C244.759 202.95 241.809 205.15 241.809 208.5ZM243.109 231.8V219.4H246.109V229.2H271.909V231.8H243.109Z" fill="#333333"/>
<path d="M146.08 64L147.07 57.94H141.37L140.38 64H138.64L139.63 57.94H136.3L136.54 56.2H139.93L140.83 50.56H137.5L137.8 48.88H141.13L142.12 42.76H143.86L142.87 48.88H148.57L149.56 42.76H151.3L150.31 48.88H153.64L153.34 50.56H150.01L149.11 56.2H152.44L152.14 57.94H148.81L147.82 64H146.08ZM141.67 56.2H147.37L148.27 50.56H142.57L141.67 56.2ZM156.45 64V42.76H168.81V44.68H158.55V52.48H167.85V54.28H158.55V64H156.45ZM179.361 42.52C183.051 42.52 186.771 45.01 186.741 52.48C186.771 59.53 184.131 64.3 179.061 64.3C175.461 64.3 172.971 61.99 172.521 58.66H174.561C174.981 60.82 176.541 62.41 179.061 62.44C182.691 62.41 184.791 59.11 184.821 53.32H184.581C183.501 55.18 181.401 56.38 179.061 56.38C175.371 56.38 172.281 53.47 172.281 49.48C172.281 45.64 175.071 42.46 179.361 42.52ZM174.321 49.42C174.321 52.27 176.451 54.52 179.361 54.52C182.301 54.52 184.611 52.06 184.401 49.3C184.221 46.51 182.151 44.35 179.361 44.32C176.481 44.35 174.291 46.66 174.321 49.42ZM191.049 64V42.76H203.409V44.68H193.149V52.48H202.449V54.28H193.149V64H191.049ZM213.961 42.52C217.651 42.52 221.371 45.01 221.341 52.48C221.371 59.53 218.731 64.3 213.661 64.3C210.061 64.3 207.571 61.99 207.121 58.66H209.161C209.581 60.82 211.141 62.41 213.661 62.44C217.291 62.41 219.391 59.11 219.421 53.32H219.181C218.101 55.18 216.001 56.38 213.661 56.38C209.971 56.38 206.881 53.47 206.881 49.48C206.881 45.64 209.671 42.46 213.961 42.52ZM208.921 49.42C208.921 52.27 211.051 54.52 213.961 54.52C216.901 54.52 219.211 52.06 219.001 49.3C218.821 46.51 216.751 44.35 213.961 44.32C211.081 44.35 208.891 46.66 208.921 49.42ZM225.649 64V42.76H238.009V44.68H227.749V52.48H237.049V54.28H227.749V64H225.649ZM248.56 42.52C252.25 42.52 255.97 45.01 255.94 52.48C255.97 59.53 253.33 64.3 248.26 64.3C244.66 64.3 242.17 61.99 241.72 58.66H243.76C244.18 60.82 245.74 62.41 248.26 62.44C251.89 62.41 253.99 59.11 254.02 53.32H253.78C252.7 55.18 250.6 56.38 248.26 56.38C244.57 56.38 241.48 53.47 241.48 49.48C241.48 45.64 244.27 42.46 248.56 42.52ZM243.52 49.42C243.52 52.27 245.65 54.52 248.56 54.52C251.5 54.52 253.81 52.06 253.6 49.3C253.42 46.51 251.35 44.35 248.56 44.32C245.68 44.35 243.49 46.66 243.52 49.42Z" fill="#333333"/>
<circle cx="652" cy="199" r="199" fill="#FBDE66"/>
<circle cx="1103" cy="199" r="199" fill="#99A178"/>
<path d="M560.8 229L562.45 218.9H552.95L551.3 229H548.4L550.05 218.9H544.5L544.9 216H550.55L552.05 206.6H546.5L547 203.8H552.55L554.2 193.6H557.1L555.45 203.8H564.95L566.6 193.6H569.5L567.85 203.8H573.4L572.9 206.6H567.35L565.85 216H571.4L570.9 218.9H565.35L563.7 229H560.8ZM553.45 216H562.95L564.45 206.6H554.95L553.45 216ZM615.083 212.8V215.3H575.683V212.8H593.883V208H581.083V191H610.083V193.6H584.183V198.2H608.883V200.6H584.183V205.5H610.283V208H596.883V212.8H615.083ZM580.583 225.8C580.583 221.35 585.883 219 595.383 219C604.833 219 610.133 221.35 610.183 225.8C610.133 230.35 604.833 232.65 595.383 232.7C585.883 232.65 580.583 230.35 580.583 225.8ZM583.683 225.8C583.683 228.7 588.033 230.25 595.383 230.2C602.783 230.25 607.083 228.7 607.083 225.8C607.083 223.05 602.783 221.4 595.383 221.4C588.033 221.4 583.683 223.05 583.683 225.8ZM658.296 212.8V215.3H618.896V212.8H637.096V208H624.296V191H653.296V193.6H627.396V198.2H652.096V200.6H627.396V205.5H653.496V208H640.096V212.8H658.296ZM623.796 225.8C623.796 221.35 629.096 219 638.596 219C648.046 219 653.346 221.35 653.396 225.8C653.346 230.35 648.046 232.65 638.596 232.7C629.096 232.65 623.796 230.35 623.796 225.8ZM626.896 225.8C626.896 228.7 631.246 230.25 638.596 230.2C645.996 230.25 650.296 228.7 650.296 225.8C650.296 223.05 645.996 221.4 638.596 221.4C631.246 221.4 626.896 223.05 626.896 225.8ZM687.809 207.3V209.8H666.109V192.4H687.509V195.1H669.209V199.9H686.509V202.3H669.209V207.3H687.809ZM662.009 214.7C670.509 214.65 681.459 214.6 691.109 213.4L691.309 215.7C687.009 216.35 682.559 216.75 678.209 217V231.4H675.209V217.15C670.659 217.3 666.259 217.3 662.409 217.3L662.009 214.7ZM694.509 232.9V189.8H697.509V232.9H694.509ZM740.221 203.2V205.7H710.921V191.3H713.921V203.2H740.221ZM705.321 214.6V212H744.821V214.6H705.321ZM710.721 231.7V219.2H713.721V229.1H740.421V231.7H710.721Z" fill="#333333"/>
<path d="M598.08 64L599.07 57.94H593.37L592.38 64H590.64L591.63 57.94H588.3L588.54 56.2H591.93L592.83 50.56H589.5L589.8 48.88H593.13L594.12 42.76H595.86L594.87 48.88H600.57L601.56 42.76H603.3L602.31 48.88H605.64L605.34 50.56H602.01L601.11 56.2H604.44L604.14 57.94H600.81L599.82 64H598.08ZM593.67 56.2H599.37L600.27 50.56H594.57L593.67 56.2ZM608.45 64V42.76H620.81V44.68H610.55V52.48H619.85V54.28H610.55V64H608.45ZM625.061 64V42.76H632.261C636.491 42.79 638.561 45.16 638.561 48.34C638.561 51.01 637.091 52.45 635.201 52.96V53.14C637.241 53.26 639.401 55.18 639.401 58.42C639.401 61.63 637.301 64 632.681 64H625.061ZM627.161 62.14H632.621C635.921 62.14 637.391 60.55 637.421 58.42C637.391 56.02 635.561 54.13 632.741 54.16H627.161V62.14ZM627.161 52.3H632.441C634.871 52.3 636.581 50.68 636.581 48.34C636.581 46.18 635.141 44.65 632.261 44.68H627.161V52.3ZM649.789 64H643.489V42.76H650.149C656.239 42.79 659.839 46.75 659.809 53.32C659.809 60.01 656.179 64 649.789 64ZM645.589 62.14H649.669C655.069 62.14 657.799 58.81 657.769 53.32C657.799 47.92 655.099 44.65 650.029 44.68H645.589V62.14ZM663.938 64V42.76H676.358V44.68H666.038V52.48H675.698V54.28H666.038V62.14H676.538V64H663.938ZM687.444 64.3C683.724 64.27 680.004 61.78 680.004 54.28C680.004 47.26 682.644 42.49 687.744 42.52C691.314 42.49 693.804 44.8 694.224 48.1H692.184C691.794 45.94 690.234 44.35 687.744 44.38C684.054 44.35 681.984 47.65 681.984 53.44H682.224C683.304 51.55 685.374 50.38 687.744 50.38C691.404 50.38 694.494 53.29 694.464 57.28C694.494 61.15 691.674 64.33 687.444 64.3ZM682.344 57.4C682.554 60.25 684.594 62.44 687.444 62.44C690.324 62.44 692.454 60.13 692.484 57.28C692.454 54.49 690.324 52.24 687.444 52.24C684.444 52.24 682.194 54.67 682.344 57.4ZM705.432 64.3C701.712 64.27 697.992 61.78 697.992 54.28C697.992 47.26 700.632 42.49 705.732 42.52C709.302 42.49 711.792 44.8 712.212 48.1H710.172C709.782 45.94 708.222 44.35 705.732 44.38C702.042 44.35 699.972 47.65 699.972 53.44H700.212C701.292 51.55 703.362 50.38 705.732 50.38C709.392 50.38 712.482 53.29 712.452 57.28C712.482 61.15 709.662 64.33 705.432 64.3ZM700.332 57.4C700.542 60.25 702.582 62.44 705.432 62.44C708.312 62.44 710.442 60.13 710.472 57.28C710.442 54.49 708.312 52.24 705.432 52.24C702.432 52.24 700.182 54.67 700.332 57.4Z" fill="#333333"/>
<circle cx="1556" cy="199" r="199" fill="#576238"/>
<path d="M1039.8 229L1041.45 218.9H1031.95L1030.3 229H1027.4L1029.05 218.9H1023.5L1023.9 216H1029.55L1031.05 206.6H1025.5L1026 203.8H1031.55L1033.2 193.6H1036.1L1034.45 203.8H1043.95L1045.6 193.6H1048.5L1046.85 203.8H1052.4L1051.9 206.6H1046.35L1044.85 216H1050.4L1049.9 218.9H1044.35L1042.7 229H1039.8ZM1032.45 216H1041.95L1043.45 206.6H1033.95L1032.45 216ZM1068.78 203.9C1068.73 211.1 1073.68 218.2 1079.68 221.2L1077.88 223.5C1073.13 221.15 1069.13 216.25 1067.33 210.45C1065.48 216.7 1061.18 221.9 1056.28 224.3L1054.48 221.9C1060.63 219.05 1065.78 211.65 1065.78 203.9V199.9H1055.58V197.4H1065.78V190.4H1068.78V197.4H1078.78V199.9H1068.78V203.9ZM1084.88 232.8V189.7H1087.88V207.7H1095.38V210.4H1087.88V232.8H1084.88ZM1137.4 212.7V215.3H1119.4V224.2H1116.3V215.3H1097.9V212.7H1137.4ZM1103.1 231.8V220.1H1106.2V229.2H1133V231.8H1103.1ZM1103.3 208.1V191.1H1106.4V197H1129V191.1H1132.1V208.1H1103.3ZM1106.4 205.6H1129V199.4H1106.4V205.6ZM1174.71 189.8V204.3H1181.41V206.9H1174.71V222.1H1171.71V189.8H1174.71ZM1141.31 197.9V195.3H1152.71V189.8H1155.71V195.3H1167.01V197.9H1141.31ZM1143.91 208.5C1143.86 203.6 1148.01 200.5 1154.21 200.5C1160.31 200.5 1164.46 203.6 1164.51 208.5C1164.46 213.25 1160.31 216.35 1154.21 216.3C1148.01 216.35 1143.86 213.25 1143.91 208.5ZM1146.81 208.5C1146.81 211.7 1149.76 213.85 1154.21 213.8C1158.56 213.85 1161.51 211.7 1161.51 208.5C1161.51 205.15 1158.56 202.95 1154.21 203C1149.76 202.95 1146.81 205.15 1146.81 208.5ZM1148.11 231.8V219.4H1151.11V229.2H1176.91V231.8H1148.11Z" fill="white"/>
<path d="M1053.08 64L1054.07 57.94H1048.37L1047.38 64H1045.64L1046.63 57.94H1043.3L1043.54 56.2H1046.93L1047.83 50.56H1044.5L1044.8 48.88H1048.13L1049.12 42.76H1050.86L1049.87 48.88H1055.57L1056.56 42.76H1058.3L1057.31 48.88H1060.64L1060.34 50.56H1057.01L1056.11 56.2H1059.44L1059.14 57.94H1055.81L1054.82 64H1053.08ZM1048.67 56.2H1054.37L1055.27 50.56H1049.57L1048.67 56.2ZM1069.75 42.52C1073.44 42.52 1077.16 45.01 1077.13 52.48C1077.16 59.53 1074.52 64.3 1069.45 64.3C1065.85 64.3 1063.36 61.99 1062.91 58.66H1064.95C1065.37 60.82 1066.93 62.41 1069.45 62.44C1073.08 62.41 1075.18 59.11 1075.21 53.32H1074.97C1073.89 55.18 1071.79 56.38 1069.45 56.38C1065.76 56.38 1062.67 53.47 1062.67 49.48C1062.67 45.64 1065.46 42.46 1069.75 42.52ZM1064.71 49.42C1064.71 52.27 1066.84 54.52 1069.75 54.52C1072.69 54.52 1075 52.06 1074.79 49.3C1074.61 46.51 1072.54 44.35 1069.75 44.32C1066.87 44.35 1064.68 46.66 1064.71 49.42ZM1087.74 42.52C1091.43 42.52 1095.15 45.01 1095.12 52.48C1095.15 59.53 1092.51 64.3 1087.44 64.3C1083.84 64.3 1081.35 61.99 1080.9 58.66H1082.94C1083.36 60.82 1084.92 62.41 1087.44 62.44C1091.07 62.41 1093.17 59.11 1093.2 53.32H1092.96C1091.88 55.18 1089.78 56.38 1087.44 56.38C1083.75 56.38 1080.66 53.47 1080.66 49.48C1080.66 45.64 1083.45 42.46 1087.74 42.52ZM1082.7 49.42C1082.7 52.27 1084.83 54.52 1087.74 54.52C1090.68 54.52 1092.99 52.06 1092.78 49.3C1092.6 46.51 1090.53 44.35 1087.74 44.32C1084.86 44.35 1082.67 46.66 1082.7 49.42ZM1099.67 64H1097.45L1105.19 42.76H1107.41L1115.15 64H1112.93L1110.71 57.7H1101.89L1099.67 64ZM1102.55 55.84H1110.05L1106.39 45.46H1106.21L1102.55 55.84ZM1123.51 42.76V64H1121.41V44.98H1121.35L1116.31 48.28V46.12L1121.35 42.76H1123.51ZM1130.05 64L1139.95 44.8V44.68H1128.61V42.76H1142.17V44.74L1132.27 64H1130.05ZM1152.25 64.3C1147.96 64.3 1144.87 61.81 1144.87 58.42C1144.87 55.72 1146.79 53.44 1149.31 53.02V52.9C1147.15 52.33 1145.68 50.38 1145.71 48.04C1145.68 44.86 1148.5 42.49 1152.25 42.52C1155.97 42.49 1158.79 44.86 1158.79 48.04C1158.79 50.35 1157.32 52.33 1155.19 52.9V53.02C1157.68 53.44 1159.6 55.72 1159.63 58.42C1159.6 61.81 1156.51 64.3 1152.25 64.3ZM1146.97 58.3C1146.94 60.7 1149.07 62.44 1152.25 62.44C1155.4 62.44 1157.53 60.7 1157.53 58.3C1157.53 55.81 1155.28 53.92 1152.25 53.92C1149.22 53.92 1146.94 55.81 1146.97 58.3ZM1147.69 48.22C1147.72 50.5 1149.64 52.15 1152.25 52.18C1154.83 52.15 1156.78 50.5 1156.81 48.22C1156.78 45.94 1154.89 44.32 1152.25 44.32C1149.58 44.32 1147.72 45.94 1147.69 48.22Z" fill="white"/>
<path d="M1496.8 229L1498.45 218.9H1488.95L1487.3 229H1484.4L1486.05 218.9H1480.5L1480.9 216H1486.55L1488.05 206.6H1482.5L1483 203.8H1488.55L1490.2 193.6H1493.1L1491.45 203.8H1500.95L1502.6 193.6H1505.5L1503.85 203.8H1509.4L1508.9 206.6H1503.35L1501.85 216H1507.4L1506.9 218.9H1501.35L1499.7 229H1496.8ZM1489.45 216H1498.95L1500.45 206.6H1490.95L1489.45 216ZM1545.98 194.3V198.6C1545.98 203.9 1545.98 209.75 1544.48 218.3L1541.28 217.9C1542.93 209.75 1542.93 203.8 1542.98 198.6V196.9H1515.98V194.3H1545.98ZM1511.78 226.4V223.8H1527.58V208.2H1530.68V223.8H1551.08V226.4H1511.78ZM1563.3 214.4V220.5H1586.1V214.4H1589.1V232.2H1560.3V214.4H1563.3ZM1555 210.2V207.6H1584.9C1586.05 202.05 1586.05 198.15 1586.1 194.9V194.4H1560.1V191.8H1589.1V194.9C1589.1 198.15 1589.1 202.1 1587.9 207.6H1594.4V210.2H1555ZM1563.3 229.6H1586.1V223H1563.3V229.6ZM1613.31 199.2C1613.31 205.2 1618.36 210.45 1624.61 212.5L1623.01 214.9C1618.01 213.2 1613.76 209.5 1611.81 204.8C1609.96 209.9 1605.71 213.9 1600.61 215.9L1599.01 213.4C1605.21 211.1 1610.21 205.5 1610.21 199.2V196.1H1599.81V193.5H1623.61V196.1H1613.31V199.2ZM1606.11 231.8V218.4H1609.21V229.2H1635.01V231.8H1606.11ZM1630.51 221.5V189.8H1633.61V221.5H1630.51Z" fill="white"/>
<path d="M1500.08 64L1501.07 57.94H1495.37L1494.38 64H1492.64L1493.63 57.94H1490.3L1490.54 56.2H1493.93L1494.83 50.56H1491.5L1491.8 48.88H1495.13L1496.12 42.76H1497.86L1496.87 48.88H1502.57L1503.56 42.76H1505.3L1504.31 48.88H1507.64L1507.34 50.56H1504.01L1503.11 56.2H1506.44L1506.14 57.94H1502.81L1501.82 64H1500.08ZM1495.67 56.2H1501.37L1502.27 50.56H1496.57L1495.67 56.2ZM1516.57 64.3C1512.85 64.3 1510.09 61.93 1509.97 58.66H1512.01C1512.13 60.85 1514.05 62.44 1516.57 62.44C1519.54 62.44 1521.67 60.22 1521.67 57.34C1521.64 54.28 1519.39 52.15 1516.45 52.12C1514.62 52.12 1513.15 52.72 1512.31 54.1H1510.27L1511.71 42.76H1522.75V44.68H1513.45L1512.55 51.64H1512.73C1513.66 50.8 1515.19 50.26 1516.75 50.26C1520.68 50.26 1523.68 53.17 1523.71 57.28C1523.68 61.33 1520.68 64.3 1516.57 64.3ZM1528.15 64L1538.05 44.8V44.68H1526.71V42.76H1540.27V44.74L1530.37 64H1528.15ZM1550.51 64.3C1546.79 64.27 1543.07 61.78 1543.07 54.28C1543.07 47.26 1545.71 42.49 1550.81 42.52C1554.38 42.49 1556.87 44.8 1557.29 48.1H1555.25C1554.86 45.94 1553.3 44.35 1550.81 44.38C1547.12 44.35 1545.05 47.65 1545.05 53.44H1545.29C1546.37 51.55 1548.44 50.38 1550.81 50.38C1554.47 50.38 1557.56 53.29 1557.53 57.28C1557.56 61.15 1554.74 64.33 1550.51 64.3ZM1545.41 57.4C1545.62 60.25 1547.66 62.44 1550.51 62.44C1553.39 62.44 1555.52 60.13 1555.55 57.28C1555.52 54.49 1553.39 52.24 1550.51 52.24C1547.51 52.24 1545.26 54.67 1545.41 57.4ZM1561.42 64V62.44L1568.56 54.7C1571.29 51.73 1572.43 50.26 1572.46 48.28C1572.43 45.91 1570.51 44.32 1567.96 44.32C1565.32 44.32 1563.58 46.12 1563.58 48.58H1561.6C1561.57 45.01 1564.33 42.49 1568.02 42.52C1571.74 42.49 1574.38 45.01 1574.38 48.28C1574.38 50.65 1573.3 52.42 1569.64 56.32L1564.36 61.96V62.14H1575.04V64H1561.42ZM1586.13 64.3C1582.08 64.3 1579.11 61.99 1578.99 58.66H1581.09C1581.21 60.94 1583.37 62.41 1586.13 62.44C1589.1 62.41 1591.23 60.67 1591.23 58.3C1591.23 55.78 1589.13 54.04 1585.71 54.04H1584.39V52.18H1585.71C1588.5 52.18 1590.51 50.62 1590.51 48.22C1590.51 45.91 1588.8 44.32 1586.19 44.32C1583.7 44.32 1581.57 45.79 1581.51 48.1H1579.47C1579.59 44.77 1582.53 42.49 1586.19 42.52C1590.06 42.49 1592.52 45.04 1592.49 48.1C1592.52 50.53 1591.08 52.33 1588.77 52.96V53.14C1591.56 53.62 1593.3 55.6 1593.27 58.3C1593.3 61.72 1590.27 64.3 1586.13 64.3ZM1604.21 64.3C1599.92 64.3 1596.83 61.81 1596.83 58.42C1596.83 55.72 1598.75 53.44 1601.27 53.02V52.9C1599.11 52.33 1597.64 50.38 1597.67 48.04C1597.64 44.86 1600.46 42.49 1604.21 42.52C1607.93 42.49 1610.75 44.86 1610.75 48.04C1610.75 50.35 1609.28 52.33 1607.15 52.9V53.02C1609.64 53.44 1611.56 55.72 1611.59 58.42C1611.56 61.81 1608.47 64.3 1604.21 64.3ZM1598.93 58.3C1598.9 60.7 1601.03 62.44 1604.21 62.44C1607.36 62.44 1609.49 60.7 1609.49 58.3C1609.49 55.81 1607.24 53.92 1604.21 53.92C1601.18 53.92 1598.9 55.81 1598.93 58.3ZM1599.65 48.22C1599.68 50.5 1601.6 52.15 1604.21 52.18C1606.79 52.15 1608.74 50.5 1608.77 48.22C1608.74 45.94 1606.85 44.32 1604.21 44.32C1601.54 44.32 1599.68 45.94 1599.65 48.22Z" fill="white"/>
</svg>
