<svg width="684" height="181" viewBox="0 0 684 181" fill="none" xmlns="http://www.w3.org/2000/svg">
<mask id="path-1-outside-1_112_1992" maskUnits="userSpaceOnUse" x="27" y="12.5596" width="636" height="172" fill="black">
<rect fill="white" x="27" y="12.5596" width="636" height="172"/>
<path d="M84.2971 16.0596C90.5971 16.0596 96.8471 16.5596 103.047 17.5596C109.347 18.4596 114.997 20.2596 119.997 22.9596C124.997 25.5596 129.047 29.2596 132.147 34.0596C135.247 38.8596 136.797 45.1096 136.797 52.8096C136.797 58.5096 135.647 63.5596 133.347 67.9596C131.147 72.3596 127.947 76.2096 123.747 79.5096C128.947 82.5096 133.097 86.4596 136.197 91.3596C139.297 96.2596 140.847 102.41 140.847 109.81C140.847 118.21 139.247 125.06 136.047 130.36C132.847 135.66 128.647 139.86 123.447 142.96C118.347 146.06 112.497 148.16 105.897 149.26C99.2971 150.46 92.5971 151.06 85.7971 151.06H30.7471V16.0596H84.2971ZM70.6471 115.06H89.9971C91.4971 115.06 92.9471 115.01 94.3471 114.91C95.7471 114.71 96.9471 114.36 97.9471 113.86C99.0471 113.36 99.8971 112.66 100.497 111.76C101.097 110.76 101.397 109.41 101.397 107.71C101.397 104.81 100.347 102.96 98.2471 102.16C96.2471 101.36 93.4971 100.96 89.9971 100.96H70.6471V115.06ZM70.6471 65.5596H86.9971C90.0971 65.5596 92.5471 65.2096 94.3471 64.5096C96.1471 63.7096 97.0471 61.8596 97.0471 58.9596C97.0471 56.5596 96.1971 54.9096 94.4971 54.0096C92.8971 53.1096 90.3971 52.6596 86.9971 52.6596H70.6471V65.5596ZM213.63 144.31C211.53 146.21 209.38 147.71 207.18 148.81C204.98 150.01 202.83 150.91 200.73 151.51C198.73 152.21 196.78 152.66 194.88 152.86C193.08 153.06 191.53 153.16 190.23 153.16C185.33 153.16 180.68 152.36 176.28 150.76C171.98 149.26 168.18 146.76 164.88 143.26C161.68 139.76 159.13 135.16 157.23 129.46C155.33 123.86 154.38 117.01 154.38 108.91V49.2096H194.73V106.06C194.73 109.26 195.33 111.86 196.53 113.86C197.73 115.86 199.73 116.86 202.53 116.86C204.23 116.86 205.83 116.41 207.33 115.51C208.93 114.51 210.53 112.51 212.13 109.51V49.2096H252.48V151.06H218.73L213.63 144.31ZM369.616 151.06H340.066L335.866 144.31C332.966 146.91 329.616 149.01 325.816 150.61C322.016 152.21 317.616 153.01 312.616 153.01C306.716 153.01 300.966 151.86 295.366 149.56C289.866 147.36 284.916 143.96 280.516 139.36C276.116 134.86 272.566 129.21 269.866 122.41C267.266 115.61 265.966 107.66 265.966 98.5596C265.966 90.7596 267.016 83.7096 269.116 77.4096C271.216 71.0096 274.166 65.6096 277.966 61.2096C281.766 56.7096 286.266 53.2596 291.466 50.8596C296.666 48.3596 302.366 47.1096 308.566 47.1096C312.866 47.1096 316.616 47.5596 319.816 48.4596C323.116 49.2596 326.216 50.3596 329.116 51.7596V16.0596H369.616V151.06ZM319.066 117.16C321.366 117.16 323.316 116.66 324.916 115.66C326.516 114.56 327.916 113.21 329.116 111.61V88.2096C327.516 86.2096 325.816 84.7596 324.016 83.8596C322.316 82.8596 320.666 82.3596 319.066 82.3596C314.766 82.3596 311.616 84.0096 309.616 87.3096C307.616 90.6096 306.616 94.7096 306.616 99.6096C306.616 105.21 307.716 109.56 309.916 112.66C312.116 115.66 315.166 117.16 319.066 117.16ZM486.803 151.06H457.253L453.053 144.31C450.153 146.91 446.803 149.01 443.003 150.61C439.203 152.21 434.803 153.01 429.803 153.01C423.903 153.01 418.153 151.86 412.553 149.56C407.053 147.36 402.103 143.96 397.703 139.36C393.303 134.86 389.753 129.21 387.053 122.41C384.453 115.61 383.153 107.66 383.153 98.5596C383.153 90.7596 384.203 83.7096 386.303 77.4096C388.403 71.0096 391.353 65.6096 395.153 61.2096C398.953 56.7096 403.453 53.2596 408.653 50.8596C413.853 48.3596 419.553 47.1096 425.753 47.1096C430.053 47.1096 433.803 47.5596 437.003 48.4596C440.303 49.2596 443.403 50.3596 446.303 51.7596V16.0596H486.803V151.06ZM436.253 117.16C438.553 117.16 440.503 116.66 442.103 115.66C443.703 114.56 445.103 113.21 446.303 111.61V88.2096C444.703 86.2096 443.003 84.7596 441.203 83.8596C439.503 82.8596 437.853 82.3596 436.253 82.3596C431.953 82.3596 428.803 84.0096 426.803 87.3096C424.803 90.6096 423.803 94.7096 423.803 99.6096C423.803 105.21 424.903 109.56 427.103 112.66C429.303 115.66 432.353 117.16 436.253 117.16ZM506.191 145.96C507.791 145.86 509.841 145.61 512.341 145.21C514.841 144.81 517.391 144.16 519.991 143.26C522.691 142.36 525.291 141.16 527.791 139.66C530.291 138.16 532.391 136.26 534.091 133.96L497.341 49.2096H542.041L554.641 88.5096L565.441 49.2096H609.091L576.391 132.46C573.091 140.96 569.391 148.21 565.291 154.21C561.191 160.31 556.341 165.31 550.741 169.21C545.241 173.11 538.841 176.01 531.541 177.91C524.341 179.81 515.891 180.81 506.191 180.91V145.96ZM639.418 112.96C642.418 112.96 645.118 113.46 647.518 114.46C650.018 115.46 652.118 116.86 653.818 118.66C655.618 120.46 656.968 122.56 657.868 124.96C658.768 127.36 659.218 129.96 659.218 132.76C659.218 135.46 658.718 138.01 657.718 140.41C656.818 142.81 655.518 144.86 653.818 146.56C652.118 148.36 650.018 149.76 647.518 150.76C645.018 151.86 642.218 152.41 639.118 152.41C636.118 152.41 633.418 151.86 631.018 150.76C628.618 149.76 626.518 148.36 624.718 146.56C623.018 144.86 621.718 142.81 620.818 140.41C619.918 138.01 619.468 135.46 619.468 132.76C619.468 129.96 619.918 127.36 620.818 124.96C621.818 122.56 623.168 120.46 624.868 118.66C626.568 116.86 628.668 115.46 631.168 114.46C633.668 113.46 636.418 112.96 639.418 112.96Z"/>
</mask>
<path d="M103.047 17.5596L102.569 20.5213L102.596 20.5256L102.623 20.5294L103.047 17.5596ZM119.997 22.9596L118.572 25.5993L118.592 25.6104L118.613 25.6212L119.997 22.9596ZM132.147 34.0596L129.627 35.6871L132.147 34.0596ZM133.347 67.9596L130.688 66.5698L130.676 66.5938L130.664 66.6179L133.347 67.9596ZM123.747 79.5096L121.894 77.1506L118.405 79.8913L122.248 82.1081L123.747 79.5096ZM136.197 91.3596L133.662 92.9635L136.197 91.3596ZM136.047 130.36L133.479 128.809L136.047 130.36ZM123.447 142.96L121.911 140.383L121.9 140.389L121.889 140.396L123.447 142.96ZM105.897 149.26L105.404 146.3L105.382 146.304L105.36 146.308L105.897 149.26ZM30.7471 151.06H27.7471V154.06H30.7471V151.06ZM30.7471 16.0596V13.0596H27.7471V16.0596H30.7471ZM70.6471 115.06H67.6471V118.06H70.6471V115.06ZM94.3471 114.91L94.5608 117.902L94.6665 117.894L94.7713 117.879L94.3471 114.91ZM97.9471 113.86L96.7057 111.128L96.6551 111.151L96.6054 111.176L97.9471 113.86ZM100.497 111.76L102.993 113.424L103.033 113.364L103.07 113.303L100.497 111.76ZM98.2471 102.16L97.1329 104.945L97.1559 104.954L97.1791 104.963L98.2471 102.16ZM70.6471 100.96V97.9596H67.6471V100.96H70.6471ZM70.6471 65.5596H67.6471V68.5596H70.6471V65.5596ZM94.3471 64.5096L95.4344 67.3056L95.5006 67.2798L95.5655 67.251L94.3471 64.5096ZM94.4971 54.0096L93.0263 56.6243L93.0596 56.643L93.0934 56.6609L94.4971 54.0096ZM70.6471 52.6596V49.6596H67.6471V52.6596H70.6471ZM84.2971 19.0596C90.4376 19.0596 96.5278 19.5468 102.569 20.5213L103.525 14.5978C97.1663 13.5723 90.7566 13.0596 84.2971 13.0596V19.0596ZM102.623 20.5294C108.614 21.3853 113.918 23.0865 118.572 25.5993L121.423 20.3198C116.076 17.4326 110.08 15.5338 103.471 14.5897L102.623 20.5294ZM118.613 25.6212C123.144 27.9775 126.805 31.3182 129.627 35.6871L134.667 32.432C131.289 27.2009 126.85 23.1416 121.381 20.2979L118.613 25.6212ZM129.627 35.6871C132.322 39.8606 133.797 45.4916 133.797 52.8096H139.797C139.797 44.7275 138.172 37.8585 134.667 32.432L129.627 35.6871ZM133.797 52.8096C133.797 58.0977 132.733 62.6584 130.688 66.5698L136.006 69.3493C138.561 64.4607 139.797 58.9215 139.797 52.8096H133.797ZM130.664 66.6179C128.678 70.5886 125.776 74.1005 121.894 77.1506L125.601 81.8685C130.119 78.3187 133.616 74.1305 136.03 69.3012L130.664 66.6179ZM122.248 82.1081C127.043 84.8743 130.831 88.4888 133.662 92.9635L138.732 89.7556C135.363 84.4303 130.852 80.1449 125.246 76.911L122.248 82.1081ZM133.662 92.9635C136.385 97.2674 137.847 102.822 137.847 109.81H143.847C143.847 101.997 142.209 95.2517 138.732 89.7556L133.662 92.9635ZM137.847 109.81C137.847 117.851 136.313 124.115 133.479 128.809L138.615 131.91C142.181 126.004 143.847 118.568 143.847 109.81H137.847ZM133.479 128.809C130.527 133.697 126.678 137.541 121.911 140.383L124.983 145.536C130.616 142.178 135.167 137.622 138.615 131.91L133.479 128.809ZM121.889 140.396C117.153 143.275 111.672 145.256 105.404 146.3L106.39 152.219C113.322 151.064 119.542 148.844 125.005 145.523L121.889 140.396ZM105.36 146.308C98.9399 147.475 92.4196 148.06 85.7971 148.06V154.06C92.7746 154.06 99.6542 153.444 106.434 152.211L105.36 146.308ZM85.7971 148.06H30.7471V154.06H85.7971V148.06ZM33.7471 151.06V16.0596H27.7471V151.06H33.7471ZM30.7471 19.0596H84.2971V13.0596H30.7471V19.0596ZM70.6471 118.06H89.9971V112.06H70.6471V118.06ZM89.9971 118.06C91.5636 118.06 93.085 118.007 94.5608 117.902L94.1333 111.917C92.8091 112.012 91.4306 112.06 89.9971 112.06V118.06ZM94.7713 117.879C96.41 117.645 97.9356 117.219 99.2887 116.543L96.6054 111.176C95.9586 111.5 95.0842 111.774 93.9228 111.94L94.7713 117.879ZM99.1885 116.591C100.737 115.887 102.047 114.843 102.993 113.424L98.0009 110.095C97.7468 110.477 97.3575 110.832 96.7057 111.128L99.1885 116.591ZM103.07 113.303C104.049 111.671 104.397 109.72 104.397 107.71H98.3971C98.3971 109.1 98.1451 109.849 97.9246 110.216L103.07 113.303ZM104.397 107.71C104.397 105.921 104.076 104.177 103.219 102.666C102.329 101.099 100.977 99.9893 99.3151 99.3561L97.1791 104.963C97.617 105.13 97.8402 105.346 98.0005 105.628C98.1928 105.967 98.3971 106.598 98.3971 107.71H104.397ZM99.3612 99.3741C96.8543 98.3714 93.67 97.9596 89.9971 97.9596V103.96C93.3242 103.96 95.6399 104.348 97.1329 104.945L99.3612 99.3741ZM89.9971 97.9596H70.6471V103.96H89.9971V97.9596ZM67.6471 100.96V115.06H73.6471V100.96H67.6471ZM70.6471 68.5596H86.9971V62.5596H70.6471V68.5596ZM86.9971 68.5596C90.2713 68.5596 93.1418 68.1972 95.4344 67.3056L93.2597 61.7136C91.9524 62.222 89.9229 62.5596 86.9971 62.5596V68.5596ZM95.5655 67.251C98.9348 65.7535 100.047 62.4015 100.047 58.9596H94.0471C94.0471 61.3176 93.3593 61.6656 93.1287 61.7681L95.5655 67.251ZM100.047 58.9596C100.047 55.7745 98.841 52.9148 95.9007 51.3582L93.0934 56.6609C93.5532 56.9043 94.0471 57.3447 94.0471 58.9596H100.047ZM95.9679 51.3948C93.6796 50.1077 90.5415 49.6596 86.9971 49.6596V55.6596C90.2526 55.6596 92.1146 56.1115 93.0263 56.6243L95.9679 51.3948ZM86.9971 49.6596H70.6471V55.6596H86.9971V49.6596ZM67.6471 52.6596V65.5596H73.6471V52.6596H67.6471ZM213.63 144.31L216.023 142.501L214.048 139.886L211.617 142.085L213.63 144.31ZM207.18 148.81L205.838 146.126L205.79 146.15L205.743 146.176L207.18 148.81ZM200.73 151.51L199.906 148.625L199.822 148.649L199.739 148.678L200.73 151.51ZM194.88 152.86L194.566 149.876L194.557 149.877L194.549 149.878L194.88 152.86ZM176.28 150.76L177.305 147.94L177.287 147.933L177.268 147.927L176.28 150.76ZM164.88 143.26L162.666 145.284L162.681 145.301L162.697 145.318L164.88 143.26ZM157.23 129.46L160.076 128.511L160.073 128.503L160.071 128.496L157.23 129.46ZM154.38 49.2096V46.2096H151.38V49.2096H154.38ZM194.73 49.2096H197.73V46.2096H194.73V49.2096ZM196.53 113.86L199.102 112.316V112.316L196.53 113.86ZM207.33 115.51L208.873 118.082L208.897 118.068L208.92 118.054L207.33 115.51ZM212.13 109.51L214.777 110.921L215.13 110.26V109.51H212.13ZM212.13 49.2096V46.2096H209.13V49.2096H212.13ZM252.48 49.2096H255.48V46.2096H252.48V49.2096ZM252.48 151.06V154.06H255.48V151.06H252.48ZM218.73 151.06L216.336 152.868L217.237 154.06H218.73V151.06ZM211.617 142.085C209.689 143.829 207.761 145.165 205.838 146.126L208.522 151.493C210.999 150.254 213.371 148.59 215.643 146.534L211.617 142.085ZM205.743 146.176C203.71 147.285 201.764 148.094 199.906 148.625L201.554 154.394C203.895 153.725 206.25 152.734 208.616 151.443L205.743 146.176ZM199.739 148.678C197.934 149.31 196.212 149.703 194.566 149.876L195.194 155.843C197.348 155.616 199.525 155.11 201.721 154.341L199.739 148.678ZM194.549 149.878C192.819 150.07 191.386 150.16 190.23 150.16V156.16C191.674 156.16 193.34 156.049 195.211 155.841L194.549 149.878ZM190.23 150.16C185.663 150.16 181.361 149.415 177.305 147.94L175.255 153.579C179.998 155.304 184.997 156.16 190.23 156.16V150.16ZM177.268 147.927C173.448 146.594 170.051 144.372 167.063 141.202L162.697 145.318C166.308 149.148 170.512 151.925 175.292 153.592L177.268 147.927ZM167.094 141.235C164.243 138.117 161.877 133.915 160.076 128.511L154.384 130.408C156.383 136.404 159.117 141.403 162.666 145.284L167.094 141.235ZM160.071 128.496C158.307 123.297 157.38 116.794 157.38 108.91H151.38C151.38 117.225 152.353 124.422 154.389 130.423L160.071 128.496ZM157.38 108.91V49.2096H151.38V108.91H157.38ZM154.38 52.2096H194.73V46.2096H154.38V52.2096ZM191.73 49.2096V106.06H197.73V49.2096H191.73ZM191.73 106.06C191.73 109.609 192.392 112.794 193.957 115.403L199.102 112.316C198.268 110.925 197.73 108.91 197.73 106.06H191.73ZM193.957 115.403C195.816 118.5 198.924 119.86 202.53 119.86V113.86C200.536 113.86 199.644 113.219 199.102 112.316L193.957 115.403ZM202.53 119.86C204.79 119.86 206.921 119.253 208.873 118.082L205.786 112.937C204.738 113.566 203.67 113.86 202.53 113.86V119.86ZM208.92 118.054C211.195 116.632 213.1 114.066 214.777 110.921L209.483 108.098C207.96 110.953 206.665 112.387 205.74 112.966L208.92 118.054ZM215.13 109.51V49.2096H209.13V109.51H215.13ZM212.13 52.2096H252.48V46.2096H212.13V52.2096ZM249.48 49.2096V151.06H255.48V49.2096H249.48ZM252.48 148.06H218.73V154.06H252.48V148.06ZM221.123 149.251L216.023 142.501L211.236 146.118L216.336 152.868L221.123 149.251ZM369.616 151.06V154.06H372.616V151.06H369.616ZM340.066 151.06L337.519 152.644L338.399 154.06H340.066V151.06ZM335.866 144.31L338.413 142.725L336.525 139.69L333.863 142.076L335.866 144.31ZM325.816 150.61L324.652 147.845L325.816 150.61ZM295.366 149.56L296.506 146.785L296.493 146.779L296.48 146.774L295.366 149.56ZM280.516 139.36L282.684 137.286L282.672 137.274L282.661 137.262L280.516 139.36ZM269.866 122.41L267.064 123.481L267.07 123.499L267.078 123.517L269.866 122.41ZM269.116 77.4096L271.962 78.3583L271.966 78.3449L269.116 77.4096ZM277.966 61.2096L280.236 63.1704L280.247 63.1578L280.258 63.1451L277.966 61.2096ZM291.466 50.8596L292.723 53.5834L292.744 53.5736L292.766 53.5633L291.466 50.8596ZM319.816 48.4596L319.004 51.3475L319.056 51.3623L319.109 51.3751L319.816 48.4596ZM329.116 51.7596L327.812 54.4612L332.116 56.5391V51.7596H329.116ZM329.116 16.0596V13.0596H326.116V16.0596H329.116ZM369.616 16.0596H372.616V13.0596H369.616V16.0596ZM324.916 115.66L326.506 118.204L326.561 118.169L326.615 118.132L324.916 115.66ZM329.116 111.61L331.516 113.41L332.116 112.61V111.61H329.116ZM329.116 88.2096H332.116V87.1572L331.458 86.3355L329.116 88.2096ZM324.016 83.8596L322.495 86.4454L322.583 86.4972L322.674 86.5429L324.016 83.8596ZM309.616 87.3096L312.181 88.8645V88.8645L309.616 87.3096ZM309.916 112.66L307.469 114.396L307.483 114.415L307.497 114.434L309.916 112.66ZM369.616 148.06H340.066V154.06H369.616V148.06ZM342.613 149.475L338.413 142.725L333.319 145.894L337.519 152.644L342.613 149.475ZM333.863 142.076C331.225 144.441 328.163 146.366 324.652 147.845L326.98 153.374C331.069 151.653 334.706 149.378 337.868 146.543L333.863 142.076ZM324.652 147.845C321.29 149.26 317.299 150.01 312.616 150.01V156.01C317.933 156.01 322.742 155.159 326.98 153.374L324.652 147.845ZM312.616 150.01C307.117 150.01 301.754 148.94 296.506 146.785L294.226 152.335C300.178 154.779 306.315 156.01 312.616 156.01V150.01ZM296.48 146.774C291.407 144.745 286.81 141.6 282.684 137.286L278.348 141.433C283.022 146.32 288.324 149.974 294.252 152.345L296.48 146.774ZM282.661 137.262C278.58 133.089 275.231 127.792 272.654 121.302L267.078 123.517C269.901 130.627 273.651 136.63 278.371 141.457L282.661 137.262ZM272.668 121.338C270.227 114.954 268.966 107.381 268.966 98.5596H262.966C262.966 107.938 264.305 116.265 267.064 123.481L272.668 121.338ZM268.966 98.5596C268.966 91.0271 269.98 84.3043 271.962 78.3583L266.27 76.4609C264.052 83.1148 262.966 90.492 262.966 98.5596H268.966ZM271.966 78.3449C273.962 72.2626 276.733 67.2265 280.236 63.1704L275.695 59.2487C271.598 63.9926 268.47 69.7565 266.265 76.4743L271.966 78.3449ZM280.258 63.1451C283.783 58.9706 287.933 55.7942 292.723 53.5834L290.209 48.1357C284.599 50.7249 279.749 54.4485 275.674 59.274L280.258 63.1451ZM292.766 53.5633C297.53 51.2726 302.782 50.1096 308.566 50.1096V44.1096C301.95 44.1096 295.801 45.4465 290.166 48.1558L292.766 53.5633ZM308.566 50.1096C312.667 50.1096 316.132 50.5399 319.004 51.3475L320.628 45.5716C317.099 44.5792 313.065 44.1096 308.566 44.1096V50.1096ZM319.109 51.3751C322.214 52.1278 325.113 53.1583 327.812 54.4612L330.42 49.0579C327.319 47.5608 324.018 46.3913 320.523 45.544L319.109 51.3751ZM332.116 51.7596V16.0596H326.116V51.7596H332.116ZM329.116 19.0596H369.616V13.0596H329.116V19.0596ZM366.616 16.0596V151.06H372.616V16.0596H366.616ZM319.066 120.16C321.805 120.16 324.334 119.561 326.506 118.204L323.326 113.116C322.298 113.758 320.927 114.16 319.066 114.16V120.16ZM326.615 118.132C328.492 116.842 330.126 115.262 331.516 113.41L326.716 109.81C325.705 111.157 324.54 112.278 323.216 113.187L326.615 118.132ZM332.116 111.61V88.2096H326.116V111.61H332.116ZM331.458 86.3355C329.659 84.0858 327.636 82.3158 325.357 81.1763L322.674 86.5429C323.995 87.2034 325.373 88.3333 326.773 90.0837L331.458 86.3355ZM325.537 81.2738C323.483 80.0653 321.312 79.3596 319.066 79.3596V85.3596C320.019 85.3596 321.149 85.6538 322.495 86.4454L325.537 81.2738ZM319.066 79.3596C313.86 79.3596 309.664 81.4412 307.05 85.7547L312.181 88.8645C313.567 86.5779 315.671 85.3596 319.066 85.3596V79.3596ZM307.05 85.7547C304.699 89.6344 303.616 94.3074 303.616 99.6096H309.616C309.616 95.1118 310.533 91.5847 312.181 88.8645L307.05 85.7547ZM303.616 99.6096C303.616 105.552 304.775 110.6 307.469 114.396L312.362 110.923C310.656 108.519 309.616 104.867 309.616 99.6096H303.616ZM307.497 114.434C310.293 118.247 314.264 120.16 319.066 120.16V114.16C316.067 114.16 313.939 113.072 312.335 110.885L307.497 114.434ZM486.803 151.06V154.06H489.803V151.06H486.803ZM457.253 151.06L454.706 152.644L455.587 154.06H457.253V151.06ZM453.053 144.31L455.6 142.725L453.712 139.69L451.051 142.076L453.053 144.31ZM443.003 150.61L441.839 147.845L443.003 150.61ZM412.553 149.56L413.693 146.785L413.68 146.779L413.667 146.774L412.553 149.56ZM397.703 139.36L399.871 137.286L399.86 137.274L399.848 137.262L397.703 139.36ZM387.053 122.41L384.251 123.481L384.258 123.499L384.265 123.517L387.053 122.41ZM386.303 77.4096L389.149 78.3583L389.154 78.3449L386.303 77.4096ZM395.153 61.2096L397.424 63.1704L397.435 63.1578L397.445 63.1451L395.153 61.2096ZM408.653 50.8596L409.91 53.5834L409.932 53.5736L409.953 53.5633L408.653 50.8596ZM437.003 48.4596L436.191 51.3475L436.244 51.3623L436.297 51.3751L437.003 48.4596ZM446.303 51.7596L444.999 54.4612L449.303 56.5391V51.7596H446.303ZM446.303 16.0596V13.0596H443.303V16.0596H446.303ZM486.803 16.0596H489.803V13.0596H486.803V16.0596ZM442.103 115.66L443.693 118.204L443.749 118.169L443.803 118.132L442.103 115.66ZM446.303 111.61L448.703 113.41L449.303 112.61V111.61H446.303ZM446.303 88.2096H449.303V87.1572L448.646 86.3355L446.303 88.2096ZM441.203 83.8596L439.682 86.4454L439.77 86.4972L439.862 86.5429L441.203 83.8596ZM426.803 87.3096L429.369 88.8645V88.8645L426.803 87.3096ZM427.103 112.66L424.657 114.396L424.67 114.415L424.684 114.434L427.103 112.66ZM486.803 148.06H457.253V154.06H486.803V148.06ZM459.801 149.475L455.6 142.725L450.506 145.894L454.706 152.644L459.801 149.475ZM451.051 142.076C448.413 144.441 445.35 146.366 441.839 147.845L444.167 153.374C448.256 151.653 451.894 149.378 455.056 146.543L451.051 142.076ZM441.839 147.845C438.477 149.26 434.486 150.01 429.803 150.01V156.01C435.12 156.01 439.93 155.159 444.167 153.374L441.839 147.845ZM429.803 150.01C424.305 150.01 418.941 148.94 413.693 146.785L411.414 152.335C417.366 154.779 423.502 156.01 429.803 156.01V150.01ZM413.667 146.774C408.595 144.745 403.997 141.6 399.871 137.286L395.535 141.433C400.209 146.32 405.512 149.974 411.439 152.345L413.667 146.774ZM399.848 137.262C395.768 133.089 392.418 127.792 389.842 121.302L384.265 123.517C387.088 130.627 390.839 136.63 395.558 141.457L399.848 137.262ZM389.855 121.338C387.414 114.954 386.153 107.381 386.153 98.5596H380.153C380.153 107.938 381.492 116.265 384.251 123.481L389.855 121.338ZM386.153 98.5596C386.153 91.0271 387.167 84.3043 389.149 78.3583L383.457 76.4609C381.239 83.1148 380.153 90.492 380.153 98.5596H386.153ZM389.154 78.3449C391.15 72.2626 393.921 67.2265 397.424 63.1704L392.883 59.2487C388.786 63.9926 385.657 69.7565 383.453 76.4743L389.154 78.3449ZM397.445 63.1451C400.971 58.9706 405.12 55.7942 409.91 53.5834L407.396 48.1357C401.786 50.7249 396.936 54.4485 392.861 59.274L397.445 63.1451ZM409.953 53.5633C414.718 51.2726 419.969 50.1096 425.753 50.1096V44.1096C419.138 44.1096 412.989 45.4465 407.353 48.1558L409.953 53.5633ZM425.753 50.1096C429.855 50.1096 433.32 50.5399 436.191 51.3475L437.816 45.5716C434.287 44.5792 430.252 44.1096 425.753 44.1096V50.1096ZM436.297 51.3751C439.402 52.1278 442.3 53.1583 444.999 54.4612L447.608 49.0579C444.506 47.5608 441.205 46.3913 437.71 45.544L436.297 51.3751ZM449.303 51.7596V16.0596H443.303V51.7596H449.303ZM446.303 19.0596H486.803V13.0596H446.303V19.0596ZM483.803 16.0596V151.06H489.803V16.0596H483.803ZM436.253 120.16C438.992 120.16 441.522 119.561 443.693 118.204L440.513 113.116C439.485 113.758 438.115 114.16 436.253 114.16V120.16ZM443.803 118.132C445.679 116.842 447.314 115.262 448.703 113.41L443.903 109.81C442.893 111.157 441.727 112.278 440.404 113.187L443.803 118.132ZM449.303 111.61V88.2096H443.303V111.61H449.303ZM448.646 86.3355C446.846 84.0858 444.824 82.3158 442.545 81.1763L439.862 86.5429C441.183 87.2034 442.56 88.3333 443.961 90.0837L448.646 86.3355ZM442.724 81.2738C440.67 80.0653 438.5 79.3596 436.253 79.3596V85.3596C437.207 85.3596 438.337 85.6538 439.682 86.4454L442.724 81.2738ZM436.253 79.3596C431.048 79.3596 426.852 81.4412 424.238 85.7547L429.369 88.8645C430.755 86.5779 432.859 85.3596 436.253 85.3596V79.3596ZM424.238 85.7547C421.886 89.6344 420.803 94.3074 420.803 99.6096H426.803C426.803 95.1118 427.72 91.5847 429.369 88.8645L424.238 85.7547ZM420.803 99.6096C420.803 105.552 421.963 110.6 424.657 114.396L429.55 110.923C427.844 108.519 426.803 104.867 426.803 99.6096H420.803ZM424.684 114.434C427.481 118.247 431.452 120.16 436.253 120.16V114.16C433.255 114.16 431.126 113.072 429.523 110.885L424.684 114.434ZM506.191 145.96L506.004 142.965L503.191 143.141V145.96H506.191ZM512.341 145.21L512.815 148.172L512.341 145.21ZM519.991 143.26L519.042 140.414L519.026 140.419L519.009 140.425L519.991 143.26ZM527.791 139.66L526.247 137.087L527.791 139.66ZM534.091 133.96L536.503 135.743L537.531 134.352L536.843 132.766L534.091 133.96ZM497.341 49.2096V46.2096H492.77L494.588 50.4031L497.341 49.2096ZM542.041 49.2096L544.898 48.2937L544.229 46.2096H542.041V49.2096ZM554.641 88.5096L551.784 89.4255L554.862 99.0259L557.534 89.3045L554.641 88.5096ZM565.441 49.2096V46.2096H563.154L562.548 48.4146L565.441 49.2096ZM609.091 49.2096L611.883 50.3064L613.492 46.2096H609.091V49.2096ZM576.391 132.46L573.599 131.363L573.594 131.374L576.391 132.46ZM565.291 154.21L562.814 152.517L562.807 152.527L562.801 152.536L565.291 154.21ZM550.741 169.21L549.026 166.748L549.016 166.755L549.006 166.762L550.741 169.21ZM531.541 177.91L530.785 175.006L530.775 175.009L531.541 177.91ZM506.191 180.91H503.191V183.941L506.222 183.909L506.191 180.91ZM506.378 148.954C508.112 148.845 510.267 148.579 512.815 148.172L511.867 142.247C509.414 142.64 507.469 142.874 506.004 142.965L506.378 148.954ZM512.815 148.172C515.501 147.742 518.221 147.047 520.972 146.095L519.009 140.425C516.56 141.272 514.18 141.877 511.867 142.247L512.815 148.172ZM520.94 146.106C523.852 145.135 526.651 143.842 529.334 142.232L526.247 137.087C523.93 138.477 521.529 139.584 519.042 140.414L520.94 146.106ZM529.334 142.232C532.166 140.533 534.564 138.367 536.503 135.743L531.678 132.176C530.218 134.152 528.415 135.786 526.247 137.087L529.334 142.232ZM536.843 132.766L500.093 48.0161L494.588 50.4031L531.338 135.153L536.843 132.766ZM497.341 52.2096H542.041V46.2096H497.341V52.2096ZM539.184 50.1255L551.784 89.4255L557.498 87.5937L544.898 48.2937L539.184 50.1255ZM557.534 89.3045L568.334 50.0045L562.548 48.4146L551.748 87.7146L557.534 89.3045ZM565.441 52.2096H609.091V46.2096H565.441V52.2096ZM606.299 48.1128L573.599 131.363L579.183 133.556L611.883 50.3064L606.299 48.1128ZM573.594 131.374C570.357 139.712 566.757 146.747 562.814 152.517L567.768 155.902C572.025 149.672 575.824 142.208 579.187 133.545L573.594 131.374ZM562.801 152.536C558.892 158.351 554.298 163.076 549.026 166.748L552.455 171.671C558.383 167.543 563.489 162.268 567.781 155.883L562.801 152.536ZM549.006 166.762C543.835 170.429 537.775 173.187 530.785 175.006L532.296 180.813C539.906 178.832 546.647 175.79 552.476 171.657L549.006 166.762ZM530.775 175.009C523.875 176.83 515.682 177.812 506.16 177.91L506.222 183.909C516.099 183.808 524.807 182.789 532.306 180.81L530.775 175.009ZM509.191 180.91V145.96H503.191V180.91H509.191ZM647.518 114.46L646.364 117.229L646.384 117.237L646.404 117.245L647.518 114.46ZM653.818 118.66L651.637 120.719L651.666 120.751L651.696 120.781L653.818 118.66ZM657.718 140.41L654.949 139.256L654.928 139.306L654.909 139.356L657.718 140.41ZM653.818 146.56L651.696 144.438L651.666 144.469L651.637 144.5L653.818 146.56ZM647.518 150.76L646.404 147.974L646.356 147.993L646.31 148.014L647.518 150.76ZM631.018 150.76L632.268 148.032L632.22 148.011L632.172 147.99L631.018 150.76ZM620.818 140.41L623.627 139.356L620.818 140.41ZM620.818 124.96L618.049 123.806L618.028 123.856L618.009 123.906L620.818 124.96ZM624.868 118.66L622.687 116.6L624.868 118.66ZM631.168 114.46L630.054 111.674L631.168 114.46ZM639.418 115.96C642.082 115.96 644.381 116.403 646.364 117.229L648.672 111.69C645.854 110.516 642.753 109.96 639.418 109.96V115.96ZM646.404 117.245C648.535 118.098 650.261 119.263 651.637 120.719L655.999 116.6C653.975 114.456 651.5 112.821 648.632 111.674L646.404 117.245ZM651.696 120.781C653.191 122.276 654.308 124.011 655.059 126.013L660.677 123.906C659.627 121.108 658.044 118.643 655.939 116.538L651.696 120.781ZM655.059 126.013C655.821 128.046 656.218 130.286 656.218 132.76H662.218C662.218 129.633 661.714 126.673 660.677 123.906L655.059 126.013ZM656.218 132.76C656.218 135.079 655.79 137.235 654.949 139.256L660.487 141.563C661.645 138.784 662.218 135.84 662.218 132.76H656.218ZM654.909 139.356C654.149 141.382 653.074 143.061 651.696 144.438L655.939 148.681C657.962 146.658 659.487 144.237 660.527 141.463L654.909 139.356ZM651.637 144.5C650.261 145.956 648.535 147.121 646.404 147.974L648.632 153.545C651.5 152.398 653.975 150.763 655.999 148.619L651.637 144.5ZM646.31 148.014C644.238 148.925 641.858 149.41 639.118 149.41V155.41C642.578 155.41 645.797 154.794 648.726 153.506L646.31 148.014ZM639.118 149.41C636.49 149.41 634.225 148.93 632.268 148.032L629.768 153.487C632.61 154.79 635.745 155.41 639.118 155.41V149.41ZM632.172 147.99C630.125 147.138 628.356 145.955 626.839 144.438L622.596 148.681C624.68 150.764 627.11 152.381 629.864 153.529L632.172 147.99ZM626.839 144.438C625.462 143.061 624.387 141.382 623.627 139.356L618.009 141.463C619.049 144.237 620.574 146.658 622.596 148.681L626.839 144.438ZM623.627 139.356C622.86 137.311 622.468 135.119 622.468 132.76H616.468C616.468 135.8 616.976 138.708 618.009 141.463L623.627 139.356ZM622.468 132.76C622.468 130.286 622.864 128.046 623.627 126.013L618.009 123.906C616.971 126.673 616.468 129.633 616.468 132.76H622.468ZM623.587 126.113C624.454 124.032 625.61 122.242 627.049 120.719L622.687 116.6C620.725 118.677 619.181 121.088 618.049 123.806L623.587 126.113ZM627.049 120.719C628.425 119.263 630.15 118.098 632.282 117.245L630.054 111.674C627.185 112.821 624.711 114.456 622.687 116.6L627.049 120.719ZM632.282 117.245C634.389 116.402 636.756 115.96 639.418 115.96V109.96C636.08 109.96 632.946 110.517 630.054 111.674L632.282 117.245Z" fill="#FBDE66" mask="url(#path-1-outside-1_112_1992)"/>
<path d="M78.2971 7.5078C84.5971 7.5078 90.8471 8.00781 97.0471 9.00781C103.347 9.90781 108.997 11.7078 113.997 14.4078C118.997 17.0078 123.047 20.7078 126.147 25.5078C129.247 30.3078 130.797 36.5578 130.797 44.2578C130.797 49.9578 129.647 55.0078 127.347 59.4078C125.147 63.8078 121.947 67.6578 117.747 70.9578C122.947 73.9578 127.097 77.9078 130.197 82.8078C133.297 87.7078 134.847 93.8578 134.847 101.258C134.847 109.658 133.247 116.508 130.047 121.808C126.847 127.108 122.647 131.308 117.447 134.408C112.347 137.508 106.497 139.608 99.8971 140.708C93.2971 141.908 86.5971 142.508 79.7971 142.508H24.7471V7.5078H78.2971ZM64.6471 106.508H83.9971C85.4971 106.508 86.9471 106.458 88.3471 106.358C89.7471 106.158 90.9471 105.808 91.9471 105.308C93.0471 104.808 93.8971 104.108 94.4971 103.208C95.0971 102.208 95.3971 100.858 95.3971 99.1578C95.3971 96.2578 94.3471 94.4078 92.2471 93.6078C90.2471 92.8078 87.4971 92.4078 83.9971 92.4078H64.6471V106.508ZM64.6471 57.0078H80.9971C84.0971 57.0078 86.5471 56.6578 88.3471 55.9578C90.1471 55.1578 91.0471 53.3078 91.0471 50.4078C91.0471 48.0078 90.1971 46.3578 88.4971 45.4578C86.8971 44.5578 84.3971 44.1078 80.9971 44.1078H64.6471V57.0078ZM207.63 135.758C205.53 137.658 203.38 139.158 201.18 140.258C198.98 141.458 196.83 142.358 194.73 142.958C192.73 143.658 190.78 144.108 188.88 144.308C187.08 144.508 185.53 144.608 184.23 144.608C179.33 144.608 174.68 143.808 170.28 142.208C165.98 140.708 162.18 138.208 158.88 134.708C155.68 131.208 153.13 126.608 151.23 120.908C149.33 115.308 148.38 108.458 148.38 100.358V40.6578H188.73V97.5078C188.73 100.708 189.33 103.308 190.53 105.308C191.73 107.308 193.73 108.308 196.53 108.308C198.23 108.308 199.83 107.858 201.33 106.958C202.93 105.958 204.53 103.958 206.13 100.958V40.6578H246.48V142.508H212.73L207.63 135.758ZM363.616 142.508H334.066L329.866 135.758C326.966 138.358 323.616 140.458 319.816 142.058C316.016 143.658 311.616 144.458 306.616 144.458C300.716 144.458 294.966 143.308 289.366 141.008C283.866 138.808 278.916 135.408 274.516 130.808C270.116 126.308 266.566 120.658 263.866 113.858C261.266 107.058 259.966 99.1078 259.966 90.0078C259.966 82.2078 261.016 75.1578 263.116 68.8578C265.216 62.4578 268.166 57.0578 271.966 52.6578C275.766 48.1578 280.266 44.7078 285.466 42.3078C290.666 39.8078 296.366 38.5578 302.566 38.5578C306.866 38.5578 310.616 39.0078 313.816 39.9078C317.116 40.7078 320.216 41.8078 323.116 43.2078V7.5078H363.616V142.508ZM313.066 108.608C315.366 108.608 317.316 108.108 318.916 107.108C320.516 106.008 321.916 104.658 323.116 103.058V79.6578C321.516 77.6578 319.816 76.2078 318.016 75.3078C316.316 74.3078 314.666 73.8078 313.066 73.8078C308.766 73.8078 305.616 75.4578 303.616 78.7578C301.616 82.0578 300.616 86.1578 300.616 91.0578C300.616 96.6578 301.716 101.008 303.916 104.108C306.116 107.108 309.166 108.608 313.066 108.608ZM480.803 142.508H451.253L447.053 135.758C444.153 138.358 440.803 140.458 437.003 142.058C433.203 143.658 428.803 144.458 423.803 144.458C417.903 144.458 412.153 143.308 406.553 141.008C401.053 138.808 396.103 135.408 391.703 130.808C387.303 126.308 383.753 120.658 381.053 113.858C378.453 107.058 377.153 99.1078 377.153 90.0078C377.153 82.2078 378.203 75.1578 380.303 68.8578C382.403 62.4578 385.353 57.0578 389.153 52.6578C392.953 48.1578 397.453 44.7078 402.653 42.3078C407.853 39.8078 413.553 38.5578 419.753 38.5578C424.053 38.5578 427.803 39.0078 431.003 39.9078C434.303 40.7078 437.403 41.8078 440.303 43.2078V7.5078H480.803V142.508ZM430.253 108.608C432.553 108.608 434.503 108.108 436.103 107.108C437.703 106.008 439.103 104.658 440.303 103.058V79.6578C438.703 77.6578 437.003 76.2078 435.203 75.3078C433.503 74.3078 431.853 73.8078 430.253 73.8078C425.953 73.8078 422.803 75.4578 420.803 78.7578C418.803 82.0578 417.803 86.1578 417.803 91.0578C417.803 96.6578 418.903 101.008 421.103 104.108C423.303 107.108 426.353 108.608 430.253 108.608ZM500.191 137.408C501.791 137.308 503.841 137.058 506.341 136.658C508.841 136.258 511.391 135.608 513.991 134.708C516.691 133.808 519.291 132.608 521.791 131.108C524.291 129.608 526.391 127.708 528.091 125.408L491.341 40.6578H536.041L548.641 79.9578L559.441 40.6578H603.091L570.391 123.908C567.091 132.408 563.391 139.658 559.291 145.658C555.191 151.758 550.341 156.758 544.741 160.658C539.241 164.558 532.841 167.458 525.541 169.358C518.341 171.258 509.891 172.258 500.191 172.358V137.408ZM633.418 104.408C636.418 104.408 639.118 104.908 641.518 105.908C644.018 106.908 646.118 108.308 647.818 110.108C649.618 111.908 650.968 114.008 651.868 116.408C652.768 118.808 653.218 121.408 653.218 124.208C653.218 126.908 652.718 129.458 651.718 131.858C650.818 134.258 649.518 136.308 647.818 138.008C646.118 139.808 644.018 141.208 641.518 142.208C639.018 143.308 636.218 143.858 633.118 143.858C630.118 143.858 627.418 143.308 625.018 142.208C622.618 141.208 620.518 139.808 618.718 138.008C617.018 136.308 615.718 134.258 614.818 131.858C613.918 129.458 613.468 126.908 613.468 124.208C613.468 121.408 613.918 118.808 614.818 116.408C615.818 114.008 617.168 111.908 618.868 110.108C620.568 108.308 622.668 106.908 625.168 105.908C627.668 104.908 630.418 104.408 633.418 104.408Z" fill="#FBDE66"/>
</svg>
