<svg width="1027" height="655" viewBox="0 0 1027 655" fill="none" xmlns="http://www.w3.org/2000/svg">
<path d="M5.88 159V109.44H22.12C32.76 109.51 38.15 116.16 38.22 124.84C38.15 133.59 32.76 140.31 22.12 140.24H10.78V159H5.88ZM10.78 135.9H21.98C29.68 135.9 33.39 131.21 33.32 124.84C33.39 118.47 29.68 113.85 21.84 113.92H10.78V135.9ZM46.6025 159V121.9H51.0825V127.64H51.3625C52.9025 123.86 56.8925 121.34 61.4425 121.34H63.8225V126.1C63.4725 126.03 62.2825 125.82 61.1625 125.82C55.4225 125.82 51.2225 129.74 51.2225 135.2V159H46.6025ZM83.9393 159.84C73.4393 159.77 66.9293 151.93 66.8593 140.66C66.9293 129.39 73.5793 121.34 83.2393 121.34C91.3593 121.34 99.0593 127.08 99.0593 139.68V141.92H71.6193C71.8293 150.25 76.5893 155.57 83.9393 155.64C89.0493 155.57 92.0593 152.98 93.3193 150.6H98.3593C96.6793 155.71 91.4293 159.77 83.9393 159.84ZM71.6193 137.86H94.2993C94.3693 130.86 89.8193 125.54 83.3793 125.54C76.6593 125.54 71.9693 131.14 71.6193 137.86ZM122.146 121.9V125.82H114.446V149.06C114.376 153.75 117.036 155.08 119.906 155.08C120.746 155.08 122.146 155.01 122.986 154.94V159.28C122.146 159.42 121.026 159.56 119.486 159.56C114.586 159.56 109.756 156.41 109.686 150.18V125.82H104.226V121.9H109.686V112.94H114.446V121.9H122.146ZM145.394 159.84C134.894 159.77 128.384 151.93 128.314 140.66C128.384 129.39 135.034 121.34 144.694 121.34C152.814 121.34 160.514 127.08 160.514 139.68V141.92H133.074C133.284 150.25 138.044 155.57 145.394 155.64C150.504 155.57 153.514 152.98 154.774 150.6H159.814C158.134 155.71 152.884 159.77 145.394 159.84ZM133.074 137.86H155.754C155.824 130.86 151.274 125.54 144.834 125.54C138.114 125.54 133.424 131.14 133.074 137.86ZM173.381 135.9V159H168.761V121.9H173.241V127.78H173.661C175.411 123.93 179.121 121.41 184.581 121.34C192.071 121.41 197.181 126.17 197.181 135.06V159H192.561V135.34C192.491 129.39 188.921 125.61 183.321 125.68C177.581 125.61 173.381 129.53 173.381 135.9ZM220.687 159.84C211.587 159.77 205.357 152.07 205.287 140.52C205.357 129.04 211.587 121.34 220.687 121.34C227.617 121.34 230.557 125.61 232.027 128.76H232.307V109.44H237.067V159H232.447V152.28H232.027C230.487 155.5 227.477 159.77 220.687 159.84ZM210.047 140.52C210.047 148.99 214.037 155.57 221.247 155.5C228.387 155.57 232.447 149.27 232.447 140.52C232.447 131.7 228.457 125.61 221.247 125.54C213.967 125.61 210.047 132.05 210.047 140.52ZM246.99 148.64C246.92 141.08 253.08 138.21 260.57 137.58C263.16 137.44 269.25 137.09 270.93 137.02V133.52C270.93 128.55 267.71 125.47 261.97 125.54C257.07 125.47 253.71 127.71 252.87 131.14H247.97C248.81 125.26 254.48 121.34 262.11 121.34C267.71 121.34 275.55 123.72 275.55 133.94V159H270.93V153.26H270.65C269.11 156.48 265.4 159.84 259.17 159.84C252.45 159.84 246.92 155.78 246.99 148.64ZM251.61 148.78C251.61 153.19 255.18 155.64 259.87 155.64C266.73 155.64 270.93 150.74 270.93 144.86V140.87C269.04 141.01 263.23 141.43 261.27 141.64C254.76 142.06 251.61 144.58 251.61 148.78ZM285.655 159V121.9H290.135V127.64H290.415C291.955 123.86 295.945 121.34 300.495 121.34H302.875V126.1C302.525 126.03 301.335 125.82 300.215 125.82C294.475 125.82 290.275 129.74 290.275 135.2V159H285.655ZM321.312 159.84C312.212 159.77 305.982 152.07 305.912 140.52C305.982 129.04 312.212 121.34 321.312 121.34C328.242 121.34 331.182 125.61 332.652 128.76H332.932V109.44H337.692V159H333.072V152.28H332.652C331.112 155.5 328.102 159.77 321.312 159.84ZM310.672 140.52C310.672 148.99 314.662 155.57 321.872 155.5C329.012 155.57 333.072 149.27 333.072 140.52C333.072 131.7 329.082 125.61 321.872 125.54C314.592 125.61 310.672 132.05 310.672 140.52ZM366.407 159V109.44H371.307V154.66H394.687V159H366.407ZM402.686 159V121.9H407.306V159H402.686ZM401.706 112.24C401.706 110.49 403.246 109.09 405.066 109.02C406.956 109.09 408.496 110.49 408.566 112.24C408.496 114.13 406.956 115.53 405.066 115.6C403.246 115.53 401.706 114.13 401.706 112.24ZM431.8 173.7C423.61 173.7 417.66 170.2 416.82 163.62H421.72C422.56 167.61 426.48 169.57 431.8 169.64C438.59 169.57 442.65 166.49 442.72 159.7V151.44H442.3C440.83 154.66 437.68 158.58 430.96 158.58C422.07 158.58 415.63 151.58 415.56 140.1C415.63 128.76 421.86 121.34 430.96 121.34C437.89 121.34 440.83 125.61 442.3 128.76H442.72V121.9H447.34V159.98C447.34 169.43 440.76 173.7 431.8 173.7ZM420.32 140.24C420.32 148.64 424.31 154.38 431.52 154.38C438.59 154.38 442.72 149.06 442.72 140.24C442.72 131.7 438.73 125.61 431.52 125.54C424.24 125.61 420.32 132.05 420.32 140.24ZM462.062 135.9V159H457.442V109.44H462.062V127.78H462.482C464.232 123.86 467.802 121.41 473.402 121.34C481.032 121.41 486.142 126.1 486.142 135.06V159H481.382V135.34C481.452 129.32 477.882 125.61 472.142 125.68C466.332 125.61 462.062 129.53 462.062 135.9ZM511.042 121.9V125.82H503.342V149.06C503.272 153.75 505.932 155.08 508.802 155.08C509.642 155.08 511.042 155.01 511.882 154.94V159.28C511.042 159.42 509.922 159.56 508.382 159.56C503.482 159.56 498.652 156.41 498.582 150.18V125.82H493.122V121.9H498.582V112.94H503.342V121.9H511.042Z" fill="#333333"/>
<path d="M6.3 68V18.44H21.84C31.57 18.51 37.17 24.88 37.24 33.56C37.17 42.1 31.57 48.54 21.84 48.54H9.8V68H6.3ZM9.8 45.32H21.7C29.33 45.32 33.67 40.35 33.6 33.56C33.67 26.7 29.33 21.73 21.7 21.8H9.8V45.32ZM46.1989 68V30.9H49.5589V36.64H49.8389C51.3789 32.86 55.5089 30.34 60.3389 30.34H62.0189V33.84C61.6689 33.84 60.9689 33.7 60.0589 33.7C54.0389 33.7 49.6289 37.9 49.6989 43.78V68H46.1989ZM82.022 68.84C71.802 68.77 65.292 60.72 65.362 49.66C65.292 38.46 71.942 30.34 81.322 30.34C89.582 30.34 96.862 36.92 96.862 48.4V50.36H68.722C68.862 59.25 73.902 65.62 82.022 65.62C87.762 65.62 90.982 62.26 92.242 59.88H96.022C94.412 64.5 89.372 68.77 82.022 68.84ZM68.722 47.28H93.362C93.362 39.51 88.182 33.49 81.322 33.42C74.322 33.49 69.142 39.58 68.722 47.28ZM119.115 30.9V33.84H111.415V58.9C111.415 63.45 114.285 65.27 117.435 65.34C118.135 65.27 119.395 65.2 120.095 65.2V68.42C119.465 68.49 118.555 68.56 117.155 68.56C112.465 68.56 107.915 65.41 107.915 59.6V33.84H102.455V30.9H107.915V21.94H111.415V30.9H119.115ZM142.657 68.84C132.437 68.77 125.927 60.72 125.997 49.66C125.927 38.46 132.577 30.34 141.957 30.34C150.217 30.34 157.497 36.92 157.497 48.4V50.36H129.357C129.497 59.25 134.537 65.62 142.657 65.62C148.397 65.62 151.617 62.26 152.877 59.88H156.657C155.047 64.5 150.007 68.77 142.657 68.84ZM129.357 47.28H153.997C153.997 39.51 148.817 33.49 141.957 33.42C134.957 33.49 129.777 39.58 129.357 47.28ZM169.67 44.2V68H166.17V30.9H169.53V36.78H169.81C171.56 32.93 175.48 30.41 180.87 30.34C188.36 30.41 193.47 35.31 193.47 43.64V68H189.97V43.78C190.04 37.62 186.05 33.56 180.03 33.56C174.01 33.56 169.6 37.76 169.67 44.2ZM216.989 68.84C208.029 68.77 202.079 60.86 202.149 49.52C202.079 38.25 208.099 30.34 217.129 30.34C223.569 30.34 227.209 34.4 228.889 38.74H229.169V18.44H232.529V68H229.169V60.3H228.889C227.139 64.64 223.499 68.77 216.989 68.84ZM205.509 49.52C205.579 58.62 209.919 65.62 217.409 65.62C224.829 65.62 229.239 58.76 229.169 49.52C229.239 40.21 224.829 33.49 217.409 33.56C209.849 33.49 205.579 40.42 205.509 49.52ZM243.848 57.78C243.918 51.2 248.608 47.42 257.288 46.72C260.018 46.51 266.248 46.09 267.928 46.02V42.1C267.858 36.78 264.288 33.42 258.268 33.42C253.228 33.42 249.378 35.8 248.468 39.58H244.968C245.738 33.98 251.268 30.34 258.408 30.34C264.708 30.34 271.288 33.63 271.288 42.24V68H267.928V61.56H267.648C265.828 65.48 261.768 68.84 255.748 68.84C249.308 68.84 243.918 64.85 243.848 57.78ZM247.348 57.92C247.348 62.75 251.128 65.69 256.168 65.62C263.098 65.69 267.858 60.3 267.928 53.16V48.96C266.248 49.03 260.018 49.52 257.988 49.66C250.288 50.22 247.348 53.44 247.348 57.92ZM282.039 68V30.9H285.399V36.64H285.679C287.219 32.86 291.349 30.34 296.179 30.34H297.859V33.84C297.509 33.84 296.809 33.7 295.899 33.7C289.879 33.7 285.469 37.9 285.539 43.78V68H282.039ZM316.042 68.84C307.082 68.77 301.132 60.86 301.202 49.52C301.132 38.25 307.152 30.34 316.182 30.34C322.622 30.34 326.262 34.4 327.942 38.74H328.222V18.44H331.582V68H328.222V60.3H327.942C326.192 64.64 322.552 68.77 316.042 68.84ZM304.562 49.52C304.632 58.62 308.972 65.62 316.462 65.62C323.882 65.62 328.292 58.76 328.222 49.52C328.292 40.21 323.882 33.49 316.462 33.56C308.902 33.49 304.632 40.42 304.562 49.52ZM360.47 68V18.44H388.47V21.8H363.97V41.54H386.93V44.9H363.97V64.78H389.03V68H360.47ZM400.066 30.9L410.006 47.14L420.086 30.9H424.006L412.106 49.38L424.006 68H420.086L410.006 52.04L400.066 68H396.006L407.906 49.38L396.006 30.9H400.066ZM446.009 30.9V33.84H438.309V58.9C438.309 63.45 441.179 65.27 444.329 65.34C445.029 65.27 446.289 65.2 446.989 65.2V68.42C446.359 68.49 445.449 68.56 444.049 68.56C439.359 68.56 434.809 65.41 434.809 59.6V33.84H429.349V30.9H434.809V21.94H438.309V30.9H446.009ZM455.261 68V30.9H458.621V36.64H458.901C460.441 32.86 464.571 30.34 469.401 30.34H471.081V33.84C470.731 33.84 470.031 33.7 469.121 33.7C463.101 33.7 458.691 37.9 458.761 43.78V68H455.261ZM475.587 57.78C475.657 51.2 480.347 47.42 489.027 46.72C491.757 46.51 497.987 46.09 499.667 46.02V42.1C499.597 36.78 496.027 33.42 490.007 33.42C484.967 33.42 481.117 35.8 480.207 39.58H476.707C477.477 33.98 483.007 30.34 490.147 30.34C496.447 30.34 503.027 33.63 503.027 42.24V68H499.667V61.56H499.387C497.567 65.48 493.507 68.84 487.487 68.84C481.047 68.84 475.657 64.85 475.587 57.78ZM479.087 57.92C479.087 62.75 482.867 65.69 487.907 65.62C494.837 65.69 499.597 60.3 499.667 53.16V48.96C497.987 49.03 491.757 49.52 489.727 49.66C482.027 50.22 479.087 53.44 479.087 57.92ZM531.027 68V18.44H534.527V64.78H558.607V68H531.027ZM567.169 68V30.9H570.529V68H567.169ZM566.189 21.8C566.119 20.4 567.379 19.21 568.849 19.28C570.249 19.21 571.509 20.4 571.509 21.8C571.509 23.2 570.249 24.39 568.849 24.32C567.379 24.39 566.119 23.2 566.189 21.8ZM595.036 82.7C587.546 82.7 581.666 79.62 580.616 73.46H584.256C585.236 77.59 589.506 79.62 595.036 79.62C602.106 79.62 606.376 76.12 606.376 68.7V59.74H606.096C604.416 64.15 600.496 67.72 594.196 67.72C585.446 67.72 579.286 60.51 579.356 49.24C579.286 38.04 585.236 30.34 594.336 30.34C600.776 30.34 604.346 34.4 606.096 38.74H606.376V30.9H609.736V68.84C609.806 78.22 603.786 82.7 595.036 82.7ZM582.716 49.38C582.786 58.41 587.126 64.57 594.616 64.64C601.966 64.57 606.446 58.83 606.376 49.38C606.446 40.21 602.036 33.49 594.616 33.56C587.056 33.49 582.786 40.42 582.716 49.38ZM623.986 44.2V68H620.486V18.44H623.986V36.78H624.266C626.016 32.86 629.866 30.41 635.326 30.34C642.816 30.41 647.926 35.31 647.926 43.64V68H644.566V43.78C644.496 37.55 640.576 33.56 634.486 33.56C628.396 33.56 623.916 37.76 623.986 44.2ZM672.142 30.9V33.84H664.442V58.9C664.442 63.45 667.312 65.27 670.462 65.34C671.162 65.27 672.422 65.2 673.122 65.2V68.42C672.492 68.49 671.582 68.56 670.182 68.56C665.492 68.56 660.942 65.41 660.942 59.6V33.84H655.482V30.9H660.942V21.94H664.442V30.9H672.142Z" fill="#333333"/>
<path d="M5.46 248V198.44H22.26C33.88 198.51 39.13 205.44 39.2 214.26C39.13 223.01 33.88 230.01 22.4 230.08H11.62V248H5.46ZM11.62 224.62H22.12C29.96 224.55 33.04 220.14 33.04 214.26C33.04 208.31 29.96 203.97 21.98 203.9H11.62V224.62ZM46.8661 248V210.9H52.6061V216.5H53.0261C54.3561 212.79 58.2761 210.27 62.6861 210.34C63.5261 210.27 64.9961 210.34 65.6261 210.34V216.36C65.2761 216.22 63.6661 215.94 62.1261 215.94C56.8061 215.94 52.8161 219.65 52.8861 224.62V248H46.8661ZM85.8566 248.84C75.1466 248.77 68.4966 241.14 68.4966 229.66C68.4966 218.32 75.2166 210.41 85.2966 210.34C93.1366 210.41 101.327 215.17 101.397 228.96V231.48H74.3766C74.7266 239.25 79.2766 243.52 85.8566 243.52C90.3366 243.52 93.1366 241.63 94.3966 239.32H100.697C99.0166 244.92 93.4866 248.77 85.8566 248.84ZM74.3766 226.44H95.3766C95.3066 220.21 91.3866 215.59 85.2966 215.66C78.8566 215.59 74.7966 220.7 74.3766 226.44ZM125.316 210.9V215.8H117.476V237.36C117.406 242.12 119.786 242.89 122.236 242.82C123.356 242.89 124.896 242.75 125.736 242.68V248.14C124.896 248.35 123.426 248.49 121.676 248.42C116.706 248.49 111.526 245.41 111.456 238.9V215.8H105.856V210.9H111.456V201.94H117.476V210.9H125.316ZM147.995 248.84C137.285 248.77 130.635 241.14 130.635 229.66C130.635 218.32 137.355 210.41 147.435 210.34C155.275 210.41 163.465 215.17 163.535 228.96V231.48H136.515C136.865 239.25 141.415 243.52 147.995 243.52C152.475 243.52 155.275 241.63 156.535 239.32H162.835C161.155 244.92 155.625 248.77 147.995 248.84ZM136.515 226.44H157.515C157.445 220.21 153.525 215.59 147.435 215.66C140.995 215.59 136.935 220.7 136.515 226.44ZM177.095 225.74V248H171.075V210.9H176.815V216.78H177.375C179.055 212.93 182.555 210.41 188.155 210.34C195.715 210.41 200.755 214.96 200.755 224.34V248H194.875V224.9C194.805 219.09 191.655 215.66 186.475 215.66C181.015 215.66 177.025 219.3 177.095 225.74ZM224.112 248.84C214.802 248.77 208.292 241.35 208.292 229.52C208.292 217.76 214.802 210.41 224.112 210.34C231.392 210.41 233.632 214.82 234.892 216.78H235.312V198.44H241.192V248H235.452V242.26H234.892C233.562 244.36 231.182 248.77 224.112 248.84ZM214.312 229.38C214.242 237.29 217.882 243.52 224.952 243.52C231.672 243.52 235.452 237.78 235.452 229.38C235.452 221.19 231.812 215.66 224.952 215.66C217.742 215.66 214.242 221.68 214.312 229.38ZM249.581 237.5C249.581 228.96 257.071 227 263.581 226.58C265.961 226.37 271.841 226.02 273.521 226.02V222.94C273.591 218.25 270.791 215.52 265.121 215.52C260.501 215.52 257.631 217.69 256.861 220.56H250.701C251.401 214.54 257.211 210.41 265.401 210.34C270.301 210.41 279.401 211.81 279.401 223.5V248H273.521V242.96H273.241C272.051 245.41 268.691 248.84 262.321 248.84C255.181 248.84 249.581 244.71 249.581 237.5ZM255.461 237.78C255.461 241.7 258.751 243.66 263.161 243.66C269.881 243.66 273.591 239.18 273.521 234.56V230.78L264.281 231.48C258.891 231.83 255.461 233.72 255.461 237.78ZM288.79 248V210.9H294.53V216.5H294.95C296.28 212.79 300.2 210.27 304.61 210.34C305.45 210.27 306.92 210.34 307.55 210.34V216.36C307.2 216.22 305.59 215.94 304.05 215.94C298.73 215.94 294.74 219.65 294.81 224.62V248H288.79ZM326.24 248.84C316.93 248.77 310.42 241.35 310.42 229.52C310.42 217.76 316.93 210.41 326.24 210.34C333.52 210.41 335.76 214.82 337.02 216.78H337.44V198.44H343.32V248H337.58V242.26H337.02C335.69 244.36 333.31 248.77 326.24 248.84ZM316.44 229.38C316.37 237.29 320.01 243.52 327.08 243.52C333.8 243.52 337.58 237.78 337.58 229.38C337.58 221.19 333.94 215.66 327.08 215.66C319.87 215.66 316.37 221.68 316.44 229.38ZM371.73 248V198.44H388.53C400.15 198.51 405.4 204.95 405.47 213.7C405.4 220.28 402.46 225.46 396.16 227.63L407.43 248H400.15L389.86 228.82H388.67H377.89V248H371.73ZM377.89 223.22H388.39C396.23 223.22 399.31 219.65 399.31 213.7C399.31 207.82 396.23 203.97 388.25 203.9H377.89V223.22ZM428.747 248.84C418.037 248.77 411.387 241.14 411.387 229.66C411.387 218.32 418.107 210.41 428.187 210.34C436.027 210.41 444.217 215.17 444.287 228.96V231.48H417.267C417.617 239.25 422.167 243.52 428.747 243.52C433.227 243.52 436.027 241.63 437.287 239.32H443.587C441.907 244.92 436.377 248.77 428.747 248.84ZM417.267 226.44H438.267C438.197 220.21 434.277 215.59 428.187 215.66C421.747 215.59 417.687 220.7 417.267 226.44ZM466.947 262.7C457.987 262.7 451.897 258.78 451.267 251.92H457.427C458.197 255.7 461.697 257.59 466.947 257.52C473.317 257.59 477.237 254.79 477.167 248.7V241.14H476.747C475.487 243.24 473.107 247.44 465.967 247.44C456.937 247.44 450.147 240.58 450.147 228.96C450.147 217.48 456.657 210.41 465.967 210.34C473.247 210.41 475.557 214.82 476.887 216.78H477.307V210.9H483.047V248.98C483.047 258.57 476.047 262.7 466.947 262.7ZM456.167 229.1C456.097 236.8 459.737 242.19 466.807 242.26C473.527 242.19 477.307 237.29 477.307 229.1C477.307 221.19 473.667 215.66 466.807 215.66C459.597 215.66 456.097 221.68 456.167 229.1ZM515.953 232.74V210.9H521.833V248H515.953V241.7H515.533C513.853 245.48 510.143 248.49 504.473 248.42C497.543 248.49 492.503 243.87 492.432 234.42V210.9H498.453V234C498.383 239.39 501.743 242.82 506.433 242.82C510.703 242.82 515.953 239.67 515.953 232.74ZM537.076 198.44V248H531.056V198.44H537.076ZM544.62 237.5C544.62 228.96 552.11 227 558.62 226.58C561 226.37 566.88 226.02 568.56 226.02V222.94C568.63 218.25 565.83 215.52 560.16 215.52C555.54 215.52 552.67 217.69 551.9 220.56H545.74C546.44 214.54 552.25 210.41 560.44 210.34C565.34 210.41 574.44 211.81 574.44 223.5V248H568.56V242.96H568.28C567.09 245.41 563.73 248.84 557.36 248.84C550.22 248.84 544.62 244.71 544.62 237.5ZM550.5 237.78C550.5 241.7 553.79 243.66 558.2 243.66C564.92 243.66 568.63 239.18 568.56 234.56V230.78L559.32 231.48C553.93 231.83 550.5 233.72 550.5 237.78ZM583.829 248V210.9H589.569V216.5H589.989C591.319 212.79 595.239 210.27 599.649 210.34C600.489 210.27 601.959 210.34 602.589 210.34V216.36C602.239 216.22 600.629 215.94 599.089 215.94C593.769 215.94 589.779 219.65 589.849 224.62V248H583.829Z" fill="#333333"/>
<path d="M5.04 344V294.44H22.68C34.23 294.51 39.9 301.44 39.9 310.54C39.9 319.71 34.16 326.64 22.68 326.64H12.6V344H5.04ZM12.6 320.2H21.98C29.26 320.2 32.27 316.14 32.34 310.54C32.27 304.94 29.26 300.95 21.98 301.02H12.6V320.2ZM47.2046 344V306.9H54.2046V312.78H54.6246C55.9546 308.79 59.7346 306.34 64.0046 306.34C64.9146 306.34 66.3846 306.41 67.0846 306.48V313.48C66.5246 313.27 64.8446 312.99 63.3046 313.06C58.2646 312.99 54.4846 316.56 54.4846 321.32V344H47.2046ZM87.3638 344.7C76.4438 344.77 69.7238 337.21 69.7238 325.66C69.7238 314.25 76.5138 306.41 86.8038 306.34C95.3438 306.41 103.394 311.66 103.324 325.1V327.62H77.0038C77.1438 334.76 81.2738 338.75 87.5038 338.68C91.5638 338.75 94.2938 336.93 95.4838 334.62H102.904C101.224 340.71 95.5538 344.77 87.3638 344.7ZM77.0038 322.16H96.1838C96.1838 316.56 92.5438 312.36 86.9438 312.36C81.1338 312.36 77.3538 316.91 77.0038 322.16ZM127.934 306.9V312.64H120.374V333.08C120.304 337.28 122.404 337.98 124.714 337.98C125.834 338.05 127.444 337.91 128.354 337.84V344.14C127.444 344.35 125.904 344.49 123.874 344.56C118.134 344.49 113.024 341.34 113.094 334.62V312.64H107.634V306.9H113.094V297.94H120.374V306.9H127.934ZM150.596 344.7C139.676 344.77 132.956 337.21 132.956 325.66C132.956 314.25 139.746 306.41 150.036 306.34C158.576 306.41 166.626 311.66 166.556 325.1V327.62H140.236C140.376 334.76 144.506 338.75 150.736 338.68C154.796 338.75 157.526 336.93 158.716 334.62H166.136C164.456 340.71 158.786 344.77 150.596 344.7ZM140.236 322.16H159.416C159.416 316.56 155.776 312.36 150.176 312.36C144.366 312.36 140.586 316.91 140.236 322.16ZM181.086 322.02V344H173.806V306.9H180.806V312.92H181.226C182.976 309 186.616 306.41 192.146 306.34C199.776 306.41 204.816 311.24 204.886 320.34V344H197.466V321.32C197.536 315.93 194.596 312.71 189.766 312.64C184.656 312.71 181.086 316.07 181.086 322.02ZM227.588 344.7C218.628 344.7 212.048 337.49 212.048 325.52C212.048 313.48 218.698 306.41 227.728 306.34C234.518 306.41 237.038 310.54 238.368 312.92H238.788V294.44H246.068V344H238.928V338.26H238.368C236.968 340.64 234.378 344.7 227.588 344.7ZM219.468 325.38C219.468 332.87 222.828 338.54 229.268 338.54C235.428 338.54 238.928 333.22 238.928 325.38C238.928 317.68 235.498 312.57 229.268 312.64C222.758 312.57 219.468 318.1 219.468 325.38ZM253.744 333.5C253.814 325.1 261.024 322.86 267.604 322.44C270.124 322.23 275.794 321.95 277.404 321.88V318.94C277.404 314.74 274.884 312.29 269.844 312.22C265.574 312.29 262.984 314.25 262.284 316.98H255.004C255.634 310.89 261.374 306.41 270.124 306.34C276.074 306.41 284.684 308.58 284.684 319.36V344H277.544V338.96H277.264C275.934 341.69 272.504 344.84 266.344 344.84C259.274 344.84 253.814 340.78 253.744 333.5ZM260.884 333.64C260.954 337.14 263.894 338.96 267.884 338.96C273.904 338.96 277.474 335.04 277.404 330.56V327.2L268.724 327.76C263.964 328.11 260.954 329.93 260.884 333.64ZM293.503 344V306.9H300.503V312.78H300.923C302.253 308.79 306.033 306.34 310.303 306.34C311.213 306.34 312.683 306.41 313.383 306.48V313.48C312.823 313.27 311.143 312.99 309.603 313.06C304.563 312.99 300.783 316.56 300.783 321.32V344H293.503ZM331.563 344.7C322.603 344.7 316.023 337.49 316.023 325.52C316.023 313.48 322.673 306.41 331.703 306.34C338.493 306.41 341.013 310.54 342.343 312.92H342.763V294.44H350.043V344H342.903V338.26H342.343C340.943 340.64 338.353 344.7 331.563 344.7ZM323.443 325.38C323.443 332.87 326.803 338.54 333.243 338.54C339.403 338.54 342.903 333.22 342.903 325.38C342.903 317.68 339.473 312.57 333.243 312.64C326.733 312.57 323.443 318.1 323.443 325.38ZM377.188 294.44H386.288L402.108 332.8H402.668L418.348 294.44H427.448V344H420.308V308.3H419.888L405.328 343.86H399.308L384.748 308.16H384.328V344H377.188V294.44ZM452.95 344.7C442.03 344.77 435.31 337.21 435.31 325.66C435.31 314.25 442.1 306.41 452.39 306.34C460.93 306.41 468.98 311.66 468.91 325.1V327.62H442.59C442.73 334.76 446.86 338.75 453.09 338.68C457.15 338.75 459.88 336.93 461.07 334.62H468.49C466.81 340.71 461.14 344.77 452.95 344.7ZM442.59 322.16H461.77C461.77 316.56 458.13 312.36 452.53 312.36C446.72 312.36 442.94 316.91 442.59 322.16ZM490.02 344.7C481.06 344.7 474.48 337.49 474.48 325.52C474.48 313.48 481.13 306.41 490.16 306.34C496.95 306.41 499.47 310.54 500.8 312.92H501.22V294.44H508.5V344H501.36V338.26H500.8C499.4 340.64 496.81 344.7 490.02 344.7ZM481.9 325.38C481.9 332.87 485.26 338.54 491.7 338.54C497.86 338.54 501.36 333.22 501.36 325.38C501.36 317.68 497.93 312.57 491.7 312.64C485.19 312.57 481.9 318.1 481.9 325.38ZM517.996 344V306.9H525.276V344H517.996ZM517.016 296.82C516.946 294.44 519.046 292.48 521.636 292.48C524.086 292.48 526.116 294.44 526.116 296.82C526.116 299.2 524.086 301.16 521.636 301.16C519.046 301.16 516.946 299.2 517.016 296.82ZM557.785 328.6V306.9H565.065V344H557.925V337.56H557.505C555.825 341.55 552.045 344.49 546.445 344.42C539.305 344.49 534.265 339.66 534.265 330.42V306.9H541.545V329.58C541.545 334.62 544.625 337.84 549.105 337.84C553.095 337.84 557.785 334.9 557.785 328.6ZM574.05 344V306.9H581.05V312.92H581.47C583.01 308.79 586.72 306.41 591.55 306.34C596.52 306.41 599.95 308.86 601.63 312.92H601.91C603.73 308.93 607.72 306.41 613.11 306.34C619.83 306.41 624.59 310.61 624.59 319.08V344H617.31V319.78C617.31 314.81 614.16 312.71 610.31 312.64C605.62 312.71 602.89 315.86 602.89 320.34V344H595.75V319.36C595.68 315.37 592.88 312.71 588.89 312.64C584.83 312.71 581.33 316.14 581.33 321.18V344H574.05Z" fill="#333333"/>
<path d="M4.62 438V388.44H23.1C34.51 388.51 40.6 395.44 40.6 404.82C40.6 414.41 34.44 421.27 22.96 421.2H13.44V438H4.62ZM13.44 413.92H21.84C28.49 413.92 31.5 410.14 31.5 404.82C31.5 399.64 28.49 395.93 21.84 396H13.44V413.92ZM47.4715 438V400.9H55.8715V407.06H56.2915C57.6215 402.79 61.1915 400.34 65.3915 400.34C66.4415 400.34 67.8415 400.41 68.6115 400.62V408.6C67.8415 408.32 66.0215 408.11 64.5515 408.04C59.7215 408.11 56.1515 411.4 56.1515 416.16V438H47.4715ZM89.0077 438.7C77.8777 438.77 71.0177 431.28 71.0877 419.66C71.0177 408.18 78.0177 400.41 88.5877 400.34C97.6877 400.41 105.528 406.08 105.528 419.1V421.9H79.6277C79.8377 428.27 83.4777 431.98 89.1477 431.98C92.9977 431.98 95.5177 430.3 96.7077 428.06H105.248C103.638 434.5 97.6877 438.77 89.0077 438.7ZM79.6277 415.88H97.1277C97.1277 410.91 93.7677 407.2 88.7277 407.2C83.4777 407.2 79.9777 411.12 79.6277 415.88ZM130.893 400.9V407.62H123.613V426.8C123.613 430.44 125.363 431.14 127.533 431.14C128.583 431.21 130.263 431.07 131.453 431V438.14C130.333 438.35 128.653 438.49 126.413 438.56C119.903 438.49 114.863 435.27 114.933 428.34V407.62H109.613V400.9H114.933V391.94H123.613V400.9H130.893ZM153.607 438.7C142.477 438.77 135.617 431.28 135.687 419.66C135.617 408.18 142.617 400.41 153.187 400.34C162.287 400.41 170.127 406.08 170.127 419.1V421.9H144.227C144.437 428.27 148.077 431.98 153.747 431.98C157.597 431.98 160.117 430.3 161.307 428.06H169.847C168.237 434.5 162.287 438.77 153.607 438.7ZM144.227 415.88H161.727C161.727 410.91 158.367 407.2 153.327 407.2C148.077 407.2 144.577 411.12 144.227 415.88ZM185.693 416.3V438H177.013V400.9H185.273V407.2H185.833C187.513 403 191.292 400.41 196.893 400.34C204.523 400.41 209.563 405.45 209.493 414.34V438H200.813V415.74C200.883 410.7 198.153 407.76 193.533 407.76C188.983 407.76 185.693 410.84 185.693 416.3ZM231.751 438.7C222.931 438.63 216.351 431.7 216.351 419.52C216.351 407.13 223.141 400.41 231.751 400.34C238.261 400.41 240.991 404.33 242.391 406.92H242.671V388.44H251.351V438H242.811V432.12H242.391C240.921 434.85 238.051 438.63 231.751 438.7ZM225.311 419.38C225.241 426.45 228.321 431.49 234.131 431.56C239.661 431.49 242.881 426.66 242.811 419.38C242.881 412.24 239.731 407.55 234.131 407.48C228.251 407.55 225.241 412.52 225.311 419.38ZM258.458 427.64C258.388 419.17 265.318 416.79 272.178 416.3C274.838 416.09 280.158 415.88 281.698 415.81V412.8C281.698 409.16 279.318 407.06 274.978 407.06C271.128 407.06 268.748 408.81 268.118 411.4H259.578C260.278 405.17 265.948 400.41 275.258 400.34C282.258 400.41 290.378 403.28 290.378 413.22V438H281.978V432.96H281.698C280.158 435.97 276.658 438.77 270.778 438.7C263.778 438.77 258.388 434.85 258.458 427.64ZM266.858 427.5C266.788 430.65 269.448 432.33 273.018 432.4C278.408 432.33 281.768 428.83 281.698 424.7V421.62C280.018 421.69 275.328 421.97 273.578 422.18C269.448 422.46 266.788 424.21 266.858 427.5ZM298.624 438V400.9H307.024V407.06H307.444C308.774 402.79 312.344 400.34 316.544 400.34C317.594 400.34 318.994 400.41 319.764 400.62V408.6C318.994 408.32 317.174 408.11 315.704 408.04C310.874 408.11 307.304 411.4 307.304 416.16V438H298.624ZM337.64 438.7C328.82 438.63 322.24 431.7 322.24 419.52C322.24 407.13 329.03 400.41 337.64 400.34C344.15 400.41 346.88 404.33 348.28 406.92H348.56V388.44H357.24V438H348.7V432.12H348.28C346.81 434.85 343.94 438.63 337.64 438.7ZM331.2 419.38C331.13 426.45 334.21 431.49 340.02 431.56C345.55 431.49 348.77 426.66 348.7 419.38C348.77 412.24 345.62 407.55 340.02 407.48C334.14 407.55 331.13 412.52 331.2 419.38ZM410.006 402.16C409.586 397.82 406.016 395.37 400.626 395.44C395.026 395.37 391.666 398.1 391.666 401.88C391.596 406.01 396.006 407.76 400.066 408.74L404.686 409.86C412.106 411.61 419.246 415.53 419.246 424.14C419.246 432.82 412.386 438.77 400.486 438.7C389.006 438.77 381.726 433.24 381.306 423.44H390.126C390.476 428.62 394.816 431.14 400.486 431.14C406.296 431.14 410.356 428.27 410.286 424C410.356 420.15 406.786 418.54 401.466 417.14L395.866 415.74C387.676 413.57 382.636 409.51 382.566 402.44C382.636 393.62 390.406 387.81 400.766 387.88C411.266 387.81 418.406 393.76 418.546 402.16H410.006ZM442.631 438.7C431.501 438.77 424.641 431.28 424.711 419.66C424.641 408.18 431.641 400.41 442.211 400.34C451.311 400.41 459.151 406.08 459.151 419.1V421.9H433.251C433.461 428.27 437.101 431.98 442.771 431.98C446.621 431.98 449.141 430.3 450.331 428.06H458.871C457.261 434.5 451.311 438.77 442.631 438.7ZM433.251 415.88H450.751C450.751 410.91 447.391 407.2 442.351 407.2C437.101 407.2 433.601 411.12 433.251 415.88ZM466.036 438V400.9H474.296V407.2H474.856C476.326 402.93 480.106 400.41 485.076 400.34C490.046 400.41 493.616 403 495.016 407.2H495.436C497.116 403.07 501.176 400.41 506.636 400.34C513.426 400.41 518.186 404.82 518.256 413.08V438H509.436V414.48C509.506 409.79 506.706 407.69 503.136 407.76C498.866 407.69 496.346 410.63 496.416 414.76V438H487.876V414.06C487.876 410.21 485.286 407.69 481.576 407.76C477.796 407.69 474.716 410.84 474.716 415.46V438H466.036ZM526.534 438V400.9H535.214V438H526.534ZM525.834 390.82C525.834 388.23 528.144 386.13 530.874 386.06C533.674 386.13 535.914 388.23 535.914 390.82C535.914 393.48 533.674 395.58 530.874 395.58C528.144 395.58 525.834 393.48 525.834 390.82ZM560.724 438V388.44H579.624C590.334 388.51 595.654 393.97 595.724 401.32C595.654 407.34 591.874 410.7 587.044 411.82V412.38C592.294 412.66 597.614 417 597.544 424.56C597.614 432.26 592.014 438 580.744 438H560.724ZM569.544 430.58H579.344C585.854 430.58 588.584 427.78 588.584 423.86C588.584 419.38 585.084 416.02 579.624 416.02H569.544V430.58ZM569.544 409.58H578.504C583.194 409.58 586.764 406.85 586.764 402.44C586.764 398.66 584.034 395.86 578.784 395.86H569.544V409.58ZM620.635 438.7C609.715 438.77 602.785 431.07 602.855 419.66C602.785 408.04 609.715 400.41 620.635 400.34C631.415 400.41 638.345 408.04 638.415 419.66C638.345 431.07 631.415 438.77 620.635 438.7ZM611.675 419.52C611.605 426.38 614.615 431.77 620.635 431.7C626.585 431.77 629.525 426.38 629.595 419.52C629.525 412.73 626.585 407.27 620.635 407.34C614.615 407.27 611.605 412.73 611.675 419.52ZM653.818 388.44V438H645.138V388.44H653.818ZM676.087 438.7C667.267 438.63 660.687 431.7 660.687 419.52C660.687 407.13 667.477 400.41 676.087 400.34C682.597 400.41 685.327 404.33 686.727 406.92H687.007V388.44H695.687V438H687.147V432.12H686.727C685.257 434.85 682.387 438.63 676.087 438.7ZM669.647 419.38C669.577 426.45 672.657 431.49 678.467 431.56C683.997 431.49 687.217 426.66 687.147 419.38C687.217 412.24 684.067 407.55 678.467 407.48C672.587 407.55 669.577 412.52 669.647 419.38Z" fill="#333333"/>
<path d="M3.78 533V483.44H23.94C35.14 483.51 42 490.44 42 500.52C42 510.74 35 517.53 23.66 517.46H15.4V533H3.78ZM15.4 508.22H21.56C27.02 508.29 29.96 505.21 29.96 500.52C29.96 495.9 27.02 492.96 21.56 492.96H15.4V508.22ZM47.7318 533V495.9H58.9318V502.62H59.3518C60.6818 497.72 63.9718 495.34 68.0318 495.34C69.1518 495.34 70.4118 495.55 71.3918 495.76V505.84C70.2718 505.42 68.1718 505.21 66.7718 505.28C62.5018 505.21 59.2818 508.22 59.3518 512.7V533H47.7318ZM92.2305 533.7C80.6105 533.7 73.4705 526.42 73.4705 514.52C73.4705 503.11 80.6805 495.41 91.8105 495.34C102.24 495.41 109.73 501.99 109.73 514.38V517.32H84.8105V517.46C84.8805 522.22 87.7505 525.37 92.3705 525.3C95.5905 525.37 97.9005 523.97 98.8105 521.8H109.59C108.19 529.01 101.82 533.7 92.2305 533.7ZM84.8105 510.46H98.9505C98.8805 506.54 96.0805 503.74 92.0905 503.74C88.0305 503.74 85.0205 506.61 84.8105 510.46ZM136.333 495.9V504.44H129.613V521.38C129.613 523.69 130.803 524.39 132.693 524.46C133.673 524.53 135.563 524.39 136.893 524.32V533.14C135.703 533.28 133.813 533.49 131.153 533.56C122.963 533.49 118.063 530.2 118.133 522.64V504.44H113.233V495.9H118.133V486.94H129.613V495.9H136.333ZM159.154 533.7C147.534 533.7 140.394 526.42 140.394 514.52C140.394 503.11 147.604 495.41 158.734 495.34C169.164 495.41 176.654 501.99 176.654 514.38V517.32H151.734V517.46C151.804 522.22 154.674 525.37 159.294 525.3C162.514 525.37 164.824 523.97 165.734 521.8H176.514C175.114 529.01 168.744 533.7 159.154 533.7ZM151.734 510.46H165.874C165.804 506.54 163.004 503.74 159.014 503.74C154.954 503.74 151.944 506.61 151.734 510.46ZM194.156 511.72V533H182.536V495.9H193.596V502.62H194.016C195.626 498.14 199.756 495.41 205.216 495.34C213.056 495.41 218.096 500.94 218.096 509.34V533H206.616V511.58C206.616 507.38 204.306 504.86 200.456 504.86C196.676 504.86 194.156 507.45 194.156 511.72ZM238.841 533.56C230.651 533.56 224.001 527.05 224.001 514.52C224.001 501.43 231.001 495.41 238.841 495.34C244.791 495.41 247.941 498.91 249.341 502.2H249.621V483.44H261.101V533H249.761V526.98H249.341C247.871 530.34 244.581 533.56 238.841 533.56ZM235.901 514.38C235.831 520.54 238.351 524.53 242.901 524.46C247.241 524.53 249.901 520.54 249.901 514.38C249.901 508.22 247.311 504.44 242.901 504.44C238.281 504.44 235.831 508.36 235.901 514.38ZM266.853 522.64C266.853 514.45 273.223 511.51 280.573 511.02C283.373 510.88 288.063 510.74 289.533 510.67V507.66C289.533 505.07 287.573 503.6 284.493 503.6C281.413 503.6 279.453 504.93 279.033 507.38H268.253C268.743 500.8 274.273 495.41 284.633 495.34C293.873 495.41 301.013 499.75 301.013 507.8V533H290.233V527.82H289.953C287.923 531.6 284.283 533.63 279.033 533.7C271.963 533.63 266.853 530.06 266.853 522.64ZM277.773 522.22C277.773 524.67 279.803 526 282.673 526C286.523 526 289.603 523.48 289.533 519.84V517.46C288.063 517.46 284.283 517.74 282.533 517.88C279.663 518.16 277.773 519.7 277.773 522.22ZM308.044 533V495.9H319.244V502.62H319.664C320.994 497.72 324.284 495.34 328.344 495.34C329.464 495.34 330.724 495.55 331.704 495.76V505.84C330.584 505.42 328.484 505.21 327.084 505.28C322.814 505.21 319.594 508.22 319.664 512.7V533H308.044ZM348.763 533.56C340.573 533.56 333.923 527.05 333.923 514.52C333.923 501.43 340.923 495.41 348.763 495.34C354.713 495.41 357.863 498.91 359.263 502.2H359.543V483.44H371.023V533H359.683V526.98H359.263C357.793 530.34 354.503 533.56 348.763 533.56ZM345.823 514.38C345.753 520.54 348.273 524.53 352.823 524.46C357.163 524.53 359.823 520.54 359.823 514.38C359.823 508.22 357.233 504.44 352.823 504.44C348.203 504.44 345.753 508.36 345.823 514.38ZM394.249 533V483.44H428.549V492.96H405.869V503.46H426.729V512.98H405.869V523.48H428.549V533H394.249ZM445.608 495.9L451.908 508.22L458.348 495.9H469.968L459.608 514.38L470.388 533H458.768L451.908 520.54L445.188 533H433.428L444.208 514.38L433.848 495.9H445.608ZM496.04 495.9V504.44H489.32V521.38C489.32 523.69 490.51 524.39 492.4 524.46C493.38 524.53 495.27 524.39 496.6 524.32V533.14C495.41 533.28 493.52 533.49 490.86 533.56C482.67 533.49 477.77 530.2 477.84 522.64V504.44H472.94V495.9H477.84V486.94H489.32V495.9H496.04ZM501.911 533V495.9H513.111V502.62H513.531C514.861 497.72 518.151 495.34 522.211 495.34C523.331 495.34 524.591 495.55 525.571 495.76V505.84C524.451 505.42 522.351 505.21 520.951 505.28C516.681 505.21 513.461 508.22 513.531 512.7V533H501.911ZM527.233 522.64C527.233 514.45 533.603 511.51 540.953 511.02C543.753 510.88 548.443 510.74 549.913 510.67V507.66C549.913 505.07 547.953 503.6 544.873 503.6C541.793 503.6 539.833 504.93 539.413 507.38H528.633C529.123 500.8 534.653 495.41 545.013 495.34C554.253 495.41 561.393 499.75 561.393 507.8V533H550.613V527.82H550.333C548.303 531.6 544.663 533.63 539.413 533.7C532.343 533.63 527.233 530.06 527.233 522.64ZM538.153 522.22C538.153 524.67 540.183 526 543.053 526C546.903 526 549.983 523.48 549.913 519.84V517.46C548.443 517.46 544.663 517.74 542.913 517.88C540.043 518.16 538.153 519.7 538.153 522.22ZM584.219 533V483.44H604.659C615.719 483.51 621.459 488.55 621.459 496.04C621.459 501.71 617.609 505.63 612.219 506.82V507.24C618.169 507.52 623.419 512 623.419 519.14C623.419 527.19 617.189 533 606.199 533H584.219ZM595.839 523.62H603.539C608.789 523.55 611.239 521.45 611.239 517.88C611.239 514.03 608.369 511.51 603.679 511.44H595.839V523.62ZM595.839 503.88H602.699C606.689 503.95 609.559 501.85 609.559 498.28C609.559 494.92 606.969 492.82 602.839 492.82H595.839V503.88ZM646.212 533.7C634.662 533.7 627.592 526 627.592 514.52C627.592 503.11 634.662 495.41 646.212 495.34C657.902 495.41 664.972 503.11 664.972 514.52C664.972 526 657.902 533.7 646.212 533.7ZM639.352 514.52C639.352 520.68 641.802 524.95 646.352 525.02C650.762 524.95 653.212 520.68 653.212 514.52C653.212 508.29 650.762 503.95 646.352 504.02C641.802 503.95 639.352 508.29 639.352 514.52ZM682.448 483.44V533H670.828V483.44H682.448ZM703.275 533.56C695.085 533.56 688.435 527.05 688.435 514.52C688.435 501.43 695.435 495.41 703.275 495.34C709.225 495.41 712.375 498.91 713.775 502.2H714.055V483.44H725.535V533H714.195V526.98H713.775C712.305 530.34 709.015 533.56 703.275 533.56ZM700.335 514.38C700.265 520.54 702.785 524.53 707.335 524.46C711.675 524.53 714.335 520.54 714.335 514.38C714.335 508.22 711.745 504.44 707.335 504.44C702.715 504.44 700.265 508.36 700.335 514.38Z" fill="#333333"/>
<path d="M3.36 628V578.44H24.36C35.49 578.51 42.7 585.44 42.7 595.94C42.7 606.44 35.28 613.09 23.94 613.16H16.38V628H3.36ZM16.38 602.94H21.42C26.32 602.94 29.12 600.21 29.12 595.94C29.12 591.53 26.32 588.94 21.42 588.94H16.38V602.94ZM48.002 628V590.9H60.462V597.9H60.882C62.212 592.72 65.362 590.41 69.422 590.34C70.542 590.41 71.662 590.55 72.782 590.9V601.96C71.452 601.54 69.282 601.26 67.882 601.26C63.892 601.26 60.882 604.13 60.882 608.4V628H48.002ZM93.7377 628.7C81.9077 628.7 74.6977 621.49 74.6977 609.52C74.6977 598.04 81.9777 590.41 93.4577 590.34C104.448 590.41 111.728 597.48 111.798 609.38V612.46H87.4377V613.02C87.4377 616.8 89.8877 619.53 94.0177 619.6C96.8177 619.53 99.0577 618.34 99.8977 616.24H111.658C110.398 623.8 103.888 628.7 93.7377 628.7ZM87.4377 605.32H99.7577C99.7577 601.89 97.1677 599.51 93.7377 599.58C90.2377 599.51 87.5077 601.96 87.4377 605.32ZM139.087 590.9V600.28H132.647V616.1C132.717 617.85 133.557 618.55 135.307 618.62C136.287 618.69 138.177 618.55 139.647 618.48V628.14C138.457 628.28 136.427 628.56 133.487 628.56C124.527 628.56 119.697 625.13 119.767 617.36V600.28H115.007V590.9H119.767V581.94H132.647V590.9H139.087ZM161.892 628.7C150.062 628.7 142.852 621.49 142.852 609.52C142.852 598.04 150.132 590.41 161.612 590.34C172.602 590.41 179.882 597.48 179.952 609.38V612.46H155.592V613.02C155.592 616.8 158.042 619.53 162.172 619.6C164.972 619.53 167.212 618.34 168.052 616.24H179.812C178.552 623.8 172.042 628.7 161.892 628.7ZM155.592 605.32H167.912C167.912 601.89 165.322 599.51 161.892 599.58C158.392 599.51 155.662 601.96 155.592 605.32ZM198.421 607V628H185.541V590.9H197.721V597.9H198.141C199.821 593.21 204.091 590.41 209.481 590.34C217.391 590.41 222.501 596.15 222.501 604.34V628H209.621V607C209.551 603.22 207.521 600.91 204.021 600.84C200.661 600.91 198.421 603.22 198.421 607ZM242.663 628.56C234.683 628.49 227.963 622.26 227.963 609.38C227.963 596.08 235.103 590.41 242.523 590.34C248.193 590.41 251.553 593.63 253.023 597.34H253.163V578.44H266.183V628H253.303V621.98H253.023C251.483 625.62 247.983 628.49 242.663 628.56ZM241.263 609.38C241.263 615.05 243.503 618.55 247.423 618.48C251.203 618.55 253.513 615.05 253.583 609.38C253.513 603.78 251.203 600.35 247.423 600.42C243.503 600.35 241.263 603.78 241.263 609.38ZM271.221 617.78C271.291 609.59 277.381 606.37 284.941 605.88C287.671 605.74 292.081 605.67 293.621 605.6V602.66C293.551 600.49 291.871 599.37 289.421 599.3C286.691 599.37 284.941 600.49 284.661 602.8H272.621C273.181 596.08 278.641 590.41 289.561 590.34C299.851 590.41 306.501 595.52 306.501 602.66V628H294.461V622.82H294.181C291.941 626.88 288.301 628.63 283.401 628.56C276.261 628.63 271.291 625.13 271.221 617.78ZM283.401 617.08C283.471 619.18 285.151 620.37 287.601 620.3C290.751 620.37 293.691 618.27 293.621 614.84V612.81C292.291 612.88 288.931 613.02 287.181 613.16C284.941 613.44 283.471 614.98 283.401 617.08ZM313.1 628V590.9H325.56V597.9H325.98C327.31 592.72 330.46 590.41 334.52 590.34C335.64 590.41 336.76 590.55 337.88 590.9V601.96C336.55 601.54 334.38 601.26 332.98 601.26C328.99 601.26 325.98 604.13 325.98 608.4V628H313.1ZM354.635 628.56C346.655 628.49 339.935 622.26 339.935 609.38C339.935 596.08 347.075 590.41 354.495 590.34C360.165 590.41 363.525 593.63 364.995 597.34H365.135V578.44H378.155V628H365.275V621.98H364.995C363.455 625.62 359.955 628.49 354.635 628.56ZM353.235 609.38C353.235 615.05 355.475 618.55 359.395 618.48C363.175 618.55 365.485 615.05 365.555 609.38C365.485 603.78 363.175 600.35 359.395 600.42C355.475 600.35 353.235 603.78 353.235 609.38ZM400.118 628V578.44H421.258C432.598 578.51 438.478 583.41 438.478 590.9C438.478 596.43 434.628 600.56 428.958 601.68V602.24C435.258 602.45 440.438 607 440.438 614C440.438 622.12 433.858 628 423.078 628H400.118ZM413.138 617.5H419.718C424.408 617.57 426.718 615.75 426.718 612.32C426.718 608.82 424.128 606.72 419.858 606.72H413.138V617.5ZM413.138 598.6H418.878C422.588 598.6 425.108 596.85 425.178 593.7C425.108 590.55 422.658 588.73 419.158 588.8H413.138V598.6ZM458.528 578.44V628H445.648V578.44H458.528ZM463.721 617.78C463.791 609.59 469.881 606.37 477.441 605.88C480.171 605.74 484.581 605.67 486.121 605.6V602.66C486.051 600.49 484.371 599.37 481.921 599.3C479.191 599.37 477.441 600.49 477.161 602.8H465.121C465.681 596.08 471.141 590.41 482.061 590.34C492.351 590.41 499.001 595.52 499.001 602.66V628H486.961V622.82H486.681C484.441 626.88 480.801 628.63 475.901 628.56C468.761 628.63 463.791 625.13 463.721 617.78ZM475.901 617.08C475.971 619.18 477.651 620.37 480.101 620.3C483.251 620.37 486.191 618.27 486.121 614.84V612.81C484.791 612.88 481.431 613.02 479.681 613.16C477.441 613.44 475.971 614.98 475.901 617.08ZM523.24 628.7C511.27 628.7 504.2 620.93 504.2 609.52C504.2 598.11 511.34 590.41 523.24 590.34C534.02 590.41 540.88 596.57 541.02 606.16H528.98C528.63 602.24 526.53 600.07 523.52 600.14C519.81 600.07 517.36 603.22 517.36 609.38C517.36 615.68 519.81 618.83 523.52 618.76C526.46 618.83 528.63 616.66 528.98 612.74H541.02C540.81 622.47 534.16 628.7 523.24 628.7ZM546.615 628V578.44H559.495V603.5H560.055L569.435 590.9H583.995L571.185 607.14L584.415 628H569.575L561.595 614.63L559.495 617.29V628H546.615Z" fill="#333333"/>
</svg>
