<svg width="770" height="66" viewBox="0 0 770 66" fill="none" xmlns="http://www.w3.org/2000/svg">
<path d="M0.819141 63.52V50.99L8.79914 43.78C11.5991 41.26 14.0491 39.02 16.1491 37.06C18.2491 35.0533 19.9991 33.2333 21.3991 31.6C22.8458 29.92 23.9191 28.4033 24.6191 27.05C25.3191 25.65 25.6691 24.32 25.6691 23.06C25.6691 21.7533 25.2025 20.6567 24.2691 19.77C23.3825 18.8833 21.8891 18.44 19.7891 18.44C18.0158 18.44 16.2425 18.6967 14.4691 19.21C12.6958 19.7233 10.9925 20.3533 9.35914 21.1C7.77247 21.8467 6.30247 22.6633 4.94914 23.55C3.59581 24.39 2.42914 25.16 1.44914 25.86V7.94C4.24914 5.79333 7.49247 4.20666 11.1791 3.18C14.8658 2.10667 18.5758 1.57 22.3091 1.57C25.9025 1.57 29.0758 2.08333 31.8291 3.11C34.5825 4.13666 36.8925 5.56 38.7591 7.38C40.6725 9.15333 42.0958 11.2767 43.0291 13.75C44.0091 16.2233 44.4991 18.93 44.4991 21.87C44.4991 24.3433 44.1258 26.6767 43.3791 28.87C42.6791 31.0633 41.6991 33.1633 40.4391 35.17C39.1791 37.1767 37.6858 39.1133 35.9591 40.98C34.2791 42.8467 32.4825 44.6433 30.5691 46.37H45.5491V63.52H0.819141ZM66.1127 22.15L53.3027 25.93V10.53L70.8727 2.48H84.9427V63.52H66.1127V22.15ZM117.902 1.57C122.055 1.57 125.602 2.29333 128.542 3.74C131.528 5.14 133.955 7.19333 135.822 9.9C137.688 12.56 139.042 15.8267 139.882 19.7C140.768 23.5267 141.212 27.8667 141.212 32.72C141.212 43.5467 139.252 51.5267 135.332 56.66C131.458 61.84 125.532 64.43 117.552 64.43C113.492 64.43 109.992 63.73 107.052 62.33C104.112 60.93 101.662 58.9 99.7018 56.24C97.7885 53.58 96.3651 50.3133 95.4318 46.44C94.5451 42.52 94.1018 38.0633 94.1018 33.07C94.1018 22.8033 96.0385 14.9867 99.9118 9.62C103.785 4.25333 109.782 1.57 117.902 1.57ZM117.692 17.88C116.992 17.88 116.338 18.09 115.732 18.51C115.172 18.8833 114.682 19.63 114.262 20.75C113.842 21.87 113.515 23.4333 113.282 25.44C113.048 27.4 112.932 29.9433 112.932 33.07C112.932 36.15 113.025 38.67 113.212 40.63C113.445 42.59 113.772 44.13 114.192 45.25C114.612 46.3233 115.125 47.07 115.732 47.49C116.338 47.91 117.015 48.12 117.762 48.12C118.508 48.12 119.162 47.91 119.722 47.49C120.328 47.0233 120.818 46.23 121.192 45.11C121.612 43.9433 121.915 42.38 122.102 40.42C122.288 38.46 122.382 35.9633 122.382 32.93C122.382 29.9433 122.288 27.4933 122.102 25.58C121.915 23.62 121.612 22.08 121.192 20.96C120.818 19.7933 120.328 19 119.722 18.58C119.162 18.1133 118.485 17.88 117.692 17.88ZM230.395 36.85C227.175 36.85 224.048 36.6633 221.015 36.29C218.028 35.87 215.181 35.24 212.475 34.4C209.768 33.5133 207.248 32.37 204.915 30.97C202.628 29.57 200.621 27.8667 198.895 25.86C197.121 27.8667 195.068 29.57 192.735 30.97C190.448 32.37 187.951 33.5133 185.245 34.4C182.585 35.24 179.738 35.87 176.705 36.29C173.671 36.6633 170.568 36.85 167.395 36.85V20.4C170.101 20.2133 172.761 19.8167 175.375 19.21C178.035 18.6033 180.391 17.6933 182.445 16.48C184.545 15.22 186.225 13.61 187.485 11.65C188.791 9.64333 189.445 7.19333 189.445 4.3V1.15H208.345V4.3C208.345 7.19333 208.975 9.64333 210.235 11.65C211.541 13.61 213.221 15.22 215.275 16.48C217.375 17.6933 219.731 18.6033 222.345 19.21C225.005 19.8167 227.688 20.2133 230.395 20.4V36.85ZM208.345 56.03V64.43H189.445V56.03H166.695V39.3H231.095V56.03H208.345ZM236.415 64.5V47.77H239.495V18.23H236.415V1.5H278.975V18.23H275.895V47.77H278.975V64.5H236.415ZM277.645 24.6H281.495V1.5H300.395V64.5H281.495V39.93H277.645V24.6ZM256.295 47.77H259.095V18.23H256.295V47.77ZM349.395 64.5C347.295 64.2667 345.218 63.9167 343.165 63.45C341.111 63.03 339.151 62.4233 337.285 61.63C335.418 60.8367 333.668 59.7867 332.035 58.48C330.401 57.22 328.955 55.6333 327.695 53.72C326.435 55.6333 324.988 57.22 323.355 58.48C321.721 59.7867 319.971 60.8367 318.105 61.63C316.238 62.4233 314.278 63.03 312.225 63.45C310.171 63.9167 308.095 64.2667 305.995 64.5V48.19C307.721 47.8633 309.331 47.42 310.825 46.86C312.318 46.2533 313.601 45.4367 314.675 44.41C315.795 43.3367 316.658 41.9833 317.265 40.35C317.918 38.67 318.245 36.6167 318.245 34.19V1.5H337.145V34.19C337.145 36.6167 337.448 38.67 338.055 40.35C338.708 41.9833 339.571 43.3367 340.645 44.41C341.765 45.4367 343.071 46.2533 344.565 46.86C346.058 47.42 347.668 47.8633 349.395 48.19V64.5ZM351.495 1.5H370.395V24.6H373.895V39.93H370.395V64.5H351.495V1.5ZM421.495 1.5H440.395V64.5H421.495V1.5ZM418.695 46.93C418.695 52.81 416.968 57.3133 413.515 60.44C410.108 63.6133 404.858 65.2 397.765 65.2C390.578 65.2 385.258 63.6133 381.805 60.44C378.398 57.3133 376.695 52.81 376.695 46.93V19.14C376.695 13.2133 378.398 8.68667 381.805 5.56C385.258 2.38666 390.578 0.799996 397.765 0.799996C404.858 0.799996 410.108 2.38666 413.515 5.56C416.968 8.68667 418.695 13.2133 418.695 19.14V46.93ZM398.745 16.83C398.745 16.55 398.698 16.27 398.605 15.99C398.511 15.6633 398.208 15.5 397.695 15.5C397.181 15.5 396.878 15.6633 396.785 15.99C396.691 16.27 396.645 16.55 396.645 16.83V49.17C396.645 49.45 396.691 49.7533 396.785 50.08C396.878 50.36 397.181 50.5 397.695 50.5C398.208 50.5 398.511 50.36 398.605 50.08C398.698 49.7533 398.745 49.45 398.745 49.17V16.83ZM490.655 18.23C491.635 19.63 492.848 20.82 494.295 21.8C495.741 22.7333 497.328 23.5267 499.055 24.18C500.781 24.8333 502.601 25.3233 504.515 25.65C506.475 25.9767 508.435 26.21 510.395 26.35V42.8C507.175 42.8 504.048 42.6133 501.015 42.24C498.028 41.82 495.181 41.19 492.475 40.35C489.768 39.4633 487.248 38.32 484.915 36.92C482.628 35.52 480.621 33.8167 478.895 31.81C477.121 33.8167 475.068 35.52 472.735 36.92C470.448 38.32 467.951 39.4633 465.245 40.35C462.585 41.19 459.738 41.82 456.705 42.24C453.671 42.6133 450.568 42.8 447.395 42.8V26.35C449.355 26.21 451.291 25.9767 453.205 25.65C455.118 25.3233 456.938 24.8333 458.665 24.18C460.391 23.5267 461.978 22.7333 463.425 21.8C464.871 20.82 466.085 19.63 467.065 18.23H447.395V1.5H510.395V18.23H490.655ZM446.695 64.5V47.77H511.095V64.5H446.695ZM562.004 1.5C564.944 1.5 567.86 1.73333 570.754 2.2C573.694 2.62 576.33 3.46 578.664 4.72C580.997 5.93333 582.887 7.66 584.334 9.9C585.78 12.14 586.504 15.0567 586.504 18.65C586.504 21.31 585.967 23.6667 584.894 25.72C583.867 27.7733 582.374 29.57 580.414 31.11C582.84 32.51 584.777 34.3533 586.224 36.64C587.67 38.9267 588.394 41.7967 588.394 45.25C588.394 49.17 587.647 52.3667 586.154 54.84C584.66 57.3133 582.7 59.2733 580.274 60.72C577.894 62.1667 575.164 63.1467 572.084 63.66C569.004 64.22 565.877 64.5 562.704 64.5H537.014V1.5H562.004ZM555.634 47.7H564.664C565.364 47.7 566.04 47.6767 566.694 47.63C567.347 47.5367 567.907 47.3733 568.374 47.14C568.887 46.9067 569.284 46.58 569.564 46.16C569.844 45.6933 569.984 45.0633 569.984 44.27C569.984 42.9167 569.494 42.0533 568.514 41.68C567.58 41.3067 566.297 41.12 564.664 41.12H555.634V47.7ZM555.634 24.6H563.264C564.71 24.6 565.854 24.4367 566.694 24.11C567.534 23.7367 567.954 22.8733 567.954 21.52C567.954 20.4 567.557 19.63 566.764 19.21C566.017 18.79 564.85 18.58 563.264 18.58H555.634V24.6ZM614.169 1.5V64.5H595.409V1.5H614.169ZM667.558 64.5H650.898L648.658 61.91C646.884 63.17 644.994 64.1033 642.988 64.71C640.981 65.3167 638.998 65.62 637.038 65.62C634.611 65.62 632.418 65.3167 630.458 64.71C628.498 64.1033 626.818 63.1933 625.418 61.98C624.064 60.7667 623.014 59.25 622.268 57.43C621.521 55.61 621.148 53.4633 621.148 50.99C621.148 48.05 621.778 45.5067 623.038 43.36C624.344 41.1667 626.164 39.37 628.498 37.97C630.878 36.5233 633.701 35.4033 636.968 34.61C640.234 33.8167 643.828 33.3033 647.748 33.07C647.654 32.5567 647.188 32.16 646.348 31.88C645.508 31.5533 644.108 31.39 642.148 31.39C640.794 31.39 639.394 31.5067 637.948 31.74C636.501 31.9733 635.054 32.2767 633.608 32.65C632.208 33.0233 630.878 33.4433 629.618 33.91C628.358 34.3767 627.261 34.8667 626.328 35.38L626.258 19.7C628.498 18.7667 631.228 17.9267 634.448 17.18C637.668 16.3867 641.168 15.99 644.948 15.99C649.241 15.99 652.834 16.4567 655.728 17.39C658.621 18.2767 660.931 19.5367 662.658 21.17C664.431 22.7567 665.691 24.6467 666.438 26.84C667.184 29.0333 667.558 31.39 667.558 33.91V64.5ZM647.748 45.67C646.721 45.67 645.764 45.7167 644.878 45.81C643.991 45.9033 643.198 46.09 642.498 46.37C641.844 46.6033 641.308 46.93 640.888 47.35C640.514 47.77 640.328 48.3067 640.328 48.96C640.328 49.8 640.631 50.43 641.238 50.85C641.844 51.2233 642.614 51.41 643.548 51.41C644.434 51.41 645.274 51.2 646.068 50.78C646.861 50.3133 647.351 49.7533 647.538 49.1C647.678 48.6333 647.748 48.2367 647.748 47.91V45.67ZM712.423 62.89C710.463 63.8233 708.456 64.4767 706.403 64.85C704.349 65.2233 701.993 65.41 699.333 65.41C695.553 65.41 692.099 64.8733 688.973 63.8C685.846 62.7733 683.163 61.2333 680.923 59.18C678.683 57.1733 676.933 54.6767 675.673 51.69C674.459 48.6567 673.853 45.1567 673.853 41.19C673.853 37.3167 674.389 33.84 675.463 30.76C676.536 27.6333 678.146 24.9967 680.293 22.85C682.439 20.6567 685.123 19 688.343 17.88C691.563 16.7133 695.319 16.13 699.613 16.13C701.386 16.13 703.206 16.2933 705.073 16.62C706.986 16.9 709.133 17.4833 711.513 18.37V35.1C710.766 34.7733 710.019 34.47 709.273 34.19C708.573 33.8633 707.803 33.5833 706.963 33.35C706.123 33.1167 705.189 32.93 704.163 32.79C703.183 32.65 702.016 32.58 700.663 32.58C698.469 32.58 696.626 33.2567 695.133 34.61C693.639 35.9167 692.893 37.9467 692.893 40.7C692.893 42.1933 693.126 43.4533 693.593 44.48C694.106 45.5067 694.759 46.3467 695.553 47C696.346 47.6533 697.256 48.12 698.283 48.4C699.309 48.68 700.359 48.82 701.433 48.82C703.486 48.82 705.376 48.5867 707.103 48.12C708.829 47.6533 710.603 47.0233 712.423 46.23V62.89ZM737.475 28.24L746.645 16.97H768.835L751.895 36.99L769.535 64.57H747.275L739.225 51.9L737.475 53.93V64.5H718.645V1.5H737.475V28.24Z" fill="#333333"/>
</svg>
