<svg width="1871" height="347" viewBox="0 0 1871 347" fill="none" xmlns="http://www.w3.org/2000/svg">
<path d="M0.68042 0H1871V347H0.68042V0Z" fill="white"/>
<path d="M1712.38 255C1713.73 255 1715.06 255.107 1716.38 255.32C1717.73 255.512 1718.93 255.896 1720 256.472C1721.07 257.027 1721.93 257.816 1722.59 258.84C1723.25 259.864 1723.58 261.197 1723.58 262.84C1723.58 264.056 1723.34 265.133 1722.85 266.072C1722.38 267.011 1721.7 267.832 1720.8 268.536C1721.91 269.176 1722.79 270.019 1723.46 271.064C1724.12 272.109 1724.45 273.421 1724.45 275C1724.45 276.792 1724.11 278.253 1723.42 279.384C1722.74 280.515 1721.84 281.411 1720.74 282.072C1719.65 282.733 1718.4 283.181 1716.99 283.416C1715.58 283.672 1714.15 283.8 1712.7 283.8H1700.96V255H1712.38ZM1709.47 276.12H1713.6C1713.92 276.12 1714.23 276.109 1714.53 276.088C1714.83 276.045 1715.08 275.971 1715.3 275.864C1715.53 275.757 1715.71 275.608 1715.84 275.416C1715.97 275.203 1716.03 274.915 1716.03 274.552C1716.03 273.933 1715.81 273.539 1715.36 273.368C1714.93 273.197 1714.35 273.112 1713.6 273.112H1709.47V276.12ZM1709.47 265.56H1712.96C1713.62 265.56 1714.14 265.485 1714.53 265.336C1714.91 265.165 1715.1 264.771 1715.1 264.152C1715.1 263.64 1714.92 263.288 1714.56 263.096C1714.22 262.904 1713.68 262.808 1712.96 262.808H1709.47V265.56ZM1739.97 282.36C1739.53 282.765 1739.07 283.085 1738.6 283.32C1738.13 283.576 1737.67 283.768 1737.22 283.896C1736.8 284.045 1736.38 284.141 1735.97 284.184C1735.59 284.227 1735.26 284.248 1734.98 284.248C1733.94 284.248 1732.95 284.077 1732.01 283.736C1731.09 283.416 1730.28 282.883 1729.57 282.136C1728.89 281.389 1728.35 280.408 1727.94 279.192C1727.54 277.997 1727.33 276.536 1727.33 274.808V262.072H1735.94V274.2C1735.94 274.883 1736.07 275.437 1736.33 275.864C1736.58 276.291 1737.01 276.504 1737.61 276.504C1737.97 276.504 1738.31 276.408 1738.63 276.216C1738.97 276.003 1739.31 275.576 1739.65 274.936V262.072H1748.26V283.8H1741.06L1739.97 282.36ZM1773.25 283.8H1766.95L1766.05 282.36C1765.43 282.915 1764.72 283.363 1763.91 283.704C1763.1 284.045 1762.16 284.216 1761.09 284.216C1759.83 284.216 1758.61 283.971 1757.41 283.48C1756.24 283.011 1755.18 282.285 1754.24 281.304C1753.3 280.344 1752.55 279.139 1751.97 277.688C1751.42 276.237 1751.14 274.541 1751.14 272.6C1751.14 270.936 1751.36 269.432 1751.81 268.088C1752.26 266.723 1752.89 265.571 1753.7 264.632C1754.51 263.672 1755.47 262.936 1756.58 262.424C1757.69 261.891 1758.9 261.624 1760.23 261.624C1761.14 261.624 1761.94 261.72 1762.63 261.912C1763.33 262.083 1763.99 262.317 1764.61 262.616V255H1773.25V283.8ZM1762.47 276.568C1762.96 276.568 1763.37 276.461 1763.72 276.248C1764.06 276.013 1764.36 275.725 1764.61 275.384V270.392C1764.27 269.965 1763.91 269.656 1763.52 269.464C1763.16 269.251 1762.81 269.144 1762.47 269.144C1761.55 269.144 1760.88 269.496 1760.45 270.2C1760.02 270.904 1759.81 271.779 1759.81 272.824C1759.81 274.019 1760.05 274.947 1760.52 275.608C1760.98 276.248 1761.64 276.568 1762.47 276.568ZM1798.25 283.8H1791.95L1791.05 282.36C1790.43 282.915 1789.72 283.363 1788.91 283.704C1788.1 284.045 1787.16 284.216 1786.09 284.216C1784.83 284.216 1783.61 283.971 1782.41 283.48C1781.24 283.011 1780.18 282.285 1779.24 281.304C1778.3 280.344 1777.55 279.139 1776.97 277.688C1776.42 276.237 1776.14 274.541 1776.14 272.6C1776.14 270.936 1776.36 269.432 1776.81 268.088C1777.26 266.723 1777.89 265.571 1778.7 264.632C1779.51 263.672 1780.47 262.936 1781.58 262.424C1782.69 261.891 1783.9 261.624 1785.23 261.624C1786.14 261.624 1786.94 261.72 1787.63 261.912C1788.33 262.083 1788.99 262.317 1789.61 262.616V255H1798.25V283.8ZM1787.47 276.568C1787.96 276.568 1788.37 276.461 1788.72 276.248C1789.06 276.013 1789.36 275.725 1789.61 275.384V270.392C1789.27 269.965 1788.91 269.656 1788.52 269.464C1788.16 269.251 1787.81 269.144 1787.47 269.144C1786.55 269.144 1785.88 269.496 1785.45 270.2C1785.02 270.904 1784.81 271.779 1784.81 272.824C1784.81 274.019 1785.05 274.947 1785.52 275.608C1785.98 276.248 1786.64 276.568 1787.47 276.568ZM1802.39 282.712C1802.73 282.691 1803.17 282.637 1803.7 282.552C1804.23 282.467 1804.78 282.328 1805.33 282.136C1805.91 281.944 1806.46 281.688 1807 281.368C1807.53 281.048 1807.98 280.643 1808.34 280.152L1800.5 262.072H1810.04L1812.72 270.456L1815.03 262.072H1824.34L1817.36 279.832C1816.66 281.645 1815.87 283.192 1815 284.472C1814.12 285.773 1813.09 286.84 1811.89 287.672C1810.72 288.504 1809.35 289.123 1807.8 289.528C1806.26 289.933 1804.46 290.147 1802.39 290.168V282.712ZM1830.81 275.672C1831.45 275.672 1832.03 275.779 1832.54 275.992C1833.07 276.205 1833.52 276.504 1833.88 276.888C1834.27 277.272 1834.55 277.72 1834.75 278.232C1834.94 278.744 1835.03 279.299 1835.03 279.896C1835.03 280.472 1834.93 281.016 1834.71 281.528C1834.52 282.04 1834.24 282.477 1833.88 282.84C1833.52 283.224 1833.07 283.523 1832.54 283.736C1832 283.971 1831.41 284.088 1830.75 284.088C1830.11 284.088 1829.53 283.971 1829.02 283.736C1828.51 283.523 1828.06 283.224 1827.67 282.84C1827.31 282.477 1827.03 282.04 1826.84 281.528C1826.65 281.016 1826.55 280.472 1826.55 279.896C1826.55 279.299 1826.65 278.744 1826.84 278.232C1827.05 277.72 1827.34 277.272 1827.71 276.888C1828.07 276.504 1828.52 276.205 1829.05 275.992C1829.58 275.779 1830.17 275.672 1830.81 275.672Z" fill="#FBDE66"/>
<path d="M38.5938 40.875V38.375H55.6562V40.875H48.5625V61H45.7188V40.875H38.5938ZM63.7188 61.3438C58.8125 61.3438 55.7812 57.875 55.7812 52.6562C55.7812 47.4375 58.8438 43.8125 63.4688 43.8125C67.0312 43.8125 70.7812 46 70.7812 52.2812V53.4062H58.4688C58.5938 57 60.6875 58.9688 63.7188 58.9688C65.75 58.9688 67.0312 58.0938 67.6562 57.0312H70.5312C69.7188 59.5938 67.2188 61.3438 63.7188 61.3438ZM58.5 51.125H68.0625C68.0625 48.2812 66.25 46.1875 63.4688 46.1875C60.5312 46.1875 58.6562 48.5 58.5 51.125ZM73.4688 56.1875C73.4688 52.2812 76.9062 51.4062 79.8438 51.1875C80.9219 51.1094 83.6719 50.9688 84.4375 50.9375V49.5625C84.4375 47.4062 83.1562 46.1562 80.5938 46.1562C78.4375 46.1562 77.1562 47.1562 76.7812 48.4375H73.9688C74.3125 45.7188 76.9688 43.8125 80.7188 43.8125C82.9375 43.8125 87.0938 44.4688 87.0938 49.8125V61H84.4375V58.6875H84.3125C83.75 59.8438 82.1875 61.4062 79.25 61.4062C76.0312 61.4062 73.4688 59.5 73.4688 56.1875ZM76.1562 56.3125C76.1562 58.0938 77.6562 59 79.7188 59C82.75 59 84.4375 56.9688 84.4375 54.8438V53.125L80.1562 53.4375C77.7188 53.5938 76.1562 54.4688 76.1562 56.3125ZM91.4062 61V44.0312H94V46.6875H94.2188C94.9375 44.875 96.5625 43.8125 98.7812 43.8125C101 43.8125 102.5 44.875 103.312 46.6875H103.5C104.375 44.9375 106.156 43.8125 108.594 43.8125C111.625 43.8125 113.781 45.6562 113.781 49.6562V61H111.094V49.6875C111.094 47.1875 109.5 46.2188 107.656 46.2188C105.281 46.2188 103.938 47.8125 103.938 49.9688V61H101.219V49.4062C101.219 47.5 99.8438 46.2188 97.9062 46.2188C95.875 46.2188 94.0938 47.9375 94.0938 50.4062V61H91.4062ZM120 61.1875C118.906 61.1875 117.969 60.2812 118 59.1562C117.969 58.0625 118.906 57.1562 120 57.1562C121.094 57.1562 122 58.0625 122 59.1562C122 60.2812 121.094 61.1875 120 61.1875ZM148.938 35.75V63.5312H146.594V48.9688H142.5V62.0938H140.25V36.375H142.5V46.9375H146.594V35.75H148.938ZM136.625 39.1562V41.1875H128.656V54.5625C132.484 54.5469 135.141 54.4062 138.219 53.7812L138.438 55.8438C135.094 56.5312 132.25 56.6562 128 56.6562H126.219V39.1562H136.625ZM174.562 35.75V43H178.75V45.0312H174.562V52.5625H172.125V35.75H174.562ZM174.562 54.0312V63.5312H172.125V56.0312H156.375V54.0312H174.562ZM156.438 37.5V41.875H164.531V37.5H166.969V50.625H154.031V37.5H156.438ZM156.438 48.625H164.531V43.8438H156.438V48.625ZM203.438 35.7812V52.5625H201V35.7812H203.438ZM194.156 53.1875C199.969 53.1875 203.5 55.0938 203.531 58.4062C203.5 61.7188 199.969 63.6562 194.156 63.6562C188.312 63.6562 184.781 61.7188 184.781 58.4062C184.781 55.0938 188.312 53.1875 194.156 53.1875ZM194.156 55.1562C189.844 55.1562 187.25 56.375 187.25 58.4062C187.25 60.4688 189.844 61.7188 194.156 61.6875C198.438 61.7188 201.094 60.4688 201.094 58.4062C201.094 56.375 198.438 55.1562 194.156 55.1562ZM190.5 40.875C190.5 44.5938 193.469 47.9062 197.625 49.25L196.375 51.1875C193.156 50.125 190.578 47.875 189.344 44.9688C188.109 48.1875 185.531 50.7344 182.219 51.9375L180.938 50C185.094 48.5 188.031 44.875 188.031 40.875V39.9688H181.531V37.9375H196.906V39.9688H190.5V40.875ZM233.594 57.9062V59.9688H208.156V57.9062H219.625V51.1562H222.094V57.9062H233.594ZM222.094 41.0312C222.094 45.4688 227.594 49.2812 232.375 50.0625L231.375 52C227.125 51.1719 222.641 48.4688 220.875 44.5938C219.078 48.4844 214.609 51.25 210.438 52.125L209.406 50.1562C214.094 49.3438 219.562 45.4688 219.562 41.0312V40.3438H210.25V38.2812H231.406V40.3438H222.094V41.0312Z" fill="#576238"/>
<path d="M583.218 152.961V154.203H564.281V152.961H569.742V147.711H566.039V146.445H569.414V139.414H566.015V138.172H581.32V139.414H577.921V146.445H581.296V147.711H577.593V152.961H583.218ZM570.89 146.445H576.468V139.414H570.89V146.445ZM571.242 152.961H576.117V147.711H571.242V152.961ZM602.062 136.156V151.953H600.585V147.312H596.718V146.094H600.585V143.047H596.718V141.781H600.585V136.156H602.062ZM596.812 138.805V140.047H585.023V138.805H590.25V136.156H591.703V138.805H596.812ZM590.976 141.312C593.718 141.312 595.617 142.859 595.617 145.227C595.617 147.57 593.718 149.141 590.976 149.141C588.21 149.141 586.312 147.57 586.335 145.227C586.312 142.859 588.21 141.312 590.976 141.312ZM590.976 142.508C589.031 142.531 587.695 143.656 587.718 145.227C587.695 146.82 589.031 147.945 590.976 147.945C592.898 147.945 594.21 146.82 594.234 145.227C594.21 143.656 592.898 142.531 590.976 142.508ZM602.554 155.094V156.336H588.82V150.523H590.296V155.094H602.554ZM612.96 142.742C612.96 146.281 615.796 149.867 618.703 151.133L617.859 152.305C615.48 151.191 613.207 148.719 612.234 145.766C611.273 148.871 609.011 151.613 606.703 152.82L605.812 151.648C608.625 150.266 611.46 146.328 611.484 142.742V139.578H606.445V138.312H618.07V139.578H612.96V142.742ZM622.734 136.156V156.828H621.257V136.156H622.734ZM635.531 135.641V157.391H634.148V135.641H635.531ZM651.14 155H646.101V138.031H651.421C656.296 138.031 659.179 141.195 659.179 146.469C659.179 151.812 656.25 155 651.14 155ZM647.765 153.5H651.046C655.359 153.5 657.562 150.852 657.539 146.469C657.539 142.133 655.406 139.531 651.328 139.531H647.765V153.5ZM667.359 155.258C663.773 155.258 661.523 152.586 661.523 148.719C661.523 144.852 663.82 142.086 667.125 142.086C669.89 142.086 672.562 144.055 672.562 148.367V149.117H663.117C663.187 151.988 664.816 153.828 667.359 153.828C669.117 153.828 670.148 152.914 670.593 152.117H672.304C671.742 153.875 669.937 155.258 667.359 155.258ZM663.14 147.734H670.921C670.921 145.344 669.375 143.539 667.148 143.539C664.839 143.539 663.269 145.438 663.14 147.734ZM682.406 145.438C682.125 144.242 681.187 143.492 679.617 143.492C677.906 143.469 676.734 144.406 676.734 145.648C676.734 146.633 677.46 147.312 679.007 147.688L680.953 148.156C683.109 148.695 684.164 149.82 684.164 151.531C684.164 153.711 682.406 155.258 679.406 155.258C676.687 155.258 675.023 154.016 674.695 151.766H676.359C676.617 153.148 677.648 153.852 679.382 153.852C681.304 153.852 682.546 152.984 682.546 151.625C682.546 150.617 681.843 149.914 680.343 149.562L678.398 149.094C676.265 148.602 675.117 147.406 675.117 145.719C675.117 143.609 676.945 142.086 679.617 142.086C682.125 142.109 683.718 143.445 684 145.438H682.406ZM687 155V142.273H688.593V155H687ZM687.82 140.094C687.187 140.094 686.648 139.602 686.648 138.992C686.648 138.383 687.187 137.867 687.82 137.867C688.453 137.867 688.992 138.383 688.992 138.992C688.992 139.602 688.453 140.094 687.82 140.094ZM696.96 160.039C694.148 160.039 692.109 158.844 691.804 156.594H693.492C693.796 157.953 695.132 158.633 696.96 158.633C699.281 158.633 700.687 157.555 700.687 155.234V152.422H700.546C700.054 153.523 698.976 154.859 696.656 154.859C693.609 154.859 691.406 152.445 691.406 148.531C691.406 144.641 693.539 142.086 696.679 142.086C699.046 142.086 700.054 143.562 700.57 144.641H700.71V142.273H702.281V155.328C702.281 158.562 700.031 160.039 696.96 160.039ZM696.867 153.43C699.281 153.43 700.71 151.602 700.71 148.578C700.71 145.648 699.328 143.539 696.867 143.539C694.359 143.539 693.023 145.766 693.023 148.578C693.023 151.438 694.382 153.43 696.867 153.43ZM707.343 147.102V155H705.726V142.273H707.273V144.289H707.414C708.023 142.977 709.289 142.109 711.164 142.109C713.742 142.109 715.476 143.75 715.476 146.773V155H713.882V146.891C713.882 144.828 712.664 143.562 710.742 143.562C708.773 143.562 707.343 144.898 707.343 147.102ZM724.101 155.258C720.515 155.258 718.265 152.586 718.265 148.719C718.265 144.852 720.562 142.086 723.867 142.086C726.632 142.086 729.304 144.055 729.304 148.367V149.117H719.859C719.929 151.988 721.558 153.828 724.101 153.828C725.859 153.828 726.89 152.914 727.335 152.117H729.046C728.484 153.875 726.679 155.258 724.101 155.258ZM719.882 147.734H727.664C727.664 145.344 726.117 143.539 723.89 143.539C721.582 143.539 720.011 145.438 719.882 147.734ZM732.07 155V142.273H733.617V144.242H733.734C734.25 142.953 735.609 142.086 737.179 142.086C737.437 142.086 737.812 142.086 738 142.109V143.727C737.859 143.703 737.484 143.633 737.062 143.633C735.117 143.633 733.687 144.969 733.687 146.82V155H732.07ZM485.355 218.352C484.886 216.031 482.871 214.367 480.293 214.367C477.105 214.367 474.55 216.875 474.55 221.516C474.55 226.156 477.105 228.664 480.293 228.664C482.871 228.664 484.886 227 485.355 224.68H487.043C486.48 227.844 483.878 230.234 480.293 230.234C475.98 230.234 472.91 226.836 472.91 221.516C472.91 216.195 475.98 212.797 480.293 212.797C483.878 212.797 486.457 215.141 487.043 218.352H485.355ZM494.918 230.258C491.589 230.258 489.269 227.586 489.269 223.695C489.269 219.781 491.589 217.086 494.918 217.086C498.246 217.086 500.543 219.781 500.543 223.695C500.543 227.586 498.246 230.258 494.918 230.258ZM494.918 228.828C497.519 228.828 498.949 226.484 498.949 223.695C498.949 220.906 497.519 218.539 494.918 218.539C492.293 218.539 490.863 220.906 490.863 223.695C490.863 226.484 492.293 228.828 494.918 228.828ZM504.949 222.102V230H503.332V217.273H504.878V219.289H505.019C505.628 217.977 506.894 217.109 508.769 217.109C511.347 217.109 513.082 218.75 513.082 221.773V230H511.488V221.891C511.488 219.828 510.269 218.562 508.347 218.562C506.378 218.562 504.949 219.898 504.949 222.102ZM521.636 217.273V218.633H518.964V226.602C518.964 228.219 519.855 228.664 520.816 228.664C521.144 228.664 521.613 228.617 521.871 228.617V230.117C521.613 230.141 521.214 230.188 520.675 230.188C519.011 230.188 517.347 229.109 517.347 227V218.633H515.449V217.273H517.347V214.227H518.964V217.273H521.636ZM523.886 226.438C523.886 223.859 525.972 222.875 528.574 222.664C529.418 222.605 531.48 222.488 532.089 222.453V221.258C532.089 219.547 530.988 218.516 528.996 218.516C527.332 218.516 526.207 219.289 525.902 220.438H524.238C524.496 218.422 526.441 217.086 529.089 217.086C530.988 217.086 533.683 217.906 533.683 221.398V230H532.089V228.031H531.996C531.48 229.133 530.214 230.281 528.082 230.281C525.761 230.281 523.886 228.898 523.886 226.438ZM525.48 226.508C525.48 228.008 526.675 228.852 528.316 228.852C530.66 228.852 532.089 227.164 532.089 225.148V223.789L528.808 224.023C526.558 224.188 525.48 225.055 525.48 226.508ZM542.168 230.258C538.699 230.258 536.496 227.492 536.496 223.695C536.496 219.852 538.769 217.086 542.144 217.086C544.722 217.086 546.714 218.703 547.043 221.07H545.449C545.144 219.688 543.949 218.539 542.168 218.539C539.753 218.539 538.089 220.602 538.089 223.648C538.089 226.695 539.707 228.828 542.168 228.828C543.808 228.828 545.097 227.844 545.449 226.273H547.066C546.714 228.57 544.839 230.258 542.168 230.258ZM554.871 217.273V218.633H552.199V226.602C552.199 228.219 553.089 228.664 554.05 228.664C554.378 228.664 554.847 228.617 555.105 228.617V230.117C554.847 230.141 554.449 230.188 553.91 230.188C552.246 230.188 550.582 229.109 550.582 227V218.633H548.683V217.273H550.582V214.227H552.199V217.273H554.871ZM565.957 210.641V232.391H564.574V210.641H565.957ZM577.839 222.102V230H576.222V213.031H577.839V219.289H577.957C578.566 217.953 579.785 217.109 581.73 217.109C584.308 217.109 586.066 218.727 586.066 221.773V230H584.472V221.891C584.472 219.805 583.253 218.562 581.308 218.562C579.293 218.562 577.839 219.898 577.839 222.102ZM590.027 234.781C589.699 234.781 589.347 234.758 589.136 234.734L589.16 233.305L589.933 233.328C590.753 233.328 591.574 233.211 592.253 231.359L592.699 230.117L588.011 217.273H589.746L593.449 227.938H593.566L597.293 217.273H599.003L593.636 231.969C592.933 233.844 591.761 234.781 590.027 234.781ZM606.152 230.258C602.566 230.258 600.316 227.586 600.316 223.719C600.316 219.852 602.613 217.086 605.918 217.086C608.683 217.086 611.355 219.055 611.355 223.367V224.117H601.91C601.98 226.988 603.609 228.828 606.152 228.828C607.91 228.828 608.941 227.914 609.386 227.117H611.097C610.535 228.875 608.73 230.258 606.152 230.258ZM601.933 222.734H609.714C609.714 220.344 608.168 218.539 605.941 218.539C603.632 218.539 602.062 220.438 601.933 222.734ZM619.136 230.258C615.808 230.258 613.488 227.586 613.488 223.695C613.488 219.781 615.808 217.086 619.136 217.086C622.464 217.086 624.761 219.781 624.761 223.695C624.761 227.586 622.464 230.258 619.136 230.258ZM619.136 228.828C621.738 228.828 623.168 226.484 623.168 223.695C623.168 220.906 621.738 218.539 619.136 218.539C616.511 218.539 615.082 220.906 615.082 223.695C615.082 226.484 616.511 228.828 619.136 228.828ZM629.168 222.102V230H627.55V217.273H629.097V219.289H629.238C629.847 217.977 631.113 217.109 632.988 217.109C635.566 217.109 637.3 218.75 637.3 221.773V230H635.707V221.891C635.707 219.828 634.488 218.562 632.566 218.562C630.597 218.562 629.168 219.898 629.168 222.102ZM649.23 230V231.477H638.753V230H649.23ZM654.925 230.234C651.293 230.234 649.183 227.023 649.183 221.516C649.183 216.031 651.316 212.797 654.925 212.797C658.511 212.797 660.644 216.031 660.644 221.516C660.644 227.023 658.535 230.234 654.925 230.234ZM654.925 228.734C657.503 228.734 659.027 226.109 659.027 221.516C659.027 216.922 657.48 214.273 654.925 214.273C652.347 214.273 650.824 216.922 650.824 221.516C650.824 226.109 652.347 228.734 654.925 228.734ZM663.574 230V228.781L669.316 222.57C671.496 220.203 672.386 219.008 672.41 217.414C672.386 215.539 670.863 214.273 668.847 214.273C666.691 214.273 665.308 215.68 665.308 217.672H663.714C663.714 214.812 665.918 212.797 668.894 212.797C671.847 212.797 673.957 214.812 673.957 217.414C673.957 219.312 673.089 220.742 670.16 223.836L665.941 228.383V228.5H674.472V230H663.574ZM683.121 213.031V230H681.433V214.766H681.339L677.332 217.414V215.703L681.386 213.031H683.121ZM687.832 230V228.781L693.574 222.57C695.753 220.203 696.644 219.008 696.668 217.414C696.644 215.539 695.121 214.273 693.105 214.273C690.949 214.273 689.566 215.68 689.566 217.672H687.972C687.972 214.812 690.175 212.797 693.152 212.797C696.105 212.797 698.214 214.812 698.214 217.414C698.214 219.312 697.347 220.742 694.418 223.836L690.199 228.383V228.5H698.73V230H687.832ZM710.355 227.773C708.058 227.773 706.394 225.852 706.394 222.828C706.394 219.828 708.082 217.906 710.355 217.906C712.019 217.906 712.863 218.984 713.191 219.805H713.285V218.07H714.714V224.891C714.738 226.016 715.277 226.602 716.191 226.602C717.761 226.602 718.816 224.797 718.839 222.125C718.839 217.602 715.558 214.555 710.871 214.555C706.089 214.578 702.949 218.188 702.925 222.828C702.925 227.797 705.785 231.148 710.8 231.125C712.324 231.102 713.402 231.008 714.714 230.656V231.945C713.566 232.25 712.23 232.438 710.8 232.438C705.152 232.438 701.566 228.711 701.566 222.828C701.566 217.273 705.433 213.242 710.871 213.242C716.425 213.242 720.199 216.992 720.199 222.078C720.199 225.688 718.441 227.867 716.097 227.867C714.621 227.867 713.496 226.977 713.402 225.734H713.285C712.957 226.555 712.089 227.773 710.355 227.773ZM710.589 226.391C712.324 226.391 713.308 224.914 713.308 222.805C713.308 220.742 712.324 219.289 710.589 219.289C708.855 219.289 707.871 220.789 707.871 222.805C707.871 224.867 708.878 226.391 710.589 226.391ZM724.793 222.102V230H723.175V217.273H724.722V219.289H724.863C725.472 217.977 726.738 217.109 728.613 217.109C731.191 217.109 732.925 218.75 732.925 221.773V230H731.332V221.891C731.332 219.828 730.113 218.562 728.191 218.562C726.222 218.562 724.793 219.898 724.793 222.102ZM735.738 226.438C735.738 223.859 737.824 222.875 740.425 222.664C741.269 222.605 743.332 222.488 743.941 222.453V221.258C743.941 219.547 742.839 218.516 740.847 218.516C739.183 218.516 738.058 219.289 737.753 220.438H736.089C736.347 218.422 738.293 217.086 740.941 217.086C742.839 217.086 745.535 217.906 745.535 221.398V230H743.941V228.031H743.847C743.332 229.133 742.066 230.281 739.933 230.281C737.613 230.281 735.738 228.898 735.738 226.438ZM737.332 226.508C737.332 228.008 738.527 228.852 740.168 228.852C742.511 228.852 743.941 227.164 743.941 225.148V223.789L740.66 224.023C738.41 224.188 737.332 225.055 737.332 226.508ZM758.496 217.273L753.855 230H752.144L747.503 217.273H749.238L752.941 227.914H753.058L756.785 217.273H758.496ZM765.644 230.258C762.058 230.258 759.808 227.586 759.808 223.719C759.808 219.852 762.105 217.086 765.41 217.086C768.175 217.086 770.847 219.055 770.847 223.367V224.117H761.402C761.472 226.988 763.101 228.828 765.644 228.828C767.402 228.828 768.433 227.914 768.878 227.117H770.589C770.027 228.875 768.222 230.258 765.644 230.258ZM761.425 222.734H769.207C769.207 220.344 767.66 218.539 765.433 218.539C763.125 218.539 761.554 220.438 761.425 222.734ZM773.613 230V217.273H775.16V219.242H775.277C775.793 217.953 777.152 217.086 778.722 217.086C778.98 217.086 779.355 217.086 779.543 217.109V218.727C779.402 218.703 779.027 218.633 778.605 218.633C776.66 218.633 775.23 219.969 775.23 221.82V230H773.613ZM781.418 230.117C780.714 230.117 780.152 229.555 780.152 228.875C780.152 228.172 780.714 227.609 781.418 227.609C782.097 227.609 782.66 228.172 782.66 228.875C782.66 229.555 782.097 230.117 781.418 230.117ZM791.097 230.258C787.628 230.258 785.425 227.492 785.425 223.695C785.425 219.852 787.699 217.086 791.074 217.086C793.652 217.086 795.644 218.703 795.972 221.07H794.378C794.074 219.688 792.878 218.539 791.097 218.539C788.683 218.539 787.019 220.602 787.019 223.648C787.019 226.695 788.636 228.828 791.097 228.828C792.738 228.828 794.027 227.844 794.378 226.273H795.996C795.644 228.57 793.769 230.258 791.097 230.258ZM803.683 230.258C800.355 230.258 798.035 227.586 798.035 223.695C798.035 219.781 800.355 217.086 803.683 217.086C807.011 217.086 809.308 219.781 809.308 223.695C809.308 227.586 807.011 230.258 803.683 230.258ZM803.683 228.828C806.285 228.828 807.714 226.484 807.714 223.695C807.714 220.906 806.285 218.539 803.683 218.539C801.058 218.539 799.628 220.906 799.628 223.695C799.628 226.484 801.058 228.828 803.683 228.828ZM812.097 230V217.273H813.644V219.242H813.785C814.3 217.906 815.543 217.109 817.207 217.109C818.941 217.109 820.089 217.977 820.652 219.406H820.746C821.332 218 822.668 217.109 824.519 217.109C826.886 217.109 828.386 218.609 828.386 221.469V230H826.769V221.492C826.769 219.523 825.668 218.562 824.027 218.562C822.128 218.562 821.05 219.852 821.05 221.656V230H819.433V221.352C819.433 219.688 818.425 218.562 816.738 218.562C815.003 218.562 813.714 219.922 813.714 221.891V230H812.097Z" fill="#576238"/>
<path d="M1122.84 137.539C1122.84 142.695 1118.92 146.398 1112.85 148.016L1112.24 146.844C1117.48 145.449 1120.91 142.555 1121.29 138.758H1113.3V137.539H1122.84ZM1128.95 136.156V147.898H1127.48V136.156H1128.95ZM1128.95 148.93V156.523H1115.62V148.93H1128.95ZM1117.07 150.125V155.281H1127.5V150.125H1117.07ZM1143.37 138.008V147.477H1133.8V138.008H1143.37ZM1135.23 139.25V146.258H1141.94V139.25H1135.23ZM1149.69 136.156V151.086H1148.22V136.156H1149.69ZM1150.37 154.789V156.055H1136.5V149.609H1137.98V154.789H1150.37ZM1160.31 141.102C1160.31 143.867 1162.59 146.305 1165.54 147.242L1164.77 148.438C1162.42 147.641 1160.5 145.953 1159.61 143.773C1158.73 146.141 1156.73 147.945 1154.31 148.836L1153.54 147.641C1156.52 146.656 1158.86 144.102 1158.86 141.102V140.328H1154.03V139.086H1158.86V136.273H1160.36V139.086H1165.14V140.328H1160.31V141.102ZM1169.55 136.133V142.672H1172.73V143.938H1169.55V151.461H1168.07V136.133H1169.55ZM1170.55 155.094V156.336H1156.75V150.125H1158.2V155.094H1170.55ZM1183.21 135.641V157.391H1181.83V135.641H1183.21ZM1193.78 155V138.031H1199.34C1202.99 138.031 1204.84 140.305 1204.84 143.305C1204.84 146.281 1202.99 148.578 1199.36 148.578H1195.44V155H1193.78ZM1195.44 147.078H1199.29C1201.94 147.078 1203.2 145.484 1203.2 143.305C1203.2 141.102 1201.94 139.531 1199.27 139.531H1195.44V147.078ZM1207.73 155V142.273H1209.27V144.242H1209.39C1209.91 142.953 1211.27 142.086 1212.84 142.086C1213.09 142.086 1213.47 142.086 1213.66 142.109V143.727C1213.52 143.703 1213.14 143.633 1212.72 143.633C1210.77 143.633 1209.34 144.969 1209.34 146.82V155H1207.73ZM1220.34 155.258C1217.01 155.258 1214.69 152.586 1214.69 148.695C1214.69 144.781 1217.01 142.086 1220.34 142.086C1223.66 142.086 1225.96 144.781 1225.96 148.695C1225.96 152.586 1223.66 155.258 1220.34 155.258ZM1220.34 153.828C1222.94 153.828 1224.37 151.484 1224.37 148.695C1224.37 145.906 1222.94 143.539 1220.34 143.539C1217.71 143.539 1216.28 145.906 1216.28 148.695C1216.28 151.484 1217.71 153.828 1220.34 153.828ZM1233.67 160.039C1230.86 160.039 1228.82 158.844 1228.52 156.594H1230.2C1230.51 157.953 1231.84 158.633 1233.67 158.633C1235.99 158.633 1237.4 157.555 1237.4 155.234V152.422H1237.26C1236.77 153.523 1235.69 154.859 1233.37 154.859C1230.32 154.859 1228.12 152.445 1228.12 148.531C1228.12 144.641 1230.25 142.086 1233.39 142.086C1235.76 142.086 1236.77 143.562 1237.28 144.641H1237.42V142.273H1238.99V155.328C1238.99 158.562 1236.74 160.039 1233.67 160.039ZM1233.58 153.43C1235.99 153.43 1237.42 151.602 1237.42 148.578C1237.42 145.648 1236.04 143.539 1233.58 143.539C1231.07 143.539 1229.73 145.766 1229.73 148.578C1229.73 151.438 1231.09 153.43 1233.58 153.43ZM1242.44 155V142.273H1243.98V144.242H1244.1C1244.62 142.953 1245.98 142.086 1247.55 142.086C1247.8 142.086 1248.18 142.086 1248.37 142.109V143.727C1248.23 143.703 1247.85 143.633 1247.43 143.633C1245.48 143.633 1244.05 144.969 1244.05 146.82V155H1242.44ZM1249.82 151.438C1249.82 148.859 1251.91 147.875 1254.51 147.664C1255.35 147.605 1257.41 147.488 1258.02 147.453V146.258C1258.02 144.547 1256.92 143.516 1254.93 143.516C1253.27 143.516 1252.14 144.289 1251.84 145.438H1250.17C1250.43 143.422 1252.37 142.086 1255.02 142.086C1256.92 142.086 1259.62 142.906 1259.62 146.398V155H1258.02V153.031H1257.93C1257.41 154.133 1256.15 155.281 1254.02 155.281C1251.69 155.281 1249.82 153.898 1249.82 151.438ZM1251.41 151.508C1251.41 153.008 1252.61 153.852 1254.25 153.852C1256.59 153.852 1258.02 152.164 1258.02 150.148V148.789L1254.74 149.023C1252.49 149.188 1251.41 150.055 1251.41 151.508ZM1263.06 155V142.273H1264.61V144.242H1264.75C1265.27 142.906 1266.51 142.109 1268.17 142.109C1269.91 142.109 1271.05 142.977 1271.62 144.406H1271.71C1272.3 143 1273.63 142.109 1275.48 142.109C1277.85 142.109 1279.35 143.609 1279.35 146.469V155H1277.73V146.492C1277.73 144.523 1276.63 143.562 1274.99 143.562C1273.09 143.562 1272.02 144.852 1272.02 146.656V155H1270.4V146.352C1270.4 144.688 1269.39 143.562 1267.7 143.562C1265.97 143.562 1264.68 144.922 1264.68 146.891V155H1263.06ZM1282.77 155V142.273H1284.32V144.242H1284.46C1284.98 142.906 1286.22 142.109 1287.88 142.109C1289.62 142.109 1290.77 142.977 1291.33 144.406H1291.42C1292.01 143 1293.34 142.109 1295.19 142.109C1297.56 142.109 1299.06 143.609 1299.06 146.469V155H1297.44V146.492C1297.44 144.523 1296.34 143.562 1294.7 143.562C1292.8 143.562 1291.73 144.852 1291.73 146.656V155H1290.11V146.352C1290.11 144.688 1289.1 143.562 1287.41 143.562C1285.68 143.562 1284.39 144.922 1284.39 146.891V155H1282.77ZM1302.51 155V142.273H1304.1V155H1302.51ZM1303.33 140.094C1302.69 140.094 1302.16 139.602 1302.16 138.992C1302.16 138.383 1302.69 137.867 1303.33 137.867C1303.96 137.867 1304.5 138.383 1304.5 138.992C1304.5 139.602 1303.96 140.094 1303.33 140.094ZM1309.16 147.102V155H1307.55V142.273H1309.09V144.289H1309.23C1309.84 142.977 1311.11 142.109 1312.98 142.109C1315.56 142.109 1317.3 143.75 1317.3 146.773V155H1315.7V146.891C1315.7 144.828 1314.48 143.562 1312.56 143.562C1310.59 143.562 1309.16 144.898 1309.16 147.102ZM1325.64 160.039C1322.83 160.039 1320.79 158.844 1320.48 156.594H1322.17C1322.48 157.953 1323.81 158.633 1325.64 158.633C1327.96 158.633 1329.37 157.555 1329.37 155.234V152.422H1329.23C1328.73 153.523 1327.66 154.859 1325.34 154.859C1322.29 154.859 1320.09 152.445 1320.09 148.531C1320.09 144.641 1322.22 142.086 1325.36 142.086C1327.73 142.086 1328.73 143.562 1329.25 144.641H1329.39V142.273H1330.96V155.328C1330.96 158.562 1328.71 160.039 1325.64 160.039ZM1325.55 153.43C1327.96 153.43 1329.39 151.602 1329.39 148.578C1329.39 145.648 1328.01 143.539 1325.55 143.539C1323.04 143.539 1321.7 145.766 1321.7 148.578C1321.7 151.438 1323.06 153.43 1325.55 153.43ZM1068.93 218.352C1068.46 216.031 1066.44 214.367 1063.87 214.367C1060.68 214.367 1058.12 216.875 1058.12 221.516C1058.12 226.156 1060.68 228.664 1063.87 228.664C1066.44 228.664 1068.46 227 1068.93 224.68H1070.62C1070.05 227.844 1067.45 230.234 1063.87 230.234C1059.55 230.234 1056.48 226.836 1056.48 221.516C1056.48 216.195 1059.55 212.797 1063.87 212.797C1067.45 212.797 1070.03 215.141 1070.62 218.352H1068.93ZM1078.49 230.258C1075.16 230.258 1072.84 227.586 1072.84 223.695C1072.84 219.781 1075.16 217.086 1078.49 217.086C1081.82 217.086 1084.12 219.781 1084.12 223.695C1084.12 227.586 1081.82 230.258 1078.49 230.258ZM1078.49 228.828C1081.09 228.828 1082.52 226.484 1082.52 223.695C1082.52 220.906 1081.09 218.539 1078.49 218.539C1075.87 218.539 1074.44 220.906 1074.44 223.695C1074.44 226.484 1075.87 228.828 1078.49 228.828ZM1088.52 222.102V230H1086.91V217.273H1088.45V219.289H1088.59C1089.2 217.977 1090.47 217.109 1092.34 217.109C1094.92 217.109 1096.66 218.75 1096.66 221.773V230H1095.06V221.891C1095.06 219.828 1093.84 218.562 1091.92 218.562C1089.95 218.562 1088.52 219.898 1088.52 222.102ZM1105.21 217.273V218.633H1102.54V226.602C1102.54 228.219 1103.43 228.664 1104.39 228.664C1104.72 228.664 1105.19 228.617 1105.44 228.617V230.117C1105.19 230.141 1104.79 230.188 1104.25 230.188C1102.59 230.188 1100.92 229.109 1100.92 227V218.633H1099.02V217.273H1100.92V214.227H1102.54V217.273H1105.21ZM1107.46 226.438C1107.46 223.859 1109.55 222.875 1112.15 222.664C1112.99 222.605 1115.05 222.488 1115.66 222.453V221.258C1115.66 219.547 1114.56 218.516 1112.57 218.516C1110.91 218.516 1109.78 219.289 1109.48 220.438H1107.81C1108.07 218.422 1110.02 217.086 1112.66 217.086C1114.56 217.086 1117.26 217.906 1117.26 221.398V230H1115.66V228.031H1115.57C1115.05 229.133 1113.79 230.281 1111.66 230.281C1109.34 230.281 1107.46 228.898 1107.46 226.438ZM1109.05 226.508C1109.05 228.008 1110.25 228.852 1111.89 228.852C1114.23 228.852 1115.66 227.164 1115.66 225.148V223.789L1112.38 224.023C1110.13 224.188 1109.05 225.055 1109.05 226.508ZM1125.74 230.258C1122.27 230.258 1120.07 227.492 1120.07 223.695C1120.07 219.852 1122.34 217.086 1125.72 217.086C1128.3 217.086 1130.29 218.703 1130.62 221.07H1129.02C1128.72 219.688 1127.52 218.539 1125.74 218.539C1123.33 218.539 1121.66 220.602 1121.66 223.648C1121.66 226.695 1123.28 228.828 1125.74 228.828C1127.38 228.828 1128.67 227.844 1129.02 226.273H1130.64C1130.29 228.57 1128.41 230.258 1125.74 230.258ZM1138.44 217.273V218.633H1135.77V226.602C1135.77 228.219 1136.66 228.664 1137.62 228.664C1137.95 228.664 1138.42 228.617 1138.68 228.617V230.117C1138.42 230.141 1138.02 230.188 1137.48 230.188C1135.82 230.188 1134.16 229.109 1134.16 227V218.633H1132.26V217.273H1134.16V214.227H1135.77V217.273H1138.44ZM1149.53 210.641V232.391H1148.15V210.641H1149.53ZM1159.8 230V213.031H1161.41V223.18H1161.58L1167.44 217.273H1169.45L1164.04 222.734L1169.78 230H1167.77L1162.84 223.766L1161.41 225.102V230H1159.8ZM1171.75 230V217.273H1173.3V219.242H1173.44C1173.95 217.906 1175.19 217.109 1176.86 217.109C1178.59 217.109 1179.74 217.977 1180.3 219.406H1180.4C1180.98 218 1182.32 217.109 1184.17 217.109C1186.54 217.109 1188.04 218.609 1188.04 221.469V230H1186.42V221.492C1186.42 219.523 1185.32 218.562 1183.68 218.562C1181.78 218.562 1180.7 219.852 1180.7 221.656V230H1179.09V221.352C1179.09 219.688 1178.08 218.562 1176.39 218.562C1174.66 218.562 1173.37 219.922 1173.37 221.891V230H1171.75ZM1196.5 230.258C1193.03 230.258 1190.83 227.492 1190.83 223.695C1190.83 219.852 1193.1 217.086 1196.48 217.086C1199.05 217.086 1201.05 218.703 1201.37 221.07H1199.78C1199.48 219.688 1198.28 218.539 1196.5 218.539C1194.09 218.539 1192.42 220.602 1192.42 223.648C1192.42 226.695 1194.04 228.828 1196.5 228.828C1198.14 228.828 1199.43 227.844 1199.78 226.273H1201.4C1201.05 228.57 1199.17 230.258 1196.5 230.258ZM1204.02 230V228.781L1209.77 222.57C1211.94 220.203 1212.84 219.008 1212.86 217.414C1212.84 215.539 1211.31 214.273 1209.3 214.273C1207.14 214.273 1205.76 215.68 1205.76 217.672H1204.16C1204.16 214.812 1206.37 212.797 1209.34 212.797C1212.3 212.797 1214.41 214.812 1214.41 217.414C1214.41 219.312 1213.54 220.742 1210.61 223.836L1206.39 228.383V228.5H1214.92V230H1204.02ZM1217.38 226.391V225.031L1225.12 213.031H1227.13V224.914H1229.45V226.391H1227.13V230H1225.54V226.391H1217.38ZM1219.23 224.914H1225.54V215.258H1225.37L1219.23 224.797V224.914ZM1237.73 230.234C1234.09 230.234 1231.98 227.023 1231.98 221.516C1231.98 216.031 1234.12 212.797 1237.73 212.797C1241.31 212.797 1243.44 216.031 1243.44 221.516C1243.44 227.023 1241.34 230.234 1237.73 230.234ZM1237.73 228.734C1240.3 228.734 1241.83 226.109 1241.83 221.516C1241.83 216.922 1240.28 214.273 1237.73 214.273C1235.15 214.273 1233.62 216.922 1233.62 221.516C1233.62 226.109 1235.15 228.734 1237.73 228.734ZM1251.62 230.234C1248.65 230.234 1246.42 228.359 1246.35 225.734H1247.97C1248.06 227.469 1249.61 228.758 1251.62 228.758C1253.99 228.758 1255.7 226.977 1255.68 224.656C1255.68 222.219 1253.87 220.531 1251.51 220.508C1250.08 220.508 1248.91 220.977 1248.23 222.078H1246.56L1247.73 213.031H1256.57V214.531H1249.14L1248.41 220.133H1248.55C1249.3 219.43 1250.52 219.008 1251.79 219.008C1254.91 219.008 1257.32 221.328 1257.32 224.633C1257.32 227.867 1254.93 230.234 1251.62 230.234ZM1268.78 227.773C1266.48 227.773 1264.82 225.852 1264.82 222.828C1264.82 219.828 1266.51 217.906 1268.78 217.906C1270.44 217.906 1271.29 218.984 1271.62 219.805H1271.71V218.07H1273.14V224.891C1273.16 226.016 1273.7 226.602 1274.62 226.602C1276.19 226.602 1277.24 224.797 1277.27 222.125C1277.27 217.602 1273.98 214.555 1269.3 214.555C1264.52 214.578 1261.37 218.188 1261.35 222.828C1261.35 227.797 1264.21 231.148 1269.23 231.125C1270.75 231.102 1271.83 231.008 1273.14 230.656V231.945C1271.99 232.25 1270.66 232.438 1269.23 232.438C1263.58 232.438 1259.99 228.711 1259.99 222.828C1259.99 217.273 1263.86 213.242 1269.3 213.242C1274.85 213.242 1278.62 216.992 1278.62 222.078C1278.62 225.688 1276.87 227.867 1274.52 227.867C1273.05 227.867 1271.92 226.977 1271.83 225.734H1271.71C1271.38 226.555 1270.52 227.773 1268.78 227.773ZM1269.02 226.391C1270.75 226.391 1271.73 224.914 1271.73 222.805C1271.73 220.742 1270.75 219.289 1269.02 219.289C1267.28 219.289 1266.3 220.789 1266.3 222.805C1266.3 224.867 1267.3 226.391 1269.02 226.391ZM1283.22 222.102V230H1281.6V217.273H1283.15V219.289H1283.29C1283.9 217.977 1285.16 217.109 1287.04 217.109C1289.62 217.109 1291.35 218.75 1291.35 221.773V230H1289.76V221.891C1289.76 219.828 1288.54 218.562 1286.62 218.562C1284.65 218.562 1283.22 219.898 1283.22 222.102ZM1294.16 226.438C1294.16 223.859 1296.25 222.875 1298.85 222.664C1299.69 222.605 1301.76 222.488 1302.37 222.453V221.258C1302.37 219.547 1301.27 218.516 1299.27 218.516C1297.61 218.516 1296.48 219.289 1296.18 220.438H1294.52C1294.77 218.422 1296.72 217.086 1299.37 217.086C1301.27 217.086 1303.96 217.906 1303.96 221.398V230H1302.37V228.031H1302.27C1301.76 229.133 1300.49 230.281 1298.36 230.281C1296.04 230.281 1294.16 228.898 1294.16 226.438ZM1295.76 226.508C1295.76 228.008 1296.95 228.852 1298.59 228.852C1300.94 228.852 1302.37 227.164 1302.37 225.148V223.789L1299.09 224.023C1296.84 224.188 1295.76 225.055 1295.76 226.508ZM1316.92 217.273L1312.28 230H1310.57L1305.93 217.273H1307.66L1311.37 227.914H1311.48L1315.21 217.273H1316.92ZM1324.07 230.258C1320.48 230.258 1318.23 227.586 1318.23 223.719C1318.23 219.852 1320.53 217.086 1323.84 217.086C1326.6 217.086 1329.27 219.055 1329.27 223.367V224.117H1319.83C1319.9 226.988 1321.53 228.828 1324.07 228.828C1325.83 228.828 1326.86 227.914 1327.3 227.117H1329.02C1328.45 228.875 1326.65 230.258 1324.07 230.258ZM1319.85 222.734H1327.63C1327.63 220.344 1326.09 218.539 1323.86 218.539C1321.55 218.539 1319.98 220.438 1319.85 222.734ZM1332.04 230V217.273H1333.59V219.242H1333.7C1334.22 217.953 1335.58 217.086 1337.15 217.086C1337.41 217.086 1337.78 217.086 1337.97 217.109V218.727C1337.83 218.703 1337.45 218.633 1337.03 218.633C1335.09 218.633 1333.66 219.969 1333.66 221.82V230H1332.04ZM1339.84 230.117C1339.14 230.117 1338.58 229.555 1338.58 228.875C1338.58 228.172 1339.14 227.609 1339.84 227.609C1340.52 227.609 1341.09 228.172 1341.09 228.875C1341.09 229.555 1340.52 230.117 1339.84 230.117ZM1349.52 230.258C1346.05 230.258 1343.85 227.492 1343.85 223.695C1343.85 219.852 1346.12 217.086 1349.5 217.086C1352.08 217.086 1354.07 218.703 1354.4 221.07H1352.8C1352.5 219.688 1351.3 218.539 1349.52 218.539C1347.11 218.539 1345.44 220.602 1345.44 223.648C1345.44 226.695 1347.06 228.828 1349.52 228.828C1351.16 228.828 1352.45 227.844 1352.8 226.273H1354.42C1354.07 228.57 1352.19 230.258 1349.52 230.258ZM1362.11 230.258C1358.78 230.258 1356.46 227.586 1356.46 223.695C1356.46 219.781 1358.78 217.086 1362.11 217.086C1365.44 217.086 1367.73 219.781 1367.73 223.695C1367.73 227.586 1365.44 230.258 1362.11 230.258ZM1362.11 228.828C1364.71 228.828 1366.14 226.484 1366.14 223.695C1366.14 220.906 1364.71 218.539 1362.11 218.539C1359.48 218.539 1358.05 220.906 1358.05 223.695C1358.05 226.484 1359.48 228.828 1362.11 228.828ZM1370.52 230V217.273H1372.07V219.242H1372.21C1372.73 217.906 1373.97 217.109 1375.63 217.109C1377.37 217.109 1378.52 217.977 1379.08 219.406H1379.17C1379.76 218 1381.09 217.109 1382.94 217.109C1385.31 217.109 1386.81 218.609 1386.81 221.469V230H1385.19V221.492C1385.19 219.523 1384.09 218.562 1382.45 218.562C1380.55 218.562 1379.48 219.852 1379.48 221.656V230H1377.86V221.352C1377.86 219.688 1376.85 218.562 1375.16 218.562C1373.43 218.562 1372.14 219.922 1372.14 221.891V230H1370.52Z" fill="#576238"/>
<path d="M1530.92 310.93C1530.92 308.664 1532.76 306.828 1535.02 306.828C1536.9 306.828 1538.42 308.098 1538.77 309.797H1537.4C1537.13 308.82 1536.15 308.117 1535.02 308.117C1533.48 308.117 1532.21 309.367 1532.21 310.93C1532.21 312.473 1533.48 313.742 1535.02 313.742C1536.15 313.742 1537.03 313.039 1537.31 312.062H1538.65C1538.32 313.762 1536.9 315.012 1535.02 315.012C1532.76 315.012 1530.92 313.195 1530.92 310.93ZM1534.92 318.215C1530.9 318.215 1527.62 314.953 1527.62 310.93C1527.64 306.906 1530.9 303.645 1534.92 303.645C1538.97 303.645 1542.19 306.906 1542.21 310.93C1542.23 314.953 1538.97 318.215 1534.92 318.215ZM1534.92 316.926C1538.24 316.926 1540.92 314.23 1540.92 310.93C1540.9 307.609 1538.22 304.934 1534.92 304.934C1531.62 304.934 1528.93 307.629 1528.93 310.93C1528.91 314.23 1531.6 316.926 1534.92 316.926ZM1544.65 318V316.984L1549.44 311.809C1551.25 309.836 1551.99 308.84 1552.01 307.512C1551.99 305.949 1550.72 304.895 1549.04 304.895C1547.25 304.895 1546.1 306.066 1546.1 307.727H1544.77C1544.77 305.344 1546.6 303.664 1549.08 303.664C1551.54 303.664 1553.3 305.344 1553.3 307.512C1553.3 309.094 1552.58 310.285 1550.14 312.863L1546.62 316.652V316.75H1553.73V318H1544.65ZM1560.88 318.195C1557.85 318.195 1556.1 315.52 1556.1 310.93C1556.1 306.359 1557.87 303.664 1560.88 303.664C1563.87 303.664 1565.65 306.359 1565.65 310.93C1565.65 315.52 1563.89 318.195 1560.88 318.195ZM1560.88 316.945C1563.03 316.945 1564.3 314.758 1564.3 310.93C1564.3 307.102 1563.01 304.895 1560.88 304.895C1558.73 304.895 1557.46 307.102 1557.46 310.93C1557.46 314.758 1558.73 316.945 1560.88 316.945ZM1568.09 318V316.984L1572.87 311.809C1574.69 309.836 1575.43 308.84 1575.45 307.512C1575.43 305.949 1574.16 304.895 1572.48 304.895C1570.69 304.895 1569.53 306.066 1569.53 307.727H1568.21C1568.21 305.344 1570.04 303.664 1572.52 303.664C1574.98 303.664 1576.74 305.344 1576.74 307.512C1576.74 309.094 1576.02 310.285 1573.58 312.863L1570.06 316.652V316.75H1577.17V318H1568.09ZM1579.22 314.992V313.859L1585.67 303.859H1587.35V313.762H1589.28V314.992H1587.35V318H1586.02V314.992H1579.22ZM1580.76 313.762H1586.02V305.715H1585.88L1580.76 313.664V313.762ZM1596.84 318V303.859H1601.66C1604.46 303.859 1605.84 305.441 1605.84 307.57C1605.84 309.328 1604.85 310.305 1603.58 310.637V310.754C1604.96 310.852 1606.41 312.121 1606.41 314.289C1606.41 316.418 1605 318 1601.92 318H1596.84ZM1601.9 316.75C1604.06 316.75 1605.06 315.695 1605.06 314.27C1605.06 312.688 1603.83 311.418 1601.96 311.418H1598.22V316.75H1601.9ZM1601.74 310.207C1603.38 310.207 1604.51 309.113 1604.51 307.57C1604.51 306.125 1603.56 305.109 1601.64 305.109H1598.22V310.207H1601.74ZM1615.61 313.898V307.395H1616.94V318H1615.61V316.242H1615.51C1615.02 317.316 1613.93 318.137 1612.37 318.137C1610.33 318.137 1608.87 316.77 1608.87 314.25V307.395H1610.22V314.152C1610.22 315.773 1611.25 316.848 1612.76 316.848C1614.14 316.848 1615.61 315.832 1615.61 313.898ZM1623.63 318.215C1621.04 318.215 1619.26 316.027 1619.26 312.727C1619.26 309.426 1621.04 307.238 1623.65 307.238C1625.61 307.238 1626.47 308.469 1626.88 309.367H1626.97V303.859H1628.32V318H1627.01V316.086H1626.88C1626.45 317.004 1625.57 318.215 1623.63 318.215ZM1623.81 317.023C1625.84 317.023 1627.01 315.227 1627.01 312.707C1627.01 310.207 1625.86 308.449 1623.81 308.449C1621.72 308.449 1620.61 310.305 1620.61 312.707C1620.61 315.129 1621.74 317.023 1623.81 317.023ZM1635.28 318.215C1632.68 318.215 1630.9 316.027 1630.9 312.727C1630.9 309.426 1632.68 307.238 1635.29 307.238C1637.25 307.238 1638.11 308.469 1638.52 309.367H1638.62V303.859H1639.96V318H1638.65V316.086H1638.52C1638.09 317.004 1637.21 318.215 1635.28 318.215ZM1635.45 317.023C1637.48 317.023 1638.65 315.227 1638.65 312.707C1638.65 310.207 1637.5 308.449 1635.45 308.449C1633.36 308.449 1632.25 310.305 1632.25 312.707C1632.25 315.129 1633.38 317.023 1635.45 317.023ZM1643.91 321.984C1643.63 321.984 1643.34 321.965 1643.17 321.945L1643.19 320.754L1643.83 320.773C1644.51 320.773 1645.2 320.676 1645.76 319.133L1646.13 318.098L1642.23 307.395H1643.67L1646.76 316.281H1646.86L1649.96 307.395H1651.39L1646.92 319.641C1646.33 321.203 1645.35 321.984 1643.91 321.984ZM1653.77 318.098C1653.19 318.098 1652.72 317.629 1652.72 317.062C1652.72 316.477 1653.19 316.008 1653.77 316.008C1654.34 316.008 1654.81 316.477 1654.81 317.062C1654.81 317.629 1654.34 318.098 1653.77 318.098ZM1662.85 318H1661.39L1666.53 303.859H1668.03L1673.17 318H1671.7L1670.22 313.801H1664.34L1662.85 318ZM1664.79 312.57H1669.79L1667.33 305.656H1667.23L1664.79 312.57ZM1676.31 303.859V318H1674.96V303.859H1676.31ZM1680.51 303.859V318H1679.16V303.859H1680.51ZM1688.44 318V303.859H1693.07C1696.12 303.859 1697.66 305.637 1697.66 308.117C1697.66 310.012 1696.76 311.467 1695 312.043L1698.24 318H1696.64L1693.58 312.316L1693.09 312.336H1689.83V318H1688.44ZM1689.83 311.066H1693.03C1695.24 311.066 1696.29 309.934 1696.29 308.117C1696.29 306.301 1695.24 305.109 1693.01 305.109H1689.83V311.066ZM1700.2 318V307.395H1701.53V318H1700.2ZM1700.88 305.578C1700.35 305.578 1699.9 305.168 1699.9 304.66C1699.9 304.152 1700.35 303.723 1700.88 303.723C1701.41 303.723 1701.86 304.152 1701.86 304.66C1701.86 305.168 1701.41 305.578 1700.88 305.578ZM1708.5 322.199C1706.15 322.199 1704.46 321.203 1704.2 319.328H1705.61C1705.86 320.461 1706.97 321.027 1708.5 321.027C1710.43 321.027 1711.6 320.129 1711.6 318.195V315.852H1711.49C1711.08 316.77 1710.18 317.883 1708.24 317.883C1705.71 317.883 1703.87 315.871 1703.87 312.609C1703.87 309.367 1705.65 307.238 1708.26 307.238C1710.24 307.238 1711.08 308.469 1711.51 309.367H1711.62V307.395H1712.93V318.273C1712.93 320.969 1711.06 322.199 1708.5 322.199ZM1708.42 316.691C1710.43 316.691 1711.62 315.168 1711.62 312.648C1711.62 310.207 1710.47 308.449 1708.42 308.449C1706.33 308.449 1705.22 310.305 1705.22 312.648C1705.22 315.031 1706.35 316.691 1708.42 316.691ZM1717.15 311.418V318H1715.8V303.859H1717.15V309.074H1717.25C1717.76 307.961 1718.77 307.258 1720.39 307.258C1722.54 307.258 1724.01 308.605 1724.01 311.145V318H1722.68V311.242C1722.68 309.504 1721.66 308.469 1720.04 308.469C1718.36 308.469 1717.15 309.582 1717.15 311.418ZM1731.13 307.395V308.527H1728.91V315.168C1728.91 316.516 1729.65 316.887 1730.45 316.887C1730.72 316.887 1731.12 316.848 1731.33 316.848V318.098C1731.12 318.117 1730.78 318.156 1730.33 318.156C1728.95 318.156 1727.56 317.258 1727.56 315.5V308.527H1725.98V307.395H1727.56V304.855H1728.91V307.395H1731.13ZM1739.22 310.031C1738.99 309.035 1738.21 308.41 1736.9 308.41C1735.47 308.391 1734.49 309.172 1734.49 310.207C1734.49 311.027 1735.1 311.594 1736.39 311.906L1738.01 312.297C1739.81 312.746 1740.69 313.684 1740.69 315.109C1740.69 316.926 1739.22 318.215 1736.72 318.215C1734.46 318.215 1733.07 317.18 1732.79 315.305H1734.18C1734.4 316.457 1735.26 317.043 1736.7 317.043C1738.3 317.043 1739.34 316.32 1739.34 315.188C1739.34 314.348 1738.75 313.762 1737.5 313.469L1735.88 313.078C1734.1 312.668 1733.15 311.672 1733.15 310.266C1733.15 308.508 1734.67 307.238 1736.9 307.238C1738.99 307.258 1740.31 308.371 1740.55 310.031H1739.22ZM1748.11 318V303.859H1752.74C1755.78 303.859 1757.33 305.637 1757.33 308.117C1757.33 310.012 1756.43 311.467 1754.67 312.043L1757.91 318H1756.31L1753.24 312.316L1752.76 312.336H1749.49V318H1748.11ZM1749.49 311.066H1752.7C1754.9 311.066 1755.96 309.934 1755.96 308.117C1755.96 306.301 1754.9 305.109 1752.68 305.109H1749.49V311.066ZM1764.06 318.215C1761.08 318.215 1759.2 315.988 1759.2 312.766C1759.2 309.543 1761.12 307.238 1763.87 307.238C1766.17 307.238 1768.4 308.879 1768.4 312.473V313.098H1760.53C1760.59 315.49 1761.95 317.023 1764.06 317.023C1765.53 317.023 1766.39 316.262 1766.76 315.598H1768.19C1767.72 317.062 1766.21 318.215 1764.06 318.215ZM1760.55 311.945H1767.03C1767.03 309.953 1765.74 308.449 1763.89 308.449C1761.96 308.449 1760.66 310.031 1760.55 311.945ZM1776.6 310.031C1776.37 309.035 1775.59 308.41 1774.28 308.41C1772.85 308.391 1771.88 309.172 1771.88 310.207C1771.88 311.027 1772.48 311.594 1773.77 311.906L1775.39 312.297C1777.19 312.746 1778.07 313.684 1778.07 315.109C1778.07 316.926 1776.6 318.215 1774.1 318.215C1771.84 318.215 1770.45 317.18 1770.18 315.305H1771.56C1771.78 316.457 1772.64 317.043 1774.08 317.043C1775.69 317.043 1776.72 316.32 1776.72 315.188C1776.72 314.348 1776.13 313.762 1774.88 313.469L1773.26 313.078C1771.49 312.668 1770.53 311.672 1770.53 310.266C1770.53 308.508 1772.05 307.238 1774.28 307.238C1776.37 307.258 1777.7 308.371 1777.93 310.031H1776.6ZM1784.75 318.215C1781.76 318.215 1779.88 315.988 1779.88 312.766C1779.88 309.543 1781.8 307.238 1784.55 307.238C1786.86 307.238 1789.08 308.879 1789.08 312.473V313.098H1781.21C1781.27 315.49 1782.63 317.023 1784.75 317.023C1786.21 317.023 1787.07 316.262 1787.44 315.598H1788.87C1788.4 317.062 1786.9 318.215 1784.75 318.215ZM1781.23 311.945H1787.72C1787.72 309.953 1786.43 308.449 1784.57 308.449C1782.65 308.449 1781.34 310.031 1781.23 311.945ZM1791.39 318V307.395H1792.68V309.035H1792.78C1793.21 307.961 1794.34 307.238 1795.65 307.238C1795.86 307.238 1796.17 307.238 1796.33 307.258V308.605C1796.21 308.586 1795.9 308.527 1795.55 308.527C1793.93 308.527 1792.74 309.641 1792.74 311.184V318H1791.39ZM1806.72 307.395L1802.85 318H1801.43L1797.56 307.395H1799.01L1802.09 316.262H1802.19L1805.29 307.395H1806.72ZM1812.68 318.215C1809.69 318.215 1807.81 315.988 1807.81 312.766C1807.81 309.543 1809.73 307.238 1812.48 307.238C1814.79 307.238 1817.01 308.879 1817.01 312.473V313.098H1809.14C1809.2 315.49 1810.56 317.023 1812.68 317.023C1814.14 317.023 1815 316.262 1815.37 315.598H1816.8C1816.33 317.062 1814.83 318.215 1812.68 318.215ZM1809.16 311.945H1815.65C1815.65 309.953 1814.36 308.449 1812.5 308.449C1810.58 308.449 1809.27 310.031 1809.16 311.945ZM1823.17 318.215C1820.57 318.215 1818.79 316.027 1818.79 312.727C1818.79 309.426 1820.57 307.238 1823.19 307.238C1825.14 307.238 1826 308.469 1826.41 309.367H1826.51V303.859H1827.85V318H1826.54V316.086H1826.41C1825.98 317.004 1825.1 318.215 1823.17 318.215ZM1823.34 317.023C1825.37 317.023 1826.54 315.227 1826.54 312.707C1826.54 310.207 1825.39 308.449 1823.34 308.449C1821.25 308.449 1820.14 310.305 1820.14 312.707C1820.14 315.129 1821.27 317.023 1823.34 317.023ZM1831.99 318.098C1831.41 318.098 1830.94 317.629 1830.94 317.062C1830.94 316.477 1831.41 316.008 1831.99 316.008C1832.56 316.008 1833.03 316.477 1833.03 317.062C1833.03 317.629 1832.56 318.098 1831.99 318.098Z" fill="#576238"/>
</svg>
