<svg width="206" height="219" viewBox="0 0 206 219" fill="none" xmlns="http://www.w3.org/2000/svg">
<path d="M125.002 139.26L125.002 204.579H119.616H68.7642H26.5256C16.0877 204.579 7.62612 196.117 7.62612 185.679V26.5256C7.62612 16.0877 16.0877 7.62612 26.5256 7.62612H179.048C189.486 7.62612 197.948 16.0877 197.948 26.5256V61.2855V87.8111V114.337L197.948 131.633H179.048H132.628H125.002V139.26Z" fill="#FBDE66" stroke="#333333" stroke-width="15.2522"/>
<path d="M39.7891 62.998L52.6805 81.046C54.2368 83.2249 57.6005 82.7557 58.5011 80.234L72.9461 39.7881" stroke="#333333" stroke-width="15.2522" stroke-linecap="round"/>
<path d="M39.7891 129.312L52.6805 147.36C54.2368 149.539 57.6006 149.07 58.5011 146.548L72.9461 106.103" stroke="#333333" stroke-width="15.2522" stroke-linecap="round"/>
<path d="M132.629 212.205V139.26L205.574 139.26L132.629 212.205Z" fill="#333333"/>
<path d="M99.4707 66.3142L165.785 66.3142" stroke="#333333" stroke-width="15.2522" stroke-linecap="round"/>
</svg>
