<svg width="203" height="218" viewBox="0 0 203 218" fill="none" xmlns="http://www.w3.org/2000/svg">
<path d="M100.505 10.2816L102.111 8.4167C102.709 7.72201 103.813 7.82164 104.277 8.61218L125.407 44.6088L157.918 85.8035C163.198 92.4934 167.46 99.927 170.566 107.863L172.803 113.581C177.875 126.541 178.797 140.757 175.443 154.265C171.643 169.565 162.584 183.043 149.851 192.339L145.251 195.698C127.952 208.328 106.07 212.939 85.1452 208.364C66.1324 204.207 49.4872 192.806 38.7411 176.58L37.3691 174.508C29.9481 163.303 25.4336 150.426 24.2331 137.04L24.1566 136.186C22.99 123.178 24.8601 110.077 29.6195 97.9152L35.6111 82.6047C36.4045 80.5774 38.7877 79.6944 40.7105 80.7154L52.546 86.9998C57.7178 89.7459 64.081 86.7864 65.3132 81.0618C70.9445 54.8982 83.044 30.5633 100.505 10.2816Z" fill="#FBDE66" stroke="#333333" stroke-width="15.2522" stroke-linecap="round"/>
<path d="M8 201.174L73.8045 134.88C76.5403 132.123 81.0483 132.297 83.5635 135.256L89.1629 141.843L94.4165 148.023C97.0537 151.126 101.838 151.141 104.494 148.055L194.983 42.958M194.983 42.958V73.7223M194.983 42.958L166.216 45.1555" stroke="#333333" stroke-width="15.2522" stroke-linecap="round"/>
</svg>
