<svg width="211" height="217" viewBox="0 0 211 217" fill="none" xmlns="http://www.w3.org/2000/svg">
<path d="M7.62612 103.578C7.62612 98.11 9.99449 92.9098 14.1197 89.3204L57.5835 51.5018L92.7493 20.9035C99.8621 14.7145 110.448 14.7145 117.561 20.9035L152.727 51.5018L196.191 89.3204C200.316 92.9098 202.684 98.11 202.684 103.578V190.357C202.684 200.795 194.223 209.257 183.785 209.257H26.5256C16.0877 209.257 7.62612 200.795 7.62612 190.357V103.578Z" fill="#FBDE66" stroke="#333333" stroke-width="15.2522"/>
<path d="M131.386 129.707H78.9263C75.2639 129.707 72.2949 132.676 72.2949 136.338V169.14V208.573H138.017V136.338C138.017 132.676 135.048 129.707 131.386 129.707Z" fill="#F9F9F9" stroke="#333333" stroke-width="15.2522" stroke-linecap="round"/>
</svg>
