<svg width="229" height="213" viewBox="0 0 229 213" fill="none" xmlns="http://www.w3.org/2000/svg">
<mask id="path-1-inside-1_399_1577" fill="white">
<path fill-rule="evenodd" clip-rule="evenodd" d="M19.3374 18.3066C-5.843 43.2805 -6.52019 84.4317 17.8248 110.221L113.965 212.063L113.968 212.06L113.97 212.063L184.828 141.786L208.271 118.535C234.457 92.5634 235.161 49.7682 209.844 22.9492C184.526 -3.86984 142.774 -4.55695 116.588 21.4146L113.471 24.5063L109.011 19.7822C84.666 -6.00658 44.5177 -6.66723 19.3374 18.3066Z"/>
</mask>
<path fill-rule="evenodd" clip-rule="evenodd" d="M19.3374 18.3066C-5.843 43.2805 -6.52019 84.4317 17.8248 110.221L113.965 212.063L113.968 212.06L113.97 212.063L184.828 141.786L208.271 118.535C234.457 92.5634 235.161 49.7682 209.844 22.9492C184.526 -3.86984 142.774 -4.55695 116.588 21.4146L113.471 24.5063L109.011 19.7822C84.666 -6.00658 44.5177 -6.66723 19.3374 18.3066Z" fill="#FBDE66"/>
<path d="M17.8248 110.221L6.73388 120.691H6.73388L17.8248 110.221ZM19.3374 18.3066L30.0778 29.1359L19.3374 18.3066ZM113.965 212.063L102.874 222.533L113.596 233.89L124.696 222.902L113.965 212.063ZM113.968 212.06L125.056 201.588L114.334 190.235L103.237 201.221L113.968 212.06ZM113.97 212.063L102.881 222.535L113.613 233.898L124.71 222.892L113.97 212.063ZM184.828 141.786L195.568 152.615L184.828 141.786ZM208.271 118.535L197.53 107.706L208.271 118.535ZM209.844 22.9492L220.935 12.4792L209.844 22.9492ZM116.588 21.4146L127.328 32.2439L127.328 32.2438L116.588 21.4146ZM113.471 24.5063L102.38 34.9763L113.111 46.3444L124.211 35.3356L113.471 24.5063ZM109.011 19.7822L120.102 9.31221L120.102 9.31221L109.011 19.7822ZM28.9158 99.7505C10.2526 79.9805 10.7742 48.2812 30.0778 29.1359L8.5969 7.47733C-22.4602 38.2797 -23.293 88.883 6.73388 120.691L28.9158 99.7505ZM125.056 201.593L28.9158 99.7505L6.73388 120.691L102.874 222.533L125.056 201.593ZM103.237 201.221L103.235 201.224L124.696 222.902L124.698 222.9L103.237 201.221ZM125.058 201.59L125.056 201.588L102.879 222.533L102.881 222.535L125.058 201.59ZM174.087 130.957L103.229 201.233L124.71 222.892L195.568 152.615L174.087 130.957ZM197.53 107.706L174.087 130.957L195.568 152.615L219.011 129.364L197.53 107.706ZM198.753 33.4192C218.389 54.2195 217.84 87.5627 197.53 107.706L219.011 129.364C251.074 97.5642 251.934 45.317 220.935 12.4792L198.753 33.4192ZM127.328 32.2438C147.429 12.3079 179.319 12.8327 198.753 33.4192L220.935 12.4792C189.734 -20.5724 138.119 -21.4218 105.847 10.5853L127.328 32.2438ZM124.211 35.3356L127.328 32.2439L105.847 10.5853L102.73 13.677L124.211 35.3356ZM97.9201 30.2523L102.38 34.9763L124.562 14.0363L120.102 9.31221L97.9201 30.2523ZM30.0778 29.1359C49.1727 10.1976 79.4586 10.696 97.9201 30.2523L120.102 9.31221C89.8734 -22.7091 39.8627 -23.5321 8.5969 7.47733L30.0778 29.1359Z" fill="#333333" mask="url(#path-1-inside-1_399_1577)"/>
<path d="M160.785 96.8244V46.4058" stroke="#333333" stroke-width="15.2522" stroke-linecap="round"/>
<path d="M185.993 71.6147H135.574" stroke="#333333" stroke-width="15.2522" stroke-linecap="round"/>
</svg>
