<svg width="1920" height="1080" viewBox="0 0 1920 1080" fill="none" xmlns="http://www.w3.org/2000/svg">
<g clip-path="url(#clip0_65_139)">
<rect width="1920" height="1080" fill="#576238"/>
<path d="M66.3875 843.125V886.5H83.7625V898.125H66.3875V956.25H52.6375V843.125H66.3875ZM34.3875 853V895.625H-3.61249V918.125C14.2625 918 28.2 917.25 44.0125 914.5L45.2625 925.75C27.8875 928.875 12.3875 929.625 -8.11249 929.625H-17.3625V884.5H20.5125V864.25H-17.6125V853H34.3875ZM176.113 843.125V956.25H162.113V843.125H176.113ZM115.238 851.375C132.238 851.375 144.613 866.875 144.738 891.25C144.613 915.875 132.238 931.25 115.238 931.25C98.1125 931.25 85.7375 915.875 85.7375 891.25C85.7375 866.875 98.1125 851.375 115.238 851.375ZM115.238 863.875C105.613 863.875 99.1125 874 99.1125 891.25C99.1125 908.625 105.613 918.75 115.238 918.75C124.738 918.75 131.238 908.625 131.238 891.25C131.238 874 124.738 863.875 115.238 863.875ZM289.588 930.875V942.5H186.338V930.875H289.588ZM280.588 853.625V864.75H264.088V900.75H280.213V911.75H195.213V900.75H211.088V864.75H194.838V853.625H280.588ZM224.963 900.75H250.338V864.75H224.963V900.75ZM372.913 858.625C372.913 876.125 390.038 893.625 413.663 897.75L407.413 909.375C388.475 905.375 372.975 893.938 365.663 878.75C358.163 893.812 342.663 905.312 323.788 909.375L317.663 897.75C341.038 893.5 358.038 876 358.163 858.625V850.25H372.913V858.625ZM417.788 930.25V941.75H314.538V930.25H417.788ZM476.763 852.875V864.25H437.513V884.375H474.763V895.375H437.513V918.625C454.888 918.5 468.45 917.875 484.263 915.25L485.513 926.5C468.138 929.25 453.013 929.875 432.763 929.875H423.388V852.875H476.763ZM507.263 843.125V886.875H524.638V898.5H507.263V956.125H493.388V843.125H507.263ZM554.987 846.75C572.112 846.75 584.862 857.375 584.987 872.25C584.862 887.25 572.112 897.75 554.987 897.75C537.737 897.75 524.987 887.25 524.987 872.25C524.987 857.375 537.737 846.75 554.987 846.75ZM554.987 858.25C545.487 858.25 538.487 863.625 538.487 872.25C538.487 881 545.487 886.5 554.987 886.5C564.487 886.5 571.487 881 571.487 872.25C571.487 863.625 564.487 858.25 554.987 858.25ZM617.112 843.125V900.25H603.112V843.125H617.112ZM617.112 905.125V934.625H555.987V943.75H620.487V954.75H542.362V924.375H603.237V916H542.112V905.125H617.112Z" fill="white" fill-opacity="0.09"/>
<path d="M320.864 181.25V264.125H306.864V181.25H320.864ZM323.989 280.625V291.875H246.114V256.625H260.114V280.625H323.989ZM269.614 207.5C269.614 220.875 279.364 233.625 297.364 238.75L290.739 249.75C277.551 245.875 268.114 237.875 262.989 227.625C257.864 238.75 248.301 247.5 234.864 251.625L228.114 240.75C246.239 235.25 255.739 221.75 255.739 207.5V206H231.614V195H255.739V181.75H269.739V195H293.739V206H269.614V207.5ZM421.589 187.625V197C421.589 206.5 421.589 217.438 419.089 231.75H434.214V243.125H330.964V231.75H404.964C407.526 218.125 407.714 208 407.714 198.875H343.714V187.625H421.589ZM424.839 280.5V291.75H344.339V253.875H358.089V280.5H424.839ZM524.314 181.25V216.75H540.064V228.25H524.314V265.625H510.439V181.25H524.314ZM502.314 193.75V204.875H435.314V193.75H461.939V181.125H475.814V193.75H502.314ZM468.814 209.5C485.064 209.5 496.314 218.125 496.439 231.125C496.314 244 485.064 252.5 468.814 252.5C452.439 252.5 441.064 244 441.064 231.125C441.064 218.125 452.439 209.5 468.814 209.5ZM468.814 220.25C460.189 220.25 454.564 224.25 454.564 231.125C454.564 237.875 460.189 241.875 468.814 241.75C477.439 241.875 483.189 237.875 483.189 231.125C483.189 224.25 477.439 220.25 468.814 220.25ZM528.814 280.625V291.875H451.939V259H465.814V280.625H528.814Z" fill="white" fill-opacity="0.21"/>
<path d="M102.086 624.797V667.172H97.1173V645.703H92.7579V665.109H87.836V625.547H92.7579V641.391H97.1173V624.797H102.086ZM78.5079 635.625C78.5079 643.172 81.0392 650.109 87.3204 653.344L84.2735 657.328C80.2423 655.172 77.5939 651.445 76.1173 646.828C74.6642 652.102 72.0157 656.344 67.8204 658.828L64.6329 654.844C70.9142 651.281 73.4454 643.875 73.4454 635.625V633.609H65.8985V629.438H85.4454V633.609H78.5079V635.625ZM126.827 628.781V656.859H106.67V628.781H126.827ZM111.827 632.859V652.688H121.764V632.859H111.827ZM139.67 624.797V667.219H134.42V624.797H139.67ZM158.552 652.359C158.552 655.875 160.169 659.578 163.802 661.875C167.481 659.414 169.192 655.57 169.239 652.359V650.625H174.349V652.359C174.302 656.812 176.927 660.938 182.505 662.719L179.974 666.516C175.849 665.133 173.106 662.438 171.63 659.062C170.27 662.391 167.763 665.367 163.942 666.891C159.911 665.438 157.38 662.578 156.067 659.203C154.544 662.461 151.849 665.109 147.911 666.516L145.333 662.719C150.817 660.797 153.442 656.484 153.489 652.359V650.625H158.552V652.359ZM178.802 624.844V648.844H173.552V624.844H178.802ZM155.692 627.094C162.208 627.094 167.083 631.219 167.083 637.172C167.083 643.078 162.208 647.203 155.692 647.203C149.13 647.203 144.255 643.078 144.255 637.172C144.255 631.219 149.13 627.094 155.692 627.094ZM155.692 631.5C151.989 631.5 149.317 633.703 149.364 637.172C149.317 640.641 151.989 642.891 155.692 642.891C159.349 642.891 161.974 640.641 161.974 637.172C161.974 633.703 159.349 631.5 155.692 631.5ZM216.902 636.797V640.922H187.558V626.344H192.714V636.797H216.902ZM221.261 645.844V649.969H182.542V645.844H221.261ZM217.183 661.969V666.188H187.183V653.719H192.386V661.969H217.183Z" fill="white" fill-opacity="0.21"/>
<path d="M1160.68 653.562V656.727H1157.87V665.727C1159.03 665.656 1160.17 665.551 1161.28 665.41V662.562H1165.64V659.82H1161.28V656.691H1165.64V651.348H1169.54V670.824H1165.64V665.691H1161.38L1161.52 668.293C1155.48 669.277 1148.45 669.418 1143.38 669.418L1142.96 666.184L1146.55 666.148V656.727H1143.77V653.562H1160.68ZM1158.78 671.387C1165.57 671.387 1169.64 673.496 1169.64 677.258C1169.64 680.914 1165.57 683.094 1158.78 683.094C1152.03 683.094 1147.95 680.914 1147.99 677.258C1147.95 673.496 1152.03 671.387 1158.78 671.387ZM1158.78 674.375C1154.35 674.375 1151.86 675.359 1151.86 677.258C1151.86 679.086 1154.35 680.07 1158.78 680.07C1163.25 680.07 1165.74 679.086 1165.74 677.258C1165.74 675.359 1163.25 674.375 1158.78 674.375ZM1150.34 666.113C1151.57 666.078 1152.84 666.025 1154.11 665.973V656.727H1150.34V666.113ZM1182.15 657.254C1182.15 660.699 1184.16 664.145 1188.34 665.727L1186.27 668.715C1183.44 667.625 1181.47 665.604 1180.33 663.125C1179.17 665.973 1177.09 668.398 1174.07 669.664L1171.96 666.676C1176.32 664.742 1178.36 660.77 1178.39 657.254V653.316H1182.15V657.254ZM1199.42 651.383V670.859H1195.69V662.598H1192.52V669.875H1188.87V651.98H1192.52V659.398H1195.69V651.383H1199.42ZM1188.69 671.387C1195.34 671.387 1199.56 673.566 1199.59 677.223C1199.56 680.879 1195.34 683.094 1188.69 683.094C1181.98 683.094 1177.79 680.879 1177.79 677.223C1177.79 673.566 1181.98 671.387 1188.69 671.387ZM1188.69 674.34C1184.3 674.34 1181.7 675.359 1181.7 677.223C1181.7 679.121 1184.3 680.105 1188.69 680.105C1193.05 680.105 1195.65 679.121 1195.65 677.223C1195.65 675.359 1193.05 674.34 1188.69 674.34ZM1220.43 654.406V657.5H1201.59V654.406H1209.08V651.207H1212.98V654.406H1220.43ZM1211.01 658.73C1215.62 658.73 1218.74 661.051 1218.78 664.531C1218.74 668.012 1215.62 670.332 1211.01 670.332C1206.4 670.332 1203.21 668.012 1203.21 664.531C1203.21 661.051 1206.4 658.73 1211.01 658.73ZM1211.01 661.684C1208.58 661.684 1207 662.738 1207 664.531C1207 666.324 1208.58 667.344 1211.01 667.309C1213.44 667.344 1215.05 666.324 1215.05 664.531C1215.05 662.738 1213.44 661.684 1211.01 661.684ZM1226.62 651.348V659.785H1231.05V662.984H1226.62V671.246H1222.72V651.348H1226.62ZM1226.62 672.723V683.129H1222.72V675.852H1205.46V672.723H1226.62ZM1238.21 670.402V673.426H1252.21V670.402H1256.11V682.742H1234.35V670.402H1238.21ZM1238.21 679.648H1252.21V676.414H1238.21V679.648ZM1259.83 665.41V668.609H1230.87V665.41H1259.83ZM1247.35 652.895C1247.35 656.305 1251.71 659.891 1258.29 660.664L1256.92 663.758C1251.59 663.037 1247.39 660.682 1245.35 657.465C1243.29 660.699 1239.08 663.037 1233.78 663.758L1232.34 660.664C1238.99 659.855 1243.31 656.41 1243.35 652.895V651.699H1247.35V652.895Z" fill="white" fill-opacity="0.21"/>
<path d="M1822.1 314.031V322.281H1762.66V276.25H1821.35V284.688H1773.26V294.906H1819.38V303.062H1773.26V314.031H1822.1ZM1830.63 335.5V344.031H1753.19V335.5H1830.63ZM1864.93 276.156V302.125H1845.14V312.719C1854.89 312.625 1862.16 312.203 1870.74 310.562L1871.77 318.812C1861.74 320.781 1853.11 321.062 1840.64 321.062H1834.93V294.531H1854.8V284.312H1834.83V276.156H1864.93ZM1903.83 269.688V333.344H1893.89V269.688H1903.83ZM1886.68 271.188V331.188H1876.83V300.25H1868.11V291.625H1876.83V271.188H1886.68ZM1906.18 344.219V352.656H1847.11V326.969H1857.52V344.219H1906.18ZM1980.03 269.594V354.438H1969.53V269.594H1980.03ZM1955.66 277.281V285.812H1925.28V325.188C1940.89 325.141 1950.69 324.672 1961.94 322.656L1962.97 331.281C1950.88 333.531 1939.91 334 1922 334H1914.78V277.281H1955.66Z" fill="white" fill-opacity="0.21"/>
<path d="M907.122 362.375V373.375H827.872V312H906.122V323.25H841.997V336.875H903.497V347.75H841.997V362.375H907.122ZM918.497 391V402.375H815.247V391H918.497ZM964.222 311.875V346.5H937.847V360.625C950.847 360.5 960.535 359.938 971.972 357.75L973.347 368.75C959.972 371.375 948.472 371.75 931.847 371.75H924.222V336.375H950.722V322.75H924.097V311.875H964.222ZM1016.1 303.25V388.125H1002.85V303.25H1016.1ZM993.222 305.25V385.25H980.097V344H968.472V332.5H980.097V305.25H993.222ZM1019.22 402.625V413.875H940.472V379.625H954.347V402.625H1019.22ZM1117.7 303.125V416.25H1103.7V303.125H1117.7ZM1085.2 313.375V324.75H1044.7V377.25C1065.51 377.188 1078.57 376.562 1093.57 373.875L1094.95 385.375C1078.82 388.375 1064.2 389 1040.32 389H1030.7V313.375H1085.2Z" fill="white" fill-opacity="0.07"/>
<path d="M1352.94 813.625C1352.94 831.125 1370.07 848.625 1393.69 852.75L1387.44 864.375C1368.5 860.375 1353 848.938 1345.69 833.75C1338.19 848.812 1322.69 860.312 1303.82 864.375L1297.69 852.75C1321.07 848.5 1338.07 831 1338.19 813.625V805.25H1352.94V813.625ZM1397.82 885.25V896.75H1294.57V885.25H1397.82ZM1456.29 809.125V883.125H1402.79V809.125H1456.29ZM1416.42 820V872H1442.42V820H1416.42ZM1487.29 798.125V841.5H1504.67V853.25H1487.29V911.125H1473.42V798.125H1487.29ZM1594.89 857.375V868.375H1515.64V807H1593.89V818.25H1529.77V831.875H1591.27V842.75H1529.77V857.375H1594.89ZM1606.27 886V897.375H1503.02V886H1606.27ZM1673.97 825.25C1673.84 846 1684.72 866.75 1703.09 874.625L1694.84 885.75C1681.84 879.75 1672.28 867.75 1667.09 853C1661.9 868.938 1652.22 881.938 1638.47 888.375L1629.97 876.75C1648.84 868.625 1659.84 847 1659.84 825.25V807.25H1673.97V825.25ZM1725.22 798.125V911.25H1711.22V798.125H1725.22ZM1829.69 798.125V911.125H1815.94V798.125H1829.69ZM1755.69 809.125V870.875C1771.57 870.625 1788.44 869.188 1805.82 865.75L1807.57 877.375C1787.69 881.5 1769.19 882.75 1751.69 882.75H1741.94V809.125H1755.69ZM1870.54 806.375C1885.85 806.375 1897.17 819.125 1899.17 839.75H1920.67V798.125H1934.42V911.25H1920.67V851H1899.29C1897.79 872.812 1886.29 886.25 1870.54 886.25C1853.54 886.25 1841.54 870.875 1841.54 846.25C1841.54 821.875 1853.54 806.375 1870.54 806.375ZM1870.54 818.875C1861.17 818.875 1854.79 829 1854.92 846.25C1854.79 863.625 1861.17 873.75 1870.54 873.75C1879.92 873.75 1886.17 863.625 1886.29 846.25C1886.17 829 1879.92 818.875 1870.54 818.875Z" fill="white" fill-opacity="0.21"/>
</g>
<defs>
<clipPath id="clip0_65_139">
<rect width="1920" height="1080" fill="white"/>
</clipPath>
</defs>
</svg>
