<svg width="219" height="65" viewBox="0 0 219 65" fill="none" xmlns="http://www.w3.org/2000/svg">
<mask id="path-1-outside-1_132_2011" maskUnits="userSpaceOnUse" x="5" y="8" width="213" height="58" fill="black">
<rect fill="white" x="5" y="8" width="213" height="58"/>
<path d="M24.599 9.5C26.699 9.5 28.7824 9.66666 30.849 10C32.949 10.3 34.8324 10.9 36.499 11.8C38.1657 12.6667 39.5157 13.9 40.549 15.5C41.5824 17.1 42.099 19.1833 42.099 21.75C42.099 23.65 41.7157 25.3333 40.949 26.8C40.2157 28.2667 39.149 29.55 37.749 30.65C39.4824 31.65 40.8657 32.9667 41.899 34.6C42.9324 36.2333 43.449 38.2833 43.449 40.75C43.449 43.55 42.9157 45.8333 41.849 47.6C40.7824 49.3667 39.3824 50.7667 37.649 51.8C35.949 52.8333 33.999 53.5333 31.799 53.9C29.599 54.3 27.3657 54.5 25.099 54.5H6.74902V9.5H24.599ZM20.049 42.5H26.499C26.999 42.5 27.4824 42.4833 27.949 42.45C28.4157 42.3833 28.8157 42.2667 29.149 42.1C29.5157 41.9333 29.799 41.7 29.999 41.4C30.199 41.0667 30.299 40.6167 30.299 40.05C30.299 39.0833 29.949 38.4667 29.249 38.2C28.5824 37.9333 27.6657 37.8 26.499 37.8H20.049V42.5ZM20.049 26H25.499C26.5324 26 27.349 25.8833 27.949 25.65C28.549 25.3833 28.849 24.7667 28.849 23.8C28.849 23 28.5657 22.45 27.999 22.15C27.4657 21.85 26.6324 21.7 25.499 21.7H20.049V26ZM67.71 52.25C67.01 52.8833 66.2933 53.3833 65.56 53.75C64.8266 54.15 64.11 54.45 63.41 54.65C62.7433 54.8833 62.0933 55.0333 61.46 55.1C60.86 55.1667 60.3433 55.2 59.91 55.2C58.2766 55.2 56.7266 54.9333 55.26 54.4C53.8266 53.9 52.56 53.0667 51.46 51.9C50.3933 50.7333 49.5433 49.2 48.91 47.3C48.2766 45.4333 47.96 43.15 47.96 40.45V20.55H61.41V39.5C61.41 40.5667 61.61 41.4333 62.01 42.1C62.41 42.7667 63.0766 43.1 64.01 43.1C64.5766 43.1 65.11 42.95 65.61 42.65C66.1433 42.3167 66.6766 41.65 67.21 40.65V20.55H80.66V54.5H69.41L67.71 52.25ZM119.705 54.5H109.855L108.455 52.25C107.489 53.1167 106.372 53.8167 105.105 54.35C103.839 54.8833 102.372 55.15 100.705 55.15C98.7386 55.15 96.8219 54.7667 94.9553 54C93.1219 53.2667 91.4719 52.1333 90.0053 50.6C88.5386 49.1 87.3553 47.2167 86.4553 44.95C85.5886 42.6833 85.1553 40.0333 85.1553 37C85.1553 34.4 85.5053 32.05 86.2053 29.95C86.9053 27.8167 87.8886 26.0167 89.1553 24.55C90.4219 23.05 91.9219 21.9 93.6553 21.1C95.3886 20.2667 97.2886 19.85 99.3553 19.85C100.789 19.85 102.039 20 103.105 20.3C104.205 20.5667 105.239 20.9333 106.205 21.4V9.5H119.705V54.5ZM102.855 43.2C103.622 43.2 104.272 43.0333 104.805 42.7C105.339 42.3333 105.805 41.8833 106.205 41.35V33.55C105.672 32.8833 105.105 32.4 104.505 32.1C103.939 31.7667 103.389 31.6 102.855 31.6C101.422 31.6 100.372 32.15 99.7053 33.25C99.0386 34.35 98.7053 35.7167 98.7053 37.35C98.7053 39.2167 99.0719 40.6667 99.8053 41.7C100.539 42.7 101.555 43.2 102.855 43.2ZM158.768 54.5H148.918L147.518 52.25C146.551 53.1167 145.434 53.8167 144.168 54.35C142.901 54.8833 141.434 55.15 139.768 55.15C137.801 55.15 135.884 54.7667 134.018 54C132.184 53.2667 130.534 52.1333 129.068 50.6C127.601 49.1 126.418 47.2167 125.518 44.95C124.651 42.6833 124.218 40.0333 124.218 37C124.218 34.4 124.568 32.05 125.268 29.95C125.968 27.8167 126.951 26.0167 128.218 24.55C129.484 23.05 130.984 21.9 132.718 21.1C134.451 20.2667 136.351 19.85 138.418 19.85C139.851 19.85 141.101 20 142.168 20.3C143.268 20.5667 144.301 20.9333 145.268 21.4V9.5H158.768V54.5ZM141.918 43.2C142.684 43.2 143.334 43.0333 143.868 42.7C144.401 42.3333 144.868 41.8833 145.268 41.35V33.55C144.734 32.8833 144.168 32.4 143.568 32.1C143.001 31.7667 142.451 31.6 141.918 31.6C140.484 31.6 139.434 32.15 138.768 33.25C138.101 34.35 137.768 35.7167 137.768 37.35C137.768 39.2167 138.134 40.6667 138.868 41.7C139.601 42.7 140.618 43.2 141.918 43.2ZM165.23 52.8C165.764 52.7667 166.447 52.6833 167.28 52.55C168.114 52.4167 168.964 52.2 169.83 51.9C170.73 51.6 171.597 51.2 172.43 50.7C173.264 50.2 173.964 49.5667 174.53 48.8L162.28 20.55H177.18L181.38 33.65L184.98 20.55H199.53L188.63 48.3C187.53 51.1333 186.297 53.55 184.93 55.55C183.564 57.5833 181.947 59.25 180.08 60.55C178.247 61.85 176.114 62.8167 173.68 63.45C171.28 64.0833 168.464 64.4167 165.23 64.45V52.8ZM209.639 41.8C210.639 41.8 211.539 41.9667 212.339 42.3C213.173 42.6333 213.873 43.1 214.439 43.7C215.039 44.3 215.489 45 215.789 45.8C216.089 46.6 216.239 47.4667 216.239 48.4C216.239 49.3 216.073 50.15 215.739 50.95C215.439 51.75 215.006 52.4333 214.439 53C213.873 53.6 213.173 54.0667 212.339 54.4C211.506 54.7667 210.573 54.95 209.539 54.95C208.539 54.95 207.639 54.7667 206.839 54.4C206.039 54.0667 205.339 53.6 204.739 53C204.173 52.4333 203.739 51.75 203.439 50.95C203.139 50.15 202.989 49.3 202.989 48.4C202.989 47.4667 203.139 46.6 203.439 45.8C203.773 45 204.223 44.3 204.789 43.7C205.356 43.1 206.056 42.6333 206.889 42.3C207.723 41.9667 208.639 41.8 209.639 41.8Z"/>
</mask>
<path d="M30.849 10L30.6898 10.9872L30.6987 10.9887L30.7076 10.9899L30.849 10ZM36.499 11.8L36.0239 12.6799L36.0307 12.6836L36.0377 12.6872L36.499 11.8ZM40.549 15.5L39.709 16.0425L39.709 16.0425L40.549 15.5ZM40.949 26.8L40.0628 26.3367L40.0586 26.3447L40.0546 26.3528L40.949 26.8ZM37.749 30.65L37.1312 29.8637L35.9685 30.7772L37.2493 31.5162L37.749 30.65ZM41.899 34.6L41.0539 35.1346L41.0539 35.1346L41.899 34.6ZM41.849 47.6L40.993 47.0831L40.993 47.0831L41.849 47.6ZM37.649 51.8L37.1369 50.941L37.1296 50.9455L37.649 51.8ZM31.799 53.9L31.6346 52.9136L31.6274 52.9148L31.6201 52.9161L31.799 53.9ZM6.74902 54.5H5.74902V55.5H6.74902V54.5ZM6.74902 9.5V8.5H5.74902V9.5H6.74902ZM20.049 42.5H19.049V43.5H20.049V42.5ZM27.949 42.45L28.0203 43.4475L28.0555 43.4449L28.0904 43.4399L27.949 42.45ZM29.149 42.1L28.7352 41.1896L28.7184 41.1973L28.7018 41.2056L29.149 42.1ZM29.999 41.4L30.8311 41.9547L30.8443 41.9349L30.8565 41.9145L29.999 41.4ZM29.249 38.2L28.8776 39.1285L28.8853 39.1315L28.893 39.1345L29.249 38.2ZM20.049 37.8V36.8H19.049V37.8H20.049ZM20.049 26H19.049V27H20.049V26ZM27.949 25.65L28.3115 26.582L28.3335 26.5734L28.3552 26.5638L27.949 25.65ZM27.999 22.15L27.5088 23.0216L27.5199 23.0278L27.5311 23.0338L27.999 22.15ZM20.049 21.7V20.7H19.049V21.7H20.049ZM24.599 10.5C26.6459 10.5 28.6759 10.6624 30.6898 10.9872L31.0083 9.01276C28.8888 8.6709 26.7522 8.5 24.599 8.5V10.5ZM30.7076 10.9899C32.7047 11.2752 34.4728 11.8423 36.0239 12.6799L36.9742 10.9201C35.1919 9.95769 33.1934 9.32476 30.9904 9.01005L30.7076 10.9899ZM36.0377 12.6872C37.5481 13.4726 38.7685 14.5862 39.709 16.0425L41.3891 14.9575C40.2629 13.2138 38.7833 11.8607 36.9604 10.9128L36.0377 12.6872ZM39.709 16.0425C40.6074 17.4337 41.099 19.3107 41.099 21.75H43.099C43.099 19.056 42.5573 16.7663 41.3891 14.9575L39.709 16.0425ZM41.099 21.75C41.099 23.5127 40.7443 25.0329 40.0628 26.3367L41.8353 27.2633C42.6871 25.6337 43.099 23.7873 43.099 21.75H41.099ZM40.0546 26.3528C39.3928 27.6763 38.4252 28.847 37.1312 29.8637L38.3668 31.4363C39.8728 30.253 41.0386 28.857 41.8435 27.2472L40.0546 26.3528ZM37.2493 31.5162C38.8475 32.4382 40.1103 33.6431 41.0539 35.1346L42.7441 34.0654C41.6211 32.2902 40.1172 30.8618 38.2487 29.7838L37.2493 31.5162ZM41.0539 35.1346C41.9616 36.5693 42.449 38.4209 42.449 40.75H44.449C44.449 38.1458 43.9031 35.8974 42.7441 34.0654L41.0539 35.1346ZM42.449 40.75C42.449 43.4305 41.9376 45.5186 40.993 47.0831L42.7051 48.1169C43.8938 46.1481 44.449 43.6695 44.449 40.75H42.449ZM40.993 47.0831C40.0091 48.7126 38.726 49.9937 37.137 50.9411L38.1611 52.6589C40.0387 51.5396 41.5556 50.0208 42.7051 48.1169L40.993 47.0831ZM37.1296 50.9455C35.5509 51.9051 33.7241 52.5654 31.6346 52.9136L31.9634 54.8864C34.2739 54.5013 36.3472 53.7616 38.1684 52.6545L37.1296 50.9455ZM31.6201 52.9161C29.48 53.3053 27.3065 53.5 25.099 53.5V55.5C27.4249 55.5 29.7181 55.2947 31.9779 54.8839L31.6201 52.9161ZM25.099 53.5H6.74902V55.5H25.099V53.5ZM7.74902 54.5V9.5H5.74902V54.5H7.74902ZM6.74902 10.5H24.599V8.5H6.74902V10.5ZM20.049 43.5H26.499V41.5H20.049V43.5ZM26.499 43.5C27.0212 43.5 27.5283 43.4826 28.0203 43.4475L27.8778 41.4525C27.4364 41.4841 26.9769 41.5 26.499 41.5V43.5ZM28.0904 43.4399C28.6367 43.3619 29.1452 43.22 29.5962 42.9944L28.7018 41.2056C28.4862 41.3134 28.1947 41.4047 27.8076 41.4601L28.0904 43.4399ZM29.5628 43.0104C30.0789 42.7758 30.5158 42.4277 30.8311 41.9547L29.167 40.8453C29.0823 40.9723 28.9525 41.0909 28.7352 41.1896L29.5628 43.0104ZM30.8565 41.9145C31.183 41.3703 31.299 40.72 31.299 40.05H29.299C29.299 40.5133 29.215 40.763 29.1415 40.8855L30.8565 41.9145ZM31.299 40.05C31.299 39.4538 31.1921 38.8726 30.9062 38.3689C30.6096 37.8464 30.1591 37.4766 29.605 37.2655L28.893 39.1345C29.039 39.1901 29.1134 39.262 29.1668 39.3561C29.2309 39.4691 29.299 39.6795 29.299 40.05H31.299ZM29.6204 37.2715C28.7848 36.9373 27.7233 36.8 26.499 36.8V38.8C27.6081 38.8 28.38 38.9294 28.8776 39.1285L29.6204 37.2715ZM26.499 36.8H20.049V38.8H26.499V36.8ZM19.049 37.8V42.5H21.049V37.8H19.049ZM20.049 27H25.499V25H20.049V27ZM25.499 27C26.5904 27 27.5473 26.8792 28.3115 26.582L27.5866 24.718C27.1508 24.8875 26.4743 25 25.499 25V27ZM28.3552 26.5638C29.4783 26.0646 29.849 24.9473 29.849 23.8H27.849C27.849 24.586 27.6198 24.702 27.5429 24.7362L28.3552 26.5638ZM29.849 23.8C29.849 22.7383 29.447 21.7851 28.4669 21.2662L27.5311 23.0338C27.6844 23.1149 27.849 23.2617 27.849 23.8H29.849ZM28.4893 21.2784C27.7265 20.8494 26.6805 20.7 25.499 20.7V22.7C26.5842 22.7 27.2049 22.8506 27.5088 23.0216L28.4893 21.2784ZM25.499 20.7H20.049V22.7H25.499V20.7ZM19.049 21.7V26H21.049V21.7H19.049ZM67.71 52.25L68.5078 51.6472L67.8492 50.7755L67.039 51.5085L67.71 52.25ZM65.56 53.75L65.1127 52.8556L65.0968 52.8636L65.0811 52.8721L65.56 53.75ZM63.41 54.65L63.1352 53.6885L63.1072 53.6965L63.0796 53.7061L63.41 54.65ZM61.46 55.1L61.3553 54.1055L61.3495 54.1061L61.46 55.1ZM55.26 54.4L55.6017 53.4601L55.5893 53.4558L55.26 54.4ZM51.46 51.9L50.7219 52.5748L50.7271 52.5804L50.7324 52.586L51.46 51.9ZM48.91 47.3L49.8587 46.9838L49.8569 46.9787L48.91 47.3ZM47.96 20.55V19.55H46.96V20.55H47.96ZM61.41 20.55H62.41V19.55H61.41V20.55ZM62.01 42.1L62.8675 41.5855L62.8675 41.5855L62.01 42.1ZM65.61 42.65L66.1245 43.5075L66.1323 43.5028L66.14 43.498L65.61 42.65ZM67.21 40.65L68.0923 41.1206L68.21 40.9V40.65H67.21ZM67.21 20.55V19.55H66.21V20.55H67.21ZM80.66 20.55H81.66V19.55H80.66V20.55ZM80.66 54.5V55.5H81.66V54.5H80.66ZM69.41 54.5L68.6121 55.1028L68.9122 55.5H69.41V54.5ZM67.039 51.5085C66.3964 52.0899 65.7538 52.5351 65.1127 52.8556L66.0072 54.6444C66.8328 54.2316 67.6235 53.6768 68.3809 52.9915L67.039 51.5085ZM65.0811 52.8721C64.4032 53.2418 63.7548 53.5115 63.1352 53.6885L63.6847 55.6115C64.4651 55.3886 65.25 55.0582 66.0388 54.6279L65.0811 52.8721ZM63.0796 53.7061C62.4781 53.9167 61.9039 54.0478 61.3553 54.1055L61.5646 56.0945C62.2827 56.0189 63.0085 55.85 63.7403 55.5939L63.0796 53.7061ZM61.3495 54.1061C60.7731 54.1702 60.2952 54.2 59.91 54.2V56.2C60.3913 56.2 60.9468 56.1632 61.5704 56.0939L61.3495 54.1061ZM59.91 54.2C58.3877 54.2 56.9538 53.9519 55.6017 53.4602L54.9182 55.3398C56.4995 55.9148 58.1656 56.2 59.91 56.2V54.2ZM55.5893 53.4558C54.3161 53.0116 53.1838 52.2707 52.1876 51.214L50.7324 52.586C51.9361 53.8627 53.3372 54.7884 54.9306 55.3442L55.5893 53.4558ZM52.198 51.2252C51.2476 50.1857 50.4591 48.7851 49.8586 46.9838L47.9613 47.6162C48.6275 49.6149 49.539 51.281 50.7219 52.5748L52.198 51.2252ZM49.8569 46.9787C49.269 45.2459 48.96 43.0782 48.96 40.45H46.96C46.96 43.2218 47.2842 45.6208 47.963 47.6213L49.8569 46.9787ZM48.96 40.45V20.55H46.96V40.45H48.96ZM47.96 21.55H61.41V19.55H47.96V21.55ZM60.41 20.55V39.5H62.41V20.55H60.41ZM60.41 39.5C60.41 40.6832 60.6307 41.745 61.1525 42.6145L62.8675 41.5855C62.5892 41.1217 62.41 40.4502 62.41 39.5H60.41ZM61.1525 42.6145C61.772 43.647 62.8079 44.1 64.01 44.1V42.1C63.3454 42.1 63.048 41.8864 62.8675 41.5855L61.1525 42.6145ZM64.01 44.1C64.7633 44.1 65.4738 43.8979 66.1245 43.5075L65.0955 41.7925C64.7462 42.0021 64.3899 42.1 64.01 42.1V44.1ZM66.14 43.498C66.8983 43.0241 67.5332 42.1689 68.0923 41.1206L66.3276 40.1794C65.8201 41.1311 65.3883 41.6093 65.08 41.802L66.14 43.498ZM68.21 40.65V20.55H66.21V40.65H68.21ZM67.21 21.55H80.66V19.55H67.21V21.55ZM79.66 20.55V54.5H81.66V20.55H79.66ZM80.66 53.5H69.41V55.5H80.66V53.5ZM70.2078 53.8972L68.5078 51.6472L66.9121 52.8528L68.6121 55.1028L70.2078 53.8972ZM119.705 54.5V55.5H120.705V54.5H119.705ZM109.855 54.5L109.006 55.0283L109.3 55.5H109.855V54.5ZM108.455 52.25L109.304 51.7217L108.675 50.7101L107.788 51.5054L108.455 52.25ZM105.105 54.35L104.717 53.4284L104.717 53.4284L105.105 54.35ZM94.9553 54L95.3352 53.0749L95.3267 53.0715L94.9553 54ZM90.0053 50.6L90.728 49.9087L90.7203 49.9009L90.0053 50.6ZM86.4553 44.95L85.5211 45.3072L85.5259 45.319L86.4553 44.95ZM86.2053 29.95L87.154 30.2662L87.1554 30.2618L86.2053 29.95ZM89.1553 24.55L89.9121 25.2037L89.9193 25.1952L89.1553 24.55ZM93.6553 21.1L94.0743 22.008L94.0815 22.0047L94.0886 22.0013L93.6553 21.1ZM103.105 20.3L102.835 21.2626L102.852 21.2676L102.87 21.2718L103.105 20.3ZM106.205 21.4L105.771 22.3006L107.205 22.9932V21.4H106.205ZM106.205 9.5V8.5H105.205V9.5H106.205ZM119.705 9.5H120.705V8.5H119.705V9.5ZM104.805 42.7L105.335 43.548L105.354 43.5364L105.372 43.524L104.805 42.7ZM106.205 41.35L107.005 41.95L107.205 41.6833V41.35H106.205ZM106.205 33.55H107.205V33.1992L106.986 32.9253L106.205 33.55ZM104.505 32.1L103.998 32.9619L104.028 32.9792L104.058 32.9944L104.505 32.1ZM99.7053 33.25L100.56 33.7683L100.56 33.7683L99.7053 33.25ZM99.8053 41.7L98.9898 42.2787L98.9943 42.2851L98.9989 42.2914L99.8053 41.7ZM119.705 53.5H109.855V55.5H119.705V53.5ZM110.704 53.9717L109.304 51.7217L107.606 52.7783L109.006 55.0283L110.704 53.9717ZM107.788 51.5054C106.908 52.2937 105.888 52.9356 104.717 53.4284L105.493 55.2716C106.856 54.6977 108.069 53.9396 109.123 52.9946L107.788 51.5054ZM104.717 53.4284C103.597 53.9002 102.266 54.15 100.705 54.15V56.15C102.478 56.15 104.081 55.8664 105.493 55.2716L104.717 53.4284ZM100.705 54.15C98.8724 54.15 97.0845 53.7935 95.3352 53.075L94.5754 54.925C96.5594 55.7399 98.6049 56.15 100.705 56.15V54.15ZM95.3267 53.0715C93.6357 52.3951 92.1033 51.3467 90.7279 49.9088L89.2826 51.2912C90.8406 52.92 92.6082 54.1382 94.5839 54.9285L95.3267 53.0715ZM90.7203 49.9009C89.36 48.5097 88.2436 46.7443 87.3847 44.581L85.5259 45.319C86.4669 47.6891 87.7172 49.6903 89.2903 51.2991L90.7203 49.9009ZM87.3893 44.5929C86.5756 42.4648 86.1553 39.9406 86.1553 37H84.1553C84.1553 40.1261 84.6016 42.9019 85.5212 45.3071L87.3893 44.5929ZM86.1553 37C86.1553 34.4892 86.4933 32.2482 87.154 30.2662L85.2566 29.6338C84.5173 31.8518 84.1553 34.3108 84.1553 37H86.1553ZM87.1554 30.2618C87.8207 28.2343 88.7444 26.5557 89.9121 25.2036L88.3985 23.8964C87.0328 25.4777 85.9899 27.399 85.2551 29.6382L87.1554 30.2618ZM89.9193 25.1952C91.0943 23.8037 92.4777 22.7449 94.0743 22.008L93.2362 20.192C91.3662 21.0551 89.7495 22.2963 88.3912 23.9048L89.9193 25.1952ZM94.0886 22.0013C95.6768 21.2377 97.4272 20.85 99.3553 20.85V18.85C97.15 18.85 95.1004 19.2956 93.222 20.1987L94.0886 22.0013ZM99.3553 20.85C100.722 20.85 101.877 20.9935 102.835 21.2626L103.376 19.3373C102.2 19.0065 100.855 18.85 99.3553 18.85V20.85ZM102.87 21.2718C103.905 21.5228 104.871 21.8662 105.771 22.3006L106.64 20.4994C105.606 20.0004 104.506 19.6106 103.341 19.3281L102.87 21.2718ZM107.205 21.4V9.5H105.205V21.4H107.205ZM106.205 10.5H119.705V8.5H106.205V10.5ZM118.705 9.5V54.5H120.705V9.5H118.705ZM102.855 44.2C103.768 44.2 104.611 44.0004 105.335 43.548L104.275 41.852C103.933 42.0662 103.476 42.2 102.855 42.2V44.2ZM105.372 43.524C105.997 43.094 106.542 42.5676 107.005 41.95L105.405 40.75C105.068 41.1991 104.68 41.5726 104.239 41.876L105.372 43.524ZM107.205 41.35V33.55H105.205V41.35H107.205ZM106.986 32.9253C106.386 32.1754 105.712 31.5854 104.952 31.2056L104.058 32.9944C104.498 33.2146 104.958 33.5913 105.424 34.1747L106.986 32.9253ZM105.012 31.2381C104.328 30.8352 103.604 30.6 102.855 30.6V32.6C103.173 32.6 103.55 32.6981 103.998 32.9619L105.012 31.2381ZM102.855 30.6C101.12 30.6 99.7215 31.2939 98.8501 32.7317L100.56 33.7683C101.022 33.0061 101.724 32.6 102.855 32.6V30.6ZM98.8501 32.7317C98.0663 34.025 97.7053 35.5826 97.7053 37.35H99.7053C99.7053 35.8507 100.011 34.675 100.56 33.7683L98.8501 32.7317ZM97.7053 37.35C97.7053 39.3307 98.0918 41.0135 98.9898 42.2787L100.621 41.1213C100.052 40.3199 99.7053 39.1026 99.7053 37.35H97.7053ZM98.9989 42.2914C99.931 43.5625 101.255 44.2 102.855 44.2V42.2C101.856 42.2 101.146 41.8375 100.612 41.1086L98.9989 42.2914ZM158.768 54.5V55.5H159.768V54.5H158.768ZM148.918 54.5L148.069 55.0283L148.362 55.5H148.918V54.5ZM147.518 52.25L148.367 51.7217L147.737 50.7101L146.85 51.5054L147.518 52.25ZM144.168 54.35L143.78 53.4284L143.78 53.4284L144.168 54.35ZM134.018 54L134.398 53.0749L134.389 53.0715L134.018 54ZM129.068 50.6L129.79 49.9087L129.783 49.9009L129.068 50.6ZM125.518 44.95L124.584 45.3072L124.588 45.319L125.518 44.95ZM125.268 29.95L126.216 30.2662L126.218 30.2618L125.268 29.95ZM128.218 24.55L128.975 25.2037L128.982 25.1952L128.218 24.55ZM132.718 21.1L133.137 22.008L133.144 22.0047L133.151 22.0013L132.718 21.1ZM142.168 20.3L141.897 21.2626L141.915 21.2676L141.932 21.2718L142.168 20.3ZM145.268 21.4L144.833 22.3006L146.268 22.9932V21.4H145.268ZM145.268 9.5V8.5H144.268V9.5H145.268ZM158.768 9.5H159.768V8.5H158.768V9.5ZM143.868 42.7L144.398 43.548L144.416 43.5364L144.434 43.524L143.868 42.7ZM145.268 41.35L146.068 41.95L146.268 41.6833V41.35H145.268ZM145.268 33.55H146.268V33.1992L146.049 32.9253L145.268 33.55ZM143.568 32.1L143.061 32.9619L143.09 32.9792L143.121 32.9944L143.568 32.1ZM138.768 33.25L139.623 33.7683L139.623 33.7683L138.768 33.25ZM138.868 41.7L138.052 42.2787L138.057 42.2851L138.061 42.2914L138.868 41.7ZM158.768 53.5H148.918V55.5H158.768V53.5ZM149.767 53.9717L148.367 51.7217L146.669 52.7783L148.069 55.0283L149.767 53.9717ZM146.85 51.5054C145.971 52.2937 144.95 52.9356 143.78 53.4284L144.556 55.2716C145.919 54.6977 147.131 53.9396 148.185 52.9946L146.85 51.5054ZM143.78 53.4284C142.659 53.9002 141.329 54.15 139.768 54.15V56.15C141.54 56.15 143.143 55.8664 144.556 55.2716L143.78 53.4284ZM139.768 54.15C137.935 54.15 136.147 53.7935 134.398 53.075L133.638 54.925C135.622 55.7399 137.667 56.15 139.768 56.15V54.15ZM134.389 53.0715C132.698 52.3951 131.166 51.3467 129.79 49.9088L128.345 51.2912C129.903 52.92 131.671 54.1382 133.646 54.9285L134.389 53.0715ZM129.783 49.9009C128.423 48.5097 127.306 46.7443 126.447 44.581L124.588 45.319C125.529 47.6891 126.78 49.6903 128.353 51.2991L129.783 49.9009ZM126.452 44.5929C125.638 42.4648 125.218 39.9406 125.218 37H123.218C123.218 40.1261 123.664 42.9019 124.584 45.3071L126.452 44.5929ZM125.218 37C125.218 34.4892 125.556 32.2482 126.216 30.2662L124.319 29.6338C123.58 31.8518 123.218 34.3108 123.218 37H125.218ZM126.218 30.2618C126.883 28.2343 127.807 26.5557 128.975 25.2036L127.461 23.8964C126.095 25.4777 125.052 27.399 124.318 29.6382L126.218 30.2618ZM128.982 25.1952C130.157 23.8037 131.54 22.7449 133.137 22.008L132.299 20.192C130.429 21.0551 128.812 22.2963 127.454 23.9048L128.982 25.1952ZM133.151 22.0013C134.739 21.2377 136.49 20.85 138.418 20.85V18.85C136.213 18.85 134.163 19.2956 132.284 20.1987L133.151 22.0013ZM138.418 20.85C139.785 20.85 140.94 20.9935 141.897 21.2626L142.439 19.3373C141.262 19.0065 139.917 18.85 138.418 18.85V20.85ZM141.932 21.2718C142.967 21.5228 143.933 21.8662 144.833 22.3006L145.703 20.4994C144.669 20.0004 143.568 19.6106 142.403 19.3281L141.932 21.2718ZM146.268 21.4V9.5H144.268V21.4H146.268ZM145.268 10.5H158.768V8.5H145.268V10.5ZM157.768 9.5V54.5H159.768V9.5H157.768ZM141.918 44.2C142.831 44.2 143.674 44.0004 144.398 43.548L143.338 41.852C142.995 42.0662 142.538 42.2 141.918 42.2V44.2ZM144.434 43.524C145.06 43.094 145.605 42.5676 146.068 41.95L144.468 40.75C144.131 41.1991 143.742 41.5726 143.301 41.876L144.434 43.524ZM146.268 41.35V33.55H144.268V41.35H146.268ZM146.049 32.9253C145.449 32.1754 144.775 31.5854 144.015 31.2056L143.121 32.9944C143.561 33.2146 144.02 33.5913 144.487 34.1747L146.049 32.9253ZM144.075 31.2381C143.39 30.8352 142.667 30.6 141.918 30.6V32.6C142.236 32.6 142.612 32.6981 143.061 32.9619L144.075 31.2381ZM141.918 30.6C140.183 30.6 138.784 31.2939 137.913 32.7317L139.623 33.7683C140.085 33.0061 140.786 32.6 141.918 32.6V30.6ZM137.913 32.7317C137.129 34.025 136.768 35.5826 136.768 37.35H138.768C138.768 35.8507 139.073 34.675 139.623 33.7683L137.913 32.7317ZM136.768 37.35C136.768 39.3307 137.154 41.0135 138.052 42.2787L139.683 41.1213C139.115 40.3199 138.768 39.1026 138.768 37.35H136.768ZM138.061 42.2914C138.994 43.5625 140.317 44.2 141.918 44.2V42.2C140.918 42.2 140.209 41.8375 139.674 41.1086L138.061 42.2914ZM165.23 52.8L165.168 51.8019L164.23 51.8605V52.8H165.23ZM167.28 52.55L167.438 53.5374L167.438 53.5374L167.28 52.55ZM169.83 51.9L169.514 50.9513L169.503 50.955L169.83 51.9ZM172.43 50.7L171.916 49.8425L171.916 49.8425L172.43 50.7ZM174.53 48.8L175.334 49.3944L175.677 48.9309L175.448 48.4022L174.53 48.8ZM162.28 20.55V19.55H160.757L161.363 20.9478L162.28 20.55ZM177.18 20.55L178.133 20.2447L177.91 19.55H177.18V20.55ZM181.38 33.65L180.428 33.9553L181.454 37.1554L182.345 33.915L181.38 33.65ZM184.98 20.55V19.55H184.218L184.016 20.285L184.98 20.55ZM199.53 20.55L200.461 20.9156L200.997 19.55H199.53V20.55ZM188.63 48.3L187.699 47.9344L187.698 47.9381L188.63 48.3ZM184.93 55.55L184.105 54.9858L184.1 54.9922L184.93 55.55ZM180.08 60.55L179.509 59.7294L179.502 59.7343L180.08 60.55ZM173.68 63.45L173.428 62.4822L173.425 62.4831L173.68 63.45ZM165.23 64.45H164.23V65.4604L165.241 65.4499L165.23 64.45ZM165.293 53.7981C165.871 53.7619 166.589 53.6733 167.438 53.5374L167.122 51.5626C166.305 51.6934 165.656 51.7714 165.168 51.8019L165.293 53.7981ZM167.438 53.5374C168.334 53.3942 169.24 53.1624 170.157 52.845L169.503 50.955C168.687 51.2376 167.893 51.4392 167.122 51.5626L167.438 53.5374ZM170.147 52.8487C171.117 52.5251 172.05 52.0941 172.945 51.5575L171.916 49.8425C171.143 50.3059 170.343 50.6749 169.514 50.9513L170.147 52.8487ZM172.945 51.5575C173.889 50.9911 174.688 50.2691 175.334 49.3944L173.726 48.2056C173.239 48.8643 172.638 49.4089 171.916 49.8425L172.945 51.5575ZM175.448 48.4022L163.198 20.1522L161.363 20.9478L173.613 49.1978L175.448 48.4022ZM162.28 21.55H177.18V19.55H162.28V21.55ZM176.228 20.8553L180.428 33.9553L182.333 33.3447L178.133 20.2447L176.228 20.8553ZM182.345 33.915L185.945 20.815L184.016 20.285L180.416 33.385L182.345 33.915ZM184.98 21.55H199.53V19.55H184.98V21.55ZM198.6 20.1844L187.7 47.9344L189.561 48.6656L200.461 20.9156L198.6 20.1844ZM187.698 47.9381C186.619 50.7173 185.419 53.0625 184.105 54.9858L185.756 56.1142C187.175 54.0375 188.441 51.5493 189.562 48.6619L187.698 47.9381ZM184.1 54.9922C182.797 56.9306 181.266 58.5055 179.509 59.7294L180.652 61.3706C182.628 59.9945 184.33 58.236 185.76 56.1078L184.1 54.9922ZM179.502 59.7343C177.778 60.9564 175.758 61.8758 173.428 62.4822L173.932 64.4178C176.469 63.7575 178.716 62.7436 180.659 61.3657L179.502 59.7343ZM173.425 62.4831C171.125 63.0901 168.394 63.4173 165.22 63.4501L165.241 65.4499C168.533 65.416 171.436 65.0766 173.935 64.4169L173.425 62.4831ZM166.23 64.45V52.8H164.23V64.45H166.23ZM212.339 42.3L211.955 43.2231L211.961 43.2258L211.968 43.2285L212.339 42.3ZM214.439 43.7L213.712 44.3866L213.722 44.397L213.732 44.4071L214.439 43.7ZM215.739 50.95L214.816 50.5654L214.809 50.582L214.803 50.5989L215.739 50.95ZM214.439 53L213.732 52.2929L213.722 52.303L213.712 52.3134L214.439 53ZM212.339 54.4L211.968 53.4715L211.952 53.4778L211.937 53.4847L212.339 54.4ZM206.839 54.4L207.256 53.4909L207.24 53.4836L207.224 53.4769L206.839 54.4ZM204.739 53L204.032 53.7071L204.739 53ZM203.439 50.95L204.376 50.5989L204.376 50.5989L203.439 50.95ZM203.439 45.8L202.516 45.4154L202.509 45.432L202.503 45.4489L203.439 45.8ZM204.789 43.7L204.062 43.0134L204.789 43.7ZM206.889 42.3L206.518 41.3715L206.518 41.3715L206.889 42.3ZM209.639 42.8C210.527 42.8 211.294 42.9477 211.955 43.2231L212.724 41.3769C211.785 40.9856 210.751 40.8 209.639 40.8V42.8ZM211.968 43.2285C212.678 43.5127 213.254 43.901 213.712 44.3866L215.166 43.0134C214.492 42.2989 213.667 41.7539 212.711 41.3715L211.968 43.2285ZM213.732 44.4071C214.23 44.9054 214.603 45.4838 214.853 46.1511L216.726 45.4489C216.376 44.5162 215.848 43.6946 215.146 42.9929L213.732 44.4071ZM214.853 46.1511C215.107 46.8289 215.239 47.5755 215.239 48.4H217.239C217.239 47.3578 217.071 46.3711 216.726 45.4489L214.853 46.1511ZM215.239 48.4C215.239 49.1732 215.097 49.8919 214.816 50.5654L216.662 51.3346C217.048 50.4081 217.239 49.4268 217.239 48.4H215.239ZM214.803 50.5989C214.55 51.2742 214.191 51.8337 213.732 52.2929L215.146 53.7071C215.821 53.0329 216.329 52.2258 216.676 51.3011L214.803 50.5989ZM213.712 52.3134C213.254 52.799 212.678 53.1873 211.968 53.4715L212.711 55.3285C213.667 54.9461 214.492 54.4011 215.166 53.6866L213.712 52.3134ZM211.937 53.4847C211.246 53.7884 210.453 53.95 209.539 53.95V55.95C210.693 55.95 211.766 55.7449 212.742 55.3153L211.937 53.4847ZM209.539 53.95C208.663 53.95 207.908 53.79 207.256 53.4909L206.423 55.3091C207.37 55.7433 208.415 55.95 209.539 55.95V53.95ZM207.224 53.4769C206.542 53.1927 205.952 52.7985 205.446 52.2929L204.032 53.7071C204.727 54.4015 205.537 54.9406 206.455 55.3231L207.224 53.4769ZM205.446 52.2929C204.987 51.8337 204.629 51.2742 204.376 50.5989L202.503 51.3011C202.85 52.2258 203.358 53.0329 204.032 53.7071L205.446 52.2929ZM204.376 50.5989C204.12 49.9171 203.989 49.1866 203.989 48.4H201.989C201.989 49.4134 202.159 50.3829 202.503 51.3011L204.376 50.5989ZM203.989 48.4C203.989 47.5755 204.121 46.8289 204.376 46.1511L202.503 45.4489C202.157 46.3711 201.989 47.3578 201.989 48.4H203.989ZM204.362 46.1846C204.651 45.4907 205.037 44.8943 205.516 44.3866L204.062 43.0134C203.408 43.7057 202.894 44.5093 202.516 45.4154L204.362 46.1846ZM205.516 44.3866C205.975 43.901 206.55 43.5127 207.261 43.2285L206.518 41.3715C205.562 41.7539 204.737 42.2989 204.062 43.0134L205.516 44.3866ZM207.261 43.2285C207.963 42.9475 208.752 42.8 209.639 42.8V40.8C208.527 40.8 207.482 40.9858 206.518 41.3715L207.261 43.2285Z" fill="#576238" mask="url(#path-1-outside-1_132_2011)"/>
<path d="M20.599 2.5C22.699 2.5 24.7824 2.66666 26.849 3C28.949 3.3 30.8324 3.9 32.499 4.8C34.1657 5.66666 35.5157 6.9 36.549 8.5C37.5824 10.1 38.099 12.1833 38.099 14.75C38.099 16.65 37.7157 18.3333 36.949 19.8C36.2157 21.2667 35.149 22.55 33.749 23.65C35.4824 24.65 36.8657 25.9667 37.899 27.6C38.9324 29.2333 39.449 31.2833 39.449 33.75C39.449 36.55 38.9157 38.8333 37.849 40.6C36.7824 42.3667 35.3824 43.7667 33.649 44.8C31.949 45.8333 29.999 46.5333 27.799 46.9C25.599 47.3 23.3657 47.5 21.099 47.5H2.74902V2.5H20.599ZM16.049 35.5H22.499C22.999 35.5 23.4824 35.4833 23.949 35.45C24.4157 35.3833 24.8157 35.2667 25.149 35.1C25.5157 34.9333 25.799 34.7 25.999 34.4C26.199 34.0667 26.299 33.6167 26.299 33.05C26.299 32.0833 25.949 31.4667 25.249 31.2C24.5824 30.9333 23.6657 30.8 22.499 30.8H16.049V35.5ZM16.049 19H21.499C22.5324 19 23.349 18.8833 23.949 18.65C24.549 18.3833 24.849 17.7667 24.849 16.8C24.849 16 24.5657 15.45 23.999 15.15C23.4657 14.85 22.6324 14.7 21.499 14.7H16.049V19ZM63.71 45.25C63.01 45.8833 62.2933 46.3833 61.56 46.75C60.8266 47.15 60.11 47.45 59.41 47.65C58.7433 47.8833 58.0933 48.0333 57.46 48.1C56.86 48.1667 56.3433 48.2 55.91 48.2C54.2766 48.2 52.7266 47.9333 51.26 47.4C49.8266 46.9 48.56 46.0667 47.46 44.9C46.3933 43.7333 45.5433 42.2 44.91 40.3C44.2766 38.4333 43.96 36.15 43.96 33.45V13.55H57.41V32.5C57.41 33.5667 57.61 34.4333 58.01 35.1C58.41 35.7667 59.0766 36.1 60.01 36.1C60.5766 36.1 61.11 35.95 61.61 35.65C62.1433 35.3167 62.6766 34.65 63.21 33.65V13.55H76.66V47.5H65.41L63.71 45.25ZM115.705 47.5H105.855L104.455 45.25C103.489 46.1167 102.372 46.8167 101.105 47.35C99.8386 47.8833 98.3719 48.15 96.7053 48.15C94.7386 48.15 92.8219 47.7667 90.9553 47C89.1219 46.2667 87.4719 45.1333 86.0053 43.6C84.5386 42.1 83.3553 40.2167 82.4553 37.95C81.5886 35.6833 81.1553 33.0333 81.1553 30C81.1553 27.4 81.5053 25.05 82.2053 22.95C82.9053 20.8167 83.8886 19.0167 85.1553 17.55C86.4219 16.05 87.9219 14.9 89.6553 14.1C91.3886 13.2667 93.2886 12.85 95.3553 12.85C96.7886 12.85 98.0386 13 99.1053 13.3C100.205 13.5667 101.239 13.9333 102.205 14.4V2.5H115.705V47.5ZM98.8553 36.2C99.6219 36.2 100.272 36.0333 100.805 35.7C101.339 35.3333 101.805 34.8833 102.205 34.35V26.55C101.672 25.8833 101.105 25.4 100.505 25.1C99.9386 24.7667 99.3886 24.6 98.8553 24.6C97.4219 24.6 96.3719 25.15 95.7053 26.25C95.0386 27.35 94.7053 28.7167 94.7053 30.35C94.7053 32.2167 95.0719 33.6667 95.8053 34.7C96.5386 35.7 97.5553 36.2 98.8553 36.2ZM154.768 47.5H144.918L143.518 45.25C142.551 46.1167 141.434 46.8167 140.168 47.35C138.901 47.8833 137.434 48.15 135.768 48.15C133.801 48.15 131.884 47.7667 130.018 47C128.184 46.2667 126.534 45.1333 125.068 43.6C123.601 42.1 122.418 40.2167 121.518 37.95C120.651 35.6833 120.218 33.0333 120.218 30C120.218 27.4 120.568 25.05 121.268 22.95C121.968 20.8167 122.951 19.0167 124.218 17.55C125.484 16.05 126.984 14.9 128.718 14.1C130.451 13.2667 132.351 12.85 134.418 12.85C135.851 12.85 137.101 13 138.168 13.3C139.268 13.5667 140.301 13.9333 141.268 14.4V2.5H154.768V47.5ZM137.918 36.2C138.684 36.2 139.334 36.0333 139.868 35.7C140.401 35.3333 140.868 34.8833 141.268 34.35V26.55C140.734 25.8833 140.168 25.4 139.568 25.1C139.001 24.7667 138.451 24.6 137.918 24.6C136.484 24.6 135.434 25.15 134.768 26.25C134.101 27.35 133.768 28.7167 133.768 30.35C133.768 32.2167 134.134 33.6667 134.868 34.7C135.601 35.7 136.618 36.2 137.918 36.2ZM161.23 45.8C161.764 45.7667 162.447 45.6833 163.28 45.55C164.114 45.4167 164.964 45.2 165.83 44.9C166.73 44.6 167.597 44.2 168.43 43.7C169.264 43.2 169.964 42.5667 170.53 41.8L158.28 13.55H173.18L177.38 26.65L180.98 13.55H195.53L184.63 41.3C183.53 44.1333 182.297 46.55 180.93 48.55C179.564 50.5833 177.947 52.25 176.08 53.55C174.247 54.85 172.114 55.8167 169.68 56.45C167.28 57.0833 164.464 57.4167 161.23 57.45V45.8ZM205.639 34.8C206.639 34.8 207.539 34.9667 208.339 35.3C209.173 35.6333 209.873 36.1 210.439 36.7C211.039 37.3 211.489 38 211.789 38.8C212.089 39.6 212.239 40.4667 212.239 41.4C212.239 42.3 212.073 43.15 211.739 43.95C211.439 44.75 211.006 45.4333 210.439 46C209.873 46.6 209.173 47.0667 208.339 47.4C207.506 47.7667 206.573 47.95 205.539 47.95C204.539 47.95 203.639 47.7667 202.839 47.4C202.039 47.0667 201.339 46.6 200.739 46C200.173 45.4333 199.739 44.75 199.439 43.95C199.139 43.15 198.989 42.3 198.989 41.4C198.989 40.4667 199.139 39.6 199.439 38.8C199.773 38 200.223 37.3 200.789 36.7C201.356 36.1 202.056 35.6333 202.889 35.3C203.723 34.9667 204.639 34.8 205.639 34.8Z" fill="#576238"/>
</svg>
