<svg width="1337" height="273" viewBox="0 0 1337 273" fill="none" xmlns="http://www.w3.org/2000/svg">
<circle cx="136" cy="136" r="136" fill="#475613"/>
<path d="M84.2812 120.523V143.41H80.9414V120.523H84.2812ZM85.2305 148.613V151.32H63.6797V141.09H67.0547V148.613H85.2305ZM67.1953 122.633C71.9414 122.633 75.5625 125.867 75.5625 130.438C75.5625 135.078 71.9414 138.277 67.1953 138.277C62.4492 138.277 58.793 135.078 58.793 130.438C58.793 125.867 62.4492 122.633 67.1953 122.633ZM67.1953 125.551C64.2422 125.551 62.0625 127.555 62.0625 130.438C62.0625 133.391 64.2422 135.359 67.1953 135.359C70.0781 135.359 72.293 133.391 72.293 130.438C72.293 127.555 70.0781 125.551 67.1953 125.551ZM112.54 122.457V125.234C112.54 128.223 112.54 131.457 111.661 135.957H116.196V138.699H103.434V152.023H100.059V138.699H87.4734V135.957H108.286C109.235 131.475 109.235 128.17 109.235 125.234V125.199H90.9891V122.457H112.54ZM149.264 123.512V126.605C149.264 130.508 149.264 134.867 148.069 141.301L144.694 140.949C145.924 134.867 145.924 130.402 145.924 126.605V126.219H126.799V123.512H149.264ZM152.498 144.957V147.734H123.776V144.957H134.709V133.848H138.014V144.957H152.498ZM168.101 122.246V131.352H157.695V135.641C163.179 135.623 166.167 135.5 169.718 134.867L170.034 137.574C166.202 138.242 162.968 138.383 156.675 138.348H154.39V128.785H164.796V124.953H154.355V122.246H168.101ZM179.351 120.523V139.859H176.011V134.375H170.14V131.633H176.011V127.941H170.14V125.199H176.011V120.523H179.351ZM168.839 140.422C175.448 140.422 179.491 142.602 179.491 146.293C179.491 150.02 175.448 152.129 168.839 152.129C162.195 152.129 158.116 150.02 158.152 146.293C158.116 142.602 162.195 140.422 168.839 140.422ZM168.839 143.023C164.198 143.023 161.491 144.184 161.527 146.293C161.491 148.402 164.198 149.527 168.839 149.527C173.445 149.527 176.187 148.402 176.187 146.293C176.187 144.184 173.445 143.023 168.839 143.023ZM207.082 120.488V133.672H211.828V136.484H207.082V151.988H203.742V120.488H207.082ZM182.016 143.41C184.494 143.41 187.377 143.41 190.383 143.305V140.105C186.832 139.613 184.512 137.469 184.547 134.41C184.512 130.859 187.57 128.504 192.07 128.504C196.535 128.504 199.629 130.859 199.664 134.41C199.629 137.469 197.273 139.631 193.723 140.141V143.164C196.518 143.059 199.33 142.83 201.949 142.461L202.16 144.922C195.34 146.152 187.957 146.188 182.543 146.188L182.016 143.41ZM201.492 124.215V126.887H182.613V124.215H190.383V120.559H193.723V124.215H201.492ZM192.07 131.105C189.434 131.105 187.676 132.406 187.676 134.41C187.676 136.414 189.434 137.645 192.07 137.645C194.707 137.645 196.465 136.414 196.465 134.41C196.465 132.406 194.707 131.105 192.07 131.105Z" fill="white"/>
<circle cx="491" cy="136" r="136" fill="#475613"/>
<path d="M439.246 120.488V152.059H435.906V120.488H439.246ZM430.246 123.406V126.184H418.539V141.477C424.516 141.459 428.33 141.301 432.777 140.492L433.129 143.27C428.418 144.113 424.305 144.324 417.766 144.324H415.164V123.406H430.246ZM454.075 129.77C454.075 135.043 457.52 140.492 462.372 142.566L460.544 145.168C456.835 143.533 453.882 140.07 452.423 135.852C450.964 140.352 447.993 144.184 444.337 145.977L442.403 143.34C447.149 141.125 450.665 135.184 450.7 129.77V126.43H443.493V123.652H461.247V126.43H454.075V129.77ZM468.559 120.488V151.988H465.22V120.488H468.559ZM487.783 122.352V125.059H476.673V127.941H486.869V130.473H476.673V133.672C482.07 133.654 485.339 133.566 489.259 132.934L489.541 135.605C485.287 136.273 481.771 136.344 475.724 136.344H473.369V122.352H487.783ZM498.013 120.488V137.398H494.709V130.227H488.978V127.555H494.709V120.488H498.013ZM498.013 138.734V146.363H480.822V149.07H499.138V151.672H477.482V143.867H494.709V141.336H477.412V138.734H498.013ZM524.788 122.562C524.788 123.758 524.665 124.883 524.437 125.973H531.011V120.523H534.351V139.262H531.011V135.324H523.066V132.617H531.011V128.645H523.593C521.466 133.584 516.632 137.117 509.812 138.945L508.546 136.309C516.034 134.287 520.587 130.279 521.202 125.27H510.198V122.562H524.788ZM534.351 140.633V151.918H531.011V143.27H513.011V140.633H534.351ZM548.195 130.613C548.195 135.465 551.148 140.598 555.859 142.848L553.961 145.379C550.533 143.762 547.949 140.475 546.613 136.625C545.225 140.791 542.482 144.271 538.879 145.941L537.016 143.375C541.797 141.195 544.926 135.816 544.926 130.613V128.539H537.965V125.867H544.891V121.121H548.266V125.867H555.121V128.539H548.195V130.613ZM561.941 120.488V133.18H567.004V135.992H561.941V151.988H558.602V120.488H561.941Z" fill="white"/>
<circle cx="846" cy="136" r="136" fill="#475613"/>
<path d="M779.094 128.504C779.059 134.094 782.293 139.789 787.004 142.074L784.93 144.746C781.502 142.971 778.848 139.438 777.477 135.219C776.053 139.719 773.293 143.48 769.707 145.344L767.633 142.637C772.484 140.316 775.754 134.27 775.754 128.504V123.125H779.094V128.504ZM792.699 120.488V133.039H797.762V135.887H792.699V151.988H789.359V120.488H792.699ZM823.524 120.488V151.988H820.184V120.488H823.524ZM797.649 143.41C800.233 143.393 803.204 143.375 806.298 143.27V140.141C802.606 139.666 800.216 137.504 800.251 134.41C800.216 130.859 803.309 128.504 807.88 128.504C812.485 128.504 815.649 130.859 815.649 134.41C815.649 137.469 813.259 139.613 809.602 140.105V143.164C812.52 143.041 815.473 142.812 818.251 142.461L818.497 144.957C811.501 146.117 803.872 146.188 798.106 146.188L797.649 143.41ZM817.548 124.25V126.922H798.317V124.25H806.298V120.559H809.638V124.25H817.548ZM807.88 131.105C805.243 131.105 803.38 132.406 803.415 134.41C803.38 136.414 805.243 137.645 807.88 137.645C810.587 137.645 812.45 136.414 812.45 134.41C812.45 132.406 810.587 131.105 807.88 131.105ZM838.072 126.078C838.072 130.051 840.92 133.953 845.666 135.57L843.943 138.172C840.41 136.941 837.791 134.428 836.42 131.316C835.048 134.779 832.289 137.557 828.545 138.875L826.822 136.238C831.673 134.586 834.662 130.367 834.662 126.113V125.234H827.841V122.527H844.822V125.234H838.072V126.078ZM853.048 140.914V151.988H849.709V143.621H831.709V140.914H853.048ZM853.048 120.488V139.332H849.709V131.246H843.873V128.504H849.709V120.488H853.048ZM888.577 123.512V126.605C888.577 130.508 888.577 134.867 887.382 141.301L884.007 140.949C885.238 134.867 885.238 130.402 885.238 126.605V126.219H866.113V123.512H888.577ZM891.812 144.957V147.734H863.089V144.957H874.023V133.848H877.327V144.957H891.812ZM918.523 120.523V137.891H915.184V120.523H918.523ZM908.469 122V130.789H897.324V134.516C902.826 134.48 906.887 134.34 911.668 133.566L912.09 136.273C906.957 137.117 902.633 137.258 896.691 137.293H894.055V128.188H905.164V124.707H893.984V122H908.469ZM901.191 139.367V142.777H915.219V139.367H918.523V151.602H897.852V139.367H901.191ZM901.191 148.895H915.219V145.414H901.191V148.895Z" fill="white"/>
<circle cx="1201" cy="137" r="136" fill="#475613"/>
<path d="M1137.12 108.348V140.129H1133.36V123.816H1129.95V138.652H1126.3V109.191H1129.95V120.652H1133.36V108.348H1137.12ZM1123.59 112.355C1123.59 120.934 1120.88 128.316 1111.85 133.484L1109.6 130.777C1116.36 126.857 1119.23 121.83 1119.79 115.484H1111.07V112.355H1123.59ZM1165.77 108.348V124.766H1161.87V121.32H1155.47V123.746H1140.6V109.754H1144.5V113.762H1151.6V109.754H1155.47V112.566H1161.87V108.348H1165.77ZM1165.77 126.066V134.223H1148.75V136.648H1166.79V139.742H1144.85V131.34H1161.87V129.125H1144.82V126.066H1165.77ZM1144.5 120.652H1151.6V116.75H1144.5V120.652ZM1155.47 118.332H1161.87V115.52H1155.47V118.332ZM1191.35 110.457V124.273H1176.3V110.457H1191.35ZM1180.13 113.586V121.145H1187.52V113.586H1180.13ZM1200.28 108.348V115.484H1204.71V118.719H1200.28V126.277H1196.38V108.348H1200.28ZM1200.74 127.895V130.988H1192.3C1192.91 133.695 1196.52 136.244 1202.07 137.035L1200.67 140.023C1195.71 139.32 1191.93 137.193 1190.12 134.328C1188.27 137.193 1184.56 139.303 1179.61 139.953L1178.17 137C1183.77 136.244 1187.29 133.766 1187.94 130.988H1179.47V127.895H1200.74ZM1233.49 123.781V126.875H1220.91V129.652H1229.98V139.742H1207.94V129.652H1217.04V126.875H1204.53V123.781H1233.49ZM1220.91 108.312V111.16H1230.65V114.254H1221.19C1221.65 116.855 1225.39 119 1232.05 119.457L1230.93 122.34C1225.18 121.9 1220.96 120.213 1218.98 117.523C1216.97 120.213 1212.75 121.9 1207.06 122.34L1205.9 119.457C1212.59 119 1216.29 116.855 1216.76 114.254H1207.37V111.16H1217.04V108.312H1220.91ZM1211.8 132.781V136.578H1226.18V132.781H1211.8ZM1258.98 108.348V121.461H1263.44V124.73H1258.98V140.129H1255.04V108.348H1258.98ZM1233.45 131.305C1235.86 131.305 1238.66 131.305 1241.57 131.234V128.246C1238.11 127.666 1235.84 125.486 1235.88 122.516C1235.84 118.93 1239.01 116.539 1243.58 116.539C1248.08 116.539 1251.28 118.93 1251.31 122.516C1251.28 125.504 1248.97 127.684 1245.51 128.246V131.094C1248.18 130.953 1250.86 130.742 1253.35 130.391L1253.6 133.238C1246.78 134.469 1239.43 134.539 1234.02 134.539L1233.45 131.305ZM1253 112.004V115.098H1234.05V112.004H1241.57V108.488H1245.51V112.004H1253ZM1243.58 119.527C1241.15 119.562 1239.57 120.652 1239.57 122.516C1239.57 124.344 1241.15 125.434 1243.58 125.398C1245.97 125.434 1247.55 124.344 1247.55 122.516C1247.55 120.652 1245.97 119.562 1243.58 119.527ZM1273.45 110.562C1278.48 110.527 1282.17 113.727 1282.21 118.227C1282.17 122.762 1278.48 125.926 1273.45 125.926C1268.46 125.926 1264.73 122.762 1264.73 118.227C1264.73 113.727 1268.46 110.527 1273.45 110.562ZM1273.45 113.938C1270.68 113.938 1268.6 115.59 1268.6 118.227C1268.6 120.898 1270.68 122.516 1273.45 122.516C1276.27 122.516 1278.38 120.898 1278.38 118.227C1278.38 115.59 1276.27 113.938 1273.45 113.938ZM1289.63 108.348V140.164H1285.72V108.348H1289.63ZM1263.29 130.32C1269.02 130.32 1276.97 130.25 1283.82 129.266L1284.14 132.113C1277 133.484 1269.38 133.52 1263.79 133.52L1263.29 130.32ZM1186.15 165.938V169.102H1173.57V171.738C1179.26 172.125 1182.6 174.094 1182.64 177.398C1182.6 181.055 1178.49 183.094 1171.63 183.094C1164.71 183.094 1160.56 181.055 1160.56 177.398C1160.56 174.094 1163.93 172.107 1169.7 171.738V169.102H1157.18V165.938H1186.15ZM1171.63 174.691C1166.99 174.727 1164.5 175.641 1164.53 177.398C1164.5 179.156 1166.99 180.105 1171.63 180.105C1176.17 180.105 1178.7 179.156 1178.74 177.398C1178.7 175.641 1176.17 174.727 1171.63 174.691ZM1183.55 152.754V155.883H1174.41C1175.03 158.502 1178.82 160.857 1184.78 161.402L1183.41 164.496C1177.65 163.916 1173.36 161.613 1171.63 158.379C1169.91 161.596 1165.69 163.916 1159.93 164.496L1158.59 161.402C1164.43 160.857 1168.22 158.467 1168.89 155.883H1159.82V152.754H1183.55ZM1215.54 176.062V179.262H1186.5V176.062H1193.21V168.012C1190.68 166.57 1189.15 164.303 1189.17 161.473C1189.13 156.41 1194.13 153.07 1200.95 153.07C1207.8 153.07 1212.79 156.41 1212.79 161.473C1212.79 164.25 1211.32 166.482 1208.86 167.941V176.062H1215.54ZM1200.95 156.164C1196.2 156.164 1192.97 158.168 1193 161.473C1192.97 164.742 1196.2 166.781 1200.95 166.781C1205.69 166.781 1208.96 164.742 1208.96 161.473C1208.96 158.168 1205.69 156.164 1200.95 156.164ZM1197.08 176.062H1204.88V169.418C1203.67 169.699 1202.35 169.84 1200.95 169.84C1199.58 169.84 1198.28 169.699 1197.08 169.453V176.062ZM1227.45 155.918C1227.41 160.242 1229.94 164.18 1234.94 165.762L1232.83 168.82C1229.36 167.607 1226.94 165.305 1225.58 162.281C1224.18 165.744 1221.52 168.469 1217.67 169.805L1215.6 166.641C1220.87 164.918 1223.51 160.664 1223.51 156.094V153.07H1227.45V155.918ZM1242.42 151.348V170.051H1238.52V160.699H1232.19V157.5H1238.52V151.348H1242.42ZM1231.67 170.895C1238.42 170.895 1242.53 173.145 1242.53 177.012C1242.53 180.879 1238.42 183.094 1231.67 183.094C1224.95 183.094 1220.84 180.879 1220.87 177.012C1220.84 173.145 1224.95 170.895 1231.67 170.895ZM1231.67 173.918C1227.24 173.918 1224.74 175.008 1224.74 177.012C1224.74 178.945 1227.24 180.035 1231.67 180.035C1236.1 180.035 1238.63 178.945 1238.63 177.012C1238.63 175.008 1236.1 173.918 1231.67 173.918Z" fill="white"/>
</svg>
