<svg width="1207" height="671" viewBox="0 0 1207 671" fill="none" xmlns="http://www.w3.org/2000/svg">
<g filter="url(#filter0_b_112_1618)">
<rect x="62" y="72" width="1145" height="599" rx="93" fill="white" fill-opacity="0.1"/>
</g>
<rect width="1158" height="612" rx="100" fill="white"/>
<path d="M95.822 127.76L98.702 117.6H100.942L98.782 127.76H95.822ZM89.102 127.76L91.982 117.6H94.222L92.062 127.76H89.102ZM116.801 124.32C116.801 130.56 121.561 136.92 126.401 139.2L124.801 141.12C120.961 139.16 117.281 134.88 115.641 129.84C114.041 135.16 110.401 139.68 106.481 141.76L104.881 139.68C109.681 137.36 114.361 130.8 114.401 124.32V117.68H116.801V124.32ZM130.801 149.12V114.56H133.201V149.12H130.801ZM167.772 114.56V149.04H165.292V114.56H167.772ZM141.932 140V118H144.332V137.84H144.652C150.012 137.84 155.452 137.44 161.372 136.16L161.692 138.32C155.572 139.6 150.212 140.04 144.652 140H141.932ZM183.302 117.36C188.022 117.36 191.342 121.48 191.742 128H200.102V114.56H202.502V149.12H200.102V130H191.782C191.542 136.84 188.142 141.16 183.302 141.12C178.222 141.16 174.742 136.52 174.742 129.28C174.742 122 178.222 117.36 183.302 117.36ZM177.142 129.28C177.102 135 179.622 138.96 183.302 138.96C186.902 138.96 189.462 135 189.462 129.28C189.462 123.48 186.902 119.52 183.302 119.52C179.622 119.52 177.102 123.48 177.142 129.28ZM240.192 130.8V132.8H208.592V130.8H240.192ZM212.512 137.76V135.92H236.192V142.96H214.992V146.64H237.312V148.56H212.592V141.12H233.712V137.76H212.512ZM212.672 117.6V115.76H236.032V122.56H215.232V126H236.672V127.84H212.752V120.8H233.552V117.6H212.672ZM264.29 116.32C269.45 116.32 273.09 119.12 273.09 123.28C273.09 127.44 269.45 130.28 264.29 130.24C259.21 130.28 255.57 127.44 255.57 123.28C255.57 119.12 259.21 116.32 264.29 116.32ZM252.77 133.44C259.37 133.48 268.33 133.36 276.05 132.24L276.21 134.08C272.77 134.72 269.21 135.08 265.73 135.28V148H263.33V135.4C259.65 135.6 256.17 135.6 253.17 135.6L252.77 133.44ZM257.97 123.28C257.93 126.16 260.61 128.2 264.29 128.16C268.05 128.2 270.73 126.16 270.77 123.28C270.73 120.44 268.05 118.36 264.29 118.4C260.61 118.36 257.93 120.44 257.97 123.28ZM278.77 149.12V114.64H281.17V149.12H278.77ZM314.3 114.64V126.24H319.66V128.32H314.3V140.48H311.9V114.64H314.3ZM287.58 121.12V119.04H296.7V114.64H299.1V119.04H308.14V121.12H287.58ZM289.66 129.6C289.62 125.68 292.94 123.2 297.9 123.2C302.78 123.2 306.1 125.68 306.14 129.6C306.1 133.4 302.78 135.88 297.9 135.84C292.94 135.88 289.62 133.4 289.66 129.6ZM291.98 129.6C291.98 132.16 294.34 133.88 297.9 133.84C301.38 133.88 303.74 132.16 303.74 129.6C303.74 126.92 301.38 125.16 297.9 125.2C294.34 125.16 291.98 126.92 291.98 129.6ZM293.02 148.24V138.32H295.42V146.16H316.06V148.24H293.02ZM359.598 133.44V135.52H335.918V117.68H359.198V119.76H338.398V125.36H358.478V127.44H338.398V133.44H359.598ZM331.758 144.4V142.32H363.278V144.4H331.758ZM380.249 117.44V126.96H370.409V132.96C375.089 132.96 378.729 132.76 383.049 131.84L383.369 133.92C378.809 134.76 375.089 135 370.169 134.96H368.009V125.04H377.849V119.52H367.929V117.44H380.249ZM373.129 148.24V137.84H375.609V146.16H396.569V148.24H373.129ZM381.689 126.56V124.48H386.329V115.28H388.729V139.6H386.329V126.56H381.689ZM393.129 140.56V114.64H395.449V140.56H393.129ZM428.659 131.36V133.44H405.059V117.92H428.259V120H407.459V131.36H428.659ZM400.899 144.16V142.08H432.419V144.16H400.899ZM457.157 125.6C457.157 131.48 461.877 137.44 466.757 139.52L465.317 141.52C461.317 139.64 457.557 135.52 455.957 130.6C454.357 135.76 450.597 140.36 446.757 142.32L445.237 140.4C449.917 138.12 454.677 131.56 454.677 125.6V120.32H446.277V118.16H465.637V120.32H457.157V125.6ZM470.997 149.04V114.56H473.397V149.04H470.997ZM491.967 121.6C491.927 126.24 496.087 130.16 501.087 131.68L499.887 133.6C495.807 132.32 492.327 129.52 490.807 125.84C489.327 129.88 485.887 132.92 481.727 134.4L480.527 132.48C485.487 130.8 489.527 126.52 489.487 121.6V120.88H481.327V118.88H489.487V114.4H491.967V118.88H500.127V120.88H491.967V121.6ZM485.887 148.56V136.88H508.047V148.56H485.887ZM488.287 146.48H505.647V138.96H488.287V146.48ZM505.567 135.12V114.64H508.047V135.12H505.567ZM526.137 124.32C526.097 130.48 530.577 136.72 535.337 138.96L533.897 141.04C529.977 138.96 526.417 134.6 524.897 129.56C523.417 134.88 519.897 139.52 515.977 141.6L514.457 139.68C519.217 137.24 523.617 130.6 523.657 124.32V117.68H526.137V124.32ZM531.657 128.64V126.64H540.297V114.56H542.697V149.12H540.297V128.64H531.657ZM567.515 146.4C562.275 146.4 558.835 143.08 558.795 138.64C558.835 135.36 560.915 133.28 564.475 130.8L564.635 130.68C562.475 128.12 561.035 126.2 561.035 123.68C561.035 120.08 563.755 117.4 567.675 117.44C571.635 117.4 574.195 120.08 574.155 123.28C574.195 125.88 572.835 127.72 570.315 129.6L568.275 131.12L574.995 139.36C575.795 137.88 576.315 136.16 576.395 134.16L578.955 134.24C578.875 137.8 577.675 140 576.635 141.4L580.395 146H577.195L575.075 143.4C573.195 145.32 570.235 146.4 567.515 146.4ZM561.515 138.64C561.515 141.52 563.955 144 567.515 144C569.755 144 571.835 143.04 573.435 141.4L566.235 132.6L565.115 133.44C562.355 135.52 561.515 137.4 561.515 138.64ZM563.675 123.76C563.715 125.44 564.955 127.08 566.675 129.16L568.555 127.76C570.475 126.4 571.515 125.24 571.515 123.28C571.515 121.48 569.955 119.72 567.755 119.76C565.435 119.72 563.715 121.72 563.675 123.76ZM618.395 114.56V128.48H624.395V130.64H618.395V149.12H615.995V114.56H618.395ZM593.275 120V117.92H608.795V129.92H595.755V138.56H595.995C602.795 138.52 607.315 138.32 612.635 137.28L612.955 139.36C607.435 140.36 602.875 140.64 595.995 140.64H593.355V127.84H606.395V120H593.275ZM654.725 114.56V149.12H652.325V114.56H654.725ZM627.845 129.28C627.845 122 631.445 117.36 636.565 117.36C641.645 117.36 645.285 122 645.285 129.28C645.285 136.52 641.645 141.16 636.565 141.12C631.445 141.16 627.845 136.52 627.845 129.28ZM630.245 129.28C630.245 135 632.845 138.96 636.565 138.96C640.285 138.96 642.885 135 642.885 129.28C642.885 123.48 640.285 119.52 636.565 119.52C632.845 119.52 630.245 123.48 630.245 129.28ZM692.575 142.32V144.48H661.055V142.32H692.575ZM663.935 120.32V118.24H689.455V120.32H683.775V132.88H689.455V134.88H664.015V132.88H669.615V120.32H663.935ZM672.095 132.88H681.375V120.32H672.095V132.88ZM722.193 119.84C722.193 126 729.673 131.2 735.073 132.24L733.873 134.32C729.033 133.12 723.113 129.36 720.953 124.08C718.793 129.36 712.833 133.12 707.953 134.32L706.833 132.24C712.233 131.2 719.633 126.04 719.633 119.84V117.12H722.193V119.84ZM705.313 144.24V142.16H736.833V144.24H705.313ZM744.123 138.48C750.683 138.48 755.083 138.28 760.363 137.28L760.683 139.44C755.243 140.36 750.803 140.56 744.123 140.56H741.403V117.76H757.563V119.92H743.883V127.52H756.683V129.6H743.883V138.48H744.123ZM763.963 149.04V114.56H766.363V128.72H772.363V130.8H766.363V149.04H763.963ZM784.214 115.92C789.334 115.96 793.014 119.04 793.014 123.52C793.014 127.96 789.334 131.04 784.214 131.04C779.054 131.04 775.334 127.96 775.334 123.52C775.334 119.04 779.054 115.96 784.214 115.92ZM777.734 123.52C777.734 126.68 780.494 128.96 784.214 128.96C787.894 128.96 790.654 126.68 790.614 123.52C790.654 120.36 787.894 118 784.214 118C780.494 118 777.734 120.36 777.734 123.52ZM780.614 136.24V134.16H802.774V142.08H783.094V146.48H804.134V148.56H780.694V140.24H800.374V136.24H780.614ZM800.294 132.4V114.56H802.774V132.4H800.294ZM845.831 116.88V119.92C845.791 123.16 845.791 126.76 844.751 131.76H850.151V133.84H835.591V149.12H833.191V133.84H818.711V131.76H842.271C843.351 126.76 843.351 123.12 843.351 119.92V118.96H822.791V116.88H845.831ZM884.722 132.08V134.08H870.162V138.32H880.802V148.88H878.322V140.4H856.802V138.32H867.762V134.08H853.282V132.08H884.722ZM855.362 128C861.322 127.28 867.482 124.56 867.682 120.08H856.562V118.08H867.762V114.32H870.162V118.08H881.442V120.08H870.322C870.442 124.56 876.602 127.28 882.642 128L881.842 129.92C876.402 129.24 871.002 127.08 869.002 123.28C866.962 127.08 861.562 129.24 856.162 129.92L855.362 128ZM909.38 124.32C909.34 130.48 913.82 136.72 918.58 138.96L917.14 141.04C913.22 138.96 909.66 134.6 908.14 129.56C906.66 134.88 903.14 139.52 899.22 141.6L897.7 139.68C902.46 137.24 906.86 130.6 906.9 124.32V117.68H909.38V124.32ZM914.9 128.64V126.64H923.54V114.56H925.94V149.12H923.54V128.64H914.9ZM960.35 114.56V149.12H957.95V114.56H960.35ZM934.19 140.64V117.6H936.67V126.88H947.87V117.6H950.27V140.64H934.19ZM936.67 138.56H947.87V128.96H936.67V138.56ZM983.56 119.84C983.56 126 991.04 131.2 996.44 132.24L995.24 134.32C990.4 133.12 984.48 129.36 982.32 124.08C980.16 129.36 974.2 133.12 969.32 134.32L968.2 132.24C973.6 131.2 981 126.04 981 119.84V117.12H983.56V119.84ZM966.68 144.24V142.16H998.2V144.24H966.68ZM1040.3 114.56V149.04H1037.9V114.56H1040.3ZM1010.62 140.16C1015.34 137.36 1018.42 131 1018.46 124.56V120.88H1011.42V118.8H1027.5V120.88H1020.78V124.56C1020.82 130.64 1023.78 136.64 1028.46 139.36L1026.94 141.2C1023.46 139.08 1020.86 135.12 1019.66 130.52C1018.46 135.52 1015.74 139.76 1012.22 142L1010.62 140.16ZM1024.78 129.2V127.2H1031.02V115.52H1033.34V147.2H1031.02V129.2H1024.78ZM1061.11 136.4C1068.47 136.44 1073.11 138.76 1073.19 142.72C1073.11 146.64 1068.47 148.92 1061.11 148.96C1053.75 148.92 1049.11 146.64 1049.11 142.72C1049.11 138.76 1053.75 136.44 1061.11 136.4ZM1045.51 132.96V130.88H1058.95V124H1061.35V130.88H1076.87V132.96H1045.51ZM1049.35 118.48V116.4H1072.79V119.36C1072.79 122.16 1072.79 124.92 1071.83 128.48L1069.43 128.16C1070.39 124.64 1070.39 122.08 1070.39 119.36V118.48H1049.35ZM1051.59 142.72C1051.55 145.28 1055.39 146.92 1061.11 146.96C1066.87 146.92 1070.67 145.28 1070.71 142.72C1070.67 140.08 1066.87 138.4 1061.11 138.4C1055.39 138.4 1051.55 140.08 1051.59 142.72ZM1086.16 117.76L1083.28 127.92H1081.04L1083.2 117.76H1086.16ZM1087.76 127.92L1089.92 117.76H1092.88L1090 127.92H1087.76Z" fill="#333333"/>
<mask id="path-4-outside-1_112_1618" maskUnits="userSpaceOnUse" x="171.676" y="294.016" width="845" height="226" fill="black">
<rect fill="white" x="171.676" y="294.016" width="845" height="226"/>
<path d="M246.995 297.016C255.395 297.016 263.728 297.683 271.995 299.016C280.395 300.216 287.928 302.616 294.595 306.216C301.262 309.683 306.662 314.616 310.795 321.016C314.928 327.416 316.995 335.75 316.995 346.016C316.995 353.616 315.462 360.35 312.395 366.216C309.462 372.083 305.195 377.216 299.595 381.616C306.528 385.616 312.062 390.883 316.195 397.416C320.328 403.95 322.395 412.15 322.395 422.016C322.395 433.216 320.262 442.35 315.995 449.416C311.728 456.483 306.128 462.083 299.195 466.216C292.395 470.35 284.595 473.15 275.795 474.616C266.995 476.216 258.062 477.016 248.995 477.016H175.595V297.016H246.995ZM228.795 429.016H254.595C256.595 429.016 258.528 428.95 260.395 428.816C262.262 428.55 263.862 428.083 265.195 427.416C266.662 426.75 267.795 425.816 268.595 424.616C269.395 423.283 269.795 421.483 269.795 419.216C269.795 415.35 268.395 412.883 265.595 411.816C262.928 410.75 259.262 410.216 254.595 410.216H228.795V429.016ZM228.795 363.016H250.595C254.728 363.016 257.995 362.55 260.395 361.616C262.795 360.55 263.995 358.083 263.995 354.216C263.995 351.016 262.862 348.816 260.595 347.616C258.462 346.416 255.128 345.816 250.595 345.816H228.795V363.016ZM419.439 468.016C416.639 470.55 413.772 472.55 410.839 474.016C407.905 475.616 405.039 476.816 402.239 477.616C399.572 478.55 396.972 479.15 394.439 479.416C392.039 479.683 389.972 479.816 388.239 479.816C381.705 479.816 375.505 478.75 369.639 476.616C363.905 474.616 358.839 471.283 354.439 466.616C350.172 461.95 346.772 455.816 344.239 448.216C341.705 440.75 340.439 431.616 340.439 420.816V341.216H394.239V417.016C394.239 421.283 395.039 424.75 396.639 427.416C398.239 430.083 400.905 431.416 404.639 431.416C406.905 431.416 409.039 430.816 411.039 429.616C413.172 428.283 415.305 425.616 417.439 421.616V341.216H471.239V477.016H426.239L419.439 468.016ZM627.42 477.016H588.02L582.42 468.016C578.553 471.483 574.087 474.283 569.02 476.416C563.953 478.55 558.087 479.616 551.42 479.616C543.553 479.616 535.887 478.083 528.42 475.016C521.087 472.083 514.487 467.55 508.62 461.416C502.753 455.416 498.02 447.883 494.42 438.816C490.953 429.75 489.22 419.15 489.22 407.016C489.22 396.616 490.62 387.216 493.42 378.816C496.22 370.283 500.153 363.083 505.22 357.216C510.287 351.216 516.287 346.616 523.22 343.416C530.153 340.083 537.753 338.416 546.02 338.416C551.753 338.416 556.753 339.016 561.02 340.216C565.42 341.283 569.553 342.75 573.42 344.616V297.016H627.42V477.016ZM560.02 431.816C563.087 431.816 565.687 431.15 567.82 429.816C569.953 428.35 571.82 426.55 573.42 424.416V393.216C571.287 390.55 569.02 388.616 566.62 387.416C564.353 386.083 562.153 385.416 560.02 385.416C554.287 385.416 550.087 387.616 547.42 392.016C544.753 396.416 543.42 401.883 543.42 408.416C543.42 415.883 544.887 421.683 547.82 425.816C550.753 429.816 554.82 431.816 560.02 431.816ZM783.67 477.016H744.27L738.67 468.016C734.803 471.483 730.337 474.283 725.27 476.416C720.203 478.55 714.337 479.616 707.67 479.616C699.803 479.616 692.137 478.083 684.67 475.016C677.337 472.083 670.737 467.55 664.87 461.416C659.003 455.416 654.27 447.883 650.67 438.816C647.203 429.75 645.47 419.15 645.47 407.016C645.47 396.616 646.87 387.216 649.67 378.816C652.47 370.283 656.403 363.083 661.47 357.216C666.537 351.216 672.537 346.616 679.47 343.416C686.403 340.083 694.003 338.416 702.27 338.416C708.003 338.416 713.003 339.016 717.27 340.216C721.67 341.283 725.803 342.75 729.67 344.616V297.016H783.67V477.016ZM716.27 431.816C719.337 431.816 721.937 431.15 724.07 429.816C726.203 428.35 728.07 426.55 729.67 424.416V393.216C727.537 390.55 725.27 388.616 722.87 387.416C720.603 386.083 718.403 385.416 716.27 385.416C710.537 385.416 706.337 387.616 703.67 392.016C701.003 396.416 699.67 401.883 699.67 408.416C699.67 415.883 701.137 421.683 704.07 425.816C707.003 429.816 711.07 431.816 716.27 431.816ZM809.52 470.216C811.653 470.083 814.387 469.75 817.72 469.216C821.053 468.683 824.453 467.816 827.92 466.616C831.52 465.416 834.987 463.816 838.32 461.816C841.653 459.816 844.453 457.283 846.72 454.216L797.72 341.216H857.32L874.12 393.616L888.52 341.216H946.72L903.12 452.216C898.72 463.55 893.787 473.216 888.32 481.216C882.853 489.35 876.387 496.016 868.92 501.216C861.587 506.416 853.053 510.283 843.32 512.816C833.72 515.35 822.453 516.683 809.52 516.816V470.216ZM987.156 426.216C991.156 426.216 994.756 426.883 997.956 428.216C1001.29 429.55 1004.09 431.416 1006.36 433.816C1008.76 436.216 1010.56 439.016 1011.76 442.216C1012.96 445.416 1013.56 448.883 1013.56 452.616C1013.56 456.216 1012.89 459.616 1011.56 462.816C1010.36 466.016 1008.62 468.75 1006.36 471.016C1004.09 473.416 1001.29 475.283 997.956 476.616C994.623 478.083 990.889 478.816 986.756 478.816C982.756 478.816 979.156 478.083 975.956 476.616C972.756 475.283 969.956 473.416 967.556 471.016C965.289 468.75 963.556 466.016 962.356 462.816C961.156 459.616 960.556 456.216 960.556 452.616C960.556 448.883 961.156 445.416 962.356 442.216C963.689 439.016 965.489 436.216 967.756 433.816C970.023 431.416 972.823 429.55 976.156 428.216C979.489 426.883 983.156 426.216 987.156 426.216Z"/>
</mask>
<path d="M271.995 299.016L271.517 301.978L271.544 301.983L271.571 301.986L271.995 299.016ZM294.595 306.216L293.17 308.856L293.19 308.867L293.211 308.878L294.595 306.216ZM310.795 321.016L308.275 322.644L308.275 322.644L310.795 321.016ZM312.395 366.216L309.736 364.827L309.724 364.851L309.712 364.875L312.395 366.216ZM299.595 381.616L297.741 379.258L294.253 381.998L298.096 384.215L299.595 381.616ZM316.195 397.416L313.66 399.02L313.66 399.02L316.195 397.416ZM315.995 449.416L313.427 447.866L313.427 447.866L315.995 449.416ZM299.195 466.216L297.659 463.64L297.648 463.646L297.637 463.653L299.195 466.216ZM275.795 474.616L275.302 471.657L275.28 471.661L275.258 471.665L275.795 474.616ZM175.595 477.016H172.595V480.016H175.595V477.016ZM175.595 297.016V294.016H172.595V297.016H175.595ZM228.795 429.016H225.795V432.016H228.795V429.016ZM260.395 428.816L260.609 431.809L260.714 431.801L260.819 431.786L260.395 428.816ZM265.195 427.416L263.954 424.685L263.903 424.708L263.853 424.733L265.195 427.416ZM268.595 424.616L271.091 426.281L271.131 426.221L271.167 426.16L268.595 424.616ZM265.595 411.816L264.481 414.602L264.504 414.611L264.527 414.62L265.595 411.816ZM228.795 410.216V407.216H225.795V410.216H228.795ZM228.795 363.016H225.795V366.016H228.795V363.016ZM260.395 361.616L261.482 364.412L261.548 364.387L261.613 364.358L260.395 361.616ZM260.595 347.616L259.124 350.231L259.157 350.25L259.191 350.268L260.595 347.616ZM228.795 345.816V342.816H225.795V345.816H228.795ZM246.995 300.016C255.235 300.016 263.409 300.67 271.517 301.978L272.473 296.055C264.048 294.696 255.554 294.016 246.995 294.016V300.016ZM271.571 301.986C279.662 303.142 286.85 305.443 293.17 308.856L296.02 303.577C289.007 299.79 281.128 297.291 272.419 296.047L271.571 301.986ZM293.211 308.878C299.409 312.101 304.42 316.675 308.275 322.644L313.315 319.389C308.903 312.558 303.114 307.265 295.979 303.555L293.211 308.878ZM308.275 322.644C312.004 328.418 313.995 336.132 313.995 346.016H319.995C319.995 335.368 317.853 326.415 313.315 319.389L308.275 322.644ZM313.995 346.016C313.995 353.205 312.548 359.449 309.736 364.827L315.054 367.606C318.376 361.251 319.995 354.028 319.995 346.016H313.995ZM309.712 364.875C306.993 370.312 303.023 375.107 297.741 379.258L301.448 383.975C307.366 379.326 311.93 373.854 315.078 367.558L309.712 364.875ZM298.096 384.215C304.624 387.981 309.795 392.912 313.66 399.02L318.73 395.813C314.328 388.854 308.433 383.252 301.094 379.018L298.096 384.215ZM313.66 399.02C317.416 404.958 319.395 412.562 319.395 422.016H325.395C325.395 411.737 323.241 402.942 318.73 395.813L313.66 399.02ZM319.395 422.016C319.395 432.858 317.327 441.405 313.427 447.866L318.563 450.967C323.196 443.294 325.395 433.575 325.395 422.016H319.395ZM313.427 447.866C309.409 454.521 304.159 459.764 297.659 463.64L300.731 468.793C308.097 464.402 314.048 458.445 318.563 450.967L313.427 447.866ZM297.637 463.653C291.201 467.565 283.77 470.246 275.302 471.657L276.288 477.576C285.42 476.054 293.589 473.135 300.753 468.78L297.637 463.653ZM275.258 471.665C266.638 473.232 257.884 474.016 248.995 474.016V480.016C258.239 480.016 267.352 479.201 276.332 477.568L275.258 471.665ZM248.995 474.016H175.595V480.016H248.995V474.016ZM178.595 477.016V297.016H172.595V477.016H178.595ZM175.595 300.016H246.995V294.016H175.595V300.016ZM228.795 432.016H254.595V426.016H228.795V432.016ZM254.595 432.016C256.661 432.016 258.666 431.948 260.609 431.809L260.181 425.824C258.39 425.952 256.528 426.016 254.595 426.016V432.016ZM260.819 431.786C262.925 431.486 264.85 430.943 266.537 430.1L263.853 424.733C262.873 425.223 261.599 425.614 259.971 425.847L260.819 431.786ZM266.436 430.148C268.351 429.277 269.945 427.999 271.091 426.281L266.099 422.952C265.645 423.633 264.972 424.222 263.954 424.685L266.436 430.148ZM271.167 426.16C272.347 424.194 272.795 421.793 272.795 419.216H266.795C266.795 421.173 266.443 422.372 266.022 423.073L271.167 426.16ZM272.795 419.216C272.795 416.945 272.387 414.805 271.354 412.986C270.289 411.11 268.675 409.78 266.663 409.013L264.527 414.62C265.315 414.92 265.801 415.357 266.136 415.947C266.503 416.594 266.795 417.622 266.795 419.216H272.795ZM266.709 409.031C263.535 407.762 259.435 407.216 254.595 407.216V413.216C259.089 413.216 262.321 413.738 264.481 414.602L266.709 409.031ZM254.595 407.216H228.795V413.216H254.595V407.216ZM225.795 410.216V429.016H231.795V410.216H225.795ZM228.795 366.016H250.595V360.016H228.795V366.016ZM250.595 366.016C254.902 366.016 258.59 365.537 261.482 364.412L259.308 358.82C257.4 359.562 254.554 360.016 250.595 360.016V366.016ZM261.613 364.358C265.583 362.594 266.995 358.625 266.995 354.216H260.995C260.995 357.541 260.007 358.506 259.177 358.875L261.613 364.358ZM266.995 354.216C266.995 350.231 265.506 346.822 261.999 344.965L259.191 350.268C260.218 350.811 260.995 351.802 260.995 354.216H266.995ZM262.066 345.002C259.244 343.415 255.273 342.816 250.595 342.816V348.816C254.984 348.816 257.679 349.418 259.124 350.231L262.066 345.002ZM250.595 342.816H228.795V348.816H250.595V342.816ZM225.795 345.816V363.016H231.795V345.816H225.795ZM419.439 468.016L421.832 466.208L419.856 463.593L417.426 465.792L419.439 468.016ZM410.839 474.016L409.497 471.333L409.449 471.357L409.402 471.383L410.839 474.016ZM402.239 477.616L401.415 474.732L401.33 474.756L401.248 474.785L402.239 477.616ZM394.439 479.416L394.125 476.433L394.116 476.434L394.107 476.435L394.439 479.416ZM369.639 476.616L370.664 473.797L370.645 473.79L370.627 473.784L369.639 476.616ZM354.439 466.616L352.225 468.641L352.24 468.658L352.256 468.675L354.439 466.616ZM344.239 448.216L347.085 447.268L347.082 447.26L347.08 447.253L344.239 448.216ZM340.439 341.216V338.216H337.439V341.216H340.439ZM394.239 341.216H397.239V338.216H394.239V341.216ZM396.639 427.416L399.211 425.873L399.211 425.873L396.639 427.416ZM411.039 429.616L412.582 432.189L412.606 432.175L412.629 432.16L411.039 429.616ZM417.439 421.616L420.086 423.028L420.439 422.366V421.616H417.439ZM417.439 341.216V338.216H414.439V341.216H417.439ZM471.239 341.216H474.239V338.216H471.239V341.216ZM471.239 477.016V480.016H474.239V477.016H471.239ZM426.239 477.016L423.845 478.825L424.745 480.016H426.239V477.016ZM417.426 465.792C414.798 468.17 412.153 470.005 409.497 471.333L412.18 476.7C415.391 475.095 418.479 472.93 421.451 470.241L417.426 465.792ZM409.402 471.383C406.635 472.892 403.973 474.001 401.415 474.732L403.063 480.501C406.104 479.632 409.176 478.341 412.275 476.65L409.402 471.383ZM401.248 474.785C398.777 475.65 396.404 476.193 394.125 476.433L394.753 482.4C397.54 482.107 400.368 481.45 403.23 480.448L401.248 474.785ZM394.107 476.435C391.778 476.694 389.828 476.816 388.239 476.816V482.816C390.116 482.816 392.299 482.673 394.77 482.398L394.107 476.435ZM388.239 476.816C382.039 476.816 376.187 475.805 370.664 473.797L368.613 479.436C374.824 481.694 381.372 482.816 388.239 482.816V476.816ZM370.627 473.784C365.374 471.951 360.71 468.895 356.621 464.558L352.256 468.675C356.967 473.671 362.437 477.282 368.651 479.449L370.627 473.784ZM356.653 464.592C352.735 460.307 349.519 454.572 347.085 447.268L341.393 449.165C344.025 457.061 347.609 463.593 352.225 468.641L356.653 464.592ZM347.08 447.253C344.683 440.187 343.439 431.401 343.439 420.816H337.439C337.439 431.832 338.728 441.312 341.398 449.18L347.08 447.253ZM343.439 420.816V341.216H337.439V420.816H343.439ZM340.439 344.216H394.239V338.216H340.439V344.216ZM391.239 341.216V417.016H397.239V341.216H391.239ZM391.239 417.016C391.239 421.633 392.101 425.685 394.066 428.96L399.211 425.873C397.976 423.815 397.239 420.934 397.239 417.016H391.239ZM394.066 428.96C396.325 432.724 400.099 434.416 404.639 434.416V428.416C401.712 428.416 400.153 427.442 399.211 425.873L394.066 428.96ZM404.639 434.416C407.465 434.416 410.13 433.66 412.582 432.189L409.495 427.044C407.947 427.973 406.345 428.416 404.639 428.416V434.416ZM412.629 432.16C415.437 430.405 417.875 427.173 420.086 423.028L414.792 420.205C412.736 424.06 410.907 426.161 409.449 427.072L412.629 432.16ZM420.439 421.616V341.216H414.439V421.616H420.439ZM417.439 344.216H471.239V338.216H417.439V344.216ZM468.239 341.216V477.016H474.239V341.216H468.239ZM471.239 474.016H426.239V480.016H471.239V474.016ZM428.632 475.208L421.832 466.208L417.045 469.825L423.845 478.825L428.632 475.208ZM627.42 477.016V480.016H630.42V477.016H627.42ZM588.02 477.016L585.473 478.601L586.353 480.016H588.02V477.016ZM582.42 468.016L584.967 466.432L583.079 463.397L580.417 465.783L582.42 468.016ZM569.02 476.416L567.856 473.652L567.856 473.652L569.02 476.416ZM528.42 475.016L529.56 472.241L529.547 472.236L529.534 472.231L528.42 475.016ZM508.62 461.416L510.788 459.343L510.776 459.331L510.765 459.319L508.62 461.416ZM494.42 438.816L491.618 439.888L491.625 439.906L491.632 439.924L494.42 438.816ZM493.42 378.816L496.266 379.765L496.27 379.752L493.42 378.816ZM505.22 357.216L507.49 359.177L507.501 359.165L507.512 359.152L505.22 357.216ZM523.22 343.416L524.477 346.14L524.499 346.13L524.52 346.12L523.22 343.416ZM561.02 340.216L560.208 343.104L560.26 343.119L560.313 343.132L561.02 340.216ZM573.42 344.616L572.116 347.318L576.42 349.396V344.616H573.42ZM573.42 297.016V294.016H570.42V297.016H573.42ZM627.42 297.016H630.42V294.016H627.42V297.016ZM567.82 429.816L569.41 432.36L569.466 432.326L569.52 432.289L567.82 429.816ZM573.42 424.416L575.82 426.216L576.42 425.416V424.416H573.42ZM573.42 393.216H576.42V392.164L575.763 391.342L573.42 393.216ZM566.62 387.416L565.099 390.002L565.187 390.054L565.278 390.1L566.62 387.416ZM547.42 392.016L549.986 393.571L549.986 393.571L547.42 392.016ZM547.82 425.816L545.373 427.553L545.387 427.572L545.401 427.591L547.82 425.816ZM627.42 474.016H588.02V480.016H627.42V474.016ZM590.567 475.432L584.967 466.432L579.873 469.601L585.473 478.601L590.567 475.432ZM580.417 465.783C576.813 469.014 572.633 471.64 567.856 473.652L570.184 479.181C575.54 476.926 580.294 473.952 584.423 470.25L580.417 465.783ZM567.856 473.652C563.227 475.6 557.77 476.616 551.42 476.616V482.616C558.403 482.616 564.679 481.499 570.184 479.181L567.856 473.652ZM551.42 476.616C543.955 476.616 536.674 475.164 529.56 472.241L527.28 477.792C535.099 481.003 543.152 482.616 551.42 482.616V476.616ZM529.534 472.231C522.628 469.469 516.381 465.19 510.788 459.343L506.452 463.49C512.593 469.91 519.545 474.698 527.306 477.802L529.534 472.231ZM510.765 459.319C505.218 453.646 500.685 446.466 497.208 437.709L491.632 439.924C495.355 449.3 500.289 457.187 506.475 463.514L510.765 459.319ZM497.222 437.745C493.914 429.094 492.22 418.872 492.22 407.016H486.22C486.22 419.428 487.992 430.406 491.618 439.888L497.222 437.745ZM492.22 407.016C492.22 396.884 493.584 387.811 496.266 379.765L490.574 377.868C487.656 386.622 486.22 396.349 486.22 407.016H492.22ZM496.27 379.752C498.966 371.536 502.721 364.7 507.49 359.177L502.949 355.256C497.586 361.466 493.474 369.03 490.569 377.881L496.27 379.752ZM507.512 359.152C512.304 353.478 517.954 349.151 524.477 346.14L521.963 340.693C514.619 344.082 508.269 348.955 502.928 355.281L507.512 359.152ZM524.52 346.12C531.018 342.996 538.169 341.416 546.02 341.416V335.416C537.337 335.416 529.289 337.17 521.92 340.713L524.52 346.12ZM546.02 341.416C551.555 341.416 556.27 341.997 560.208 343.104L561.832 337.329C557.237 336.036 551.952 335.416 546.02 335.416V341.416ZM560.313 343.132C564.518 344.151 568.45 345.549 572.116 347.318L574.724 341.915C570.656 339.951 566.322 338.415 561.727 337.301L560.313 343.132ZM576.42 344.616V297.016H570.42V344.616H576.42ZM573.42 300.016H627.42V294.016H573.42V300.016ZM624.42 297.016V477.016H630.42V297.016H624.42ZM560.02 434.816C563.525 434.816 566.705 434.051 569.41 432.36L566.23 427.272C564.668 428.248 562.648 428.816 560.02 428.816V434.816ZM569.52 432.289C571.929 430.632 574.03 428.602 575.82 426.216L571.02 422.616C569.609 424.497 567.977 426.068 566.12 427.344L569.52 432.289ZM576.42 424.416V393.216H570.42V424.416H576.42ZM575.763 391.342C573.429 388.426 570.841 386.173 567.962 384.733L565.278 390.1C567.199 391.06 569.144 392.674 571.077 395.091L575.763 391.342ZM568.141 384.831C565.52 383.289 562.8 382.416 560.02 382.416V388.416C561.507 388.416 563.187 388.877 565.099 390.002L568.141 384.831ZM560.02 382.416C553.381 382.416 548.135 385.048 544.854 390.462L549.986 393.571C552.038 390.185 555.192 388.416 560.02 388.416V382.416ZM544.854 390.462C541.836 395.441 540.42 401.481 540.42 408.416H546.42C546.42 402.285 547.67 397.392 549.986 393.571L544.854 390.462ZM540.42 408.416C540.42 416.225 541.946 422.724 545.373 427.553L550.266 424.08C547.827 420.643 546.42 415.541 546.42 408.416H540.42ZM545.401 427.591C548.931 432.404 553.919 434.816 560.02 434.816V428.816C555.721 428.816 552.576 427.229 550.239 424.042L545.401 427.591ZM783.67 477.016V480.016H786.67V477.016H783.67ZM744.27 477.016L741.723 478.601L742.603 480.016H744.27V477.016ZM738.67 468.016L741.217 466.432L739.329 463.397L736.667 465.783L738.67 468.016ZM725.27 476.416L724.106 473.652L724.106 473.652L725.27 476.416ZM684.67 475.016L685.81 472.241L685.797 472.236L685.784 472.231L684.67 475.016ZM664.87 461.416L667.038 459.343L667.026 459.331L667.015 459.319L664.87 461.416ZM650.67 438.816L647.868 439.888L647.875 439.906L647.882 439.924L650.67 438.816ZM649.67 378.816L652.516 379.765L652.52 379.752L649.67 378.816ZM661.47 357.216L663.74 359.177L663.751 359.165L663.762 359.152L661.47 357.216ZM679.47 343.416L680.727 346.14L680.749 346.13L680.77 346.12L679.47 343.416ZM717.27 340.216L716.458 343.104L716.51 343.119L716.563 343.132L717.27 340.216ZM729.67 344.616L728.366 347.318L732.67 349.396V344.616H729.67ZM729.67 297.016V294.016H726.67V297.016H729.67ZM783.67 297.016H786.67V294.016H783.67V297.016ZM724.07 429.816L725.66 432.36L725.716 432.326L725.77 432.289L724.07 429.816ZM729.67 424.416L732.07 426.216L732.67 425.416V424.416H729.67ZM729.67 393.216H732.67V392.164L732.013 391.342L729.67 393.216ZM722.87 387.416L721.349 390.002L721.437 390.054L721.528 390.1L722.87 387.416ZM703.67 392.016L706.236 393.571L706.236 393.571L703.67 392.016ZM704.07 425.816L701.623 427.553L701.637 427.572L701.651 427.591L704.07 425.816ZM783.67 474.016H744.27V480.016H783.67V474.016ZM746.817 475.432L741.217 466.432L736.123 469.601L741.723 478.601L746.817 475.432ZM736.667 465.783C733.063 469.014 728.883 471.64 724.106 473.652L726.434 479.181C731.79 476.926 736.544 473.952 740.673 470.25L736.667 465.783ZM724.106 473.652C719.477 475.6 714.02 476.616 707.67 476.616V482.616C714.653 482.616 720.929 481.499 726.434 479.181L724.106 473.652ZM707.67 476.616C700.205 476.616 692.924 475.164 685.81 472.241L683.53 477.792C691.349 481.003 699.402 482.616 707.67 482.616V476.616ZM685.784 472.231C678.878 469.469 672.631 465.19 667.038 459.343L662.702 463.49C668.843 469.91 675.795 474.698 683.556 477.802L685.784 472.231ZM667.015 459.319C661.468 453.646 656.935 446.466 653.458 437.709L647.882 439.924C651.605 449.3 656.539 457.187 662.725 463.514L667.015 459.319ZM653.472 437.745C650.164 429.094 648.47 418.872 648.47 407.016H642.47C642.47 419.428 644.242 430.406 647.868 439.888L653.472 437.745ZM648.47 407.016C648.47 396.884 649.834 387.811 652.516 379.765L646.824 377.868C643.906 386.622 642.47 396.349 642.47 407.016H648.47ZM652.52 379.752C655.216 371.536 658.971 364.7 663.74 359.177L659.199 355.256C653.836 361.466 649.724 369.03 646.819 377.881L652.52 379.752ZM663.762 359.152C668.554 353.478 674.204 349.151 680.727 346.14L678.213 340.693C670.869 344.082 664.519 348.955 659.178 355.281L663.762 359.152ZM680.77 346.12C687.268 342.996 694.419 341.416 702.27 341.416V335.416C693.587 335.416 685.539 337.17 678.17 340.713L680.77 346.12ZM702.27 341.416C707.805 341.416 712.52 341.997 716.458 343.104L718.082 337.329C713.487 336.036 708.202 335.416 702.27 335.416V341.416ZM716.563 343.132C720.768 344.151 724.7 345.549 728.366 347.318L730.974 341.915C726.906 339.951 722.572 338.415 717.977 337.301L716.563 343.132ZM732.67 344.616V297.016H726.67V344.616H732.67ZM729.67 300.016H783.67V294.016H729.67V300.016ZM780.67 297.016V477.016H786.67V297.016H780.67ZM716.27 434.816C719.775 434.816 722.955 434.051 725.66 432.36L722.48 427.272C720.918 428.248 718.898 428.816 716.27 428.816V434.816ZM725.77 432.289C728.179 430.632 730.28 428.602 732.07 426.216L727.27 422.616C725.859 424.497 724.227 426.068 722.37 427.344L725.77 432.289ZM732.67 424.416V393.216H726.67V424.416H732.67ZM732.013 391.342C729.679 388.426 727.091 386.173 724.212 384.733L721.528 390.1C723.449 391.06 725.394 392.674 727.327 395.091L732.013 391.342ZM724.391 384.831C721.77 383.289 719.05 382.416 716.27 382.416V388.416C717.757 388.416 719.437 388.877 721.349 390.002L724.391 384.831ZM716.27 382.416C709.631 382.416 704.385 385.048 701.104 390.462L706.236 393.571C708.288 390.185 711.442 388.416 716.27 388.416V382.416ZM701.104 390.462C698.086 395.441 696.67 401.481 696.67 408.416H702.67C702.67 402.285 703.92 397.392 706.236 393.571L701.104 390.462ZM696.67 408.416C696.67 416.225 698.196 422.724 701.623 427.553L706.516 424.08C704.077 420.643 702.67 415.541 702.67 408.416H696.67ZM701.651 427.591C705.181 432.404 710.169 434.816 716.27 434.816V428.816C711.971 428.816 708.826 427.229 706.489 424.042L701.651 427.591ZM809.52 470.216L809.333 467.222L806.52 467.398V470.216H809.52ZM817.72 469.216L818.194 472.179L818.194 472.179L817.72 469.216ZM827.92 466.616L826.971 463.77L826.955 463.776L826.939 463.782L827.92 466.616ZM838.32 461.816L836.776 459.244L836.776 459.244L838.32 461.816ZM846.72 454.216L849.133 456L850.16 454.609L849.472 453.023L846.72 454.216ZM797.72 341.216V338.216H793.149L794.968 342.41L797.72 341.216ZM857.32 341.216L860.177 340.301L859.509 338.216H857.32V341.216ZM874.12 393.616L871.263 394.532L874.341 404.133L877.013 394.411L874.12 393.616ZM888.52 341.216V338.216H886.233L885.627 340.422L888.52 341.216ZM946.72 341.216L949.512 342.313L951.121 338.216H946.72V341.216ZM903.12 452.216L900.328 451.12L900.323 451.131L903.12 452.216ZM888.32 481.216L885.843 479.524L885.837 479.533L885.83 479.543L888.32 481.216ZM868.92 501.216L867.205 498.755L867.195 498.762L867.185 498.769L868.92 501.216ZM843.32 512.816L842.564 509.913L842.555 509.916L843.32 512.816ZM809.52 516.816H806.52V519.848L809.551 519.816L809.52 516.816ZM809.707 473.211C811.975 473.069 814.813 472.72 818.194 472.179L817.246 466.254C813.96 466.78 811.332 467.097 809.333 467.222L809.707 473.211ZM818.194 472.179C821.714 471.616 825.284 470.704 828.901 469.451L826.939 463.782C823.623 464.929 820.393 465.751 817.246 466.254L818.194 472.179ZM828.869 469.463C832.681 468.192 836.347 466.499 839.863 464.389L836.776 459.244C833.626 461.134 830.359 462.641 826.971 463.77L828.869 469.463ZM839.863 464.389C843.529 462.19 846.626 459.39 849.133 456L844.307 452.433C842.28 455.176 839.778 457.443 836.776 459.244L839.863 464.389ZM849.472 453.023L800.472 340.023L794.968 342.41L843.968 455.41L849.472 453.023ZM797.72 344.216H857.32V338.216H797.72V344.216ZM854.463 342.132L871.263 394.532L876.977 392.701L860.177 340.301L854.463 342.132ZM877.013 394.411L891.413 342.011L885.627 340.422L871.227 392.822L877.013 394.411ZM888.52 344.216H946.72V338.216H888.52V344.216ZM943.928 340.12L900.328 451.12L905.912 453.313L949.512 342.313L943.928 340.12ZM900.323 451.131C895.986 462.302 891.152 471.754 885.843 479.524L890.797 482.909C896.421 474.679 901.454 464.798 905.917 453.302L900.323 451.131ZM885.83 479.543C880.555 487.392 874.344 493.783 867.205 498.755L870.634 503.678C878.429 498.25 885.152 491.308 890.81 482.89L885.83 479.543ZM867.185 498.769C860.181 503.736 851.988 507.461 842.564 509.913L844.076 515.72C854.119 513.106 862.993 509.097 870.655 503.664L867.185 498.769ZM842.555 509.916C833.254 512.37 822.245 513.685 809.489 513.817L809.551 519.816C822.662 519.681 834.186 518.33 844.085 515.717L842.555 509.916ZM812.52 516.816V470.216H806.52V516.816H812.52ZM997.956 428.216L996.802 430.986L996.822 430.994L996.842 431.002L997.956 428.216ZM1006.36 433.816L1004.17 435.876L1004.2 435.908L1004.23 435.938L1006.36 433.816ZM1011.56 462.816L1008.79 461.663L1008.77 461.713L1008.75 461.763L1011.56 462.816ZM1006.36 471.016L1004.23 468.895L1004.2 468.925L1004.17 468.957L1006.36 471.016ZM997.956 476.616L996.842 473.831L996.794 473.85L996.748 473.871L997.956 476.616ZM975.956 476.616L977.206 473.889L977.158 473.867L977.11 473.847L975.956 476.616ZM967.556 471.016L965.435 473.138L967.556 471.016ZM962.356 462.816L965.165 461.763L965.165 461.763L962.356 462.816ZM962.356 442.216L959.587 441.063L959.566 441.113L959.547 441.163L962.356 442.216ZM967.756 433.816L965.575 431.757L965.575 431.757L967.756 433.816ZM976.156 428.216L975.042 425.431L975.042 425.431L976.156 428.216ZM987.156 429.216C990.82 429.216 994.02 429.826 996.802 430.986L999.11 425.447C995.492 423.94 991.492 423.216 987.156 423.216V429.216ZM996.842 431.002C999.807 432.188 1002.23 433.82 1004.17 435.876L1008.54 431.757C1005.95 429.013 1002.77 426.912 999.07 425.431L996.842 431.002ZM1004.23 435.938C1006.33 438.033 1007.9 440.468 1008.95 443.27L1014.56 441.163C1013.22 437.565 1011.18 434.4 1008.48 431.695L1004.23 435.938ZM1008.95 443.27C1010.01 446.103 1010.56 449.21 1010.56 452.616H1016.56C1016.56 448.557 1015.9 444.73 1014.56 441.163L1008.95 443.27ZM1010.56 452.616C1010.56 455.836 1009.96 458.842 1008.79 461.663L1014.33 463.97C1015.82 460.391 1016.56 456.597 1016.56 452.616H1010.56ZM1008.75 461.763C1007.69 464.589 1006.18 466.951 1004.23 468.895L1008.48 473.138C1011.07 470.549 1013.02 467.444 1014.36 463.87L1008.75 461.763ZM1004.17 468.957C1002.23 471.013 999.807 472.645 996.842 473.831L999.07 479.402C1002.77 477.921 1005.95 475.82 1008.54 473.076L1004.17 468.957ZM996.748 473.871C993.843 475.148 990.529 475.816 986.756 475.816V481.816C991.249 481.816 995.402 481.018 999.164 479.362L996.748 473.871ZM986.756 475.816C983.128 475.816 979.964 475.153 977.206 473.889L974.706 479.344C978.348 481.013 982.383 481.816 986.756 481.816V475.816ZM977.11 473.847C974.264 472.661 971.794 471.012 969.677 468.895L965.435 473.138C968.118 475.821 971.248 477.905 974.802 479.386L977.11 473.847ZM969.677 468.895C967.733 466.951 966.225 464.589 965.165 461.763L959.547 463.87C960.887 467.444 962.845 470.549 965.435 473.138L969.677 468.895ZM965.165 461.763C964.098 458.918 963.556 455.876 963.556 452.616H957.556C957.556 456.557 958.214 460.315 959.547 463.87L965.165 461.763ZM963.556 452.616C963.556 449.21 964.102 446.103 965.165 443.27L959.547 441.163C958.209 444.73 957.556 448.557 957.556 452.616H963.556ZM965.125 443.37C966.326 440.488 967.932 437.999 969.937 435.876L965.575 431.757C963.047 434.434 961.053 437.545 959.587 441.063L965.125 443.37ZM969.937 435.876C971.879 433.82 974.305 432.188 977.27 431.002L975.042 425.431C971.34 426.912 968.166 429.013 965.575 431.757L969.937 435.876ZM977.27 431.002C980.211 429.826 983.494 429.216 987.156 429.216V423.216C982.818 423.216 978.768 423.941 975.042 425.431L977.27 431.002Z" fill="#FBDE66" mask="url(#path-4-outside-1_112_1618)"/>
<path d="M240.319 285C248.719 285 257.052 285.667 265.319 287C273.719 288.2 281.252 290.6 287.919 294.2C294.586 297.667 299.986 302.6 304.119 309C308.252 315.4 310.319 323.733 310.319 334C310.319 341.6 308.786 348.333 305.719 354.2C302.786 360.067 298.519 365.2 292.919 369.6C299.853 373.6 305.386 378.867 309.519 385.4C313.652 391.933 315.719 400.133 315.719 410C315.719 421.2 313.586 430.333 309.319 437.4C305.052 444.467 299.452 450.067 292.519 454.2C285.719 458.333 277.919 461.133 269.119 462.6C260.319 464.2 251.386 465 242.319 465H168.919V285H240.319ZM222.119 417H247.919C249.919 417 251.852 416.933 253.719 416.8C255.586 416.533 257.186 416.067 258.519 415.4C259.986 414.733 261.119 413.8 261.919 412.6C262.719 411.267 263.119 409.467 263.119 407.2C263.119 403.333 261.719 400.867 258.919 399.8C256.252 398.733 252.586 398.2 247.919 398.2H222.119V417ZM222.119 351H243.919C248.052 351 251.319 350.533 253.719 349.6C256.119 348.533 257.319 346.067 257.319 342.2C257.319 339 256.186 336.8 253.919 335.6C251.786 334.4 248.452 333.8 243.919 333.8H222.119V351ZM412.763 456C409.963 458.533 407.096 460.533 404.163 462C401.23 463.6 398.363 464.8 395.563 465.6C392.896 466.533 390.296 467.133 387.763 467.4C385.363 467.667 383.296 467.8 381.563 467.8C375.03 467.8 368.83 466.733 362.963 464.6C357.23 462.6 352.163 459.267 347.763 454.6C343.496 449.933 340.096 443.8 337.563 436.2C335.03 428.733 333.763 419.6 333.763 408.8V329.2H387.563V405C387.563 409.267 388.363 412.733 389.963 415.4C391.563 418.067 394.23 419.4 397.963 419.4C400.23 419.4 402.363 418.8 404.363 417.6C406.496 416.267 408.63 413.6 410.763 409.6V329.2H464.563V465H419.563L412.763 456ZM620.744 465H581.344L575.744 456C571.877 459.467 567.411 462.267 562.344 464.4C557.277 466.533 551.411 467.6 544.744 467.6C536.877 467.6 529.211 466.067 521.744 463C514.411 460.067 507.811 455.533 501.944 449.4C496.077 443.4 491.344 435.867 487.744 426.8C484.277 417.733 482.544 407.133 482.544 395C482.544 384.6 483.944 375.2 486.744 366.8C489.544 358.267 493.477 351.067 498.544 345.2C503.611 339.2 509.611 334.6 516.544 331.4C523.477 328.067 531.077 326.4 539.344 326.4C545.077 326.4 550.077 327 554.344 328.2C558.744 329.267 562.877 330.733 566.744 332.6V285H620.744V465ZM553.344 419.8C556.411 419.8 559.011 419.133 561.144 417.8C563.277 416.333 565.144 414.533 566.744 412.4V381.2C564.611 378.533 562.344 376.6 559.944 375.4C557.677 374.067 555.477 373.4 553.344 373.4C547.611 373.4 543.411 375.6 540.744 380C538.077 384.4 536.744 389.867 536.744 396.4C536.744 403.867 538.211 409.667 541.144 413.8C544.077 417.8 548.144 419.8 553.344 419.8ZM776.994 465H737.594L731.994 456C728.127 459.467 723.661 462.267 718.594 464.4C713.527 466.533 707.661 467.6 700.994 467.6C693.127 467.6 685.461 466.067 677.994 463C670.661 460.067 664.061 455.533 658.194 449.4C652.327 443.4 647.594 435.867 643.994 426.8C640.527 417.733 638.794 407.133 638.794 395C638.794 384.6 640.194 375.2 642.994 366.8C645.794 358.267 649.727 351.067 654.794 345.2C659.861 339.2 665.861 334.6 672.794 331.4C679.727 328.067 687.327 326.4 695.594 326.4C701.327 326.4 706.327 327 710.594 328.2C714.994 329.267 719.127 330.733 722.994 332.6V285H776.994V465ZM709.594 419.8C712.661 419.8 715.261 419.133 717.394 417.8C719.527 416.333 721.394 414.533 722.994 412.4V381.2C720.861 378.533 718.594 376.6 716.194 375.4C713.927 374.067 711.727 373.4 709.594 373.4C703.861 373.4 699.661 375.6 696.994 380C694.327 384.4 692.994 389.867 692.994 396.4C692.994 403.867 694.461 409.667 697.394 413.8C700.327 417.8 704.394 419.8 709.594 419.8ZM802.844 458.2C804.978 458.067 807.711 457.733 811.044 457.2C814.378 456.667 817.778 455.8 821.244 454.6C824.844 453.4 828.311 451.8 831.644 449.8C834.978 447.8 837.778 445.267 840.044 442.2L791.044 329.2H850.644L867.444 381.6L881.844 329.2H940.044L896.444 440.2C892.044 451.533 887.111 461.2 881.644 469.2C876.178 477.333 869.711 484 862.244 489.2C854.911 494.4 846.378 498.267 836.644 500.8C827.044 503.333 815.778 504.667 802.844 504.8V458.2ZM980.48 414.2C984.48 414.2 988.08 414.867 991.28 416.2C994.613 417.533 997.413 419.4 999.68 421.8C1002.08 424.2 1003.88 427 1005.08 430.2C1006.28 433.4 1006.88 436.867 1006.88 440.6C1006.88 444.2 1006.21 447.6 1004.88 450.8C1003.68 454 1001.95 456.733 999.68 459C997.413 461.4 994.613 463.267 991.28 464.6C987.947 466.067 984.213 466.8 980.08 466.8C976.08 466.8 972.48 466.067 969.28 464.6C966.08 463.267 963.28 461.4 960.88 459C958.613 456.733 956.88 454 955.68 450.8C954.48 447.6 953.88 444.2 953.88 440.6C953.88 436.867 954.48 433.4 955.68 430.2C957.013 427 958.813 424.2 961.08 421.8C963.347 419.4 966.147 417.533 969.48 416.2C972.813 414.867 976.48 414.2 980.48 414.2Z" fill="#FBDE66"/>
<defs>
<filter id="filter0_b_112_1618" x="58" y="68" width="1153" height="607" filterUnits="userSpaceOnUse" color-interpolation-filters="sRGB">
<feFlood flood-opacity="0" result="BackgroundImageFix"/>
<feGaussianBlur in="BackgroundImageFix" stdDeviation="2"/>
<feComposite in2="SourceAlpha" operator="in" result="effect1_backgroundBlur_112_1618"/>
<feBlend mode="normal" in="SourceGraphic" in2="effect1_backgroundBlur_112_1618" result="shape"/>
</filter>
</defs>
</svg>
