<svg width="1293" height="757" viewBox="0 0 1293 757" fill="none" xmlns="http://www.w3.org/2000/svg">
<g filter="url(#filter0_d_131_1437)">
<rect x="97" y="107" width="1145" height="599" rx="93" fill="white" fill-opacity="0.25"/>
<rect x="35" y="35" width="1158" height="612" rx="100" fill="#576238"/>
<path d="M108.648 460.461L111.773 449.68H115.094L113.023 460.461H108.648ZM116.5 460.461L119.625 449.68H122.945L120.875 460.461H116.5ZM139.625 455.227C139.586 461.633 143.453 468.039 148.883 470.461L146.656 473.391C142.633 471.477 139.449 467.551 137.828 462.766C136.188 467.883 132.965 472.121 128.766 474.172L126.5 471.047C132.008 468.586 135.875 461.906 135.875 455.227V449.25H139.625V455.227ZM155.758 446.32V481.398H152.047V446.32H155.758ZM190.406 446.32V481.32H186.695V446.32H190.406ZM167.164 449.719V469.211C172.262 469.172 177.633 468.762 183.258 467.609L183.766 470.734C177.555 471.984 171.93 472.414 166.422 472.414H163.492V449.719H167.164ZM205.406 448.938C210.152 448.938 213.629 452.961 214.195 459.445H221.422V446.32H225.094V481.398H221.422V462.453H214.234C213.824 469.27 210.27 473.508 205.406 473.508C200.172 473.508 196.5 468.742 196.539 461.203C196.5 453.703 200.172 448.938 205.406 448.938ZM205.406 452.258C202.242 452.258 200.055 455.695 200.055 461.203C200.055 466.75 202.242 470.188 205.406 470.188C208.57 470.188 210.758 466.75 210.758 461.203C210.758 455.695 208.57 452.258 205.406 452.258ZM262.477 462.375V465.227H230.445V462.375H262.477ZM258.531 467.688V475.383H237.984V478.273H259.625V480.891H234.273V472.922H254.859V470.344H234.234V467.688H258.531ZM258.453 447.219V454.797H238.219V457.453H259.039V460.07H234.547V452.336H254.742V449.836H234.469V447.219H258.453ZM286.305 447.922C291.578 447.922 295.406 450.852 295.406 455.188C295.406 459.484 291.578 462.453 286.305 462.414C281.031 462.453 277.281 459.484 277.281 455.188C277.281 450.852 281.031 447.922 286.305 447.922ZM286.305 450.93C283.141 450.93 280.836 452.609 280.875 455.188C280.836 457.727 283.141 459.406 286.305 459.367C289.547 459.406 291.852 457.727 291.852 455.188C291.852 452.609 289.547 450.93 286.305 450.93ZM303.922 446.359V481.32H300.25V446.359H303.922ZM274.781 465.148C281.227 465.148 290.172 464.992 297.828 463.859L298.102 466.633C294.918 467.238 291.598 467.609 288.375 467.844V480.227H284.664V468.039C281.266 468.195 278.062 468.215 275.289 468.234L274.781 465.148ZM336.891 446.359V457.609H341.969V460.695H336.891V472.531H333.18V446.359H336.891ZM330.289 450.422V453.43H309.43V450.422H318.023V446.32H321.734V450.422H330.289ZM319.859 455.109C324.898 455.109 328.336 457.727 328.336 461.711C328.336 465.695 324.898 468.273 319.859 468.273C314.781 468.273 311.344 465.695 311.344 461.711C311.344 457.727 314.781 455.109 319.859 455.109ZM319.859 457.961C316.891 457.961 314.898 459.406 314.938 461.711C314.898 463.977 316.891 465.383 319.859 465.383C322.828 465.383 324.82 463.977 324.859 461.711C324.82 459.406 322.828 457.961 319.859 457.961ZM338.375 477.57V480.578H314.703V470.461H318.414V477.57H338.375ZM382.125 464.953V467.922H357.75V449.211H381.773V452.219H361.5V456.945H381.031V459.875H361.5V464.953H382.125ZM385.758 473.859V476.906H353.727V473.859H385.758ZM402.242 449.094V459.484H393.492V464.406C397.77 464.367 400.992 464.172 404.82 463.469L405.211 466.438C400.875 467.258 397.281 467.375 392.164 467.414H389.859V456.711H398.648V452.023H389.781V449.094H402.242ZM418.141 446.359V472.648H414.625V446.359H418.141ZM411.148 446.984V471.75H407.594V458.82H403.609V455.734H407.594V446.984H411.148ZM419.156 477.57V480.578H394.938V469.992H398.609V477.57H419.156ZM451.227 462.922V465.969H426.852V449.445H450.914V452.492H430.523V462.922H451.227ZM454.898 473.625V476.711H422.867V473.625H454.898ZM480.094 456.633C480.094 462.492 483.922 468.547 489.312 470.852L487.281 473.742C483.16 471.926 479.879 468.078 478.258 463.391C476.637 468.391 473.336 472.648 469.273 474.641L467.125 471.711C472.398 469.25 476.305 462.648 476.344 456.633V452.922H468.336V449.836H488.062V452.922H480.094V456.633ZM496.188 446.32V481.32H492.477V446.32H496.188ZM514.781 453.43C514.781 457.57 518.219 461.477 523.648 462.961L521.891 465.852C517.789 464.68 514.645 462.141 513.023 458.859C511.441 462.453 508.297 465.266 504.117 466.594L502.359 463.742C507.711 462.023 511.07 457.883 511.07 453.43V453.195H503.297V450.227H511.07V446.164H514.82V450.227H522.516V453.195H514.781V453.43ZM530.797 446.359V467.023H527.086V446.359H530.797ZM530.797 468.664V480.891H507.789V468.664H530.797ZM511.461 471.672V477.883H527.164V471.672H511.461ZM548.961 455.227C548.961 461.633 552.555 468 557.906 470.422L555.641 473.391C551.656 471.398 548.668 467.434 547.125 462.648C545.582 467.688 542.516 471.945 538.492 474.055L536.148 471.047C541.578 468.469 545.211 461.711 545.211 455.227V449.25H548.961V455.227ZM565.523 446.32V481.398H561.852V460.969H554.039V457.961H561.852V446.32H565.523ZM590.172 478.391C584.508 478.391 580.992 475.031 580.992 470.5C580.992 467.102 583.219 465.012 586.461 462.805C584.664 460.656 583.336 458.664 583.336 456.125C583.336 452.219 586.188 449.406 590.484 449.406C594.859 449.406 597.516 452.258 597.516 455.578C597.516 458.273 596.109 460.227 593.766 461.945L591.812 463.352L597.477 470.109C598.199 468.723 598.648 467.043 598.648 465.148H602.398C602.398 469.055 601.266 471.594 600.055 473.156L604.078 478H599.391L597.477 475.734C595.562 477.551 592.75 478.391 590.172 478.391ZM585.172 470.383C585.172 472.805 587.164 474.875 590.211 474.875C591.93 474.875 593.688 474.211 595.133 473L588.805 465.578L588.102 466.125C585.875 467.766 585.172 469.484 585.172 470.383ZM587.242 456.164C587.242 457.59 588.258 459.035 589.547 460.617L591.266 459.406C592.789 458.391 593.727 457.375 593.727 455.695C593.727 454.367 592.477 452.883 590.562 452.883C588.609 452.883 587.242 454.523 587.242 456.164ZM642.594 446.32V459.992H648.219V463.117H642.594V481.398H638.922V446.32H642.594ZM632.711 449.484V462.336H620.445V469.914C626.461 469.895 630.914 469.68 636.031 468.742L636.383 471.75C630.914 472.766 626.188 473 619.625 473.039H616.773V459.328H629.039V452.492H616.695V449.484H632.711ZM678.883 446.32V481.398H675.172V446.32H678.883ZM660.172 448.938C665.367 448.938 669.195 453.703 669.195 461.203C669.195 468.742 665.367 473.508 660.172 473.508C654.898 473.508 651.109 468.742 651.109 461.203C651.109 453.703 654.898 448.938 660.172 448.938ZM660.172 452.258C656.93 452.258 654.703 455.695 654.703 461.203C654.703 466.75 656.93 470.188 660.172 470.188C663.375 470.188 665.602 466.75 665.602 461.203C665.602 455.695 663.375 452.258 660.172 452.258ZM716.5 473.82V476.945H684.469V473.82H716.5ZM713.57 449.68V452.727H708.219V464.406H713.453V467.375H687.281V464.406H692.516V452.727H687.203V449.68H713.57ZM696.188 464.406H704.586V452.727H696.188V464.406ZM746.578 451.281C746.578 456.984 752.672 462.375 759.391 463.586L757.672 466.672C752.086 465.461 746.93 461.789 744.664 456.867C742.359 461.75 737.223 465.422 731.617 466.672L729.977 463.586C736.617 462.336 742.672 456.984 742.672 451.281V448.625H746.578V451.281ZM760.836 473.625V476.711H728.805V473.625H760.836ZM781.344 449.406V452.453H768.609V459.211H780.641V462.18H768.609V470.031C774.449 470.012 778.766 469.758 783.844 468.938L784.195 471.945C778.805 472.844 774.117 473.039 767.672 473.039H764.859V449.406H781.344ZM790.641 446.32V460.109H796.266V463.234H790.641V481.32H786.93V446.32H790.641ZM807.867 447.492C813.141 447.531 817.008 450.773 817.047 455.344C817.008 459.953 813.141 463.156 807.867 463.156C802.555 463.156 798.648 459.953 798.648 455.344C798.648 450.773 802.555 447.531 807.867 447.492ZM807.867 450.617C804.625 450.578 802.242 452.492 802.281 455.344C802.242 458.234 804.625 460.148 807.867 460.148C811.07 460.148 813.453 458.234 813.453 455.344C813.453 452.492 811.07 450.578 807.867 450.617ZM826.969 446.32V464.133H823.258V446.32H826.969ZM826.969 465.734V474.562H807.672V477.922H828.141V480.891H804.078V471.789H823.297V468.703H803.961V465.734H826.969ZM870.133 448.508V451.594C870.133 454.914 870.133 458.508 869.156 463.508H874.195V466.555H860.016V481.359H856.266V466.555H842.281V463.508H865.406C866.461 458.527 866.461 454.855 866.461 451.594V451.555H846.188V448.508H870.133ZM908.766 463.82V466.789H894.625V470.461H904.859V481.242H901.109V473.469H880.406V470.461H890.953V466.789H876.852V463.82H908.766ZM894.625 446.203V449.68H905.562V452.609H894.859C895.211 456.086 900.016 458.645 907.008 459.289L905.836 462.062C899.82 461.516 894.938 459.504 892.789 456.203C890.621 459.504 885.738 461.516 879.742 462.062L878.57 459.289C885.523 458.645 890.328 456.086 890.758 452.609H880.055V449.68H890.953V446.203H894.625ZM933.805 455.227C933.805 461.633 937.398 468 942.75 470.422L940.484 473.391C936.5 471.398 933.512 467.434 931.969 462.648C930.426 467.688 927.359 471.945 923.336 474.055L920.992 471.047C926.422 468.469 930.055 461.711 930.055 455.227V449.25H933.805V455.227ZM950.367 446.32V481.398H946.695V460.969H938.883V457.961H946.695V446.32H950.367ZM984.742 446.32V481.398H981.031V446.32H984.742ZM961.422 449.25V458.234H970.836V449.25H974.508V473H957.711V449.25H961.422ZM961.422 469.953H970.836V461.164H961.422V469.953ZM1008.1 451.281C1008.1 456.984 1014.2 462.375 1020.91 463.586L1019.2 466.672C1013.61 465.461 1008.45 461.789 1006.19 456.867C1003.88 461.75 998.746 465.422 993.141 466.672L991.5 463.586C998.141 462.336 1004.2 456.984 1004.2 451.281V448.625H1008.1V451.281ZM1022.36 473.625V476.711H990.328V473.625H1022.36ZM1064.7 446.32V481.32H1061.15V446.32H1064.7ZM1057.59 447.062V479.562H1054.08V461.75H1048.65V458.703H1054.08V447.062H1057.59ZM1045.21 456.086C1045.21 462.062 1047.63 468.039 1052.55 470.891L1050.33 473.625C1046.99 471.633 1044.68 468.098 1043.49 463.859C1042.22 468.43 1039.84 472.316 1036.42 474.445L1034.16 471.672C1039.12 468.664 1041.66 462.297 1041.66 456.086V453.273H1035.21V450.266H1051.23V453.273H1045.21V456.086ZM1085.02 468.312C1092.59 468.312 1097.36 470.695 1097.4 474.797C1097.36 478.859 1092.59 481.281 1085.02 481.242C1077.52 481.281 1072.71 478.859 1072.71 474.797C1072.71 470.695 1077.52 468.312 1085.02 468.312ZM1085.02 471.125C1079.7 471.125 1076.38 472.492 1076.42 474.797C1076.38 477.062 1079.7 478.391 1085.02 478.391C1090.37 478.391 1093.69 477.062 1093.73 474.797C1093.69 472.492 1090.37 471.125 1085.02 471.125ZM1097.12 448.039V450.969C1097.12 453.781 1097.12 456.672 1096.15 460.266L1092.52 459.875C1093.45 456.301 1093.45 453.723 1093.45 451.008H1072.98V448.039H1097.12ZM1101.11 462.414V465.422H1069.27V462.414H1082.05V455.852H1085.68V462.414H1101.11ZM1119.31 449.758L1116.19 460.539H1112.87L1114.94 449.758H1119.31ZM1111.46 449.758L1108.34 460.539H1105.02L1107.09 449.758H1111.46Z" fill="white"/>
<path d="M391.034 245C396.41 245 401.743 245.427 407.034 246.28C412.41 247.048 417.231 248.584 421.498 250.888C425.764 253.107 429.22 256.264 431.866 260.36C434.511 264.456 435.834 269.789 435.834 276.36C435.834 281.224 434.852 285.533 432.89 289.288C431.012 293.043 428.282 296.328 424.698 299.144C429.135 301.704 432.676 305.075 435.322 309.256C437.967 313.437 439.29 318.685 439.29 325C439.29 332.168 437.924 338.013 435.194 342.536C432.463 347.059 428.879 350.643 424.442 353.288C420.09 355.933 415.098 357.725 409.465 358.664C403.834 359.688 398.116 360.2 392.314 360.2H345.338V245H391.034ZM379.386 329.48H395.898C397.178 329.48 398.415 329.437 399.61 329.352C400.804 329.181 401.828 328.883 402.682 328.456C403.62 328.029 404.346 327.432 404.858 326.664C405.37 325.811 405.626 324.659 405.626 323.208C405.626 320.733 404.73 319.155 402.938 318.472C401.231 317.789 398.884 317.448 395.898 317.448H379.386V329.48ZM379.386 287.24H393.338C395.983 287.24 398.074 286.941 399.61 286.344C401.146 285.661 401.914 284.083 401.914 281.608C401.914 279.56 401.188 278.152 399.738 277.384C398.372 276.616 396.239 276.232 393.338 276.232H379.386V287.24ZM501.398 354.44C499.606 356.061 497.771 357.341 495.894 358.28C494.016 359.304 492.182 360.072 490.39 360.584C488.683 361.181 487.019 361.565 485.398 361.736C483.862 361.907 482.539 361.992 481.43 361.992C477.248 361.992 473.28 361.309 469.526 359.944C465.856 358.664 462.614 356.531 459.798 353.544C457.067 350.557 454.891 346.632 453.27 341.768C451.648 336.989 450.838 331.144 450.838 324.232V273.288H485.27V321.8C485.27 324.531 485.782 326.749 486.806 328.456C487.83 330.163 489.536 331.016 491.926 331.016C493.376 331.016 494.742 330.632 496.022 329.864C497.387 329.011 498.752 327.304 500.118 324.744V273.288H534.55V360.2H505.75L501.398 354.44ZM634.506 360.2H609.29L605.706 354.44C603.231 356.659 600.372 358.451 597.13 359.816C593.887 361.181 590.132 361.864 585.866 361.864C580.831 361.864 575.924 360.883 571.146 358.92C566.452 357.043 562.228 354.141 558.474 350.216C554.719 346.376 551.69 341.555 549.385 335.752C547.167 329.949 546.058 323.165 546.058 315.4C546.058 308.744 546.954 302.728 548.746 297.352C550.538 291.891 553.055 287.283 556.298 283.528C559.54 279.688 563.38 276.744 567.818 274.696C572.255 272.563 577.119 271.496 582.41 271.496C586.079 271.496 589.279 271.88 592.01 272.648C594.826 273.331 597.471 274.269 599.946 275.464V245H634.506V360.2ZM591.37 331.272C593.332 331.272 594.996 330.845 596.362 329.992C597.727 329.053 598.922 327.901 599.946 326.536V306.568C598.58 304.861 597.13 303.624 595.594 302.856C594.143 302.003 592.735 301.576 591.37 301.576C587.7 301.576 585.012 302.984 583.306 305.8C581.599 308.616 580.746 312.115 580.746 316.296C580.746 321.075 581.684 324.787 583.562 327.432C585.439 329.992 588.042 331.272 591.37 331.272ZM734.506 360.2H709.29L705.706 354.44C703.231 356.659 700.372 358.451 697.13 359.816C693.887 361.181 690.132 361.864 685.866 361.864C680.831 361.864 675.924 360.883 671.146 358.92C666.452 357.043 662.228 354.141 658.474 350.216C654.719 346.376 651.69 341.555 649.385 335.752C647.167 329.949 646.058 323.165 646.058 315.4C646.058 308.744 646.954 302.728 648.746 297.352C650.538 291.891 653.055 287.283 656.298 283.528C659.54 279.688 663.38 276.744 667.818 274.696C672.255 272.563 677.119 271.496 682.41 271.496C686.079 271.496 689.279 271.88 692.01 272.648C694.826 273.331 697.471 274.269 699.946 275.464V245H734.506V360.2ZM691.37 331.272C693.332 331.272 694.996 330.845 696.362 329.992C697.727 329.053 698.922 327.901 699.946 326.536V306.568C698.58 304.861 697.13 303.624 695.594 302.856C694.143 302.003 692.735 301.576 691.37 301.576C687.7 301.576 685.012 302.984 683.306 305.8C681.599 308.616 680.746 312.115 680.746 316.296C680.746 321.075 681.684 324.787 683.562 327.432C685.439 329.992 688.042 331.272 691.37 331.272ZM751.05 355.848C752.415 355.763 754.164 355.549 756.298 355.208C758.431 354.867 760.607 354.312 762.826 353.544C765.13 352.776 767.348 351.752 769.482 350.472C771.615 349.192 773.407 347.571 774.858 345.608L743.498 273.288H781.642L792.394 306.824L801.61 273.288H838.858L810.954 344.328C808.138 351.581 804.98 357.768 801.482 362.888C797.983 368.093 793.844 372.36 789.066 375.688C784.372 379.016 778.911 381.491 772.682 383.112C766.538 384.733 759.327 385.587 751.05 385.672V355.848ZM864.737 327.688C867.297 327.688 869.601 328.115 871.649 328.968C873.782 329.821 875.574 331.016 877.025 332.552C878.561 334.088 879.713 335.88 880.481 337.928C881.249 339.976 881.633 342.195 881.633 344.584C881.633 346.888 881.206 349.064 880.353 351.112C879.585 353.16 878.475 354.909 877.025 356.36C875.574 357.896 873.782 359.091 871.649 359.944C869.515 360.883 867.126 361.352 864.481 361.352C861.921 361.352 859.617 360.883 857.569 359.944C855.521 359.091 853.729 357.896 852.193 356.36C850.742 354.909 849.633 353.16 848.865 351.112C848.097 349.064 847.713 346.888 847.713 344.584C847.713 342.195 848.097 339.976 848.865 337.928C849.718 335.88 850.87 334.088 852.321 332.552C853.771 331.016 855.563 329.821 857.697 328.968C859.83 328.115 862.177 327.688 864.737 327.688Z" fill="#FBDE66"/>
</g>
<defs>
<filter id="filter0_d_131_1437" x="0.0999985" y="0.0999985" width="1292.8" height="756.8" filterUnits="userSpaceOnUse" color-interpolation-filters="sRGB">
<feFlood flood-opacity="0" result="BackgroundImageFix"/>
<feColorMatrix in="SourceAlpha" type="matrix" values="0 0 0 0 0 0 0 0 0 0 0 0 0 0 0 0 0 0 127 0" result="hardAlpha"/>
<feOffset dx="8" dy="8"/>
<feGaussianBlur stdDeviation="21.45"/>
<feComposite in2="hardAlpha" operator="out"/>
<feColorMatrix type="matrix" values="0 0 0 0 0 0 0 0 0 0 0 0 0 0 0 0 0 0 0.45 0"/>
<feBlend mode="normal" in2="BackgroundImageFix" result="effect1_dropShadow_131_1437"/>
<feBlend mode="normal" in="SourceGraphic" in2="effect1_dropShadow_131_1437" result="shape"/>
</filter>
</defs>
</svg>
