<svg width="1421" height="91" viewBox="0 0 1421 91" fill="none" xmlns="http://www.w3.org/2000/svg">
<path d="M21.1896 7.8C19.9096 8.632 18.8216 9.624 17.9256 10.776C17.0296 11.928 16.3256 13.176 15.8136 14.52C18.8856 15.096 21.2856 16.536 23.0136 18.84C24.7416 21.08 25.6056 23.736 25.6056 26.808C25.6056 28.6 25.2856 30.264 24.6456 31.8C24.0696 33.336 23.2376 34.68 22.1496 35.832C21.0616 36.984 19.7176 37.88 18.1176 38.52C16.5176 39.16 14.7576 39.48 12.8376 39.48C10.9176 39.48 9.1576 39.16 7.5576 38.52C6.0216 37.88 4.6776 36.984 3.5256 35.832C2.4376 34.68 1.6056 33.336 1.0296 31.8C0.453601 30.264 0.165601 28.6 0.165601 26.808C0.165601 24.056 0.549601 21.368 1.3176 18.744C2.0856 16.056 3.2376 13.592 4.7736 11.352C6.3096 9.04799 8.1976 7.064 10.4376 5.4C12.6776 3.672 15.2376 2.36 18.1176 1.464C19.0776 1.144 20.1016 1.016 21.1896 1.08C22.2776 1.144 23.0776 1.72 23.5896 2.808C23.8456 3.384 23.9096 3.928 23.7816 4.44C23.7176 4.952 23.5256 5.432 23.2056 5.88C22.9496 6.328 22.6296 6.712 22.2456 7.032C21.8616 7.352 21.5096 7.608 21.1896 7.8ZM50.4696 7.8C49.1896 8.632 48.1016 9.624 47.2056 10.776C46.3096 11.928 45.6056 13.176 45.0936 14.52C48.1656 15.096 50.5656 16.536 52.2936 18.84C54.0216 21.08 54.8856 23.736 54.8856 26.808C54.8856 28.6 54.5656 30.264 53.9256 31.8C53.3496 33.336 52.5176 34.68 51.4296 35.832C50.3416 36.984 48.9976 37.88 47.3976 38.52C45.7976 39.16 44.0376 39.48 42.1176 39.48C40.1976 39.48 38.4376 39.16 36.8376 38.52C35.3016 37.88 33.9576 36.984 32.8056 35.832C31.7176 34.68 30.8856 33.336 30.3096 31.8C29.7336 30.264 29.4456 28.6 29.4456 26.808C29.4456 24.056 29.8296 21.368 30.5976 18.744C31.3656 16.056 32.5176 13.592 34.0536 11.352C35.5896 9.04799 37.4776 7.064 39.7176 5.4C41.9576 3.672 44.5176 2.36 47.3976 1.464C48.3576 1.144 49.3816 1.016 50.4696 1.08C51.5576 1.144 52.3576 1.72 52.8696 2.808C53.1256 3.384 53.1896 3.928 53.0616 4.44C52.9976 4.952 52.8056 5.432 52.4856 5.88C52.2296 6.328 51.9096 6.712 51.5256 7.032C51.1416 7.352 50.7896 7.608 50.4696 7.8ZM104.798 2.99999H123.998V34.68H126.878V2.99999H146.078V89.4H126.878V55.704H123.998V89.4H104.798V2.99999ZM92.4141 57.72C92.4141 59.96 92.7981 61.784 93.5661 63.192C94.3981 64.536 95.3581 65.624 96.4461 66.456C97.5981 67.288 98.7501 67.864 99.9021 68.184C101.118 68.504 102.11 68.696 102.878 68.76V89.4C101.406 89.4 99.6461 89.24 97.5981 88.92C95.6141 88.6 93.5661 88.056 91.4541 87.288C89.3421 86.584 87.2941 85.656 85.3101 84.504C83.3901 83.416 81.8221 82.04 80.6061 80.376C79.3901 82.04 77.7901 83.416 75.8061 84.504C73.8861 85.656 71.8701 86.584 69.7581 87.288C67.6461 88.056 65.5661 88.6 63.5181 88.92C61.5341 89.24 59.8381 89.4 58.4301 89.4V68.76C59.1981 68.696 60.1581 68.504 61.3101 68.184C62.5261 67.864 63.6781 67.288 64.7661 66.456C65.9181 65.624 66.8781 64.536 67.6461 63.192C68.4781 61.784 68.8941 59.96 68.8941 57.72V2.99999H92.4141V57.72ZM150.878 2.99999H237.278V42.744H176.606V46.104H237.278V63.384H207.038V67.416H238.238V89.4H149.918V67.416H181.118V63.384H150.878V24.6H211.55V21.24H150.878V2.99999ZM310.142 2.99999C315.838 2.99999 320.318 4.504 323.582 7.512C326.846 10.456 328.478 15.032 328.478 21.24C328.478 27.448 326.846 32.024 323.582 34.968C320.318 37.912 315.838 39.384 310.142 39.384H260.318C254.686 39.384 250.238 37.912 246.974 34.968C243.71 32.024 242.078 27.448 242.078 21.24C242.078 15.032 243.71 10.456 246.974 7.512C250.238 4.504 254.686 2.99999 260.318 2.99999H310.142ZM267.998 68.376H328.478V89.4H242.078V62.52H267.998V68.376ZM298.238 59.64V65.496H272.318V59.64H241.118V42.264H329.438V59.64H298.238ZM301.886 22.776C302.334 22.776 302.718 22.68 303.038 22.488C303.358 22.232 303.518 21.816 303.518 21.24C303.518 20.6 303.358 20.184 303.038 19.992C302.718 19.736 302.334 19.608 301.886 19.608H268.67C268.222 19.608 267.838 19.736 267.518 19.992C267.198 20.184 267.038 20.6 267.038 21.24C267.038 21.816 267.198 22.232 267.518 22.488C267.838 22.68 268.222 22.776 268.67 22.776H301.886ZM441.784 59.64H411.544V66.456H442.744V89.4H354.424V66.456H385.624V59.64H355.384V2.99999H441.784V27.384H382.264V35.256H441.784V59.64ZM507.064 38.424H502.264V54.84C499.384 54.712 496.568 54.456 493.816 54.072C491.128 53.688 488.568 53.048 486.136 52.152C483.704 51.256 481.4 50.072 479.224 48.6C477.112 47.064 475.192 45.08 473.464 42.648C471.736 45.08 469.784 47.064 467.608 48.6C465.496 50.072 463.224 51.256 460.792 52.152C458.36 53.048 455.768 53.688 453.016 54.072C450.328 54.456 447.544 54.712 444.664 54.84V33.336C446.584 33.144 448.376 32.856 450.04 32.472C451.704 32.024 453.176 31.416 454.456 30.648C455.736 29.88 456.824 28.888 457.72 27.672C458.68 26.456 459.384 24.92 459.832 23.064H445.24V2.99999H501.688V17.4H507.064V2.99999H532.984V65.496H507.064V38.424ZM472.504 68.376H532.984V89.4H446.584V57.72H472.504V68.376ZM487.096 23.064C487.8 26.072 489.08 28.28 490.936 29.688C492.856 31.096 495.192 32.088 497.944 32.664V23.064H487.096ZM598.264 2.99999H624.184V34.68H628.984V55.704H624.184V89.4H598.264V2.99999ZM570.424 25.944H538.744V2.99999H595.384V61.56H570.424V25.944ZM536.824 89.4V66.36H542.584V38.52H566.584V66.36H595.384V89.4H536.824ZM650.131 65.688C655.315 65.368 659.859 64.696 663.763 63.672C667.667 62.584 670.899 60.952 673.459 58.776C676.083 56.6 678.035 53.816 679.315 50.424C680.659 46.968 681.331 42.68 681.331 37.56V25.944H651.091V2.99999H708.691V36.888C708.691 54.488 703.699 67.64 693.715 76.344C683.731 85.048 669.203 89.4 650.131 89.4V65.688ZM711.571 2.99999H737.491V89.4H711.571V2.99999ZM782.323 30.744C787.955 30.744 792.115 32.28 794.803 35.352C797.491 38.36 798.835 42.392 798.835 47.448C798.835 52.568 797.523 56.664 794.899 59.736C792.339 62.744 788.403 64.312 783.091 64.44V67.32H799.891V89.4H740.371V67.32H757.171V64.44C751.795 64.312 747.795 62.744 745.171 59.736C742.611 56.664 741.331 52.568 741.331 47.448C741.331 42.392 742.675 38.36 745.363 35.352C748.051 32.28 752.211 30.744 757.843 30.744H782.323ZM802.771 2.99999H828.691V89.4H802.771V2.99999ZM739.987 27.864V8.75999H757.171V1.08H783.091V8.75999H800.275V27.864H739.987ZM774.835 48.696C775.219 48.696 775.539 48.632 775.795 48.504C776.115 48.312 776.275 47.96 776.275 47.448C776.275 47 776.115 46.712 775.795 46.584C775.539 46.392 775.219 46.296 774.835 46.296H765.331C764.947 46.296 764.595 46.392 764.275 46.584C764.019 46.712 763.891 47 763.891 47.448C763.891 47.96 764.019 48.312 764.275 48.504C764.595 48.632 764.947 48.696 765.331 48.696H774.835ZM832.531 52.92V39.48H920.851V52.92H832.531ZM833.491 55.32H919.891V77.208H861.139V79.608H919.891V89.4H833.491V67.512H892.243V65.112H833.491V55.32ZM833.491 2.99999H919.891V24.888H861.139V27.288H919.891V37.08H833.491V15.192H892.243V12.792H833.491V2.99999ZM1017.74 56.76C1022.86 56.76 1026.86 58.104 1029.74 60.792C1032.68 63.416 1034.16 67.512 1034.16 73.08C1034.16 78.648 1032.68 82.744 1029.74 85.368C1026.86 88.056 1022.86 89.4 1017.74 89.4H962.253C957.133 89.4 953.101 88.056 950.157 85.368C947.277 82.744 945.837 78.648 945.837 73.08C945.837 67.512 947.277 63.416 950.157 60.792C953.101 58.104 957.133 56.76 962.253 56.76H1017.74ZM990.189 25.944C999.277 25.944 1003.82 30.552 1003.82 39.768C1003.82 49.176 999.277 53.88 990.189 53.88H959.085C949.997 53.88 945.453 49.176 945.453 39.768C945.453 30.552 949.997 25.944 959.085 25.944H990.189ZM1007.28 2.99999H1033.2V9.72H1038V25.944H1033.2V29.88H1038V46.104H1033.2V53.88H1007.28V2.99999ZM944.493 23.064V5.88H961.677V1.08H987.597V5.88H1004.78V23.064H944.493ZM1006.8 74.52C1007.18 74.52 1007.5 74.424 1007.76 74.232C1008.08 74.04 1008.24 73.656 1008.24 73.08C1008.24 72.504 1008.08 72.12 1007.76 71.928C1007.5 71.736 1007.18 71.64 1006.8 71.64H973.197C972.813 71.64 972.461 71.736 972.141 71.928C971.885 72.12 971.757 72.504 971.757 73.08C971.757 73.656 971.885 74.04 972.141 74.232C972.461 74.424 972.813 74.52 973.197 74.52H1006.8ZM979.245 41.016C979.629 41.016 979.981 40.952 980.301 40.824C980.621 40.696 980.781 40.344 980.781 39.768C980.781 39.256 980.621 38.936 980.301 38.808C979.981 38.68 979.629 38.616 979.245 38.616H970.029C969.645 38.616 969.293 38.68 968.973 38.808C968.653 38.936 968.493 39.256 968.493 39.768C968.493 40.344 968.653 40.696 968.973 40.824C969.293 40.952 969.645 41.016 970.029 41.016H979.245ZM1063.92 68.376H1124.4V89.4H1038V61.08H1063.92V68.376ZM1098.48 2.99999H1124.4V23.64H1129.2V44.664H1124.4V65.496H1098.48V2.99999ZM1081.39 28.344C1086 28.344 1089.42 29.656 1091.66 32.28C1093.9 34.904 1095.02 38.52 1095.02 43.128C1095.02 47.864 1093.9 51.576 1091.66 54.264C1089.42 56.888 1086 58.2 1081.39 58.2H1050.28C1045.68 58.2 1042.25 56.888 1040.01 54.264C1037.77 51.576 1036.65 47.864 1036.65 43.128C1036.65 38.52 1037.77 34.904 1040.01 32.28C1042.25 29.656 1045.68 28.344 1050.28 28.344H1081.39ZM1035.69 25.464V5.88H1052.88V1.08H1078.8V5.88H1095.98V25.464H1035.69ZM1070.44 44.376C1070.83 44.376 1071.18 44.312 1071.5 44.184C1071.82 44.056 1071.98 43.704 1071.98 43.128C1071.98 42.616 1071.82 42.296 1071.5 42.168C1071.18 42.04 1070.83 41.976 1070.44 41.976H1061.23C1060.84 41.976 1060.49 42.04 1060.17 42.168C1059.85 42.296 1059.69 42.616 1059.69 43.128C1059.69 43.704 1059.85 44.056 1060.17 44.184C1060.49 44.312 1060.84 44.376 1061.23 44.376H1070.44ZM1211.78 72.024H1207.27C1206.06 77.976 1203.14 82.52 1198.54 85.656C1193.93 88.792 1187.5 90.36 1179.24 90.36C1169.38 90.36 1162.09 88.184 1157.35 83.832C1152.68 79.544 1150.34 73.368 1150.34 65.304V27.192C1150.34 19.064 1152.68 12.856 1157.35 8.568C1162.09 4.216 1169.38 2.04 1179.24 2.04C1186.98 2.04 1193.13 3.448 1197.67 6.264C1202.28 9.016 1205.32 13.048 1206.79 18.36H1211.78V2.99999H1237.7V89.4H1211.78V72.024ZM1180.58 24.024C1180.58 23.64 1180.52 23.256 1180.39 22.872C1180.26 22.424 1179.85 22.2 1179.14 22.2C1178.44 22.2 1178.02 22.424 1177.9 22.872C1177.77 23.256 1177.7 23.64 1177.7 24.024V68.376C1177.7 68.76 1177.77 69.176 1177.9 69.624C1178.02 70.008 1178.44 70.2 1179.14 70.2C1179.85 70.2 1180.26 70.008 1180.39 69.624C1180.52 69.176 1180.58 68.76 1180.58 68.376V24.024ZM1207.94 51H1211.78V39.384H1207.94V51ZM1302.98 35.544H1298.18V48.6C1295.3 48.472 1292.49 48.216 1289.74 47.832C1287.05 47.448 1284.49 46.808 1282.06 45.912C1279.62 45.016 1277.32 43.832 1275.14 42.36C1273.03 40.824 1271.11 38.84 1269.38 36.408C1267.66 38.84 1265.7 40.824 1263.53 42.36C1261.42 43.832 1259.14 45.016 1256.71 45.912C1254.28 46.808 1251.69 47.448 1248.94 47.832C1246.25 48.216 1243.46 48.472 1240.58 48.6V29.016C1243.85 28.696 1246.66 28.056 1249.03 27.096C1251.4 26.136 1253.22 24.472 1254.5 22.104H1241.16V2.99999H1297.61V14.52H1302.98V2.99999H1328.9V48.12H1302.98V35.544ZM1311.53 51C1317.54 51 1322.25 52.568 1325.64 55.704C1329.1 58.84 1330.82 63.672 1330.82 70.2C1330.82 76.728 1329.1 81.56 1325.64 84.696C1322.25 87.832 1317.54 89.4 1311.53 89.4H1261.8C1255.78 89.4 1251.05 87.832 1247.59 84.696C1244.2 81.56 1242.5 76.728 1242.5 70.2C1242.5 63.672 1244.2 58.84 1247.59 55.704C1251.05 52.568 1255.78 51 1261.8 51H1311.53ZM1303.18 71.64C1303.62 71.64 1304.01 71.544 1304.33 71.352C1304.71 71.16 1304.9 70.776 1304.9 70.2C1304.9 69.624 1304.71 69.24 1304.33 69.048C1304.01 68.856 1303.62 68.76 1303.18 68.76H1270.15C1269.7 68.76 1269.29 68.856 1268.9 69.048C1268.58 69.24 1268.42 69.624 1268.42 70.2C1268.42 70.776 1268.58 71.16 1268.9 71.352C1269.29 71.544 1269.7 71.64 1270.15 71.64H1303.18ZM1284.26 22.104C1285.22 23.96 1286.5 25.368 1288.1 26.328C1289.77 27.224 1291.69 27.896 1293.86 28.344V22.104H1284.26ZM1360.39 3.096V61.08H1334.57V3.096H1360.39ZM1347.62 90.552C1345.7 90.552 1343.94 90.232 1342.34 89.592C1340.74 88.952 1339.4 88.056 1338.31 86.904C1337.22 85.752 1336.36 84.408 1335.72 82.872C1335.14 81.336 1334.86 79.672 1334.86 77.88C1334.86 76.152 1335.14 74.52 1335.72 72.984C1336.3 71.448 1337.13 70.136 1338.22 69.048C1339.37 67.896 1340.71 67 1342.25 66.36C1343.78 65.656 1345.51 65.304 1347.43 65.304C1349.42 65.304 1351.21 65.656 1352.81 66.36C1354.41 67 1355.75 67.896 1356.84 69.048C1357.93 70.136 1358.76 71.448 1359.34 72.984C1359.98 74.52 1360.3 76.152 1360.3 77.88C1360.3 79.672 1360.01 81.336 1359.43 82.872C1358.86 84.408 1357.99 85.752 1356.84 86.904C1355.75 88.056 1354.41 88.952 1352.81 89.592C1351.27 90.232 1349.54 90.552 1347.62 90.552ZM1399.82 32.28C1401.1 31.448 1402.19 30.456 1403.08 29.304C1403.98 28.152 1404.68 26.904 1405.19 25.56C1402.12 24.984 1399.72 23.576 1397.99 21.336C1396.27 19.032 1395.4 16.344 1395.4 13.272C1395.4 11.48 1395.69 9.816 1396.27 8.27999C1396.91 6.744 1397.77 5.4 1398.86 4.248C1399.95 3.09599 1401.29 2.2 1402.89 1.56C1404.49 0.919996 1406.25 0.599997 1408.17 0.599997C1410.09 0.599997 1411.82 0.919996 1413.35 1.56C1414.95 2.2 1416.3 3.09599 1417.39 4.248C1418.54 5.4 1419.4 6.744 1419.98 8.27999C1420.55 9.816 1420.84 11.48 1420.84 13.272C1420.84 16.024 1420.46 18.744 1419.69 21.432C1418.92 24.056 1417.77 26.52 1416.23 28.824C1414.7 31.064 1412.81 33.048 1410.57 34.776C1408.33 36.504 1405.77 37.784 1402.89 38.616C1401.93 38.936 1400.91 39.064 1399.82 39C1398.73 38.936 1397.93 38.36 1397.42 37.272C1397.16 36.696 1397.07 36.152 1397.13 35.64C1397.26 35.128 1397.45 34.648 1397.71 34.2C1398.03 33.752 1398.38 33.368 1398.76 33.048C1399.15 32.728 1399.5 32.472 1399.82 32.28ZM1370.54 32.28C1371.82 31.448 1372.91 30.456 1373.8 29.304C1374.7 28.152 1375.4 26.904 1375.91 25.56C1372.84 24.984 1370.44 23.576 1368.71 21.336C1366.99 19.032 1366.12 16.344 1366.12 13.272C1366.12 11.48 1366.41 9.816 1366.99 8.27999C1367.63 6.744 1368.49 5.4 1369.58 4.248C1370.67 3.09599 1372.01 2.2 1373.61 1.56C1375.21 0.919996 1376.97 0.599997 1378.89 0.599997C1380.81 0.599997 1382.54 0.919996 1384.07 1.56C1385.67 2.2 1387.02 3.09599 1388.11 4.248C1389.26 5.4 1390.12 6.744 1390.7 8.27999C1391.27 9.816 1391.56 11.48 1391.56 13.272C1391.56 16.024 1391.18 18.744 1390.41 21.432C1389.64 24.056 1388.49 26.52 1386.95 28.824C1385.42 31.064 1383.53 33.048 1381.29 34.776C1379.05 36.504 1376.49 37.784 1373.61 38.616C1372.65 38.936 1371.63 39.064 1370.54 39C1369.45 38.936 1368.65 38.36 1368.14 37.272C1367.88 36.696 1367.79 36.152 1367.85 35.64C1367.98 35.128 1368.17 34.648 1368.43 34.2C1368.75 33.752 1369.1 33.368 1369.48 33.048C1369.87 32.728 1370.22 32.472 1370.54 32.28Z" fill="#232323"/>
</svg>
