<svg width="699" height="87" viewBox="0 0 699 87" fill="none" xmlns="http://www.w3.org/2000/svg">
<path d="M43.0281 22.944V44.832C43.0281 48.16 43.4441 50.976 44.2761 53.28C45.1721 55.52 46.3561 57.376 47.8281 58.848C49.3641 60.256 51.1561 61.376 53.2041 62.208C55.2521 62.976 57.4601 63.584 59.8281 64.032V86.4C56.9481 86.08 54.1001 85.6 51.2841 84.96C48.4681 84.384 45.7801 83.552 43.2201 82.464C40.6601 81.376 38.2601 79.936 36.0201 78.144C33.7801 76.416 31.7961 74.24 30.0681 71.616C28.3401 74.24 26.3561 76.416 24.1161 78.144C21.8761 79.936 19.4761 81.376 16.9161 82.464C14.3561 83.552 11.6681 84.384 8.85213 84.96C6.03613 85.6 3.18813 86.08 0.308131 86.4V64.032C2.67613 63.584 4.88413 62.976 6.93213 62.208C8.98013 61.376 10.7401 60.256 12.2121 58.848C13.7481 57.376 14.9321 55.52 15.7641 53.28C16.6601 50.976 17.1081 48.16 17.1081 44.832V22.944H0.884131V-5.72205e-06H59.2521V22.944H43.0281ZM62.7081 -5.72205e-06H88.6281V86.4H62.7081V-5.72205e-06ZM92.4681 46.56V26.784H152.948V21.024H94.3881V-5.72205e-06H178.868V26.784H180.788V46.56H92.4681ZM93.4281 49.92H179.828V86.4H93.4281V49.92ZM119.348 69.6H153.908V66.72H119.348V69.6ZM264.334 -5.72205e-06V86.4H206.734V-5.72205e-06H233.614V24H237.454V-5.72205e-06H264.334ZM267.214 -5.72205e-06H293.134V31.68H297.934V52.704H293.134V86.4H267.214V-5.72205e-06ZM237.454 65.28V45.024H233.614V65.28H237.454ZM297.934 -5.72205e-06H384.334V39.744H323.662V43.104H384.334V60.384H354.094V64.416H385.294V86.4H296.974V64.416H328.174V60.384H297.934V21.6H358.606V18.24H297.934V-5.72205e-06Z" fill="#232323"/>
<path d="M443.977 -5.72205e-06C449.033 -5.72205e-06 453.769 0.479996 458.185 1.44C462.601 2.4 466.409 4.064 469.609 6.432C472.873 8.8 475.433 12.032 477.289 16.128C479.145 20.16 480.073 25.28 480.073 31.488C480.073 42.176 477.257 50.08 471.625 55.2C465.993 60.256 457.001 62.784 444.649 62.784H437.065V86.4H411.241V-5.72205e-06H443.977ZM437.065 23.424V39.168H441.673C446.217 39.168 449.481 38.656 451.465 37.632C453.449 36.608 454.441 34.528 454.441 31.392C454.441 29.536 454.121 28.096 453.481 27.072C452.905 25.984 452.041 25.184 450.889 24.672C449.801 24.096 448.457 23.744 446.857 23.616C445.321 23.488 443.593 23.424 441.673 23.424H437.065ZM511.577 -5.72205e-06V62.88H548.249V86.4H485.753V-5.72205e-06H511.577ZM603.376 -5.72205e-06L629.776 86.4H602.8L599.92 75.264H578.896L576.112 86.4H549.136L575.536 -5.72205e-06H603.376ZM584.656 52.992H594.256L589.456 34.368L584.656 52.992ZM646.553 -5.72205e-06L657.977 25.824L669.401 -5.72205e-06H698.681L670.841 52.512V86.4H645.113V52.512L617.273 -5.72205e-06H646.553Z" fill="#576238"/>
</svg>
