<svg width="1162" height="90" viewBox="0 0 1162 90" fill="none" xmlns="http://www.w3.org/2000/svg">
<path d="M21.2052 7.8C19.9252 8.632 18.8372 9.624 17.9412 10.776C17.0452 11.928 16.3412 13.176 15.8292 14.52C18.9012 15.096 21.3012 16.536 23.0292 18.84C24.7572 21.08 25.6212 23.736 25.6212 26.808C25.6212 28.6 25.3012 30.264 24.6612 31.8C24.0852 33.336 23.2532 34.68 22.1652 35.832C21.0772 36.984 19.7332 37.88 18.1332 38.52C16.5332 39.16 14.7732 39.48 12.8532 39.48C10.9332 39.48 9.17323 39.16 7.57323 38.52C6.03723 37.88 4.69323 36.984 3.54123 35.832C2.45323 34.68 1.62123 33.336 1.04523 31.8C0.469226 30.264 0.181226 28.6 0.181226 26.808C0.181226 24.056 0.565226 21.368 1.33323 18.744C2.10123 16.056 3.25323 13.592 4.78923 11.352C6.32523 9.04799 8.21323 7.064 10.4532 5.4C12.6932 3.672 15.2532 2.36 18.1332 1.464C19.0932 1.144 20.1172 1.016 21.2052 1.08C22.2932 1.144 23.0932 1.72 23.6052 2.808C23.8612 3.384 23.9252 3.928 23.7972 4.44C23.7332 4.952 23.5412 5.432 23.2212 5.88C22.9652 6.328 22.6452 6.712 22.2612 7.032C21.8772 7.352 21.5252 7.608 21.2052 7.8ZM50.4852 7.8C49.2052 8.632 48.1172 9.624 47.2212 10.776C46.3252 11.928 45.6212 13.176 45.1092 14.52C48.1812 15.096 50.5812 16.536 52.3092 18.84C54.0372 21.08 54.9012 23.736 54.9012 26.808C54.9012 28.6 54.5812 30.264 53.9412 31.8C53.3652 33.336 52.5332 34.68 51.4452 35.832C50.3572 36.984 49.0132 37.88 47.4132 38.52C45.8132 39.16 44.0532 39.48 42.1332 39.48C40.2132 39.48 38.4532 39.16 36.8532 38.52C35.3172 37.88 33.9732 36.984 32.8212 35.832C31.7332 34.68 30.9012 33.336 30.3252 31.8C29.7492 30.264 29.4612 28.6 29.4612 26.808C29.4612 24.056 29.8452 21.368 30.6132 18.744C31.3812 16.056 32.5332 13.592 34.0692 11.352C35.6052 9.04799 37.4932 7.064 39.7332 5.4C41.9732 3.672 44.5332 2.36 47.4132 1.464C48.3732 1.144 49.3972 1.016 50.4852 1.08C51.5732 1.144 52.3732 1.72 52.8852 2.808C53.1412 3.384 53.2052 3.928 53.0772 4.44C53.0132 4.952 52.8212 5.432 52.5012 5.88C52.2452 6.328 51.9252 6.712 51.5412 7.032C51.1572 7.352 50.8052 7.608 50.4852 7.8ZM101.934 89.4H59.6937V2.99999H101.934V89.4ZM104.814 2.99999H124.014V34.68H126.894V2.99999H146.094V89.4H126.894V55.704H124.014V89.4H104.814V2.99999ZM82.2537 24.12H79.3737V68.28H82.2537V24.12ZM150.894 47.16H237.294V74.424H176.622V76.824H237.294V89.4H150.894V62.04H211.566V59.64H150.894V47.16ZM211.374 2.99999H237.294V44.28H211.374V2.99999ZM207.534 24.024C207.534 31.128 205.006 36.28 199.95 39.48C194.958 42.68 187.598 44.28 177.87 44.28C168.014 44.28 160.558 42.68 155.502 39.48C150.51 36.28 148.014 31.128 148.014 24.024V22.392C148.014 15.288 150.542 10.136 155.598 6.936C160.654 3.672 168.078 2.04 177.87 2.04C187.534 2.04 194.894 3.672 199.95 6.936C205.006 10.136 207.534 15.288 207.534 22.392V24.024ZM179.694 19.512C179.694 19.064 179.566 18.616 179.31 18.168C179.118 17.656 178.606 17.4 177.774 17.4C176.942 17.4 176.398 17.656 176.142 18.168C175.95 18.616 175.854 19.064 175.854 19.512V26.808C175.854 27.256 175.95 27.736 176.142 28.248C176.398 28.696 176.942 28.92 177.774 28.92C178.606 28.92 179.118 28.696 179.31 28.248C179.566 27.736 179.694 27.256 179.694 26.808V19.512ZM284.334 89.4H242.094V2.99999H284.334V89.4ZM287.214 2.99999H306.414V34.68H309.294V2.99999H328.494V89.4H309.294V55.704H306.414V89.4H287.214V2.99999ZM264.654 24.12H261.774V68.28H264.654V24.12ZM333.294 47.16H419.694V74.424H359.022V76.824H419.694V89.4H333.294V62.04H393.966V59.64H333.294V47.16ZM393.774 2.99999H419.694V44.28H393.774V2.99999ZM389.934 24.024C389.934 31.128 387.406 36.28 382.35 39.48C377.358 42.68 369.998 44.28 360.27 44.28C350.414 44.28 342.958 42.68 337.902 39.48C332.91 36.28 330.414 31.128 330.414 24.024V22.392C330.414 15.288 332.942 10.136 337.998 6.936C343.054 3.672 350.478 2.04 360.27 2.04C369.934 2.04 377.294 3.672 382.35 6.936C387.406 10.136 389.934 15.288 389.934 22.392V24.024ZM362.094 19.512C362.094 19.064 361.966 18.616 361.71 18.168C361.518 17.656 361.006 17.4 360.174 17.4C359.342 17.4 358.798 17.656 358.542 18.168C358.35 18.616 358.254 19.064 358.254 19.512V26.808C358.254 27.256 358.35 27.736 358.542 28.248C358.798 28.696 359.342 28.92 360.174 28.92C361.006 28.92 361.518 28.696 361.71 28.248C361.966 27.736 362.094 27.256 362.094 26.808V19.512ZM491.72 2.99999H510.92V34.68H513.8V2.99999H533V89.4H513.8V55.704H510.92V89.4H491.72V2.99999ZM479.336 57.72C479.336 59.96 479.72 61.784 480.488 63.192C481.32 64.536 482.28 65.624 483.368 66.456C484.52 67.288 485.672 67.864 486.824 68.184C488.04 68.504 489.032 68.696 489.8 68.76V89.4C488.328 89.4 486.568 89.24 484.52 88.92C482.536 88.6 480.488 88.056 478.376 87.288C476.264 86.584 474.216 85.656 472.232 84.504C470.312 83.416 468.744 82.04 467.528 80.376C466.312 82.04 464.712 83.416 462.728 84.504C460.808 85.656 458.792 86.584 456.68 87.288C454.568 88.056 452.488 88.6 450.44 88.92C448.456 89.24 446.76 89.4 445.352 89.4V68.76C446.12 68.696 447.08 68.504 448.232 68.184C449.448 67.864 450.6 67.288 451.688 66.456C452.84 65.624 453.8 64.536 454.568 63.192C455.4 61.784 455.816 59.96 455.816 57.72V2.99999H479.336V57.72ZM537.8 2.99999H624.2V42.744H563.528V46.104H624.2V63.384H593.96V67.416H625.16V89.4H536.84V67.416H568.04V63.384H537.8V24.6H598.472V21.24H537.8V2.99999ZM689.48 38.424H683.528C681.672 42.84 678.536 46.2 674.12 48.504C669.768 50.808 664.04 51.96 656.936 51.96C647.08 51.96 639.784 49.816 635.048 45.528C630.376 41.176 628.04 34.968 628.04 26.904C628.104 18.904 630.472 12.76 635.144 8.472C639.88 4.184 647.144 2.04 656.936 2.04C664.488 2.04 670.504 3.352 674.984 5.976C679.464 8.6 682.536 12.408 684.2 17.4H689.48V2.99999H715.4V89.4H689.48V38.424ZM644.36 77.784H628.04V54.84H686.6V77.784H670.28V89.4H644.36V77.784ZM658.664 22.584C658.664 22.072 658.536 21.656 658.28 21.336C658.024 20.952 657.544 20.76 656.84 20.76C656.136 20.76 655.656 20.952 655.4 21.336C655.144 21.656 655.016 22.072 655.016 22.584V31.416C655.016 31.928 655.144 32.376 655.4 32.76C655.656 33.08 656.136 33.24 656.84 33.24C657.544 33.24 658.024 33.08 658.28 32.76C658.536 32.376 658.664 31.928 658.664 31.416V22.584ZM761 25.944V47.832C761 51.16 761.416 53.976 762.248 56.28C763.144 58.52 764.328 60.376 765.8 61.848C767.336 63.256 769.128 64.376 771.176 65.208C773.224 65.976 775.432 66.584 777.8 67.032V89.4C774.92 89.08 772.072 88.6 769.256 87.96C766.44 87.384 763.752 86.552 761.192 85.464C758.632 84.376 756.232 82.936 753.992 81.144C751.752 79.416 749.768 77.24 748.04 74.616C746.312 77.24 744.328 79.416 742.088 81.144C739.848 82.936 737.448 84.376 734.888 85.464C732.328 86.552 729.64 87.384 726.824 87.96C724.008 88.6 721.16 89.08 718.28 89.4V67.032C720.648 66.584 722.856 65.976 724.904 65.208C726.952 64.376 728.712 63.256 730.184 61.848C731.72 60.376 732.904 58.52 733.736 56.28C734.632 53.976 735.08 51.16 735.08 47.832V25.944H718.856V2.99999H777.224V25.944H761ZM780.68 2.99999H806.6V89.4H780.68V2.99999ZM810.44 57.72V38.424H898.76V57.72H810.44ZM837.32 68.376H897.8V89.4H811.4V60.6H837.32V68.376ZM837.32 15.48H897.8V35.544H811.4V2.99999H837.32V15.48ZM993.73 51C999.746 51 1004.45 52.568 1007.84 55.704C1011.3 58.84 1013.03 63.672 1013.03 70.2C1013.03 76.728 1011.3 81.56 1007.84 84.696C1004.45 87.832 999.746 89.4 993.73 89.4H944.002C937.986 89.4 933.25 87.832 929.794 84.696C926.402 81.56 924.706 76.728 924.706 70.2C924.706 63.672 926.402 58.84 929.794 55.704C933.25 52.568 937.986 51 944.002 51H993.73ZM969.826 2.99999H989.026V15H991.906V2.99999H1011.11V48.12H991.906V36.024H989.026V48.12H969.826V2.99999ZM957.442 16.44C957.442 18.68 957.826 20.504 958.594 21.912C959.426 23.256 960.386 24.344 961.474 25.176C962.626 26.008 963.778 26.584 964.93 26.904C966.146 27.224 967.138 27.416 967.906 27.48V48.12C966.434 48.12 964.674 47.96 962.626 47.64C960.642 47.32 958.594 46.808 956.482 46.104C954.37 45.4 952.322 44.472 950.338 43.32C948.418 42.168 946.85 40.76 945.634 39.096C944.418 40.76 942.818 42.168 940.834 43.32C938.914 44.472 936.898 45.4 934.786 46.104C932.674 46.808 930.594 47.32 928.546 47.64C926.562 47.96 924.866 48.12 923.458 48.12V27.48C924.226 27.416 925.186 27.224 926.338 26.904C927.554 26.584 928.706 26.008 929.794 25.176C930.946 24.344 931.906 23.256 932.674 21.912C933.506 20.504 933.922 18.68 933.922 16.44V2.99999H957.442V16.44ZM985.378 71.64C985.826 71.64 986.21 71.544 986.53 71.352C986.914 71.16 987.106 70.776 987.106 70.2C987.106 69.624 986.914 69.24 986.53 69.048C986.21 68.856 985.826 68.76 985.378 68.76H952.354C951.906 68.76 951.49 68.856 951.106 69.048C950.786 69.24 950.626 69.624 950.626 70.2C950.626 70.776 950.786 71.16 951.106 71.352C951.49 71.544 951.906 71.64 952.354 71.64H985.378ZM1015.91 57.624H1102.31V77.976H1041.63V80.376H1102.31V89.4H1015.91V69.048H1076.58V66.648H1015.91V57.624ZM1061.22 20.184C1064.87 20.184 1067.71 20.952 1069.76 22.488C1071.87 23.96 1072.93 26.52 1072.93 30.168C1072.93 33.944 1071.87 36.6 1069.76 38.136C1067.71 39.672 1064.87 40.44 1061.22 40.44H1057.19V42.648H1073.51V54.744H1013.99V42.648H1031.27V40.44H1026.75C1023.11 40.44 1020.23 39.672 1018.11 38.136C1016.07 36.6 1015.04 33.944 1015.04 30.168C1015.04 26.52 1016.07 23.96 1018.11 22.488C1020.23 20.952 1023.11 20.184 1026.75 20.184H1061.22ZM1076.39 2.99999H1102.31V17.4H1107.11V38.424H1102.31V54.744H1076.39V2.99999ZM1014.08 17.784V4.92H1031.07V1.08H1056.99V4.92H1073.89V17.784H1014.08ZM1048.45 31.224C1048.83 31.224 1049.15 31.192 1049.41 31.128C1049.73 31 1049.89 30.68 1049.89 30.168C1049.89 29.72 1049.73 29.464 1049.41 29.4C1049.15 29.272 1048.83 29.208 1048.45 29.208H1039.52C1039.14 29.208 1038.79 29.272 1038.47 29.4C1038.21 29.464 1038.08 29.72 1038.08 30.168C1038.08 30.68 1038.21 31 1038.47 31.128C1038.79 31.192 1039.14 31.224 1039.52 31.224H1048.45ZM1140.8 32.28C1142.08 31.448 1143.17 30.456 1144.07 29.304C1144.96 28.152 1145.67 26.904 1146.18 25.56C1143.11 24.984 1140.71 23.576 1138.98 21.336C1137.25 19.032 1136.39 16.344 1136.39 13.272C1136.39 11.48 1136.67 9.816 1137.25 8.27999C1137.89 6.744 1138.75 5.4 1139.84 4.248C1140.93 3.09599 1142.27 2.2 1143.87 1.56C1145.47 0.919996 1147.23 0.599997 1149.15 0.599997C1151.07 0.599997 1152.8 0.919996 1154.34 1.56C1155.94 2.2 1157.28 3.09599 1158.37 4.248C1159.52 5.4 1160.39 6.744 1160.96 8.27999C1161.54 9.816 1161.83 11.48 1161.83 13.272C1161.83 16.024 1161.44 18.744 1160.67 21.432C1159.91 24.056 1158.75 26.52 1157.22 28.824C1155.68 31.064 1153.79 33.048 1151.55 34.776C1149.31 36.504 1146.75 37.784 1143.87 38.616C1142.91 38.936 1141.89 39.064 1140.8 39C1139.71 38.936 1138.91 38.36 1138.4 37.272C1138.15 36.696 1138.05 36.152 1138.11 35.64C1138.24 35.128 1138.43 34.648 1138.69 34.2C1139.01 33.752 1139.36 33.368 1139.75 33.048C1140.13 32.728 1140.48 32.472 1140.8 32.28ZM1111.52 32.28C1112.8 31.448 1113.89 30.456 1114.79 29.304C1115.68 28.152 1116.39 26.904 1116.9 25.56C1113.83 24.984 1111.43 23.576 1109.7 21.336C1107.97 19.032 1107.11 16.344 1107.11 13.272C1107.11 11.48 1107.39 9.816 1107.97 8.27999C1108.61 6.744 1109.47 5.4 1110.56 4.248C1111.65 3.09599 1112.99 2.2 1114.59 1.56C1116.19 0.919996 1117.95 0.599997 1119.87 0.599997C1121.79 0.599997 1123.52 0.919996 1125.06 1.56C1126.66 2.2 1128 3.09599 1129.09 4.248C1130.24 5.4 1131.11 6.744 1131.68 8.27999C1132.26 9.816 1132.55 11.48 1132.55 13.272C1132.55 16.024 1132.16 18.744 1131.39 21.432C1130.63 24.056 1129.47 26.52 1127.94 28.824C1126.4 31.064 1124.51 33.048 1122.27 34.776C1120.03 36.504 1117.47 37.784 1114.59 38.616C1113.63 38.936 1112.61 39.064 1111.52 39C1110.43 38.936 1109.63 38.36 1109.12 37.272C1108.87 36.696 1108.77 36.152 1108.83 35.64C1108.96 35.128 1109.15 34.648 1109.41 34.2C1109.73 33.752 1110.08 33.368 1110.47 33.048C1110.85 32.728 1111.2 32.472 1111.52 32.28Z" fill="#232323"/>
</svg>
